<?xml version="1.0" standalone="no"?>
<!DOCTYPE svg PUBLIC "-//W3C//DTD SVG 20010904//EN"
 "http://www.w3.org/TR/2001/REC-SVG-20010904/DTD/svg10.dtd">
<svg version="1.0" xmlns="http://www.w3.org/2000/svg"
 width="1633.000000pt" height="980.000000pt" viewBox="0 0 1633.000000 980.000000"
 preserveAspectRatio="xMidYMid meet">

<g transform="translate(0.000000,980.000000) scale(0.100000,-0.100000)"
fill="#000000" stroke="none">
<path d="M9472 7770 c-126 -92 -374 -217 -595 -299 -206 -76 -385 -129 -830
-245 -76 -20 -202 -61 -280 -92 -176 -70 -546 -251 -691 -339 -561 -339 -959
-775 -1169 -1280 -39 -93 -94 -280 -116 -390 -159 -805 144 -1695 804 -2360
377 -380 828 -647 1293 -764 206 -51 324 -66 552 -66 220 0 333 13 524 61 465
117 917 415 1287 849 106 124 252 318 304 405 5 8 -52 -40 -126 -107 -270
-244 -493 -412 -739 -555 -458 -267 -862 -392 -1310 -405 -213 -6 -330 3 -514
42 -757 158 -1411 741 -1725 1538 -63 158 -92 259 -129 437 -49 235 -57 316
-56 565 1 203 4 248 28 385 14 85 31 169 36 185 4 17 21 71 36 120 64 213 178
448 302 625 287 408 696 723 1224 940 133 55 381 138 508 170 296 75 652 186
860 270 201 80 426 209 540 310 57 50 50 50 -18 0z"/>
<path d="M9527 7682 c-162 -383 -185 -659 -81 -970 14 -43 68 -165 119 -272
193 -402 217 -567 123 -859 -40 -127 -74 -194 -94 -187 -9 3 -67 9 -129 12
l-113 7 -7 41 -8 41 -11 -44 -12 -45 -89 -17 c-335 -64 -535 -245 -604 -544
-11 -49 -22 -101 -23 -115 -2 -16 -18 -34 -48 -54 -25 -16 -77 -62 -116 -101
-89 -90 -118 -155 -112 -257 3 -54 11 -82 46 -150 40 -78 83 -138 98 -138 3 0
-1 11 -10 25 -9 13 -25 47 -36 75 -73 184 -24 351 142 485 43 35 55 53 83 126
101 261 233 421 426 516 60 29 199 73 233 73 7 0 24 -29 40 -65 39 -89 81
-142 173 -214 43 -34 83 -66 90 -71 9 -7 10 -18 3 -36 -45 -117 61 -264 208
-289 23 -4 42 -9 42 -11 0 -13 -95 -109 -149 -151 -54 -43 -81 -113 -81 -209
0 -44 7 -103 15 -130 8 -27 15 -59 15 -72 0 -21 -3 -22 -37 -17 -100 16 -100
16 -78 3 11 -7 37 -30 59 -51 37 -35 38 -40 34 -88 -4 -40 -12 -57 -38 -84
-18 -19 -48 -41 -66 -50 -45 -21 -152 -19 -214 4 -47 18 -49 18 -40 1 5 -10
33 -30 62 -44 57 -28 123 -34 177 -15 18 6 34 9 37 6 3 -3 -2 -30 -11 -60 -17
-59 -12 -87 21 -105 13 -7 5 -15 -39 -40 -120 -68 -161 -128 -178 -264 -31
-247 -52 -311 -134 -419 -41 -54 -59 -109 -36 -109 14 0 70 61 113 123 71 105
99 184 118 342 13 113 35 176 78 226 38 44 117 93 207 129 162 64 341 163 460
256 238 184 357 389 356 614 0 164 -54 298 -200 500 -123 170 -199 242 -346
328 -66 38 -258 112 -293 112 -49 1 -46 16 31 131 168 253 237 453 237 688 0
196 -42 346 -198 706 -98 227 -143 352 -166 461 -23 108 -29 231 -17 318 6 44
10 81 8 82 -2 2 -20 -36 -40 -84z m904 -3287 l-11 -40 5 40 c3 22 6 76 7 120
l2 80 3 -80 c2 -44 -1 -98 -6 -120z"/>
<path d="M9280 7386 c-127 -100 -345 -222 -536 -302 -48 -20 -94 -40 -103 -45
-9 -4 -77 -34 -151 -65 -497 -208 -740 -347 -933 -533 -93 -90 -141 -154 -226
-301 -262 -455 -386 -849 -398 -1257 -10 -320 54 -601 204 -901 36 -72 68
-131 69 -129 2 2 -12 46 -30 98 -210 589 -196 1220 41 1794 38 94 146 315 150
311 3 -2 -8 -53 -22 -113 -32 -128 -44 -280 -33 -418 22 -290 163 -566 425
-833 100 -102 116 -115 80 -67 -216 294 -339 553 -397 836 -31 150 -41 336
-29 513 10 150 10 152 48 216 22 36 54 78 72 95 251 222 395 314 901 566 521
261 734 390 898 546 47 45 36 41 -30 -11z"/>
<path d="M8280 6499 c111 -44 283 -131 383 -193 48 -30 87 -51 87 -46 0 15
-111 123 -161 157 -88 61 -252 113 -354 112 -23 0 -13 -7 45 -30z"/>
<path d="M9460 6488 c0 -30 -89 -193 -137 -253 l-49 -60 -84 -6 c-102 -6 -127
-16 -179 -68 -79 -79 -122 -196 -167 -451 -46 -266 -70 -339 -111 -341 -72 -2
-190 4 -212 12 -24 9 -25 8 -7 -6 11 -8 36 -17 55 -20 20 -3 59 -12 87 -20 65
-19 98 -19 134 0 51 27 89 130 105 285 34 339 86 486 195 555 40 25 145 54
156 42 3 -3 -18 -34 -46 -69 -28 -34 -81 -107 -117 -161 -44 -67 -70 -97 -79
-93 -8 3 -21 9 -29 12 -22 9 -19 -19 4 -40 19 -18 19 -18 0 -63 -28 -65 -23
-72 14 -18 30 45 35 48 82 50 39 2 135 36 135 48 0 1 -35 0 -77 -1 -75 -4 -76
-3 -62 17 8 11 38 55 68 98 30 43 94 120 143 171 62 64 98 112 119 155 31 67
75 225 65 234 -3 4 -6 -1 -6 -9z"/>
<path d="M6988 6343 c-348 -411 -572 -897 -645 -1398 -21 -145 -23 -448 -5
-580 17 -117 73 -339 112 -438 40 -104 107 -236 165 -328 205 -319 517 -579
895 -743 72 -32 262 -98 266 -93 2 2 -34 23 -79 47 -647 342 -1055 852 -1178
1475 -100 510 8 1111 308 1710 39 77 87 168 107 203 20 34 52 90 72 125 19 34
43 70 51 80 9 9 14 20 11 23 -3 3 -39 -35 -80 -83z"/>
<path d="M8101 6150 c39 -74 129 -169 189 -200 50 -26 130 -29 165 -6 24 16
63 76 48 76 -5 0 -17 -7 -27 -15 -64 -49 -201 13 -360 164 l-49 46 34 -65z"/>
<path d="M8116 5162 c24 -42 59 -68 132 -96 53 -21 57 -24 54 -52 -6 -50 -29
-66 -94 -63 -45 2 -62 -2 -79 -17 -33 -30 -66 -95 -74 -144 l-6 -45 29 60 c16
34 44 73 62 88 28 24 37 27 80 21 88 -12 143 22 159 99 6 27 11 32 32 29 50
-6 67 6 88 63 12 31 21 58 21 61 0 3 -17 -13 -38 -36 -43 -44 -47 -45 -160
-30 -79 10 -163 41 -201 74 l-24 21 19 -33z"/>
<path d="M7930 4817 c0 -15 31 -82 48 -100 9 -11 31 -29 47 -40 25 -18 23 -14
-14 28 -23 28 -51 66 -62 85 -10 19 -18 31 -19 27z"/>
<path d="M8680 4708 c-28 -47 -25 -75 13 -113 34 -34 89 -55 142 -55 25 0 21
4 -30 25 -95 39 -135 99 -105 156 18 32 1 21 -20 -13z"/>
<path d="M7970 4388 c-24 -11 -23 -11 21 -19 62 -10 91 -30 122 -87 56 -104
56 -254 0 -366 -24 -48 -24 -50 -9 -115 22 -99 25 -126 27 -243 1 -60 2 -108
4 -108 1 0 22 30 46 68 88 135 261 281 397 333 78 30 198 37 256 15 57 -22
113 -77 142 -140 l24 -51 0 38 c0 52 -35 130 -71 156 -150 111 -420 41 -672
-173 -37 -31 -69 -56 -72 -56 -3 0 -5 24 -5 53 0 29 -9 84 -20 123 l-19 72 28
53 c16 30 34 78 41 108 44 191 -103 399 -240 339z"/>
<path d="M8780 4348 c1 -23 28 -50 47 -46 16 3 14 7 -14 31 -20 18 -33 24 -33
15z"/>
<path d="M9127 4331 c-9 -16 -17 -43 -17 -61 0 -58 79 -111 165 -110 26 1 22
4 -29 25 -72 30 -85 41 -102 82 -10 23 -11 39 -4 59 14 37 7 39 -13 5z"/>
<path d="M7826 4226 c-38 -51 -46 -78 -46 -168 0 -73 -2 -83 -29 -117 -103
-130 -171 -329 -171 -501 0 -433 357 -639 772 -447 83 38 226 129 278 177 32
29 32 30 5 12 -95 -62 -263 -132 -390 -163 -195 -47 -379 0 -475 121 -64 80
-110 224 -109 340 0 131 53 309 126 423 37 59 37 59 37 170 1 86 5 120 19 146
23 46 16 49 -17 7z"/>
<path d="M8470 4016 c0 -2 8 -10 18 -17 15 -13 16 -12 3 4 -13 16 -21 21 -21
13z"/>
</g>
</svg>
