<?xml version="1.0" standalone="no"?>
<!DOCTYPE svg PUBLIC "-//W3C//DTD SVG 20010904//EN"
 "http://www.w3.org/TR/2001/REC-SVG-20010904/DTD/svg10.dtd">
<svg version="1.0" xmlns="http://www.w3.org/2000/svg"
 width="238.000000pt" height="250.000000pt" viewBox="0 0 238.000000 250.000000"
 preserveAspectRatio="xMidYMid meet">

<g transform="translate(0.000000,250.000000) scale(0.100000,-0.100000)"
fill="#000000" stroke="none">
<path d="M596 1989 c4 -8 -1 -9 -16 -4 -15 5 -20 4 -16 -4 4 -6 1 -11 -8 -11
-22 0 -58 -82 -51 -119 8 -45 23 -66 66 -91 48 -26 97 -22 144 14 28 21 34 32
29 48 -4 14 -2 18 5 14 7 -5 11 8 11 39 0 35 -6 52 -24 70 -13 13 -22 26 -19
28 7 8 -59 27 -94 27 -22 0 -32 -4 -27 -11z m93 -24 c57 -29 66 -124 18 -173
-31 -31 -95 -40 -129 -18 -36 24 -62 86 -54 131 4 19 11 33 15 30 5 -3 12 2
15 10 12 33 88 45 135 20z"/>
<path d="M1641 1978 c-47 -32 -67 -87 -52 -139 31 -104 156 -130 226 -48 19
24 25 42 25 80 0 42 -5 55 -33 85 -28 30 -42 37 -83 41 -40 4 -55 0 -83 -19z
m130 -12 c19 -9 31 -15 26 -16 -4 0 -1 -10 7 -22 17 -28 28 -110 13 -101 -7 4
-8 -1 -3 -13 4 -10 4 -15 0 -12 -3 4 -15 -2 -27 -12 -35 -33 -84 -36 -134 -9
-23 13 -43 28 -44 34 -2 17 -2 59 0 83 0 13 12 34 25 47 13 13 22 25 21 27
-11 11 88 6 116 -6z"/>
<path d="M543 1699 c-17 -5 -46 -26 -63 -47 -36 -44 -72 -134 -63 -158 4 -12
3 -15 -6 -10 -8 5 -11 3 -10 -5 1 -8 -3 -27 -10 -44 -26 -61 -55 -161 -53
-178 1 -10 -2 -16 -7 -13 -4 3 -14 -19 -21 -48 -15 -62 -4 -92 36 -102 54 -14
82 14 104 105 21 82 21 32 1 -139 -13 -104 -18 -177 -13 -187 8 -12 11 -13 17
-2 5 7 4 14 -3 17 -7 2 -8 11 -2 26 4 13 11 54 14 92 3 38 15 138 26 223 24
179 23 217 -4 156 -9 -22 -21 -58 -26 -80 -37 -165 -41 -177 -74 -190 -19 -8
-35 -10 -42 -4 -6 5 -13 7 -15 5 -13 -13 -4 58 14 114 11 36 20 73 19 83 0 9
3 15 8 12 5 -3 12 9 15 27 12 54 61 201 79 236 9 18 14 32 12 32 -3 0 6 11 20
25 40 40 147 57 225 35 34 -10 97 -57 92 -69 -3 -7 29 -94 36 -101 4 -3 7 -12
7 -20 3 -26 48 -145 59 -152 5 -4 7 -8 3 -8 -4 0 8 -42 27 -94 19 -54 29 -97
24 -100 -5 -2 -4 -3 3 -2 7 2 12 11 12 20 -2 21 7 20 96 -9 41 -14 95 -25 121
-25 47 0 109 16 109 29 0 4 8 7 18 8 9 1 28 4 41 9 18 5 22 4 17 -5 -4 -6 -2
-18 4 -26 7 -8 9 -15 4 -15 -4 0 1 -7 12 -15 19 -14 18 -14 -3 -15 -13 0 -23
-4 -23 -8 0 -5 -6 -9 -12 -9 -7 0 -29 -7 -49 -15 l-36 -16 2 -103 c2 -57 5
-122 8 -144 3 -22 8 -73 12 -114 3 -40 10 -82 15 -91 7 -13 4 -22 -11 -36 -49
-45 -74 -17 -83 93 -8 100 -16 143 -26 143 -12 0 -19 -41 -25 -144 -5 -68 -10
-93 -23 -102 -22 -17 -24 -17 -47 0 -15 10 -18 23 -15 62 2 27 4 73 4 102 1
28 4 52 9 52 4 0 7 65 7 144 l0 144 -75 23 c-58 17 -75 26 -70 37 4 12 -1 14
-28 9 -20 -3 -40 0 -52 9 -10 8 -15 14 -11 14 5 0 1 11 -7 24 -9 13 -16 32
-16 42 0 17 -27 108 -53 177 -11 28 -28 37 -28 15 1 -7 9 -67 20 -133 11 -66
22 -131 24 -145 2 -14 7 -57 10 -95 3 -39 10 -85 15 -102 6 -21 5 -35 -2 -42
-7 -7 -74 -11 -194 -11 -128 0 -183 -3 -183 -11 0 -6 8 -9 18 -7 16 5 16 -5 8
-144 -9 -147 -9 -148 14 -168 30 -26 74 -26 100 0 11 11 20 22 19 25 0 3 2 68
6 145 6 108 11 140 21 140 11 0 14 -21 14 -94 0 -137 10 -216 27 -216 8 0 12
-4 9 -9 -12 -18 54 -24 79 -7 35 23 38 48 29 199 l-9 133 22 -4 c43 -8 48 29
24 198 -12 84 -24 156 -27 161 -3 5 -2 14 2 20 8 14 24 -8 24 -34 0 -29 31
-87 51 -98 13 -6 25 -6 39 1 18 10 31 -2 13 -13 -5 -2 -2 -2 5 -1 6 2 12 -1
12 -7 0 -6 7 -9 15 -5 8 3 15 1 15 -5 0 -5 6 -9 13 -8 6 1 25 -3 40 -9 16 -7
34 -12 41 -12 17 0 20 -122 5 -240 -20 -161 -20 -242 -2 -262 41 -46 103 -4
104 71 1 75 17 97 18 25 1 -47 6 -68 22 -88 26 -34 64 -32 90 4 17 24 16 31
-1 165 -10 77 -20 182 -22 233 -3 89 -2 92 19 92 12 0 28 6 35 13 7 6 20 14
28 16 8 2 35 9 59 16 52 14 79 43 87 96 4 22 11 39 16 39 6 0 7 -16 4 -37 -22
-139 -35 -287 -26 -298 5 -7 6 -16 2 -20 -4 -5 -2 -5 5 -1 7 4 10 13 7 20 -3
8 2 67 10 132 30 234 47 396 42 402 -6 6 -26 -43 -26 -64 0 -8 -4 -22 -9 -32
-13 -26 -39 -112 -47 -154 -10 -59 -55 -81 -86 -42 -18 22 -21 74 -6 74 4 0 7
3 6 8 -1 4 4 21 11 37 7 17 22 63 33 104 11 41 31 102 44 136 12 35 20 65 17
69 -4 3 -1 6 6 6 8 0 10 7 6 21 -5 14 -3 19 3 15 6 -3 15 8 21 24 6 20 7 30 0
30 -12 0 -57 -96 -61 -130 -2 -14 -5 -27 -8 -30 -8 -7 -90 -262 -90 -277 0 -7
-5 -13 -11 -13 -5 0 -8 -4 -4 -9 3 -6 -3 -9 -13 -8 -23 1 -82 -23 -82 -34 0
-13 -184 -6 -201 7 -11 9 -49 23 -79 28 -3 1 -10 5 -17 9 -6 4 -14 1 -17 -5
-4 -7 -4 -3 -2 10 2 12 -1 28 -8 35 -7 7 -11 18 -8 25 2 6 -1 12 -8 12 -6 0
-9 4 -6 9 7 10 -98 304 -121 341 -20 33 -62 70 -91 81 -29 11 -147 10 -189 -2z
m71 -869 c0 -8 -4 -74 -8 -147 l-8 -131 -30 -13 c-26 -11 -32 -10 -50 9 -21
20 -24 65 -13 192 1 14 3 44 3 68 l2 43 53 -3 c39 -2 52 -7 51 -18z m160 12
c3 -5 8 -67 11 -140 7 -147 1 -172 -43 -172 -40 1 -57 20 -58 65 -3 110 -5
241 -5 248 1 10 89 9 95 -1z"/>
<path d="M1632 1699 c-18 -6 -35 -16 -39 -24 -3 -8 -10 -12 -16 -8 -6 3 -7 1
-3 -6 5 -8 13 -7 29 4 12 8 29 15 39 15 10 0 18 4 18 8 0 4 35 4 78 -1 42 -4
83 -9 89 -9 7 -1 15 -10 19 -20 3 -10 10 -16 15 -12 5 3 15 -9 23 -26 10 -26
14 -29 20 -15 9 24 -50 80 -99 94 -48 13 -127 13 -173 0z"/>
<path d="M1906 1585 c-9 -23 -8 -27 6 -19 7 4 8 3 4 -4 -7 -12 41 -143 57
-153 5 -4 7 -12 3 -17 -4 -6 1 -28 10 -49 9 -21 22 -60 30 -86 8 -26 18 -46
22 -43 4 2 9 -15 10 -39 1 -33 -3 -45 -16 -50 -26 -11 -72 -16 -70 -7 1 4 -11
46 -27 95 -19 59 -32 83 -37 75 -6 -8 -7 -5 -3 10 7 23 -21 112 -35 112 -8 0
-7 -25 3 -95 4 -22 9 -58 11 -80 3 -22 10 -74 16 -115 7 -41 15 -102 20 -135
4 -33 11 -67 14 -76 13 -30 -21 -44 -102 -41 -41 2 -78 -1 -81 -7 -3 -5 -4
-77 -1 -159 5 -130 9 -154 25 -172 25 -28 82 -21 109 12 16 20 18 34 12 112
-3 49 -6 111 -6 138 0 29 -4 48 -11 48 -9 0 -10 -34 -5 -123 4 -68 4 -136 0
-151 -8 -35 -40 -48 -74 -31 -25 13 -25 15 -28 146 -2 74 -5 142 -8 152 -5 15
3 17 68 18 40 1 78 1 84 0 6 -1 16 9 23 22 10 18 8 52 -9 176 -24 180 -24 215
-1 145 25 -78 42 -97 81 -96 43 1 73 35 65 75 -4 25 -143 418 -150 425 -1 2
-5 -4 -9 -13z"/>
<path d="M1127 1354 c-35 -35 -42 -75 -21 -119 16 -34 50 -63 61 -51 3 2 16 1
29 -4 17 -7 27 -5 37 5 8 8 18 11 22 7 5 -4 4 -1 0 7 -6 11 -4 13 7 8 22 -8
40 38 34 88 -7 55 -43 85 -100 85 -33 0 -49 -6 -69 -26z m98 4 c4 -4 13 -4 20
-2 7 3 16 0 21 -7 5 -8 3 -10 -7 -4 -8 5 -7 0 4 -12 24 -28 22 -82 -5 -110
-12 -13 -28 -23 -35 -23 -8 0 -11 -5 -7 -11 4 -7 -1 -7 -16 1 -12 6 -28 9 -36
6 -10 -4 -12 -2 -8 6 5 8 2 9 -9 5 -9 -3 -16 -3 -15 1 1 4 -4 20 -11 37 -7 16
-9 40 -5 55 4 14 6 29 5 33 -1 5 8 11 19 14 11 3 18 8 16 12 -6 9 60 8 69 -1z"/>
<path d="M1545 860 c-3 -4 10 -8 28 -9 17 0 43 -2 57 -4 14 -2 34 0 45 4 20 6
20 4 13 -134 -5 -77 -6 -143 -3 -145 3 -3 -9 -14 -26 -24 -29 -18 -33 -18 -56
-2 l-26 16 7 144 c4 86 3 144 -3 144 -5 0 -12 -63 -16 -140 -6 -118 -5 -144 8
-164 27 -41 94 -39 117 3 5 11 13 83 17 161 3 77 10 140 15 140 4 0 8 5 8 10
0 12 -178 12 -185 0z m130 -320 c-3 -5 -12 -10 -18 -10 -7 0 -6 4 3 10 19 12
23 12 15 0z"/>
</g>
</svg>
