<?xml version="1.0" encoding="UTF-8"?>
<svg version="1.1" xmlns="http://www.w3.org/2000/svg" width="201" height="201">
<path d="M0 0 C1.40498754 1.0081971 2.80178279 2.02797634 4.1875 3.0625 C5.21875 3.784375 6.25 4.50625 7.3125 5.25 C15.51313877 12.39986054 19.67688914 22.85629835 20.4296875 33.48046875 C20.57485539 40.87596641 19.95693593 47.88134767 18.1875 55.0625 C18.05085938 55.73410156 17.91421875 56.40570313 17.7734375 57.09765625 C15.38400402 65.7816421 6.26969533 73.94758115 -0.8125 79.0625 C-3.3125 80.29296875 -3.3125 80.29296875 -5.8125 81.25 C-6.6375 81.57355469 -7.4625 81.89710938 -8.3125 82.23046875 C-18.589842 85.65089663 -32.19521583 85.80729772 -42.15625 81.45703125 C-56.91056941 73.71101356 -65.3955251 65.99038056 -70.6875 49.875 C-73.71488779 37.43296118 -70.8286276 25.10981396 -64.8125 14.0625 C-62.30078125 11.34375 -62.30078125 11.34375 -59.8125 9.0625 C-59.28527344 8.47726563 -58.75804688 7.89203125 -58.21484375 7.2890625 C-43.00272427 -9.3428548 -18.71946761 -12.01398667 0 0 Z M4.1875 14.0625 C3.919375 15.17625 3.65125 16.29 3.375 17.4375 C2.1875 21.0625 2.1875 21.0625 -0.8125 23.0625 C1.8275 23.3925 4.4675 23.7225 7.1875 24.0625 C7.5175 23.4025 7.8475 22.7425 8.1875 22.0625 C7.5275 22.0625 6.8675 22.0625 6.1875 22.0625 C5.8575 19.4225 5.5275 16.7825 5.1875 14.0625 C4.8575 14.0625 4.5275 14.0625 4.1875 14.0625 Z M-3.8125 27.0625 C-3.8125 28.7125 -3.8125 30.3625 -3.8125 32.0625 C1.54845333 33.19112175 6.74056686 33.15938221 12.1875 33.0625 C12.1875 31.0825 12.1875 29.1025 12.1875 27.0625 C6.9075 27.0625 1.6275 27.0625 -3.8125 27.0625 Z M-40.5 64.25 C-41.91435661 66.20315912 -42.40566505 67.70285727 -42.8125 70.0625 C-41.8225 70.3925 -40.8325 70.7225 -39.8125 71.0625 C-37.21744247 69.61232079 -36.03659548 68.71611183 -35.0625 65.875 C-34.98 65.276875 -34.8975 64.67875 -34.8125 64.0625 C-37.77632898 62.89263939 -37.77632898 62.89263939 -40.5 64.25 Z " fill="#8CD0F1" transform="translate(125.8125,53.9375)"/>
<path d="M0 0 C2.75186097 2.50228885 4.87278179 5.23179106 6.88671875 8.3515625 C8.12545828 10.1767657 8.12545828 10.1767657 10.04296875 11.86328125 C19.51634928 21.8698727 21.66909887 36.17386452 21.4375 49.375 C20.57476295 59.55529718 17.72846015 70.04401267 11.125 78.0625 C10.465 78.0625 9.805 78.0625 9.125 78.0625 C8.86203125 78.63484375 8.5990625 79.2071875 8.328125 79.796875 C2.5361841 90.70377669 -8.87835611 97.40512797 -20.375 101 C-21.86936928 101.37721943 -23.3688816 101.73532821 -24.875 102.0625 C-25.82375 102.289375 -26.7725 102.51625 -27.75 102.75 C-45.46972249 104.52197225 -59.8564958 100.2663731 -73.6484375 89.125 C-76.01014166 86.93731615 -77.89711857 84.59803968 -79.875 82.0625 C-81.01971551 80.89473652 -82.16551152 79.72803102 -83.3125 78.5625 C-92.85465374 67.70983588 -94.63290586 51.92873229 -93.875 38.0625 C-92.82190416 22.81654428 -83.09338024 8.839101 -71.875 -0.9375 C-50.75563215 -17.1174055 -20.58741694 -16.70215604 0 0 Z M-73.97265625 11.578125 C-81.5566444 22.13238286 -86.30235334 31.28266753 -86.125 44.5 C-86.11678223 45.24717285 -86.10856445 45.9943457 -86.10009766 46.76416016 C-85.82213452 60.47401947 -80.84792887 70.75626853 -71.35546875 80.7734375 C-60.58904842 90.70906319 -47.41613021 95.41503479 -32.91796875 95.203125 C-21.6786594 94.68372174 -11.23403869 89.58563482 -2.875 82.0625 C-2.875 81.4025 -2.875 80.7425 -2.875 80.0625 C-2.30910156 80.03027344 -1.74320312 79.99804688 -1.16015625 79.96484375 C2.34263639 78.58168973 3.78286155 75.71068238 5.6875 72.625 C6.08445068 71.98320801 6.48140137 71.34141602 6.89038086 70.68017578 C14.14018308 58.62082971 14.97408165 45.23244905 12.46875 31.453125 C10.35037598 24.40405283 6.5824699 18.84842768 2.125 13.0625 C1.135 11.5775 1.135 11.5775 0.125 10.0625 C-0.535 10.0625 -1.195 10.0625 -1.875 10.0625 C-2.23271484 9.16337891 -2.23271484 9.16337891 -2.59765625 8.24609375 C-5.04964363 4.05447007 -9.71770974 2.32013957 -13.875 0.0625 C-14.679375 -0.43121094 -15.48375 -0.92492187 -16.3125 -1.43359375 C-34.37785595 -11.39776664 -61.17515841 -3.76933982 -73.97265625 11.578125 Z " fill="#A46985" transform="translate(136.875,46.9375)"/>
<path d="M0 0 C1.17755859 0.02320313 1.17755859 0.02320313 2.37890625 0.046875 C4.4375 0.25 4.4375 0.25 6.4375 1.25 C6.4375 1.91 6.4375 2.57 6.4375 3.25 C7.18 3.45625 7.9225 3.6625 8.6875 3.875 C12.28700348 5.67475174 14.11983588 7.4991889 15.4375 11.25 C16.22840671 16.50919165 16.7095518 21.76744729 14.2265625 26.61328125 C11.5968761 29.83698311 9.60818794 31.58543983 5.4375 32.25 C-0.54380719 32.63851391 -5.97357387 32.66683292 -11.5625 30.25 C-10.7375 31.03375 -9.9125 31.8175 -9.0625 32.625 C-6.5625 35.25 -6.5625 35.25 -6.5625 37.25 C-8.5425 37.745 -8.5425 37.745 -10.5625 38.25 C-10.2325 49.14 -9.9025 60.03 -9.5625 71.25 C-6.0975 71.745 -6.0975 71.745 -2.5625 72.25 C-2.5625 73.57 -2.5625 74.89 -2.5625 76.25 C10.78528064 79.80940817 24.91257405 78.45173213 38.4375 76.25 C38.4375 75.59 38.4375 74.93 38.4375 74.25 C39.365625 74.023125 40.29375 73.79625 41.25 73.5625 C45.00135411 72.01782478 45.53580406 70.69116407 47.4375 67.25 C48.4275 67.25 49.4175 67.25 50.4375 67.25 C50.52 66.486875 50.6025 65.72375 50.6875 64.9375 C51.58365794 61.72626739 52.65361025 60.95625501 55.4375 59.25 C52.71643306 56.52893306 50.58973689 56.64344428 46.8125 56.125 C45.02972656 55.87363281 45.02972656 55.87363281 43.2109375 55.6171875 C41.83808594 55.43542969 41.83808594 55.43542969 40.4375 55.25 C40.4375 54.92 40.4375 54.59 40.4375 54.25 C45.7175 54.25 50.9975 54.25 56.4375 54.25 C56.64923321 49.74748062 56.85147824 45.24660526 57.02954102 40.74291992 C57.09296794 39.21110301 57.16194183 37.67950532 57.23657227 36.14819336 C57.34289597 33.94679322 57.42923827 31.74537513 57.51171875 29.54296875 C57.54907639 28.85849167 57.58643402 28.17401459 57.62492371 27.46879578 C57.75062881 23.65700121 57.75062881 23.65700121 56.06958008 20.3371582 C54.21344136 19.10075047 52.62569764 18.62727546 50.4375 18.25 C50.7675 15.94 51.0975 13.63 51.4375 11.25 C54.3528621 11.58638793 55.97204885 11.77390371 58.4375 13.25 C65.09898487 24.26707112 64.69716218 38.63449721 62.0390625 50.80859375 C61.84054688 51.61425781 61.64203125 52.41992188 61.4375 53.25 C61.30085938 53.92160156 61.16421875 54.59320313 61.0234375 55.28515625 C58.63400402 63.9691421 49.51969533 72.13508115 42.4375 77.25 C39.9375 78.48046875 39.9375 78.48046875 37.4375 79.4375 C36.6125 79.76105469 35.7875 80.08460938 34.9375 80.41796875 C24.660158 83.83839663 11.05478417 83.99479772 1.09375 79.64453125 C-13.66056941 71.89851356 -22.1455251 64.17788056 -27.4375 48.0625 C-30.46488779 35.62046118 -27.5786276 23.29731396 -21.5625 12.25 C-18.984375 9.3203125 -18.984375 9.3203125 -16.5625 7.25 C-15.9025 7.25 -15.2425 7.25 -14.5625 7.25 C-14.5625 8.24 -14.5625 9.23 -14.5625 10.25 C-13.758125 9.26 -12.95375 8.27 -12.125 7.25 C-11.279375 6.26 -10.43375 5.27 -9.5625 4.25 C-9.2325 4.25 -8.9025 4.25 -8.5625 4.25 C-8.27375 5.219375 -7.985 6.18875 -7.6875 7.1875 C-6.92035318 10.35664203 -6.92035318 10.35664203 -4.5625 11.25 C-4.2325 10.26 -3.9025 9.27 -3.5625 8.25 C-4.2225 8.91 -4.8825 9.57 -5.5625 10.25 C-7.5625 8.25 -7.5625 8.25 -7.875 5.8125 C-7.5625 3.25 -7.5625 3.25 -6.328125 1.60546875 C-4.07233646 -0.12629811 -2.81270455 -0.0926756 0 0 Z " fill="#98C5DA" transform="translate(82.5625,55.75)"/>
<path d="M0 0 C1.5 1.3125 1.5 1.3125 3 3 C3 3.99 3 4.98 3 6 C4.32 6 5.64 6 7 6 C6.67 6.66 6.34 7.32 6 8 C5.34 7.67 4.68 7.34 4 7 C4 8.98 4 10.96 4 13 C4.66 13 5.32 13 6 13 C6 13.66 6 14.32 6 15 C5.01 15.495 5.01 15.495 4 16 C4.66 16.66 5.32 17.32 6 18 C5.625 20.125 5.625 20.125 5 22 C3.68 21.34 2.36 20.68 1 20 C1.33 21.32 1.66 22.64 2 24 C-2.2403502 27.88698768 -7.39096352 28.89129015 -13 29.125 C-13.66 29.08375 -14.32 29.0425 -15 29 C-15 29.99 -15 30.98 -15 32 C-14.33991943 32.01981934 -13.67983887 32.03963867 -12.99975586 32.06005859 C-9.97863636 32.15593352 -6.95814992 32.26535753 -3.9375 32.375 C-2.37999023 32.42140625 -2.37999023 32.42140625 -0.79101562 32.46875 C4.80636091 32.68198339 9.7018472 33.15128285 15 35 C15.75 36.75 15.75 36.75 16 39 C15.35804687 39.49757812 14.71609375 39.99515625 14.0546875 40.5078125 C10.88192888 44.3561395 11.40240004 48.28204349 11.375 53.125 C11.34954079 54.94024133 11.31607877 56.7553935 11.2734375 58.5703125 C11.26747559 59.37227051 11.26151367 60.17422852 11.25537109 61.00048828 C11 63 11 63 9 65 C6.57432881 65.18713986 4.26502333 65.25585278 1.83984375 65.23046875 C1.13477188 65.23001053 0.42970001 65.22955231 -0.29673767 65.2290802 C-1.78711632 65.22605863 -3.27749184 65.2181751 -4.76782227 65.20581055 C-7.05691633 65.18754456 -9.34560627 65.18530091 -11.63476562 65.18554688 C-13.08073269 65.18063206 -14.52669699 65.1748039 -15.97265625 65.16796875 C-17.00544456 65.16629951 -17.00544456 65.16629951 -18.05909729 65.16459656 C-22.88394501 65.11605499 -22.88394501 65.11605499 -24 64 C-24.08843793 61.55169574 -24.11528752 59.13179401 -24.09765625 56.68359375 C-24.0962413 55.95253922 -24.09482635 55.22148468 -24.09336853 54.46827698 C-24.08775408 52.12464368 -24.07519922 49.78110461 -24.0625 47.4375 C-24.05748686 45.85221492 -24.05292363 44.26692834 -24.04882812 42.68164062 C-24.03777997 38.7877239 -24.02050572 34.89387795 -24 31 C-22.68 30.67 -21.36 30.34 -20 30 C-20.825 29.21625 -21.65 28.4325 -22.5 27.625 C-25 25 -25 25 -25 23 C-24.236875 23.165 -23.47375 23.33 -22.6875 23.5 C-16.091897 24.39431905 -9.03444025 25.25683728 -3 22 C-0.16864561 19.26511424 0.90179174 17.73611146 1.42578125 13.80859375 C1.38839844 12.69613281 1.35101563 11.58367187 1.3125 10.4375 C1.28800781 9.32246094 1.26351562 8.20742187 1.23828125 7.05859375 C1.04330491 4.55586463 0.71961406 2.392863 0 0 Z M-10.6875 55.1875 C-12.10185661 57.14065912 -12.59316505 58.64035727 -13 61 C-12.01 61.33 -11.02 61.66 -10 62 C-7.40494247 60.54982079 -6.22409548 59.65361183 -5.25 56.8125 C-5.1675 56.214375 -5.085 55.61625 -5 55 C-7.96382898 53.83013939 -7.96382898 53.83013939 -10.6875 55.1875 Z " fill="#476347" transform="translate(96,63)"/>
<path d="M0 0 C3.79406584 1.45067223 7.39737978 3.1236353 11 5 C11.825 5.4125 12.65 5.825 13.5 6.25 C22.37702657 12.4639186 28.25618451 24.0420619 30.4375 34.5 C32.42907665 49.80604976 30.68286844 64.0907666 22.3671875 77.33984375 C21.91601562 77.88769531 21.46484375 78.43554688 21 79 C20.34 79 19.68 79 19 79 C18.73703125 79.57234375 18.4740625 80.1446875 18.203125 80.734375 C12.4111841 91.64127669 0.99664389 98.34262797 -10.5 101.9375 C-11.99436928 102.31471943 -13.4938816 102.67282821 -15 103 C-15.94875 103.226875 -16.8975 103.45375 -17.875 103.6875 C-35.59472249 105.45947225 -49.9814958 101.2038731 -63.7734375 90.0625 C-66.13531731 87.87465344 -68.04965304 85.55721458 -70 83 C-70.5775 82.278125 -71.155 81.55625 -71.75 80.8125 C-73 79 -73 79 -73 77 C-73.94007965 75.00197139 -74.92626921 73.02547742 -75.9375 71.0625 C-78.89907021 65.30039059 -80.12319381 61.52927202 -80 55 C-79.01 54.505 -79.01 54.505 -78 54 C-77.67 55.32 -77.34 56.64 -77 58 C-76.34 57.01 -75.68 56.02 -75 55 C-73.81975671 57.36048658 -74.04589756 58.40233258 -74.25 61 C-74.30607562 69.74779693 -69.09070309 76.741744 -63.29296875 82.8984375 C-56.2309132 89.37098585 -48.10563356 93.25502781 -39 96 C-38.39929688 96.19207031 -37.79859375 96.38414062 -37.1796875 96.58203125 C-23.69114559 99.16854377 -9.74897946 96.45585141 1.94921875 89.3984375 C13.60738432 81.44867888 21.98308597 69.5351005 24.68359375 55.5703125 C26.45628846 41.16990362 24.15472168 28.09941351 16 16 C11.29117296 9.99603109 6.35714282 5.19300909 0 1 C0 0.67 0 0.34 0 0 Z " fill="#F9DAF0" transform="translate(127,46)"/>
<path d="M0 0 C0.58910156 0.42410156 1.17820312 0.84820312 1.78515625 1.28515625 C5.40402941 4.0504377 7.25132162 6.82260166 9 11 C8.34 11.66 7.68 12.32 7 13 C5.515 12.505 5.515 12.505 4 12 C3.505 14.475 3.505 14.475 3 17 C3.94875 17.103125 4.8975 17.20625 5.875 17.3125 C9 18 9 18 11 21 C11.15112305 24.06274414 11.15112305 24.06274414 11.01171875 27.78515625 C10.98906448 28.44204941 10.96641022 29.09894257 10.94306946 29.77574158 C10.89318398 31.16196065 10.83823068 32.54800536 10.77856445 33.93383789 C10.68769962 36.05783379 10.61304385 38.18193083 10.54101562 40.30664062 C10.15163951 50.69672097 10.15163951 50.69672097 9 53 C6.18743719 53.02684312 3.37512759 53.04676188 0.5625 53.0625 C-0.64116211 53.07506836 -0.64116211 53.07506836 -1.86914062 53.08789062 C-3.91295221 53.0965143 -5.95683902 53.0522815 -8 53 C-9.51810778 51.48189222 -9.21376189 50.06685075 -9.31640625 47.94921875 C-9.35862305 47.11060303 -9.40083984 46.2719873 -9.44433594 45.40795898 C-9.48333008 44.51020752 -9.52232422 43.61245605 -9.5625 42.6875 C-9.6027832 41.78136963 -9.64306641 40.87523926 -9.68457031 39.94165039 C-9.79689662 37.29466669 -9.89924826 34.64744566 -10 32 C-10.05542969 30.71609375 -10.11085937 29.4321875 -10.16796875 28.109375 C-10.19503906 27.06265625 -10.22210938 26.0159375 -10.25 24.9375 C-10.27578125 24.03902344 -10.3015625 23.14054687 -10.328125 22.21484375 C-9.92470338 19.49174782 -9.16364817 18.64750078 -7 17 C-4.8125 16.3125 -4.8125 16.3125 -3 16 C-3.0825 14.906875 -3.165 13.81375 -3.25 12.6875 C-3 9 -3 9 -1 7.0625 C-0.34 6.711875 0.32 6.36125 1 6 C0.236875 5.566875 -0.52625 5.13375 -1.3125 4.6875 C-3.59372631 3.25510208 -5.29629869 2.06237527 -7 0 C-7 -0.66 -7 -1.32 -7 -2 C-8.2684375 -2.4021875 -8.2684375 -2.4021875 -9.5625 -2.8125 C-13 -4 -13 -4 -16.1484375 -5.5546875 C-20.44653311 -7.40971489 -24.43944796 -7.40889391 -29.0625 -7.3125 C-29.83916016 -7.31572266 -30.61582031 -7.31894531 -31.41601562 -7.32226562 C-35.95587652 -7.27998072 -39.78001481 -6.86311359 -44 -5 C-44.33 -4.34 -44.66 -3.68 -45 -3 C-42.03 -2.505 -42.03 -2.505 -39 -2 C-38.67 -1.01 -38.34 -0.02 -38 1 C-36.00334686 2.68538601 -36.00334686 2.68538601 -34 4 C-34.33 4.66 -34.66 5.32 -35 6 C-35.66 5.34 -36.32 4.68 -37 4 C-39.57061311 3.35232207 -39.57061311 3.35232207 -42 3 C-41.67 2.01 -41.34 1.02 -41 0 C-42.79133978 -0.05391993 -44.58313899 -0.09275571 -46.375 -0.125 C-47.37273437 -0.14820313 -48.37046875 -0.17140625 -49.3984375 -0.1953125 C-52.16262173 -0.27216848 -52.16262173 -0.27216848 -54 2 C-54.16687448 4.58354218 -54.16687448 4.58354218 -54 7 C-51.67642489 7.18490007 -51.67642489 7.18490007 -49 5 C-49.99 7.475 -49.99 7.475 -51 10 C-51.99 10 -52.98 10 -54 10 C-56.1385485 7.8614515 -56.42655063 6.86724686 -57 4 C-57.61875 4.78375 -58.2375 5.5675 -58.875 6.375 C-61 9 -61 9 -63 11 C-63.45776819 5.62885327 -63.45776819 5.62885327 -61.453125 2.875 C-42.65284849 -13.12523532 -19.89434832 -14.93045634 0 0 Z M0 11 C-0.268125 12.11375 -0.53625 13.2275 -0.8125 14.375 C-2 18 -2 18 -5 20 C-2.36 20.33 0.28 20.66 3 21 C3.33 20.34 3.66 19.68 4 19 C3.34 19 2.68 19 2 19 C1.67 16.36 1.34 13.72 1 11 C0.67 11 0.34 11 0 11 Z M-8 24 C-8 25.65 -8 27.3 -8 29 C-2.63904667 30.12862175 2.55306686 30.09688221 8 30 C8 28.02 8 26.04 8 24 C2.72 24 -2.56 24 -8 24 Z " fill="#476452" transform="translate(130,57)"/>
<path d="M0 0 C1.17755859 0.02320313 1.17755859 0.02320313 2.37890625 0.046875 C4.4375 0.25 4.4375 0.25 6.4375 1.25 C6.4375 1.91 6.4375 2.57 6.4375 3.25 C7.18 3.45625 7.9225 3.6625 8.6875 3.875 C12.28700348 5.67475174 14.11983588 7.4991889 15.4375 11.25 C16.22840671 16.50919165 16.7095518 21.76744729 14.2265625 26.61328125 C11.59446391 29.83994018 9.60867502 31.57772271 5.4375 32.25 C-0.8104887 32.74077857 -6.24315894 32.97353874 -11.5625 29.25 C-13.34205431 27.27977915 -14.43542279 25.52003907 -15.5625 23.125 C-16.55060386 20.91622819 -16.55060386 20.91622819 -19.5625 19.25 C-19.2325 17.6 -18.9025 15.95 -18.5625 14.25 C-19.5525 14.58 -20.5425 14.91 -21.5625 15.25 C-21.02162682 11.46388773 -19.44527668 9.69599233 -16.5625 7.25 C-15.9025 7.25 -15.2425 7.25 -14.5625 7.25 C-14.5625 8.24 -14.5625 9.23 -14.5625 10.25 C-13.758125 9.26 -12.95375 8.27 -12.125 7.25 C-11.279375 6.26 -10.43375 5.27 -9.5625 4.25 C-9.2325 4.25 -8.9025 4.25 -8.5625 4.25 C-8.27375 5.219375 -7.985 6.18875 -7.6875 7.1875 C-6.92035318 10.35664203 -6.92035318 10.35664203 -4.5625 11.25 C-4.2325 10.26 -3.9025 9.27 -3.5625 8.25 C-4.2225 8.91 -4.8825 9.57 -5.5625 10.25 C-7.5625 8.25 -7.5625 8.25 -7.875 5.8125 C-7.5625 3.25 -7.5625 3.25 -6.328125 1.60546875 C-4.07233646 -0.12629811 -2.81270455 -0.0926756 0 0 Z " fill="#F7EAD9" transform="translate(82.5625,55.75)"/>
<path d="M0 0 C0 0.33 0 0.66 0 1 C-1.02738281 1.21914063 -2.05476563 1.43828125 -3.11328125 1.6640625 C-19.84720331 5.41309297 -32.95703113 12.74457141 -42.5390625 27.5 C-48.30669294 37.36974194 -49.4868583 47.83484839 -51 59 C-50.34 59 -49.68 59 -49 59 C-48.82984375 57.80503906 -48.6596875 56.61007813 -48.484375 55.37890625 C-46.01559519 38.84329727 -46.01559519 38.84329727 -42 32 C-41.50628906 31.11054687 -41.01257812 30.22109375 -40.50390625 29.3046875 C-32.98916567 16.56607414 -22.43036629 9.70857468 -8.66015625 4.8125 C-4.20988311 3.82460586 -0.10045578 3.77992599 4.4375 3.875 C5.67790039 3.88853516 5.67790039 3.88853516 6.94335938 3.90234375 C8.96236708 3.92568488 10.98122356 3.96154712 13 4 C13 4.33 13 4.66 13 5 C7.72 5 2.44 5 -3 5 C-3 5.66 -3 6.32 -3 7 C-3.82242188 7.21914063 -4.64484375 7.43828125 -5.4921875 7.6640625 C-13.5083508 9.94117124 -21.67023902 12.57789815 -27.6484375 18.68359375 C-29 20 -29 20 -31 20 C-31.27070312 20.57492188 -31.54140625 21.14984375 -31.8203125 21.7421875 C-33.01465189 24.02804236 -34.37989305 26.02565294 -35.875 28.125 C-40.44407684 34.88365889 -44.19977193 42.854065 -44.0625 51.15234375 C-44.05476563 51.92900391 -44.04703125 52.70566406 -44.0390625 53.50585938 C-44.01308357 55.12304788 -43.98704221 56.74023539 -43.9609375 58.35742188 C-43.92089001 62.38553153 -43.98295845 66.06690963 -45 70 C-47 68 -47 68 -48 65 C-48.99685007 73.77228061 -44.5410367 81.72901455 -40 89 C-42.59749455 88.65330052 -43.70312174 88.38059102 -45.34375 86.27734375 C-51.1588307 74.50966354 -54.08304533 62.1188233 -53 49 C-52.94070312 48.18660156 -52.88140625 47.37320313 -52.8203125 46.53515625 C-50.73167038 31.22693781 -40.39258388 17.19581764 -28.39453125 8.00390625 C-19.52933698 2.35216873 -10.5437326 -0.82337174 0 0 Z " fill="#9D527B" transform="translate(96,36)"/>
<path d="M0 0 C2.04119788 1.61594832 4.04072937 3.2856382 6 5 C6 5.66 6 6.32 6 7 C6.66 7 7.32 7 8 7 C11 11.38461538 11 11.38461538 11 14 C11.66 14.495 12.32 14.99 13 15.5 C13.66 15.995 14.32 16.49 15 17 C15 17.66 15 18.32 15 19 C13.68 19.33 12.36 19.66 11 20 C11 23.96 11 27.92 11 32 C10.34 32 9.68 32 9 32 C9 36.29 9 40.58 9 45 C8.34 45 7.68 45 7 45 C5.66666667 43 4.33333333 41 3 39 C1.98099609 38.33291016 1.98099609 38.33291016 0.94140625 37.65234375 C-1.6838843 35.41794153 -1.73878945 33.74255043 -2.1875 30.375 C-2.40953084 26.87764742 -2.40953084 26.87764742 -4 24 C-4.63338662 15.92432059 -4.10433005 8.52759825 -1 1 C-0.67 0.67 -0.34 0.34 0 0 Z " fill="#8ACDED" transform="translate(61,74)"/>
<path d="M0 0 C0.66 0 1.32 0 2 0 C11.15963716 14.31601247 15.38077242 28.69726595 12.30859375 45.86328125 C10.47078092 53.51442673 8.07345141 60.83938043 3 67 C2.34 67 1.68 67 1 67 C0.73703125 67.57234375 0.4740625 68.1446875 0.203125 68.734375 C-5.5888159 79.64127669 -17.00335611 86.34262797 -28.5 89.9375 C-29.99436928 90.31471943 -31.4938816 90.67282821 -33 91 C-33.94875 91.226875 -34.8975 91.45375 -35.875 91.6875 C-52.18168088 93.31816809 -66.48830442 90.07342716 -79.4375 79.875 C-82.08621934 77.68970026 -84.61420708 75.47017788 -87 73 C-86.67 72.01 -86.34 71.02 -86 70 C-85.13375 70.99 -84.2675 71.98 -83.375 73 C-72.81808253 83.51417691 -59.31758335 88.20591575 -44.6875 88.4375 C-29.16627217 88.32940709 -16.6986302 83.46957229 -5.25 72.8125 C5.38828365 61.54619602 10.66529318 47.42601982 10.47509766 31.97729492 C10.04483285 22.17985618 7.19112128 13.09274436 2.05078125 4.76953125 C1 3 1 3 0 0 Z " fill="#935E78" transform="translate(145,58)"/>
<path d="M0 0 C0.66 1.32 1.32 2.64 2 4 C2.66 3.01 3.32 2.02 4 1 C5.18024329 3.36048658 4.95410244 4.40233258 4.75 7 C4.69392438 15.74779693 9.90929691 22.741744 15.70703125 28.8984375 C22.7690868 35.37098585 30.89436644 39.25502781 40 42 C40.60070312 42.19207031 41.20140625 42.38414062 41.8203125 42.58203125 C52.84561814 44.69620276 63.64687831 42.966042 74 39 C74.99 38.67 75.98 38.34 77 38 C76.67 39.65 76.34 41.3 76 43 C61.01080773 48.47729049 44.87132199 49.59224182 30 43 C23.17419919 39.64930312 17.36118675 36.00830839 12.3046875 30.28515625 C11.06775164 28.76608193 11.06775164 28.76608193 9 29 C6 25.53846154 6 25.53846154 6 23 C5.05992035 21.00197139 4.07373079 19.02547742 3.0625 17.0625 C0.11991258 11.337324 -1.24110814 7.50991976 -1 1 C-0.67 0.67 -0.34 0.34 0 0 Z " fill="#E5ACC9" transform="translate(48,100)"/>
<path d="M0 0 C0.66 0.33 1.32 0.66 2 1 C1.814375 1.804375 1.62875 2.60875 1.4375 3.4375 C1.2209375 4.7059375 1.2209375 4.7059375 1 6 C1.33 6.33 1.66 6.66 2 7 C2.33 4.69 2.66 2.38 3 0 C3.33 0 3.66 0 4 0 C4.33 3.96 4.66 7.92 5 12 C4.67 11.34 4.34 10.68 4 10 C2.67532254 9.3162955 1.34136367 8.65035814 0 8 C-0.66 7.34 -1.32 6.68 -2 6 C-5.47533037 15.1641152 -6.94409766 24.79198991 -3 34 C-2.87625 35.216875 -2.7525 36.43375 -2.625 37.6875 C-2.315625 39.3271875 -2.315625 39.3271875 -2 41 C-0.0998823 42.24174796 -0.0998823 42.24174796 2 43 C3.4066413 45.29504633 4.14476306 47.43428919 5 50 C5.66 50 6.32 50 7 50 C7 45.71 7 41.42 7 37 C7.66 37 8.32 37 9 37 C9.33 43.93 9.66 50.86 10 58 C13.465 58.495 13.465 58.495 17 59 C17 60.32 17 61.64 17 63 C21.455 63.99 21.455 63.99 26 65 C26 65.66 26 66.32 26 67 C26.99 67.33 27.98 67.66 29 68 C23.1699893 67.52175694 19.04370794 65.84527541 14 62.9375 C12.94171997 62.33023071 12.94171997 62.33023071 11.86206055 61.71069336 C1.22530963 55.38156074 -4.0470216 46.43438038 -7.875 34.8125 C-10.65453053 23.48671181 -8.6836174 11.15166345 -3 1 C-2.01 0.67 -1.02 0.34 0 0 Z " fill="#9AD0EB" transform="translate(63,69)"/>
<path d="M0 0 C0.58910156 0.42410156 1.17820312 0.84820312 1.78515625 1.28515625 C5.40402941 4.0504377 7.25132162 6.82260166 9 11 C8.34 11.66 7.68 12.32 7 13 C4.875 12.625 4.875 12.625 3 12 C3 10.68 3 9.36 3 8 C1.68 7.67 0.36 7.34 -1 7 C-0.34 6.67 0.32 6.34 1 6 C0.236875 5.566875 -0.52625 5.13375 -1.3125 4.6875 C-3.59372631 3.25510208 -5.29629869 2.06237527 -7 0 C-7 -0.66 -7 -1.32 -7 -2 C-8.2684375 -2.4021875 -8.2684375 -2.4021875 -9.5625 -2.8125 C-13 -4 -13 -4 -16.1484375 -5.5546875 C-20.44653311 -7.40971489 -24.43944796 -7.40889391 -29.0625 -7.3125 C-29.83916016 -7.31572266 -30.61582031 -7.31894531 -31.41601562 -7.32226562 C-35.95587652 -7.27998072 -39.78001481 -6.86311359 -44 -5 C-44.33 -4.34 -44.66 -3.68 -45 -3 C-42.03 -2.505 -42.03 -2.505 -39 -2 C-38.67 -1.01 -38.34 -0.02 -38 1 C-36.00334686 2.68538601 -36.00334686 2.68538601 -34 4 C-34.33 4.66 -34.66 5.32 -35 6 C-35.66 5.34 -36.32 4.68 -37 4 C-39.57061311 3.35232207 -39.57061311 3.35232207 -42 3 C-41.67 2.01 -41.34 1.02 -41 0 C-42.79133978 -0.05391993 -44.58313899 -0.09275571 -46.375 -0.125 C-47.37273437 -0.14820313 -48.37046875 -0.17140625 -49.3984375 -0.1953125 C-52.16262173 -0.27216848 -52.16262173 -0.27216848 -54 2 C-54.16687448 4.58354218 -54.16687448 4.58354218 -54 7 C-51.67642489 7.18490007 -51.67642489 7.18490007 -49 5 C-49.99 7.475 -49.99 7.475 -51 10 C-51.99 10 -52.98 10 -54 10 C-56.1385485 7.8614515 -56.42655063 6.86724686 -57 4 C-57.61875 4.78375 -58.2375 5.5675 -58.875 6.375 C-61 9 -61 9 -63 11 C-63.45776819 5.62885327 -63.45776819 5.62885327 -61.453125 2.875 C-42.65284849 -13.12523532 -19.89434832 -14.93045634 0 0 Z " fill="#99BFD6" transform="translate(130,57)"/>
<path d="M0 0 C0.99 0.66 1.98 1.32 3 2 C1.25976562 2.03867187 1.25976562 2.03867187 -0.515625 2.078125 C-16.86959326 2.60278557 -30.74696477 6.44075884 -43.0546875 17.8515625 C-53.52455819 29.4146727 -57.26411563 43.69360509 -58 59 C-58.33 58.34 -58.66 57.68 -59 57 C-59.66 57 -60.32 57 -61 57 C-62.04159552 42.4176627 -57.05371113 28.34590359 -47.67578125 17.25 C-42.37641134 11.65945592 -36.85497785 7.48189351 -30 4 C-28.93652344 3.38125 -28.93652344 3.38125 -27.8515625 2.75 C-19.7821755 -1.32716396 -8.85295887 -1.2746547 0 0 Z " fill="#F7CBE7" transform="translate(106,38)"/>
<path d="M0 0 C6.27 0 12.54 0 19 0 C16.59563974 3.60654039 15.05320393 3.85452932 11 5 C10.67 7.64 10.34 10.28 10 13 C13.32534757 14.10844919 15.62182575 13.84454356 19 13 C19 12.34 19 11.68 19 11 C23.29 11 27.58 11 32 11 C32.495 12.98 32.495 12.98 33 15 C31.32326351 16.67673649 29.27144924 16.12787817 27.03344727 16.13894653 C26.34178467 16.1369223 25.65012207 16.13489807 24.9375 16.1328125 C24.23101318 16.13376923 23.52452637 16.13472595 22.79663086 16.13571167 C21.30029207 16.13639333 19.80395033 16.13454005 18.30761719 16.13037109 C16.00969843 16.12502257 13.71197514 16.13031651 11.4140625 16.13671875 C9.96354123 16.13605797 8.51302009 16.1347768 7.0625 16.1328125 C6.0250061 16.13584885 6.0250061 16.13584885 4.96655273 16.13894653 C0.11495224 16.11495224 0.11495224 16.11495224 -1 15 C-0.90904324 12.46201304 -0.76284826 9.96673229 -0.5625 7.4375 C-0.376875 4.983125 -0.19125 2.52875 0 0 Z " fill="#394823" transform="translate(73,112)"/>
<path d="M0 0 C5.28 0.33 10.56 0.66 16 1 C16 7.27 16 13.54 16 20 C11.05 20 6.1 20 1 20 C0.67 18.35 0.34 16.7 0 15 C1.98 15 3.96 15 6 15 C6 14.34 6 13.68 6 13 C4.02 13 2.04 13 0 13 C1.32 12.67 2.64 12.34 4 12 C4 11.34 4 10.68 4 10 C2.68 9.67 1.36 9.34 0 9 C1.32 9 2.64 9 4 9 C4 8.34 4 7.68 4 7 C2.68 6.67 1.36 6.34 0 6 C0 4.02 0 2.04 0 0 Z " fill="#92D171" transform="translate(122,89)"/>
<path d="M0 0 C2.6985174 1.3492587 2.91568503 2.76001363 4.125 5.5 C10.44837269 18.38571004 21.1434323 25.691029 34.4921875 30.2734375 C46.83485213 33.84934968 58.47819596 32.57291868 69.6875 26.5625 C71.27111328 25.66724609 71.27111328 25.66724609 72.88671875 24.75390625 C81.32516704 20 81.32516704 20 85 20 C75.76274935 29.43260036 63.14875229 35.09272637 49.91235352 35.38037109 C34.36008217 35.34059084 21.4524199 30.5882227 9.88671875 19.984375 C4.60059745 14.42464493 0.48413395 8.58557354 -1 1 C-0.67 0.67 -0.34 0.34 0 0 Z " fill="#A36F8A" transform="translate(53,109)"/>
<path d="M0 0 C1.52662453 1.70020575 2.40819646 3.41492607 3.33984375 5.4921875 C1.02289195 4.3337116 -1.29055138 3.1702836 -3.59765625 1.9921875 C-7.75420704 -0.04367411 -11.98703901 -1.65586137 -16.34765625 -3.1953125 C-17.11464844 -3.46730469 -17.88164063 -3.73929688 -18.671875 -4.01953125 C-20.71687798 -4.74929482 -20.71687798 -4.74929482 -22.66015625 -3.5078125 C-23.99603109 -4.16937174 -25.32899739 -4.83681451 -26.66015625 -5.5078125 C-28.87619788 -5.86789911 -28.87619788 -5.86789911 -31.20703125 -5.921875 C-32.47353516 -5.97988281 -32.47353516 -5.97988281 -33.765625 -6.0390625 C-35.07466797 -6.08546875 -35.07466797 -6.08546875 -36.41015625 -6.1328125 C-37.29832031 -6.17148437 -38.18648437 -6.21015625 -39.1015625 -6.25 C-41.28755605 -6.34402123 -43.47354687 -6.42967393 -45.66015625 -6.5078125 C-45.66015625 -6.8378125 -45.66015625 -7.1678125 -45.66015625 -7.5078125 C-40.38015625 -7.5078125 -35.10015625 -7.5078125 -29.66015625 -7.5078125 C-29.66015625 -8.1678125 -29.66015625 -8.8278125 -29.66015625 -9.5078125 C-35.93015625 -9.8378125 -42.20015625 -10.1678125 -48.66015625 -10.5078125 C-48.33015625 -11.4978125 -48.00015625 -12.4878125 -47.66015625 -13.5078125 C-30.50208077 -17.18454296 -13.02148068 -11.27042582 0 0 Z " fill="#C895AB" transform="translate(138.66015625,48.5078125)"/>
<path d="M0 0 C0 0.33 0 0.66 0 1 C-1.02738281 1.21914063 -2.05476563 1.43828125 -3.11328125 1.6640625 C-19.87319764 5.41891668 -32.87269301 12.75516442 -42.53515625 27.46484375 C-50.55782894 41.34941594 -51.60170351 56.04749959 -48.0625 71.48046875 C-46.38998497 77.02067478 -43.82043054 81.96713593 -41 87 C-40.67 87.66 -40.34 88.32 -40 89 C-42.59749455 88.65330052 -43.70312174 88.38059102 -45.34375 86.27734375 C-51.1588307 74.50966354 -54.08304533 62.1188233 -53 49 C-52.94070312 48.18660156 -52.88140625 47.37320313 -52.8203125 46.53515625 C-50.73167038 31.22693781 -40.39258388 17.19581764 -28.39453125 8.00390625 C-19.52933698 2.35216873 -10.5437326 -0.82337174 0 0 Z " fill="#955F7A" transform="translate(96,36)"/>
<path d="M0 0 C0.33 2.31 0.66 4.62 1 7 C1.53625 6.773125 2.0725 6.54625 2.625 6.3125 C6.06081901 5.86041855 8.05766694 7.32821985 11 9 C9 11 9 11 6 12 C6.2784375 12.928125 6.2784375 12.928125 6.5625 13.875 C7 16 7 16 6 18 C7.32 18.66 8.64 19.32 10 20 C11.15811388 18.94729537 11.15811388 18.94729537 12 17 C12.66 17 13.32 17 14 17 C13.34 16.34 12.68 15.68 12 15 C12.25 12.9375 12.25 12.9375 13 11 C13.66 10.67 14.32 10.34 15 10 C15.66 10.33 16.32 10.66 17 11 C17 10.34 17 9.68 17 9 C18.98 9 20.96 9 23 9 C23.33 9.66 23.66 10.32 24 11 C22.02 11 20.04 11 18 11 C17.67 11.66 17.34 12.32 17 13 C17.33 13.33 17.66 13.66 18 14 C17.71395102 15.67542976 17.38218767 17.34385343 17 19 C15.68 19 14.36 19 13 19 C12.67 20.65 12.34 22.3 12 24 C8.36971871 24.33770059 6.47293141 24.28595853 3.3125 22.375 C0.77739714 19.77138085 -0.4416445 17.25837968 -2 14 C-2.99 13.34 -3.98 12.68 -5 12 C-4.67 10.35 -4.34 8.7 -4 7 C-4.99 7.33 -5.98 7.66 -7 8 C-6.44414399 4.1090079 -4.34122117 0 0 0 Z " fill="#F7E7D3" transform="translate(68,63)"/>
<path d="M0 0 C0.28875 0.969375 0.5775 1.93875 0.875 2.9375 C1.64214682 6.10664203 1.64214682 6.10664203 4 7 C4.99 5.35 5.98 3.7 7 2 C9 3 11 4 13 5 C13 5.66 13 6.32 13 7 C12.34 7 11.68 7 11 7 C11 8.32 11 9.64 11 11 C12.98 10.67 14.96 10.34 17 10 C17 10.66 17 11.32 17 12 C15.02 12 13.04 12 11 12 C11 12.66 11 13.32 11 14 C9.68 14.33 8.36 14.66 7 15 C7.33 16.65 7.66 18.3 8 20 C7.34 20 6.68 20 6 20 C5.67 21.65 5.34 23.3 5 25 C4.01 24.67 3.02 24.34 2 24 C2 23.34 2 22.68 2 22 C1.34 21.67 0.68 21.34 0 21 C-0.40729228 18.67843403 -0.74438677 16.3431213 -1 14 C0.65 13.67 2.3 13.34 4 13 C3.38125 12.690625 2.7625 12.38125 2.125 12.0625 C0.75 11.375 -0.625 10.6875 -2 10 C-2.99 11.485 -2.99 11.485 -4 13 C-4.66 12.34 -5.32 11.68 -6 11 C-5.85123777 6.98341977 -5.57803586 4.7044812 -3 1.5625 C-1 0 -1 0 0 0 Z " fill="#F8EDDB" transform="translate(74,60)"/>
<path d="M0 0 C1.5 1.3125 1.5 1.3125 3 3 C3 3.99 3 4.98 3 6 C4.32 6 5.64 6 7 6 C6.67 6.66 6.34 7.32 6 8 C5.34 7.67 4.68 7.34 4 7 C4 8.98 4 10.96 4 13 C4.66 13 5.32 13 6 13 C6 13.66 6 14.32 6 15 C5.01 15.495 5.01 15.495 4 16 C4.66 16.66 5.32 17.32 6 18 C5.625 20.125 5.625 20.125 5 22 C3.68 21.34 2.36 20.68 1 20 C1.33 21.32 1.66 22.64 2 24 C-2.2403502 27.88698768 -7.39096352 28.89129015 -13 29.125 C-13.66 29.08375 -14.32 29.0425 -15 29 C-15 29.99 -15 30.98 -15 32 C-17.97 32.495 -17.97 32.495 -21 33 C-21.33 35.31 -21.66 37.62 -22 40 C-21.34 40 -20.68 40 -20 40 C-20 40.66 -20 41.32 -20 42 C-21.98 42.495 -21.98 42.495 -24 43 C-24 39.04 -24 35.08 -24 31 C-22.68 30.67 -21.36 30.34 -20 30 C-20.825 29.21625 -21.65 28.4325 -22.5 27.625 C-25 25 -25 25 -25 23 C-24.236875 23.165 -23.47375 23.33 -22.6875 23.5 C-16.091897 24.39431905 -9.03444025 25.25683728 -3 22 C-0.16864561 19.26511424 0.90179174 17.73611146 1.42578125 13.80859375 C1.38839844 12.69613281 1.35101563 11.58367187 1.3125 10.4375 C1.28800781 9.32246094 1.26351562 8.20742187 1.23828125 7.05859375 C1.04330491 4.55586463 0.71961406 2.392863 0 0 Z " fill="#7198A7" transform="translate(96,63)"/>
<path d="M0 0 C3.3125 0.5625 3.3125 0.5625 7 2 C10.7483269 8.17573311 10.44965305 14.37449203 10.375 21.4375 C10.38660156 22.53126953 10.39820313 23.62503906 10.41015625 24.75195312 C10.38681089 31.21472788 9.70273393 36.11547613 7 42 C6.67 42 6.34 42 6 42 C6.01571045 41.07662842 6.0314209 40.15325684 6.04760742 39.2019043 C6.09874832 35.77460111 6.13635535 32.34770358 6.16479492 28.92016602 C6.17987768 27.43702801 6.20034689 25.95393456 6.22631836 24.47094727 C6.26272616 22.33859255 6.27973073 20.20682765 6.29296875 18.07421875 C6.3086792 16.79119873 6.32438965 15.50817871 6.34057617 14.1862793 C6.27258027 11.04267577 6.27258027 11.04267577 4.6184082 9.10083008 C2.76910778 7.84294871 1.1935362 7.3781959 -1 7 C-0.67 4.69 -0.34 2.38 0 0 Z " fill="#97D0E9" transform="translate(134,67)"/>
<path d="M0 0 C0.928125 0.845625 1.85625 1.69125 2.8125 2.5625 C12.68977725 10.98606507 24.66445137 18.31252538 38.01171875 18.02734375 C38.93404297 18.01509766 39.85636719 18.00285156 40.80664062 17.99023438 C42.73900337 17.95486231 44.6713011 17.9157549 46.60351562 17.87304688 C47.52197266 17.86208984 48.44042969 17.85113281 49.38671875 17.83984375 C50.22420654 17.82300537 51.06169434 17.80616699 51.92456055 17.78881836 C54 18 54 18 56 20 C43.22108711 23.9319732 29.91285523 22.41767237 17.8125 16.8125 C12.36656067 13.88486268 7.63636381 10.06638881 3 6 C2.41089844 5.48695313 1.82179687 4.97390625 1.21484375 4.4453125 C0 3 0 3 0 0 Z " fill="#A26082" transform="translate(58,128)"/>
<path d="M0 0 C2.00720923 0.28674418 4.0085944 0.61866701 6 1 C4.93002992 4.20991023 4.3451533 4.78302285 1.8125 6.8125 C-1.6802089 9.69181994 -4.83867676 12.76157131 -8 16 C-9.32 15.34 -10.64 14.68 -12 14 C-10.68 12.02 -9.36 10.04 -8 8 C-14.93 7.67 -21.86 7.34 -29 7 C-29 6.34 -29 5.68 -29 5 C-20.42 5 -11.84 5 -3 5 C-2.34 3.68 -1.68 2.36 -1 1 C-0.67 0.67 -0.34 0.34 0 0 Z " fill="#DFB5AF" transform="translate(106,98)"/>
<path d="M0 0 C2.01362453 4.02724906 0.41158984 9.70117282 0 14 C-4.62 14 -9.24 14 -14 14 C-14.66 12.68 -15.32 11.36 -16 10 C-16.66 9.34 -17.32 8.68 -18 8 C-13.67671452 6.13047114 -10.72386781 6 -6 6 C-4.23682295 4.7187757 -4.23682295 4.7187757 -2.75 3 C-1.96882813 2.1646875 -1.96882813 2.1646875 -1.171875 1.3125 C-0.78515625 0.879375 -0.3984375 0.44625 0 0 Z " fill="#A7D284" transform="translate(105,108)"/>
<path d="M0 0 C2.29828295 2.06475943 2.94718316 2.65550099 3.43359375 5.828125 C3.44939231 19.66766737 0.87320941 31.19156626 -8 42 C-8.51304687 42.7115625 -9.02609375 43.423125 -9.5546875 44.15625 C-11.4028605 46.51391935 -13.32116363 47.69492587 -16 49 C-16.66 48.67 -17.32 48.34 -18 48 C-16 45 -16 45 -14.12890625 44.1875 C-8.44408598 41.01651768 -4.22858083 31.43175338 -2.0625 25.4375 C0.0625861 17.27771427 -0.22095491 8.38652056 0 0 Z " fill="#A4788F" transform="translate(150,82)"/>
<path d="M0 0 C6.27 0 12.54 0 19 0 C17 3 17 3 13.5 4.4375 C9.95246353 5.64397326 9.95246353 5.64397326 8.5625 8.1875 C8.376875 8.785625 8.19125 9.38375 8 10 C5.36 10 2.72 10 0 10 C0 6.7 0 3.4 0 0 Z " fill="#A5D583" transform="translate(73,112)"/>
<path d="M0 0 C1.19882813 0.00483398 1.19882813 0.00483398 2.421875 0.00976562 C3.246875 0.01814453 4.071875 0.02652344 4.921875 0.03515625 C5.76234375 0.03966797 6.6028125 0.04417969 7.46875 0.04882812 C9.53648901 0.06057664 11.60419124 0.07851103 13.671875 0.09765625 C13.671875 0.42765625 13.671875 0.75765625 13.671875 1.09765625 C8.391875 1.09765625 3.111875 1.09765625 -2.328125 1.09765625 C-2.328125 1.75765625 -2.328125 2.41765625 -2.328125 3.09765625 C-3.15054688 3.31679688 -3.97296875 3.5359375 -4.8203125 3.76171875 C-12.8364758 6.03882749 -20.99836402 8.6755544 -26.9765625 14.78125 C-28.328125 16.09765625 -28.328125 16.09765625 -30.328125 16.09765625 C-30.555 16.65453125 -30.781875 17.21140625 -31.015625 17.78515625 C-32.68709266 20.73012309 -34.88088852 22.77922169 -37.328125 25.09765625 C-36.35163208 18.21457199 -32.18818015 14.25470547 -26.76953125 10.16796875 C-18.8249499 4.91665682 -9.75497923 -0.06967842 0 0 Z " fill="#9F6D85" transform="translate(95.328125,39.90234375)"/>
<path d="M0 0 C9.57 0 19.14 0 29 0 C28.34 1.32 27.68 2.64 27 4 C18.09 4 9.18 4 0 4 C0 2.68 0 1.36 0 0 Z " fill="#A0D58D" transform="translate(75,98)"/>
<path d="M0 0 C0.66 0.33 1.32 0.66 2 1 C-6.63230896 9.81486535 -18.40769677 15.75400359 -30.8203125 16.109375 C-34.54910933 16.14178409 -38.27222437 16.08736974 -42 16 C-39.52537823 13.52537823 -37.96389476 13.73070236 -34.59106445 13.51977539 C-24.67597776 12.87202323 -17.27518287 9.84794527 -8.71728516 4.96142578 C-7.04220575 4.02362898 -5.32370999 3.16474847 -3.60546875 2.30859375 C-1.13298132 1.23782199 -1.13298132 1.23782199 0 0 Z " fill="#95627D" transform="translate(136,128)"/>
<path d="M0 0 C1.2065625 0.0309375 1.2065625 0.0309375 2.4375 0.0625 C2.4375 3.0325 2.4375 6.0025 2.4375 9.0625 C3.7575 9.0625 5.0775 9.0625 6.4375 9.0625 C7.0975 10.7125 7.7575 12.3625 8.4375 14.0625 C2.4975 14.0625 -3.4425 14.0625 -9.5625 14.0625 C-8.9025 12.4125 -8.2425 10.7625 -7.5625 9.0625 C-5.4375 8.25 -5.4375 8.25 -3.5625 8.0625 C-3.583125 6.928125 -3.60375 5.79375 -3.625 4.625 C-3.54537671 0.0864726 -3.54537671 0.0864726 0 0 Z M-0.5625 3.0625 C-0.830625 4.17625 -1.09875 5.29 -1.375 6.4375 C-2.5625 10.0625 -2.5625 10.0625 -5.5625 12.0625 C-2.9225 12.3925 -0.2825 12.7225 2.4375 13.0625 C2.7675 12.4025 3.0975 11.7425 3.4375 11.0625 C2.7775 11.0625 2.1175 11.0625 1.4375 11.0625 C1.1075 8.4225 0.7775 5.7825 0.4375 3.0625 C0.1075 3.0625 -0.2225 3.0625 -0.5625 3.0625 Z " fill="#425363" transform="translate(130.5625,64.9375)"/>
<path d="M0 0 C2.44315245 1.85028079 2.96807934 2.81688924 3.50390625 5.890625 C3.68162655 16.07992217 3.68162655 16.07992217 0.25 20.25 C-2.81362424 23.37551564 -5.43531337 23.90360813 -9.7265625 24.16796875 C-11.16128906 24.17763672 -11.16128906 24.17763672 -12.625 24.1875 C-14.06746094 24.20876953 -14.06746094 24.20876953 -15.5390625 24.23046875 C-18 24 -18 24 -20 22 C-18.35 22 -16.7 22 -15 22 C-14.34 20.68 -13.68 19.36 -13 18 C-12.67 18.66 -12.34 19.32 -12 20 C-12.33 20.66 -12.66 21.32 -13 22 C-10.36 22 -7.72 22 -5 22 C-4.80664062 21.41992188 -4.61328125 20.83984375 -4.4140625 20.2421875 C-4.02347656 19.07042969 -4.02347656 19.07042969 -3.625 17.875 C-3.21701172 16.6375 -3.21701172 16.6375 -2.80078125 15.375 C-2.17793373 13.5277254 -1.50497992 11.69731557 -0.8125 9.875 C0.1439075 6.49078885 0.13997691 3.49942277 0 0 Z " fill="#F3F0E6" transform="translate(95,64)"/>
<path d="M0 0 C0.67804688 0.08378906 1.35609375 0.16757812 2.0546875 0.25390625 C3.70859796 0.46313589 5.35559025 0.72593171 7 1 C7.33 1.99 7.66 2.98 8 4 C9.99665314 5.68538601 9.99665314 5.68538601 12 7 C11.67 7.66 11.34 8.32 11 9 C10.34 8.34 9.68 7.68 9 7 C6.42938689 6.35232207 6.42938689 6.35232207 4 6 C4.33 5.01 4.66 4.02 5 3 C3.20866022 2.94608007 1.41686101 2.90724429 -0.375 2.875 C-1.37273437 2.85179687 -2.37046875 2.82859375 -3.3984375 2.8046875 C-6.16262173 2.72783152 -6.16262173 2.72783152 -8 5 C-8.16687448 7.58354218 -8.16687448 7.58354218 -8 10 C-5.67642489 10.18490007 -5.67642489 10.18490007 -3 8 C-3.66 9.65 -4.32 11.3 -5 13 C-5.99 13 -6.98 13 -8 13 C-10.1385485 10.8614515 -10.42655063 9.86724686 -11 7 C-11.61875 7.78375 -12.2375 8.5675 -12.875 9.375 C-15 12 -15 12 -17 14 C-17.32619692 10.4424148 -17.4426563 8.61275108 -15.3125 5.6640625 C-9.94194868 0.92854258 -7.17454087 -1.04146561 0 0 Z " fill="#5E6758" transform="translate(84,54)"/>
<path d="M0 0 C0 0.99 0 1.98 0 3 C-0.66 3.66 -1.32 4.32 -2 5 C-2.36952049 7.12860662 -2.36952049 7.12860662 -2.4140625 9.5703125 C-2.45273438 10.46621094 -2.49140625 11.36210938 -2.53125 12.28515625 C-2.57765625 13.69087891 -2.57765625 13.69087891 -2.625 15.125 C-2.66367188 16.06988281 -2.70234375 17.01476562 -2.7421875 17.98828125 C-2.83661346 20.32532375 -2.92218394 22.66235501 -3 25 C-3.66 24.67 -4.32 24.34 -5 24 C-5 23.34 -5 22.68 -5 22 C-9.29 22 -13.58 22 -18 22 C-18 22.66 -18 23.32 -18 24 C-18.66 23.67 -19.32 23.34 -20 23 C-19 20 -19 20 -17 17 C-17 18.32 -17 19.64 -17 21 C-13.04 21 -9.08 21 -5 21 C-5 16.71 -5 12.42 -5 8 C-5.9075 8.969375 -6.815 9.93875 -7.75 10.9375 C-10.06181371 13.40693737 -11.64749299 14.42424336 -15 15 C-17 12 -17 12 -16.75 9.875 C-16 8 -16 8 -14 7 C-14.33 8.32 -14.66 9.64 -15 11 C-10.89045325 11.43479022 -10.89045325 11.43479022 -8.203125 8.59375 C-7.20839039 7.57248913 -6.22429311 6.5407803 -5.25 5.5 C-4.49009766 4.71302734 -4.49009766 4.71302734 -3.71484375 3.91015625 C-2.46734913 2.61558637 -1.23242693 1.3089224 0 0 Z " fill="#4D5439" transform="translate(110,101)"/>
<path d="M0 0 C0.66 0.33 1.32 0.66 2 1 C1.67 2.98 1.34 4.96 1 7 C1.66 7 2.32 7 3 7 C2.67 7.99 2.34 8.98 2 10 C-0.5 11.125 -0.5 11.125 -3 12 C-4.21864391 12.99920793 -4.21864391 12.99920793 -4.1328125 14.984375 C-4.10356764 25.33705664 -3.54615733 35.66368193 -3 46 C-3.66 46 -4.32 46 -5 46 C-6.51206671 42.97586658 -6.30192538 39.79686527 -6.421875 36.47265625 C-6.44977112 35.72793564 -6.47766724 34.98321503 -6.50640869 34.21592712 C-6.56281673 32.63989594 -6.61643291 31.06376274 -6.66748047 29.48754883 C-6.74957807 27.07489942 -6.85310221 24.66374728 -6.95703125 22.25195312 C-7.00914426 20.72139893 -7.05996838 19.1908002 -7.109375 17.66015625 C-7.14359558 16.93820572 -7.17781616 16.21625519 -7.21307373 15.47242737 C-7.33899929 10.4854398 -7.33899929 10.4854398 -5.61816406 8.02124023 C-4 7 -4 7 -2 7 C-1.34 4.69 -0.68 2.38 0 0 Z " fill="#9BCEE3" transform="translate(125,64)"/>
<path d="M0 0 C0.33 1.32 0.66 2.64 1 4 C-0.56020867 4.65134925 -2.12328579 5.29582964 -3.6875 5.9375 C-4.55761719 6.29714844 -5.42773438 6.65679687 -6.32421875 7.02734375 C-11.51528994 8.91431707 -16.3276071 9.13073312 -21.8125 9.0625 C-22.50537109 9.05798828 -23.19824219 9.05347656 -23.91210938 9.04882812 C-25.60811068 9.03713156 -27.30406703 9.01919924 -29 9 C-29 8.34 -29 7.68 -29 7 C-26.14027569 6.04675856 -23.53767159 5.70390087 -20.55273438 5.40380859 C-13.14727199 4.64650946 -6.7450159 3.34007999 0 0 Z " fill="#BF83A6" transform="translate(124,138)"/>
<path d="M0 0 C0.33 0 0.66 0 1 0 C1.33 6.27 1.66 12.54 2 19 C4.31 19.33 6.62 19.66 9 20 C9 21.32 9 22.64 9 24 C11.97 24.66 14.94 25.32 18 26 C18 26.66 18 27.32 18 28 C18.99 28.33 19.98 28.66 21 29 C15.16872207 28.52165298 11.04567489 26.84333255 6 23.9375 C5.29810547 23.53845459 4.59621094 23.13940918 3.87304688 22.72827148 C-1.32132295 19.65881602 -5.85986066 16.27999236 -9 11 C-9 10.34 -9 9.68 -9 9 C-8.34 9 -7.68 9 -7 9 C-6.01 10.485 -6.01 10.485 -5 12 C-2.525 12.99 -2.525 12.99 0 14 C0 9.38 0 4.76 0 0 Z " fill="#95ACB2" transform="translate(71,108)"/>
<path d="M0 0 C1.17755859 0.02320313 1.17755859 0.02320313 2.37890625 0.046875 C4.4375 0.25 4.4375 0.25 6.4375 1.25 C5.7775 3.89 5.1175 6.53 4.4375 9.25 C3.86 8.899375 3.2825 8.54875 2.6875 8.1875 C0.0412015 7.08487562 -0.93865122 7.20046049 -3.5625 8.25 C-4.2225 8.91 -4.8825 9.57 -5.5625 10.25 C-7.5625 8.25 -7.5625 8.25 -7.875 5.8125 C-7.5625 3.25 -7.5625 3.25 -6.328125 1.60546875 C-4.07233646 -0.12629811 -2.81270455 -0.0926756 0 0 Z " fill="#E3E188" transform="translate(82.5625,55.75)"/>
<path d="M0 0 C7.26 0 14.52 0 22 0 C21.34 1.32 20.68 2.64 20 4 C13.07 4 6.14 4 -1 4 C-0.67 2.68 -0.34 1.36 0 0 Z " fill="#D6D064" transform="translate(74,106)"/>
<path d="M0 0 C6.6 0 13.2 0 20 0 C19.67 1.65 19.34 3.3 19 5 C17.35 5.33 15.7 5.66 14 6 C14 6.66 14 7.32 14 8 C13.34 8 12.68 8 12 8 C11.67 9.98 11.34 11.96 11 14 C12.98 13.34 14.96 12.68 17 12 C17 12.99 17 13.98 17 15 C14.6875 16.125 14.6875 16.125 12 17 C11.01 16.34 10.02 15.68 9 15 C9 11.25 9 11.25 10 7 C12.64 5.68 15.28 4.36 18 3 C12.06 2.67 6.12 2.34 0 2 C0 1.34 0 0.68 0 0 Z " fill="#5B6D24" transform="translate(73,110)"/>
<path d="M0 0 C2.31 0.33 4.62 0.66 7 1 C9.125 7.625 9.125 7.625 8 11 C7.01 11.495 7.01 11.495 6 12 C8.97 12.33 11.94 12.66 15 13 C15.33 12.34 15.66 11.68 16 11 C16 11.99 16 12.98 16 14 C11.05 14 6.1 14 1 14 C0.67 12.35 0.34 10.7 0 9 C1.98 9 3.96 9 6 9 C6 8.34 6 7.68 6 7 C4.02 7 2.04 7 0 7 C1.32 6.67 2.64 6.34 4 6 C4 5.34 4 4.68 4 4 C2.68 3.67 1.36 3.34 0 3 C1.32 3 2.64 3 4 3 C4 2.34 4 1.68 4 1 C2.68 0.67 1.36 0.34 0 0 Z " fill="#9CD58C" transform="translate(122,95)"/>
<path d="M0 0 C3.79406584 1.45067223 7.39737978 3.1236353 11 5 C11.80824219 5.39960937 12.61648437 5.79921875 13.44921875 6.2109375 C16.64983163 8.45577778 17.94088625 10.77455729 19.8125 14.1875 C20.41707031 15.27417969 21.02164063 16.36085938 21.64453125 17.48046875 C22.31548828 18.72763672 22.31548828 18.72763672 23 20 C22.01 20.99 21.02 21.98 20 23 C19.41605469 21.96552734 19.41605469 21.96552734 18.8203125 20.91015625 C14.46048956 13.58685919 9.4942275 8.4497014 3 3 C1.98687261 2.01330202 0.98071269 1.01892228 0 0 Z " fill="#F3D3E8" transform="translate(127,46)"/>
<path d="M0 0 C0.66 0.33 1.32 0.66 2 1 C2 1.66 2 2.32 2 3 C-2.93961264 6.83148661 -7.80631635 6.44117504 -13.8203125 6.59375 C-16.98875608 6.71994179 -16.98875608 6.71994179 -18.9296875 8.53125 C-19.45949219 9.25828125 -19.45949219 9.25828125 -20 10 C-23.4375 9.1875 -23.4375 9.1875 -27 8 C-27.33 7.01 -27.66 6.02 -28 5 C-26.26393117 3.26393117 -23.86731003 3.82938668 -21.50390625 3.7890625 C-20.38822266 3.76070313 -19.27253906 3.73234375 -18.12304688 3.703125 C-15.75341208 3.65113082 -13.38359565 3.60683306 -11.01367188 3.5703125 C-9.33821289 3.52390625 -9.33821289 3.52390625 -7.62890625 3.4765625 C-6.59838135 3.45674316 -5.56785645 3.43692383 -4.50610352 3.41650391 C-3.67908936 3.27905762 -2.8520752 3.14161133 -2 3 C-1.34 2.01 -0.68 1.02 0 0 Z " fill="#98D0E2" transform="translate(107,124)"/>
<path d="M0 0 C11.83124516 -1.61335161 20.99819171 3.17192003 30.50390625 9.7265625 C33.51458838 12.17784858 35.40116301 14.50347798 37 18 C33.6640963 16.52494054 31.28886646 14.59203568 28.5625 12.1875 C20.27659255 5.46358983 10.43062128 2.57754317 0 1 C0 0.67 0 0.34 0 0 Z " fill="#9A637F" transform="translate(105,36)"/>
<path d="M0 0 C0.66 0.33 1.32 0.66 2 1 C1.814375 1.804375 1.62875 2.60875 1.4375 3.4375 C1.2209375 4.7059375 1.2209375 4.7059375 1 6 C1.33 6.33 1.66 6.66 2 7 C2.33 4.69 2.66 2.38 3 0 C3.33 0 3.66 0 4 0 C4.33 3.96 4.66 7.92 5 12 C4.67 11.34 4.34 10.68 4 10 C2.67532254 9.3162955 1.34136367 8.65035814 0 8 C-0.66 7.34 -1.32 6.68 -2 6 C-4.44408524 13.3549914 -6.47458553 20.2501365 -7 28 C-7.66 28 -8.32 28 -9 28 C-8.84014033 18.30669091 -7.76872919 9.64159885 -3 1 C-2.01 0.67 -1.02 0.34 0 0 Z " fill="#768C99" transform="translate(63,69)"/>
<path d="M0 0 C1.31427764 4.46656761 0.6065772 8.45673679 0 13 C-0.17313772 14.38135273 -0.34490434 15.76287771 -0.515625 17.14453125 C-1.00422487 21.09715087 -1.50063657 25.04872623 -2 29 C-2.33 28.34 -2.66 27.68 -3 27 C-3.66 27 -4.32 27 -5 27 C-5.62372913 18.26779216 -3.95532354 7.91064707 0 0 Z " fill="#D188AD" transform="translate(50,68)"/>
<path d="M0 0 C0.33 0 0.66 0 1 0 C1.09796875 1.16015625 1.1959375 2.3203125 1.296875 3.515625 C2.50569098 16.60200563 5.01825931 27.66897823 12 39 C9.40250545 38.65330052 8.29687826 38.38059102 6.65625 36.27734375 C0.90295153 24.63468908 -2.25212082 12.92521516 0 0 Z " fill="#984A68" transform="translate(44,86)"/>
<path d="M0 0 C4.70440347 1.58849987 9.17837997 2.95821423 14.125 3.625 C13.135 3.955 12.145 4.285 11.125 4.625 C11.125 5.285 11.125 5.945 11.125 6.625 C3.21636132 6.22956807 -6.08126249 4.41873751 -11.875 -1.375 C-7.69683505 -3.17182741 -4.04151806 -1.39413834 0 0 Z " fill="#E5A6C8" transform="translate(83.875,140.375)"/>
<path d="M0 0 C3.3125 0.5625 3.3125 0.5625 7 2 C8.97117504 5.32635788 10.18674565 7.54338396 9.6875 11.4375 C9.460625 11.953125 9.23375 12.46875 9 13 C8.67 12.34 8.34 11.68 8 11 C7.34 11 6.68 11 6 11 C5.54625 10.525625 5.0925 10.05125 4.625 9.5625 C2.77022513 7.77906263 1.49864408 7.4308007 -1 7 C-0.67 4.69 -0.34 2.38 0 0 Z " fill="#98CBE0" transform="translate(134,67)"/>
<path d="M0 0 C8.41315088 1.70866701 15.16103028 4.7635195 22 10 C22.33 10.66 22.66 11.32 23 12 C17.29550545 10.73233455 12.035417 8.1771929 6.6875 5.875 C5.71973633 5.45927734 5.71973633 5.45927734 4.73242188 5.03515625 C3.15470995 4.35732446 1.57732174 3.67873926 0 3 C0 2.01 0 1.02 0 0 Z " fill="#D79CBC" transform="translate(113,38)"/>
<path d="M0 0 C2.70998367 1.35499183 2.95948475 2.8172782 4.1875 5.5625 C6.39233285 10.16303182 8.99069001 13.57744414 12.546875 17.2109375 C14.12435834 19.15310785 14.59090622 20.55620293 15 23 C8.22877862 20.24919131 3.76580582 12.81322068 0.4375 6.5625 C-1 3 -1 3 0 0 Z " fill="#A06D83" transform="translate(53,109)"/>
<path d="M0 0 C0.33 0 0.66 0 1 0 C3.1934995 9.37062985 3.0409029 20.81224524 0 30 C-1.57421875 31.80078125 -1.57421875 31.80078125 -3 33 C-3.66 32.67 -4.32 32.34 -5 32 C-4 29 -4 29 -2.4453125 25.95703125 C-0.41716988 21.27111 -0.70699656 16.70934186 -0.875 11.6875 C-0.91826019 9.89983623 -0.95752372 8.11206986 -0.9921875 6.32421875 C-1.01651855 5.54135498 -1.04084961 4.75849121 -1.06591797 3.9519043 C-1 2 -1 2 0 0 Z " fill="#92B3D2" transform="translate(144,79)"/>
<path d="M0 0 C0.33 0 0.66 0 1 0 C1.04898438 0.66386719 1.09796875 1.32773438 1.1484375 2.01171875 C1.55603192 7.43937323 1.55603192 7.43937323 3.0625 12.625 C4.19154888 15.48525716 4.02978524 17.95644874 3.9375 20.99609375 C4.02760732 23.88515972 4.93475576 26.33688939 6 29 C0.61870618 24.40283757 -1.26553922 15.79376223 -2 9 C-1.34 9 -0.68 9 0 9 C0 6.03 0 3.06 0 0 Z " fill="#99BBD3" transform="translate(56,88)"/>
<path d="M0 0 C0.66 0.33 1.32 0.66 2 1 C2.66796875 3.765625 2.66796875 3.765625 3.1875 7.25 C3.36667969 8.38953125 3.54585937 9.5290625 3.73046875 10.703125 C3.98154801 13.77429741 3.78385311 16.0424833 3 19 C1 17 1 17 0 14 C-0.66 14.99 -1.32 15.98 -2 17 C-2.33 14.03 -2.66 11.06 -3 8 C-2.34 8 -1.68 8 -1 8 C-0.67 5.36 -0.34 2.72 0 0 Z " fill="#B86C92" transform="translate(48,87)"/>
<path d="M0 0 C0.78375 0.04125 1.5675 0.0825 2.375 0.125 C2.045 2.435 1.715 4.745 1.375 7.125 C-3.17069102 7.43493348 -5.190229 7.10180153 -8.625 4.125 C-9.94336295 3.42919733 -11.27291086 2.75275567 -12.625 2.125 C-11.34625 2.16625 -10.0675 2.2075 -8.75 2.25 C-6.60628508 2.36712873 -6.60628508 2.36712873 -4.625 2.125 C-2.625 0.125 -2.625 0.125 0 0 Z " fill="#90CE6D" transform="translate(134.625,90.875)"/>
<path d="M0 0 C1.89646181 1.42234635 3.79266311 2.84501995 5.6875 4.26953125 C7.22418434 5.41944876 8.76584809 6.5627431 10.3125 7.69921875 C11.034375 8.23160156 11.75625 8.76398438 12.5 9.3125 C13.50546875 10.04919922 13.50546875 10.04919922 14.53125 10.80078125 C15.0159375 11.19652344 15.500625 11.59226563 16 12 C16 12.33 16 12.66 16 13 C9.04720829 13.15114765 5.82008518 9.59414993 0.94140625 4.93359375 C0.30074219 4.29550781 -0.33992188 3.65742188 -1 3 C-0.67 2.01 -0.34 1.02 0 0 Z " fill="#F5CBE2" transform="translate(60,126)"/>
<path d="M0 0 C0.66 0 1.32 0 2 0 C1.566875 1.216875 1.13375 2.43375 0.6875 3.6875 C-1.32426904 9.68448771 -2.65442688 15.82563257 -4 22 C-4.66 22 -5.32 22 -6 22 C-6 24.64 -6 27.28 -6 30 C-6.33 30 -6.66 30 -7 30 C-7.36382761 18.72134412 -5.03070732 10.09981698 0 0 Z " fill="#905E72" transform="translate(50,64)"/>
<path d="M0 0 C1.19882813 0.00483398 1.19882813 0.00483398 2.421875 0.00976562 C3.246875 0.01814453 4.071875 0.02652344 4.921875 0.03515625 C5.76234375 0.03966797 6.6028125 0.04417969 7.46875 0.04882812 C9.53648901 0.06057664 11.60419124 0.07851103 13.671875 0.09765625 C13.671875 0.42765625 13.671875 0.75765625 13.671875 1.09765625 C8.391875 1.09765625 3.111875 1.09765625 -2.328125 1.09765625 C-2.328125 1.75765625 -2.328125 2.41765625 -2.328125 3.09765625 C-3.23175781 3.37480469 -4.13539062 3.65195312 -5.06640625 3.9375 C-6.24589844 4.29972656 -7.42539063 4.66195312 -8.640625 5.03515625 C-10.39826172 5.57462891 -10.39826172 5.57462891 -12.19140625 6.125 C-14.24366477 6.76137904 -16.28972637 7.41819004 -18.328125 8.09765625 C-18.988125 7.43765625 -19.648125 6.77765625 -20.328125 6.09765625 C-18.4129671 5.28160626 -16.49593666 4.46994993 -14.578125 3.66015625 C-13.51078125 3.20769531 -12.4434375 2.75523438 -11.34375 2.2890625 C-7.42860798 0.74227711 -4.2090519 -0.03006466 0 0 Z " fill="#955C77" transform="translate(95.328125,39.90234375)"/>
<path d="M0 0 C4.29 0 8.58 0 13 0 C12.67 1.32 12.34 2.64 12 4 C7.38 4 2.76 4 -2 4 C-2 3.34 -2 2.68 -2 2 C-1.34 2 -0.68 2 0 2 C0 1.34 0 0.68 0 0 Z " fill="#DCDF75" transform="translate(92,123)"/>
<path d="M0 0 C2.64 0 5.28 0 8 0 C8 4 8 4 6 7 C3.4375 7.75 3.4375 7.75 1 8 C0 7 0 7 -0.0625 3.4375 C-0.041875 2.303125 -0.02125 1.16875 0 0 Z " fill="#96CF71" transform="translate(74,113)"/>
<path d="M0 0 C0.91523437 -0.01224609 1.83046875 -0.02449219 2.7734375 -0.03710938 C3.65257813 -0.03904297 4.53171875 -0.04097656 5.4375 -0.04296875 C6.24058594 -0.04707764 7.04367188 -0.05118652 7.87109375 -0.05541992 C10 0.1875 10 0.1875 13 2.1875 C11.77023438 2.24808594 10.54046875 2.30867188 9.2734375 2.37109375 C7.64061573 2.45555005 6.00780373 2.54019547 4.375 2.625 C3.56675781 2.66431641 2.75851563 2.70363281 1.92578125 2.74414062 C-2.45150865 2.97546082 -6.68547281 3.35670917 -11 4.1875 C-11.66 3.1975 -12.32 2.2075 -13 1.1875 C-8.68219317 -0.25176894 -4.52237315 0.00318477 0 0 Z " fill="#EFB8D1" transform="translate(96,37.8125)"/>
<path d="M0 0 C0.66 1.32 1.32 2.64 2 4 C2.66 3.01 3.32 2.02 4 1 C5.49498913 3.98997825 5.11577446 6.70042775 5 10 C4.67 10.99 4.34 11.98 4 13 C3.01 13 2.02 13 1 13 C-0.99544337 8.88439805 -1.26247139 5.54950416 -1 1 C-0.67 0.67 -0.34 0.34 0 0 Z " fill="#F8C1DB" transform="translate(48,100)"/>
<path d="M0 0 C3.74101582 3.31016849 4.96317848 7.19959802 6 12 C5.6875 15.5625 5.6875 15.5625 5 18 C4.34 18 3.68 18 3 18 C2.51933465 16.10454608 2.04053257 14.20861961 1.5625 12.3125 C1.29566406 11.25675781 1.02882812 10.20101562 0.75390625 9.11328125 C-0.61308767 3.4682338 -0.61308767 3.4682338 -1 1 C-0.67 0.67 -0.34 0.34 0 0 Z " fill="#F7D0E8" transform="translate(149,67)"/>
<path d="M0 0 C0.66 0 1.32 0 2 0 C1.45518787 4.40656867 -0.14226832 7.06632858 -2.75 10.625 C-3.42546875 11.56601563 -4.1009375 12.50703125 -4.796875 13.4765625 C-7.04018711 16.04602992 -8.91703938 17.56060448 -12 19 C-12.66 18.67 -13.32 18.34 -14 18 C-12 15 -12 15 -10.1328125 14.2265625 C-6.95909417 12.40138383 -5.61886969 9.47815974 -3.875 6.375 C-2.63846405 4.19612252 -1.36852017 2.10313705 0 0 Z " fill="#92657E" transform="translate(146,112)"/>
<path d="M0 0 C5.28 0.33 10.56 0.66 16 1 C16 5.95 16 10.9 16 16 C15.67 16 15.34 16 15 16 C15 11.38 15 6.76 15 2 C13.02 2.66 11.04 3.32 9 4 C5.52176885 5.15941038 3.54104422 4.70820884 0 4 C0 2.68 0 1.36 0 0 Z " fill="#A4D18E" transform="translate(122,89)"/>
<path d="M0 0 C1.98 0 3.96 0 6 0 C6.33 0.66 6.66 1.32 7 2 C5.02 2 3.04 2 1 2 C0.67 2.66 0.34 3.32 0 4 C0.33 4.33 0.66 4.66 1 5 C0.71395102 6.67542976 0.38218767 8.34385343 0 10 C-1.65 9.67 -3.3 9.34 -5 9 C-4.34 8.67 -3.68 8.34 -3 8 C-3.66 7.34 -4.32 6.68 -5 6 C-4.75 3.9375 -4.75 3.9375 -4 2 C-3.34 1.67 -2.68 1.34 -2 1 C-1.34 1.33 -0.68 1.66 0 2 C0 1.34 0 0.68 0 0 Z " fill="#CBBFAE" transform="translate(85,72)"/>
<path d="M0 0 C0.9075 0.825 1.815 1.65 2.75 2.5 C7.80008522 6.85244458 13.41207339 10.38482252 19 14 C17.34375 14.73046875 17.34375 14.73046875 15 15 C12.34375 13.48828125 12.34375 13.48828125 9.5 11.3125 C8.5615625 10.60738281 7.623125 9.90226563 6.65625 9.17578125 C4.25920764 7.21232155 2.02538567 5.34543482 0 3 C0 2.01 0 1.02 0 0 Z " fill="#855D73" transform="translate(58,128)"/>
<path d="M0 0 C1.66519519 0.34060811 3.33157466 0.67558396 5 1 C4.67 0.34 4.34 -0.32 4 -1 C5.65 -1 7.3 -1 9 -1 C9.66 0.32 10.32 1.64 11 3 C5.06 3 -0.88 3 -7 3 C-6.67 2.01 -6.34 1.02 -6 0 C-3.44211818 -1.27894091 -2.70140697 -0.77183056 0 0 Z " fill="#8B8F9C" transform="translate(128,76)"/>
<path d="M0 0 C7.91352959 1.27951621 14.13436095 5.73596496 20 11 C19.01 11.33 18.02 11.66 17 12 C15.01953125 10.9609375 15.01953125 10.9609375 12.8125 9.375 C9.09481246 6.76042958 5.32626201 4.32517536 1.43359375 1.98046875 C0.96050781 1.65691406 0.48742187 1.33335938 0 1 C0 0.67 0 0.34 0 0 Z " fill="#9A637F" transform="translate(117,43)"/>
<path d="M0 0 C0.33 0 0.66 0 1 0 C1.05411124 2.41696872 1.09372278 4.83271787 1.125 7.25 C1.15013672 8.27287109 1.15013672 8.27287109 1.17578125 9.31640625 C1.21213482 13.0608235 1.07944349 15.82352727 -1 19 C-7.57142857 14 -7.57142857 14 -9 9 C-8.34 9 -7.68 9 -7 9 C-6.01 10.485 -6.01 10.485 -5 12 C-2.525 12.99 -2.525 12.99 0 14 C0 9.38 0 4.76 0 0 Z " fill="#98BCC8" transform="translate(71,108)"/>
<path d="M0 0 C-0.33 1.32 -0.66 2.64 -1 4 C-5.95 4 -10.9 4 -16 4 C-16 3.34 -16 2.68 -16 2 C-13.0288372 1.0096124 -10.5469614 0.69834696 -7.4375 0.4375 C-6.46683594 0.35371094 -5.49617188 0.26992187 -4.49609375 0.18359375 C-3.00018781 0.07356624 -1.49994688 0 0 0 Z " fill="#D090B1" transform="translate(111,143)"/>
<path d="M0 0 C0.66 0.33 1.32 0.66 2 1 C-0.34495122 6.12958079 -4.08924922 8.54983772 -9 11 C-9.66 11 -10.32 11 -11 11 C-10.65305208 8.14387516 -10.23345399 7.19170164 -7.96875 5.33203125 C-6.74671875 4.57986328 -6.74671875 4.57986328 -5.5 3.8125 C-4.6853125 3.30332031 -3.870625 2.79414063 -3.03125 2.26953125 C-2.3609375 1.85058594 -1.690625 1.43164062 -1 1 C-0.67 0.67 -0.34 0.34 0 0 Z " fill="#F4C8E4" transform="translate(136,130)"/>
<path d="M0 0 C2.00720923 0.28674418 4.0085944 0.61866701 6 1 C4.91422246 4.25733261 4.13042199 5.00019136 1.5625 7.125 C0.94503906 7.64320312 0.32757813 8.16140625 -0.30859375 8.6953125 C-2 10 -2 10 -4 11 C-4.66 9.68 -5.32 8.36 -6 7 C-4.02 6.67 -2.04 6.34 0 6 C0 5.34 0 4.68 0 4 C-0.99 4.33 -1.98 4.66 -3 5 C-1.125 1.125 -1.125 1.125 0 0 Z " fill="#D08E93" transform="translate(106,98)"/>
<path d="M0 0 C0 1.98 0 3.96 0 6 C-0.66 6 -1.32 6 -2 6 C-2 8.64 -2 11.28 -2 14 C-2.99 13.34 -3.98 12.68 -5 12 C-4.67 10.35 -4.34 8.7 -4 7 C-4.99 7.33 -5.98 7.66 -7 8 C-6.44414399 4.1090079 -4.34122117 0 0 0 Z " fill="#90A0AD" transform="translate(68,63)"/>
<path d="M0 0 C0 2.31 0 4.62 0 7 C-2.31 7 -4.62 7 -7 7 C-7.33 6.01 -7.66 5.02 -8 4 C-5.29881977 1.17603885 -4.05589853 0 0 0 Z " fill="#92D36A" transform="translate(104,114)"/>
<path d="M0 0 C0.85078125 0.04833984 1.7015625 0.09667969 2.578125 0.14648438 C3.46757813 0.20255859 4.35703125 0.25863281 5.2734375 0.31640625 C6.170625 0.36861328 7.0678125 0.42082031 7.9921875 0.47460938 C10.21127762 0.60444975 12.42993621 0.73941964 14.6484375 0.87890625 C14.3184375 1.53890625 13.9884375 2.19890625 13.6484375 2.87890625 C7.0484375 2.87890625 0.4484375 2.87890625 -6.3515625 2.87890625 C-6.3515625 2.21890625 -6.3515625 1.55890625 -6.3515625 0.87890625 C-3.94721244 -0.32326878 -2.66774881 -0.16006493 0 0 Z " fill="#93D075" transform="translate(82.3515625,98.12109375)"/>
<path d="M0 0 C-1.4561344 2.91226879 -3.49960664 3.31842064 -6.4375 4.625 C-7.92056641 5.29402344 -7.92056641 5.29402344 -9.43359375 5.9765625 C-12 7 -12 7 -14 7 C-14 6.34 -14 5.68 -14 5 C-13.34 5 -12.68 5 -12 5 C-11.67 4.01 -11.34 3.02 -11 2 C-6.98409295 -0.55557722 -4.59051103 -1.48516533 0 0 Z " fill="#F8CCE9" transform="translate(85,41)"/>
<path d="M0 0 C5.61 0 11.22 0 17 0 C17.33 0.99 17.66 1.98 18 3 C16.02 3.99 16.02 3.99 14 5 C13.67 4.34 13.34 3.68 13 3 C9.9600352 2.30662208 9.9600352 2.30662208 6.4375 1.875 C4.64119141 1.62363281 4.64119141 1.62363281 2.80859375 1.3671875 C1.88175781 1.24601562 0.95492187 1.12484375 0 1 C0 0.67 0 0.34 0 0 Z " fill="#94CBDA" transform="translate(123,110)"/>
<path d="M0 0 C3.26098774 0.24155465 4.23269254 1.22715224 6.625 3.5625 C9.43479148 7.11580554 10.16455489 10.5949258 11 15 C8.69995046 12.79664924 6.73441677 10.47632832 4.8125 7.9375 C4.28269531 7.24527344 3.75289062 6.55304687 3.20703125 5.83984375 C2 4 2 4 2 2 C1.34 2 0.68 2 0 2 C0 1.34 0 0.68 0 0 Z " fill="#AF8494" transform="translate(135,55)"/>
<path d="M0 0 C0.99 0.33 1.98 0.66 3 1 C3.20140476 4.62528568 2.85776765 6.86501708 1 10 C0.01 10 -0.98 10 -2 10 C-1.90460938 10.98742187 -1.80921875 11.97484375 -1.7109375 12.9921875 C-1.60007812 14.27351563 -1.48921875 15.55484375 -1.375 16.875 C-1.25898437 18.15117188 -1.14296875 19.42734375 -1.0234375 20.7421875 C-1.01570313 21.81726563 -1.00796875 22.89234375 -1 24 C-1.66 24.66 -2.32 25.32 -3 26 C-3.10812003 23.24894578 -3.18734945 20.50214913 -3.25 17.75 C-3.28351563 16.97269531 -3.31703125 16.19539063 -3.3515625 15.39453125 C-3.45183987 9.52830508 -3.45183987 9.52830508 -0.96875 6.625 C0.00578125 5.820625 0.00578125 5.820625 1 5 C0.85974801 2.29294488 0.85974801 2.29294488 0 0 Z " fill="#A5D1EA" transform="translate(110,97)"/>
<path d="M0 0 C2.31 0.33 4.62 0.66 7 1 C7.625 3.3125 7.625 3.3125 8 6 C7.01 7.485 7.01 7.485 6 9 C6 8.34 6 7.68 6 7 C4.02 7 2.04 7 0 7 C1.32 6.67 2.64 6.34 4 6 C4 5.34 4 4.68 4 4 C2.68 3.67 1.36 3.34 0 3 C1.32 3 2.64 3 4 3 C4 2.34 4 1.68 4 1 C2.68 0.67 1.36 0.34 0 0 Z " fill="#A6DA83" transform="translate(122,95)"/>
<path d="M0 0 C-3.25413668 3.93208182 -7.05951428 5.9145134 -12 7 C-12.99 6.67 -13.98 6.34 -15 6 C-14.071875 5.566875 -13.14375 5.13375 -12.1875 4.6875 C-9.06678368 3.27320597 -9.06678368 3.27320597 -7.5 1.3125 C-5.17212465 -0.72439093 -2.96469798 -0.19764653 0 0 Z " fill="#A2BCD2" transform="translate(129,129)"/>
<path d="M0 0 C0 0.99 0 1.98 0 3 C0.66 2.67 1.32 2.34 2 2 C1.67 3.65 1.34 5.3 1 7 C0.443125 6.649375 -0.11375 6.29875 -0.6875 5.9375 C-3.53886783 4.78154007 -5.08517222 5.19032562 -8 6 C-7.75 4.125 -7.75 4.125 -7 2 C-4.41847698 0.27898465 -3.15081975 0 0 0 Z " fill="#B3AA4E" transform="translate(86,58)"/>
<path d="M0 0 C0 0.33 0 0.66 0 1 C-6.9975717 2.19107603 -14.04907366 2.79378744 -21 1 C-21 0.67 -21 0.34 -21 0 C-13.97381022 -1.5056121 -7.10547081 -0.64057643 0 0 Z " fill="#AF7D98" transform="translate(112,35)"/>
<path d="M0 0 C2.43873501 2.43873501 3.54751862 4.9030356 5.0625 8 C5.58972656 9.0725 6.11695313 10.145 6.66015625 11.25 C7.32337891 12.61125 7.32337891 12.61125 8 14 C8.33 14.66 8.66 15.32 9 16 C7.171875 15.796875 7.171875 15.796875 5 15 C3.515625 12.890625 3.515625 12.890625 2.25 10.25 C1.82203125 9.38890625 1.3940625 8.5278125 0.953125 7.640625 C-0.03636629 4.89924749 -0.18702237 2.88845665 0 0 Z " fill="#874B65" transform="translate(47,109)"/>
<path d="M0 0 C2.64 0 5.28 0 8 0 C8.33 1.32 8.66 2.64 9 4 C6.36 4 3.72 4 1 4 C0.67 2.68 0.34 1.36 0 0 Z " fill="#D6DD7C" transform="translate(73,123)"/>
<path d="M0 0 C-2.70251832 3.33840499 -6.00312391 4.62176687 -10 6 C-12.9375 5.6875 -12.9375 5.6875 -15 5 C-12.30932731 3.20621821 -9.91421743 2.02686042 -6.9375 0.8125 C-5.62072266 0.26529297 -5.62072266 0.26529297 -4.27734375 -0.29296875 C-2 -1 -2 -1 0 0 Z " fill="#87506B" transform="translate(127,142)"/>
<path d="M0 0 C0.33 0.66 0.66 1.32 1 2 C3.01669827 3.13350534 3.01669827 3.13350534 5 4 C4.34 4 3.68 4 3 4 C3 4.66 3 5.32 3 6 C3.99 6.33 4.98 6.66 6 7 C5.67 7.66 5.34 8.32 5 9 C3.68 9 2.36 9 1 9 C0.01 6.69 -0.98 4.38 -2 2 C-1.34 2 -0.68 2 0 2 C0 1.34 0 0.68 0 0 Z " fill="#97CCE3" transform="translate(98,60)"/>
<path d="M0 0 C4.29 0 8.58 0 13 0 C13.33 0.99 13.66 1.98 14 3 C15.99665314 4.68538601 15.99665314 4.68538601 18 6 C17.67 6.66 17.34 7.32 17 8 C16.34 7.34 15.68 6.68 15 6 C12.42938689 5.35232207 12.42938689 5.35232207 10 5 C10.33 4.01 10.66 3.02 11 2 C7.37 1.67 3.74 1.34 0 1 C0 0.67 0 0.34 0 0 Z " fill="#4E6854" transform="translate(78,55)"/>
<path d="M0 0 C0.33 0 0.66 0 1 0 C1 1.98 1 3.96 1 6 C-1.6666419 7.33332095 -3.16680303 6.67102033 -6 6 C-6 4.68 -6 3.36 -6 2 C-4.02 2 -2.04 2 0 2 C0 1.34 0 0.68 0 0 Z " fill="#93D463" transform="translate(136,96)"/>
<path d="M0 0 C0.33 0 0.66 0 1 0 C0.62422289 6.13769283 -1.0419407 9.26963644 -5 14 C-5.66 14 -6.32 14 -7 14 C-5.54616376 9.88079732 -3.43337681 6.61081721 -1 3 C-0.67 2.01 -0.34 1.02 0 0 Z " fill="#B5CDE1" transform="translate(142,108)"/>
<path d="M0 0 C2.31 0.66 4.62 1.32 7 2 C7 2.66 7 3.32 7 4 C7.99 4 8.98 4 10 4 C10 4.66 10 5.32 10 6 C5.6109185 5.48964169 2.66291938 4.47785723 -1 2 C-0.67 1.34 -0.34 0.68 0 0 Z " fill="#E9B2CF" transform="translate(113,38)"/>
<path d="M0 0 C0.66 0 1.32 0 2 0 C1.67 1.98 1.34 3.96 1 6 C2.98 5.34 4.96 4.68 7 4 C7 4.99 7 5.98 7 7 C4.6875 8.125 4.6875 8.125 2 9 C1.01 8.34 0.02 7.68 -1 7 C-0.67 4.69 -0.34 2.38 0 0 Z " fill="#808777" transform="translate(83,118)"/>
<path d="M0 0 C3 3 3 3 3.14453125 5.6640625 C3.03496094 6.64117187 2.92539063 7.61828125 2.8125 8.625 C2.71582031 9.60726562 2.61914062 10.58953125 2.51953125 11.6015625 C2.34808594 12.39304687 2.17664063 13.18453125 2 14 C1.01 14.495 1.01 14.495 0 15 C0 10.05 0 5.1 0 0 Z " fill="#C38CAC" transform="translate(150,82)"/>
<path d="M0 0 C0.66 0 1.32 0 2 0 C0.33333333 5 -1.33333333 10 -3 15 C-3.33 15 -3.66 15 -4 15 C-4.50610724 8.92671312 -3.04157942 5.22771463 0 0 Z " fill="#8C5271" transform="translate(50,64)"/>
<path d="M0 0 C1.32 0.66 2.64 1.32 4 2 C3.34 3.65 2.68 5.3 2 7 C0.35 6.67 -1.3 6.34 -3 6 C-2.01 4.02 -1.02 2.04 0 0 Z M-2 7 C0 8 0 8 0 8 Z " fill="#F2E8CC" transform="translate(81,62)"/>
<path d="M0 0 C0.66 0.33 1.32 0.66 2 1 C1.67 2.32 1.34 3.64 1 5 C0.34 5 -0.32 5 -1 5 C-1.33 6.32 -1.66 7.64 -2 9 C-2.28875 8.38125 -2.5775 7.7625 -2.875 7.125 C-3.93720042 4.86674235 -3.93720042 4.86674235 -6 3 C-5.195625 2.690625 -4.39125 2.38125 -3.5625 2.0625 C-1.10919595 1.23664655 -1.10919595 1.23664655 0 0 Z " fill="#818975" transform="translate(93,113)"/>
<path d="M0 0 C2.31 0 4.62 0 7 0 C7 1.32 7 2.64 7 4 C4.69 3.67 2.38 3.34 0 3 C0 2.01 0 1.02 0 0 Z " fill="#92D162" transform="translate(75,113)"/>
<path d="M0 0 C1.65 0.33 3.3 0.66 5 1 C4.67 2.32 4.34 3.64 4 5 C3.401875 4.773125 2.80375 4.54625 2.1875 4.3125 C1.1046875 4.1578125 1.1046875 4.1578125 0 4 C-1.77190909 5.35444301 -1.77190909 5.35444301 -3 7 C-3.66 6.67 -4.32 6.34 -5 6 C-3.35 4.02 -1.7 2.04 0 0 Z " fill="#6C92A2" transform="translate(97,80)"/>
<path d="M0 0 C-0.825 0.474375 -1.65 0.94875 -2.5 1.4375 C-3.325 1.953125 -4.15 2.46875 -5 3 C-5 3.33 -5 3.66 -5 4 C-6.98 4.33 -8.96 4.66 -11 5 C-11 4.34 -11 3.68 -11 3 C-11.66 2.67 -12.32 2.34 -13 2 C-11.5882217 1.46605821 -10.17029756 0.94834896 -8.75 0.4375 C-7.96109375 0.14746094 -7.1721875 -0.14257812 -6.359375 -0.44140625 C-3.80896548 -1.04522837 -2.44677771 -0.8473932 0 0 Z " fill="#90BCDD" transform="translate(120,133)"/>
<path d="M0 0 C0.88336837 2.4667645 1.1312406 3.63859372 0.22265625 6.140625 C-0.16019531 6.83671875 -0.54304688 7.5328125 -0.9375 8.25 C-1.31777344 8.95640625 -1.69804688 9.6628125 -2.08984375 10.390625 C-2.39019531 10.92171875 -2.69054688 11.4528125 -3 12 C-4.1484375 10.265625 -4.1484375 10.265625 -5 8 C-4.1015625 5.859375 -4.1015625 5.859375 -2.625 3.75 C-2.14289062 3.04359375 -1.66078125 2.3371875 -1.1640625 1.609375 C-0.77992187 1.07828125 -0.39578125 0.5471875 0 0 Z " fill="#925D77" transform="translate(57,63)"/>
<path d="M0 0 C4.10958767 1.45044271 7.43258745 3.51110752 11 6 C8 7 8 7 5.5 6.375 C2.48121179 4.71466648 1.52052744 3.04105488 0 0 Z " fill="#AF8093" transform="translate(66,129)"/>
<path d="M0 0 C4.6875 3.61328125 4.6875 3.61328125 6 5 C6 5.99 6 6.98 6 8 C3.11562221 6.70700306 1.12780579 5.34058637 -1 3 C-0.67 2.01 -0.34 1.02 0 0 Z " fill="#FCDCF3" transform="translate(60,126)"/>
<path d="M0 0 C2 1 2 1 3.125 3.25 C4.00513321 6.01613295 4.1645438 8.12048351 4 11 C1.11670417 7.744666 -0.63331529 5.40021656 -1 1 C-0.67 0.67 -0.34 0.34 0 0 Z " fill="#95657A" transform="translate(53,109)"/>
<path d="M0 0 C1.32 0.66 2.64 1.32 4 2 C-1.57067277 3.59162079 -6.21101581 4.20674944 -12 4 C-8.09971775 1.39981184 -4.52565431 1.84914486 0 2 C0 1.34 0 0.68 0 0 Z " fill="#A66B87" transform="translate(110,146)"/>
<path d="M0 0 C0 3.3 0 6.6 0 10 C-0.33 9.34 -0.66 8.68 -1 8 C-1.66 8 -2.32 8 -3 8 C-3 5.69 -3 3.38 -3 1 C-1 0 -1 0 0 0 Z " fill="#F9A9CC" transform="translate(48,87)"/>
<path d="M0 0 C4.75481646 0.57634139 7.97048212 2.55068521 12 5 C10.3125 5.6875 10.3125 5.6875 8 6 C4.81364829 4.44568209 2.37409996 2.62400522 0 0 Z " fill="#96BAC8" transform="translate(116,50)"/>
<path d="M0 0 C-1.98 0.99 -3.96 1.98 -6 3 C-5.34 3.66 -4.68 4.32 -4 5 C-5.98 5 -7.96 5 -10 5 C-8.8125 2.5625 -8.8125 2.5625 -7 0 C-4.08670507 -0.99478363 -2.78002188 -1.39001094 0 0 Z " fill="#91CEE5" transform="translate(94,50)"/>
<path d="M0 0 C0.33 0.66 0.66 1.32 1 2 C0.34 2 -0.32 2 -1 2 C-0.67 2.99 -0.34 3.98 0 5 C-2.475 6.485 -2.475 6.485 -5 8 C-5.66 7.01 -6.32 6.02 -7 5 C-4.69 3.35 -2.38 1.7 0 0 Z " fill="#EBB8D6" transform="translate(72,44)"/>
<path d="M0 0 C1.98 0.495 1.98 0.495 4 1 C3.67 2.65 3.34 4.3 3 6 C1.68 6.33 0.36 6.66 -1 7 C-0.67 4.69 -0.34 2.38 0 0 Z " fill="#A3A9A9" transform="translate(100,70)"/>
<path d="M0 0 C0.33 0.66 0.66 1.32 1 2 C1.66 2 2.32 2 3 2 C1.80100302 5.0831351 0.52299523 8.06279492 -1 11 C-2.41687119 6.74938644 -1.19320039 4.28148375 0 0 Z " fill="#EEB3D3" transform="translate(52,64)"/>
<path d="M0 0 C10.50909091 4.01818182 10.50909091 4.01818182 12 7 C11.01 7.33 10.02 7.66 9 8 C6.73828125 6.6015625 6.73828125 6.6015625 4.3125 4.625 C3.50425781 3.97789063 2.69601563 3.33078125 1.86328125 2.6640625 C1.24839844 2.11492188 0.63351563 1.56578125 0 1 C0 0.67 0 0.34 0 0 Z " fill="#F2BEDA" transform="translate(127,46)"/>
<path d="M0 0 C0.99 0 1.98 0 3 0 C3 0.66 3 1.32 3 2 C7.29 2 11.58 2 16 2 C16 2.33 16 2.66 16 3 C10.72 3 5.44 3 0 3 C0 2.01 0 1.02 0 0 Z " fill="#EFF886" transform="translate(73,107)"/>
<path d="M0 0 C1.98 0.99 1.98 0.99 4 2 C4 2.99 4 3.98 4 5 C4.66 5.66 5.32 6.32 6 7 C4.68 7 3.36 7 2 7 C0 4 0 4 0 0 Z " fill="#ECEDE6" transform="translate(68,77)"/>
<path d="M0 0 C3.96 0 7.92 0 12 0 C12.33 0.99 12.66 1.98 13 3 C8.71 2.34 4.42 1.68 0 1 C0 0.67 0 0.34 0 0 Z " fill="#905B75" transform="translate(105,36)"/>
<path d="M0 0 C2 2 2 2 2.125 5.625 C2.08375 6.73875 2.0425 7.8525 2 9 C1.01 9.495 1.01 9.495 0 10 C-1.125 8.375 -1.125 8.375 -2 6 C-1.125 2.75 -1.125 2.75 0 0 Z " fill="#CBA9B7" transform="translate(51,101)"/>
<path d="M0 0 C0.66 0.99 1.32 1.98 2 3 C-0.71182212 5.60334924 -1.89133813 5.99456691 -5.75 6.1875 C-6.8225 6.125625 -7.895 6.06375 -9 6 C-6 4 -3 2 0 0 Z " fill="#9FCFE6" transform="translate(96,84)"/>
<path d="M0 0 C0.33 0 0.66 0 1 0 C1 1.65 1 3.3 1 5 C-2.06890187 6.53445094 -4.70094266 5.54984289 -8 5 C-7.67 4.34 -7.34 3.68 -7 3 C-5.02 3 -3.04 3 -1 3 C-0.67 2.01 -0.34 1.02 0 0 Z " fill="#ECE4D6" transform="translate(80,81)"/>
<path d="M0 0 C3.465 1.485 3.465 1.485 7 3 C6.34 3.66 5.68 4.32 5 5 C1.875 4.625 1.875 4.625 -1 4 C-0.67 2.68 -0.34 1.36 0 0 Z " fill="#C8BEAB" transform="translate(72,69)"/>
<path d="M0 0 C6.15234375 0.5859375 6.15234375 0.5859375 8 1 C8.33 1.66 8.66 2.32 9 3 C5.99727245 3.96516243 3.95784231 4.22393475 1 3 C0.67 2.01 0.34 1.02 0 0 Z " fill="#A87A94" transform="translate(87,140)"/>
<path d="M0 0 C3.95820859 0.56545837 6.6659053 1.80902348 10 4 C8.375 4.75 8.375 4.75 6 5 C2.75 3.125 2.75 3.125 0 1 C0 0.67 0 0.34 0 0 Z " fill="#93516F" transform="translate(67,138)"/>
<path d="M0 0 C1.33333333 2.66666667 2.66666667 5.33333333 4 8 C2.68 8.33 1.36 8.66 0 9 C0 6.03 0 3.06 0 0 Z " fill="#ECE3D1" transform="translate(67,69)"/>
<path d="M0 0 C1.5625 1.1875 1.5625 1.1875 3 3 C2.6875 5.6875 2.6875 5.6875 2 8 C0.4375 6.25 0.4375 6.25 -1 4 C-0.6875 1.75 -0.6875 1.75 0 0 Z " fill="#FBDFF2" transform="translate(149,67)"/>
<path d="M0 0 C3 2 3 2 5 6 C0.545 4.02 0.545 4.02 -4 2 C-2.68 1.34 -1.36 0.68 0 0 Z " fill="#D89BBD" transform="translate(76,138)"/>
<path d="M0 0 C-1.39332574 3.36720387 -2.9789286 4.9859524 -6 7 C-5.6875 4.625 -5.6875 4.625 -5 2 C-2 0 -2 0 0 0 Z " fill="#FDDEF2" transform="translate(143,126)"/>
<path d="M0 0 C0.99 0.99 1.98 1.98 3 3 C1.68 3.99 0.36 4.98 -1 6 C-1.99 4.68 -2.98 3.36 -4 2 C-2.68 1.34 -1.36 0.68 0 0 Z " fill="#CFABBB" transform="translate(58,123)"/>
<path d="M0 0 C1.32 0.33 2.64 0.66 4 1 C3.45276317 4.37462715 2.9451 6.08235 1 9 C0.67 6.03 0.34 3.06 0 0 Z " fill="#DA81A5" transform="translate(45,95)"/>
<path d="M0 0 C3.91402949 1.26941497 5.79072873 2.51167694 8 6 C4.65750371 5.40312566 2.53563658 4.26396123 0 2 C0 1.34 0 0.68 0 0 Z " fill="#915A71" transform="translate(129,49)"/>
<path d="M0 0 C4.20626034 1.50223584 5.73900021 4.28550034 8 8 C4.20645982 6.50968064 2.3521464 4.27620391 0 1 C0 0.67 0 0.34 0 0 Z " fill="#A3748A" transform="translate(134,46)"/>
<path d="M0 0 C2.64 0 5.28 0 8 0 C7.01 0.33 6.02 0.66 5 1 C5 1.66 5 2.32 5 3 C2.03 2.505 2.03 2.505 -1 2 C-0.67 1.34 -0.34 0.68 0 0 Z " fill="#EDB3D1" transform="translate(90,144)"/>
<path d="M0 0 C-1 3 -1 3 -3.4375 4.75 C-4.7059375 5.36875 -4.7059375 5.36875 -6 6 C-6.66 5.67 -7.32 5.34 -8 5 C-3.22727273 0 -3.22727273 0 0 0 Z " fill="#9C5679" transform="translate(134,137)"/>
<path d="M0 0 C0.33 1.32 0.66 2.64 1 4 C-0.98 5.32 -2.96 6.64 -5 8 C-5.66 7.67 -6.32 7.34 -7 7 C-4.9413783 3.91206745 -4.1446688 3.52161393 -1 2 C-0.67 1.34 -0.34 0.68 0 0 Z " fill="#B291A0" transform="translate(139,123)"/>
<path d="M0 0 C0.33 0 0.66 0 1 0 C1.05410687 1.77049689 1.09284119 3.54146849 1.125 5.3125 C1.14820313 6.29863281 1.17140625 7.28476563 1.1953125 8.30078125 C1 11 1 11 -1 14 C-1.38218767 12.34385343 -1.71395102 10.67542976 -2 9 C-1.67 8.67 -1.34 8.34 -1 8 C-0.76924918 6.65252916 -0.58846937 5.29622435 -0.4375 3.9375 C-0.293125 2.638125 -0.14875 1.33875 0 0 Z " fill="#9F6E84" transform="translate(152,88)"/>
<path d="M0 0 C1 2 1 2 0.375 4.0625 C-1 6 -1 6 -3.625 6.75 C-4.800625 6.87375 -4.800625 6.87375 -6 7 C-4.02 4.69 -2.04 2.38 0 0 Z " fill="#A2B67B" transform="translate(105,108)"/>
<path d="M0 0 C2 4 2 4 2 6 C2.66 6 3.32 6 4 6 C4 6.66 4 7.32 4 8 C2.68 8.33 1.36 8.66 0 9 C0 6.03 0 3.06 0 0 Z " fill="#A7D7E2" transform="translate(72,97)"/>
<path d="M0 0 C0.66 0 1.32 0 2 0 C3.10844919 3.32534757 2.84454356 5.62182575 2 9 C0 7 0 7 -0.125 3.375 C-0.08375 2.26125 -0.0425 1.1475 0 0 Z " fill="#986076" transform="translate(49,97)"/>
<path d="M0 0 C2 3 2 3 1.625 5.1875 C1.41875 5.785625 1.2125 6.38375 1 7 C0.67 6.34 0.34 5.68 0 5 C-0.66 5 -1.32 5 -2 5 C-1.125 1.125 -1.125 1.125 0 0 Z " fill="#A0BFD4" transform="translate(142,73)"/>
<path d="M0 0 C0.66 0 1.32 0 2 0 C2.33 1.65 2.66 3.3 3 5 C2.01 5.66 1.02 6.32 0 7 C-0.33 5.68 -0.66 4.36 -1 3 C-0.34 3 0.32 3 1 3 C0.67 2.01 0.34 1.02 0 0 Z " fill="#AAD6E6" transform="translate(139,69)"/>
<path d="M0 0 C0.66 0 1.32 0 2 0 C2 2.31 2 4.62 2 7 C1.01 6.34 0.02 5.68 -1 5 C-0.67 3.35 -0.34 1.7 0 0 Z " fill="#ECF1F0" transform="translate(64,70)"/>
<path d="M0 0 C1.65 0 3.3 0 5 0 C3.35 1.98 1.7 3.96 0 6 C-1.125 2.25 -1.125 2.25 0 0 Z " fill="#EFEBD0" transform="translate(88,60)"/>
<path d="M0 0 C-2.61514317 2.12038635 -5.19637616 4.13091744 -8 6 C-8 4.68 -8 3.36 -8 2 C-4.77208445 -0.1519437 -3.71599191 -0.20086443 0 0 Z " fill="#E5E44E" transform="translate(85,57)"/>
</svg>
