<?xml version="1.0" encoding="UTF-8"?>
<svg version="1.1" xmlns="http://www.w3.org/2000/svg" width="134" height="180">
<path d="M0 0 C8.25075878 4.8460782 15.56759527 10.51205584 20.53125 18.8359375 C20.984375 20.94921875 20.984375 20.94921875 21.09375 22.9609375 C21.55492956 27.04567077 21.73191997 27.39208682 24.40625 30.0859375 C31.44479068 37.57912076 31.19800158 49.91378631 32.28417969 59.70556641 C32.54259717 61.93377884 32.8333633 64.15585244 33.1328125 66.37890625 C33.23070068 67.11463867 33.32858887 67.85037109 33.42944336 68.60839844 C33.61942048 70.0301006 33.81283422 71.45134861 34.01000977 72.87207031 C34.22530997 74.5218003 34.38408568 76.1787393 34.53125 77.8359375 C33.53125 78.8359375 33.53125 78.8359375 31.03100586 78.94946289 C29.94698486 78.94422607 28.86296387 78.93898926 27.74609375 78.93359375 C25.99135742 78.92875977 25.99135742 78.92875977 24.20117188 78.92382812 C22.96947266 78.91544922 21.73777344 78.90707031 20.46875 78.8984375 C18.61540039 78.89166992 18.61540039 78.89166992 16.72460938 78.88476562 C13.66010883 78.87293358 10.59570279 78.85644923 7.53125 78.8359375 C7.54696045 80.14264404 7.5626709 81.44935059 7.57885742 82.7956543 C7.6332172 87.65040914 7.66762226 92.50513714 7.69604492 97.36010742 C7.71111772 99.46008836 7.73157941 101.5600379 7.75756836 103.65991211 C7.79401754 106.68090574 7.81099159 109.70148261 7.82421875 112.72265625 C7.83970261 113.65929611 7.85518646 114.59593597 7.87113953 115.56095886 C7.87239132 120.42539066 7.85601762 123.97378515 4.53125 127.8359375 C0.5078071 129.65787391 -1.52760472 130.12005683 -5.78125 128.8359375 C-9.17675245 126.30905196 -9.46724842 124.92282654 -10.46875 120.8359375 C-10.73069361 117.743734 -10.72582388 114.67201998 -10.69921875 111.5703125 C-10.69876053 110.69570374 -10.69830231 109.82109497 -10.6978302 108.91998291 C-10.69482143 107.08108148 -10.68697657 105.24218229 -10.67456055 103.40332031 C-10.65621979 100.58128907 -10.65405165 97.75958483 -10.65429688 94.9375 C-10.64938428 93.14843465 -10.64355709 91.35937153 -10.63671875 89.5703125 C-10.63560593 88.72450623 -10.6344931 87.87869995 -10.63334656 87.00726318 C-10.58485031 81.06813812 -10.58485031 81.06813812 -9.46875 78.8359375 C-13.75875 78.5059375 -18.04875 78.1759375 -22.46875 77.8359375 C-21.95748298 68.05692826 -21.43349679 58.27870895 -20.89054871 48.50140381 C-20.62091029 43.63813853 -20.36082257 38.7745393 -20.11071777 33.91023254 C-19.96295155 31.090144 -19.80420646 28.27075375 -19.64227295 25.45144653 C-19.53349695 23.50122266 -19.43775285 21.55028586 -19.34228516 19.59936523 C-18.92454511 12.55275016 -18.51511572 6.64389465 -13.96875 0.9609375 C-9.77634104 -2.18336922 -4.61472005 -2.17592813 0 0 Z M1.53125 26.8359375 C2.53125 29.8359375 2.53125 29.8359375 2.53125 29.8359375 Z M-10.46875 30.8359375 C-9.46875 33.8359375 -9.46875 33.8359375 -9.46875 33.8359375 Z M2.53125 30.8359375 C3.53125 33.8359375 3.53125 33.8359375 3.53125 33.8359375 Z M-9.46875 34.8359375 C-8.46875 37.8359375 -8.46875 37.8359375 -8.46875 37.8359375 Z M3.53125 34.8359375 C3.53125 35.8259375 3.53125 36.8159375 3.53125 37.8359375 C4.19125 37.5059375 4.85125 37.1759375 5.53125 36.8359375 C4.87125 36.1759375 4.21125 35.5159375 3.53125 34.8359375 Z M-8.46875 39.8359375 C-7.46875 42.8359375 -7.46875 42.8359375 -7.46875 42.8359375 Z M-7.46875 43.8359375 C-6.46875 45.8359375 -6.46875 45.8359375 -6.46875 45.8359375 Z M23.53125 64.8359375 C27.53125 65.8359375 27.53125 65.8359375 27.53125 65.8359375 Z " fill="#4B647E" transform="translate(45.46875,43.1640625)"/>
<path d="M0 0 C2.36679676 3.55019514 2.89540796 6.80827291 3 11 C2.814375 11.58265625 2.62875 12.1653125 2.4375 12.765625 C1.76168971 16.21708469 2.62014566 19.41965046 3.3125 22.8125 C3.44333984 23.49892578 3.57417969 24.18535156 3.70898438 24.89257812 C4.58020764 29.34128822 5.70012155 33.65761128 7 38 C7.53625 38.103125 8.0725 38.20625 8.625 38.3125 C11.62502044 39.18092697 14.2379535 40.55620296 17 42 C17 42.66 17 43.32 17 44 C19.90600261 45.25664978 21.79604584 46 25 46 C26.33981486 46.3062434 27.67511887 46.63451555 29 47 C29 47.66 29 48.32 29 49 C29.99 49 30.98 49 32 49 C31.67 49.99 31.34 50.98 31 52 C36.50426323 55.61708727 39.4710524 56.30578952 46 55 C46.495 60.445 46.495 60.445 47 66 C38.09 66 29.18 66 20 66 C20.05800781 69.26261719 20.11601563 72.52523437 20.17578125 75.88671875 C20.21478782 79.05067515 20.24514054 82.21460465 20.2746582 85.37866211 C20.29978509 87.5757244 20.33389246 89.77270324 20.37719727 91.96948242 C20.43792762 95.12960405 20.46622833 98.28861957 20.48828125 101.44921875 C20.51408768 102.42960617 20.5398941 103.40999359 20.56648254 104.42008972 C20.56840772 109.11293072 20.52644032 111.28981931 17.66088867 115.15551758 C15 117 15 117 11.9375 117.0625 C8.41340824 115.78782851 7.1725703 115.07596938 5 112 C4.49802421 108.50531517 4.67629165 105.06622953 4.828125 101.546875 C4.85598083 100.53151672 4.88383667 99.51615845 4.91253662 98.47003174 C5.00585772 95.22910282 5.12756572 91.98994703 5.25 88.75 C5.31827861 86.5521407 5.38470732 84.3542231 5.44921875 82.15625 C5.61135943 76.76992196 5.79896296 71.38501092 6 66 C2.04 66 -1.92 66 -6 66 C-5.61966787 52.37810436 -5.20773096 38.77002886 -4.0625 25.1875 C-3.98789551 24.25929443 -3.91329102 23.33108887 -3.83642578 22.37475586 C-3.27977624 16.21006142 -1.95685084 10.87055252 0 5 C0.03874921 3.33378384 0.0450286 1.66605828 0 0 Z " fill="#4C657F" transform="translate(31,54)"/>
<path d="M0 0 C3.21312475 2.11774131 4.85021821 3.43511016 6.75 6.8125 C7.84655531 12.1992279 8.70054276 16.9521098 5.75 21.8125 C5.09 21.8125 4.43 21.8125 3.75 21.8125 C3.42 22.8025 3.09 23.7925 2.75 24.8125 C-1.1626582 28.22029908 -4.88570279 28.1962946 -9.8359375 28.04296875 C-12.87076156 27.75323636 -15.40700605 26.9013062 -18.25 25.8125 C-21.23661951 25.08188895 -24.2404223 24.44116734 -27.25 23.8125 C-26.04618552 21.31888429 -24.79571278 19.13106917 -23.25 16.8125 C-22.90769067 15.3862111 -22.61978361 13.94622152 -22.375 12.5 C-21.19905145 6.93685879 -19.30093084 3.21086194 -14.5 -0.0625 C-9.25663488 -1.877511 -5.21832239 -1.90669472 0 0 Z " fill="#4C647F" transform="translate(51.25,13.1875)"/>
<path d="M0 0 C0.66 0.33 1.32 0.66 2 1 C2 1.99 2 2.98 2 4 C2.99 4.33 3.98 4.66 5 5 C5 5.99 5 6.98 5 8 C8.72614153 6.88145414 8.72614153 6.88145414 11 4 C12.12812303 5.10097568 13.25237811 6.20591556 14.375 7.3125 C15.00148438 7.92738281 15.62796875 8.54226562 16.2734375 9.17578125 C19.39432692 12.47319157 20.27988326 14.75850179 20.625 19.1875 C20.69976562 20.08855469 20.77453125 20.98960938 20.8515625 21.91796875 C20.92503906 22.94857422 20.92503906 22.94857422 21 24 C21.66 24 22.32 24 23 24 C27.46880228 28.88775249 29.15154238 33.26300288 29.625 39.8125 C29.69976562 40.78832031 29.77453125 41.76414063 29.8515625 42.76953125 C29.92503906 43.87361328 29.92503906 43.87361328 30 45 C25.05621123 43.28641585 20.78875582 40.63171439 16.375 37.875 C15.611875 37.42640625 14.84875 36.9778125 14.0625 36.515625 C8.65246362 33.1177425 6.46637079 30.20104765 5 24 C4.7215625 22.89914063 4.443125 21.79828125 4.15625 20.6640625 C3.71552573 18.62308941 3.27807151 16.58140769 2.84375 14.5390625 C2.18153405 11.67709494 2.18153405 11.67709494 -1 10 C-1.8125 6.5625 -1.8125 6.5625 -2 3 C-1.34 2.01 -0.68 1.02 0 0 Z " fill="#4D647F" transform="translate(44,48)"/>
<path d="M0 0 C8.25075878 4.8460782 15.56759527 10.51205584 20.53125 18.8359375 C20.984375 20.94921875 20.984375 20.94921875 21.09375 22.9609375 C21.55492956 27.04567077 21.73191997 27.39208682 24.40625 30.0859375 C30.28627635 36.27618107 30.70275408 45.71984358 31.61328125 53.875 C31.53125 55.8359375 31.53125 55.8359375 29.53125 57.8359375 C28.97566406 57.24425781 28.42007813 56.65257812 27.84765625 56.04296875 C25.5088803 53.81462404 23.21372564 52.2173179 20.46875 50.5234375 C19.02822266 49.61658203 19.02822266 49.61658203 17.55859375 48.69140625 C15.54652945 47.45820555 13.51760401 46.25208776 11.47265625 45.07421875 C5.75361185 41.6944382 2.27465684 39.57711061 0.53125 32.8359375 C0.32113281 32.07667969 0.11101563 31.31742188 -0.10546875 30.53515625 C-1.88414189 23.61305888 -1.88414189 23.61305888 -0.46875 19.8359375 C0.19125 19.5059375 0.85125 19.1759375 1.53125 18.8359375 C1.66015625 19.91230469 1.7890625 20.98867187 1.921875 22.09765625 C3.24306014 29.64827702 4.93961099 35.06262481 11.24609375 39.82421875 C16.78629248 43.54431048 22.56373237 46.85217868 28.53125 49.8359375 C28.10497794 47.77108772 27.66473551 45.70911929 27.21875 43.6484375 C26.97511719 42.49988281 26.73148438 41.35132813 26.48046875 40.16796875 C25.55673326 36.92539108 24.34416592 34.65008849 22.53125 31.8359375 C22.20125 30.8459375 21.87125 29.8559375 21.53125 28.8359375 C20.87125 28.8359375 20.21125 28.8359375 19.53125 28.8359375 C19.47130859 27.92714844 19.47130859 27.92714844 19.41015625 27 C18.26820693 17.83620916 13.17626176 12.48241966 6.078125 6.91015625 C0.28715018 2.89290716 -4.27094032 1.06474361 -11.46875 1.8359375 C-16.01802835 5.97815617 -16.18846459 10.01479407 -16.48046875 15.80859375 C-16.56830376 17.12518227 -16.56830376 17.12518227 -16.65791321 18.46836853 C-16.84109214 21.27761432 -16.99892641 24.08763772 -17.15625 26.8984375 C-17.27244987 28.72992241 -17.39027436 30.56130501 -17.50976562 32.39257812 C-17.97809392 39.72085068 -18.38859611 47.0512637 -18.73681641 54.38623047 C-18.7795015 55.28079453 -18.82218658 56.17535858 -18.86616516 57.09703064 C-18.94476842 58.77702675 -19.02035778 60.45716799 -19.09220886 62.13746643 C-19.31942064 67.08344104 -19.79643104 71.92993003 -20.46875 76.8359375 C-16.50875 76.8359375 -12.54875 76.8359375 -8.46875 76.8359375 C-8.46875 92.0159375 -8.46875 107.1959375 -8.46875 122.8359375 C-11.13289344 120.17179406 -10.70696113 118.18431148 -10.72099304 114.56201172 C-10.71380753 113.70365723 -10.70662201 112.84530273 -10.69921875 111.9609375 C-10.69853142 110.64053467 -10.69853142 110.64053467 -10.6978302 109.29345703 C-10.69480657 107.43065037 -10.68691695 105.56784626 -10.67456055 103.70507812 C-10.65632421 100.84756551 -10.6540507 97.99037718 -10.65429688 95.1328125 C-10.64938096 93.32551802 -10.64355232 91.51822575 -10.63671875 89.7109375 C-10.63560593 88.85258301 -10.6344931 87.99422852 -10.63334656 87.10986328 C-10.58481391 81.06806531 -10.58481391 81.06806531 -9.46875 78.8359375 C-13.75875 78.5059375 -18.04875 78.1759375 -22.46875 77.8359375 C-21.95748298 68.05692826 -21.43349679 58.27870895 -20.89054871 48.50140381 C-20.62091029 43.63813853 -20.36082257 38.7745393 -20.11071777 33.91023254 C-19.96295155 31.090144 -19.80420646 28.27075375 -19.64227295 25.45144653 C-19.53349695 23.50122266 -19.43775285 21.55028586 -19.34228516 19.59936523 C-18.92454511 12.55275016 -18.51511572 6.64389465 -13.96875 0.9609375 C-9.77634104 -2.18336922 -4.61472005 -2.17592813 0 0 Z M1.53125 26.8359375 C2.53125 29.8359375 2.53125 29.8359375 2.53125 29.8359375 Z M2.53125 30.8359375 C3.53125 33.8359375 3.53125 33.8359375 3.53125 33.8359375 Z M3.53125 34.8359375 C3.53125 35.8259375 3.53125 36.8159375 3.53125 37.8359375 C4.19125 37.5059375 4.85125 37.1759375 5.53125 36.8359375 C4.87125 36.1759375 4.21125 35.5159375 3.53125 34.8359375 Z " fill="#334252" transform="translate(45.46875,43.1640625)"/>
<path d="M0 0 C3.59504916 2.81351674 4.92852504 4.71410016 6 9 C7.2375 10.175625 7.2375 10.175625 8.5 11.375 C11 14 11 14 12.125 17 C12 20 12 20 9.75 22.8125 C5.11353281 26.5005989 0.70521406 26.54876022 -5 26 C-8.54163655 24.9728587 -11.36002992 23.63997008 -14 21 C-14.62971394 13.8212611 -13.35344021 7.44610887 -9.25 1.4375 C-5.93939152 -0.67761098 -3.84750804 -0.60750127 0 0 Z " fill="#E6604B" transform="translate(97,48)"/>
<path d="M0 0 C0.70125 0.33 1.4025 0.66 2.125 1 C5.30775326 2.10704461 7.65328734 2.29748557 11 2 C11.66 1.34 12.32 0.68 13 0 C15.89341599 2.89341599 15.75067905 6.16497351 16.1875 10.0625 C16.28224609 10.80822266 16.37699219 11.55394531 16.47460938 12.32226562 C16.69917159 14.20961677 16.85518871 16.10486089 17 18 C16 19 16 19 13.49975586 19.11352539 C12.41573486 19.10828857 11.33171387 19.10305176 10.21484375 19.09765625 C9.04501953 19.09443359 7.87519531 19.09121094 6.66992188 19.08789062 C5.43822266 19.07951172 4.20652344 19.07113281 2.9375 19.0625 C1.08415039 19.05573242 1.08415039 19.05573242 -0.80664062 19.04882812 C-3.87114117 19.03699608 -6.93554721 19.02051173 -10 19 C-9.98428955 20.30670654 -9.9685791 21.61341309 -9.95239258 22.9597168 C-9.8980328 27.81447164 -9.86362774 32.66919964 -9.83520508 37.52416992 C-9.82013228 39.62415086 -9.79967059 41.7241004 -9.77368164 43.82397461 C-9.73723246 46.84496824 -9.72025841 49.86554511 -9.70703125 52.88671875 C-9.69154739 53.82335861 -9.67606354 54.75999847 -9.66011047 55.72502136 C-9.65885868 60.58945316 -9.67523238 64.13784765 -13 68 C-17.13402166 69.87200981 -19.05867198 70.33120801 -23.375 68.8125 C-26 67 -26 67 -27 64 C-26.195625 64.4640625 -26.195625 64.4640625 -25.375 64.9375 C-22.47178291 66.23630765 -20.18861555 66.86714102 -17 67 C-14.63300663 65.72201007 -14.63300663 65.72201007 -13 63 C-12.37607778 59.522787 -12.39502034 56.07258658 -12.390625 52.546875 C-12.37408875 51.53151672 -12.35755249 50.51615845 -12.34051514 49.47003174 C-12.2919661 46.22996005 -12.2706484 42.99035795 -12.25 39.75 C-12.22184617 37.55205962 -12.19191958 35.35414118 -12.16015625 33.15625 C-12.08286996 27.77061586 -12.04241318 22.38647351 -12 17 C-3.09 17 5.82 17 15 17 C14.505 15.515 14.505 15.515 14 14 C13.87218214 11.32605036 13.95608129 8.67904143 14 6 C13.154375 6.391875 12.30875 6.78375 11.4375 7.1875 C6.93785454 8.25105256 4.9944536 7.18564442 1 5 C-0.9375 3.3125 -0.9375 3.3125 -2 2 C-1.34 2 -0.68 2 0 2 C0 1.34 0 0.68 0 0 Z M6 5 C10 6 10 6 10 6 Z " fill="#2F3A48" transform="translate(63,103)"/>
<path d="M0 0 C3.59504916 2.81351674 4.92852504 4.71410016 6 9 C7.2375 10.175625 7.2375 10.175625 8.5 11.375 C11 14 11 14 12.125 17 C12 20 12 20 9.6875 22.875 C7 25 7 25 5 25 C5 24.34 5 23.68 5 23 C5.495 22.525625 5.99 22.05125 6.5 21.5625 C8.34626591 20.00030058 8.34626591 20.00030058 8 17 C7.34 17.33 6.68 17.66 6 18 C5.731875 17.360625 5.46375 16.72125 5.1875 16.0625 C4.11332248 13.66868314 4.11332248 13.66868314 1 13 C-1.33299825 12.96045766 -3.66708189 12.95598268 -6 13 C-5.67 12.01 -5.34 11.02 -5 10 C-3.02 10 -1.04 10 1 10 C1 8.35 1 6.7 1 5 C-1.31 5 -3.62 5 -6 5 C-8.98435133 10.12935384 -10.61021235 13.89787647 -10 20 C-9.67 20.66 -9.34 21.32 -9 22 C-5.9600352 22.69337792 -5.9600352 22.69337792 -2.4375 23.125 C-1.23996094 23.29257813 -0.04242188 23.46015625 1.19140625 23.6328125 C2.11824219 23.75398438 3.04507813 23.87515625 4 24 C4 24.66 4 25.32 4 26 C-2.18651231 26.37876606 -6.49132923 25.92296816 -12 23 C-14 21 -14 21 -14.3125 17.4375 C-14.15210584 11.5670737 -12.56335823 6.28920312 -9.25 1.4375 C-5.93939152 -0.67761098 -3.84750804 -0.60750127 0 0 Z " fill="#CA6052" transform="translate(97,48)"/>
<path d="M0 0 C0.66 0.33 1.32 0.66 2 1 C2 1.99 2 2.98 2 4 C2.99 4.33 3.98 4.66 5 5 C5 5.99 5 6.98 5 8 C8.72614153 6.88145414 8.72614153 6.88145414 11 4 C12.03531726 4.90027588 13.05294165 5.82093035 14.0625 6.75 C14.63097656 7.26046875 15.19945313 7.7709375 15.78515625 8.296875 C17 10 17 10 16.828125 12.05859375 C15.57857682 14.98795907 13.24112507 16.75887493 11 19 C9.51972881 21.27734029 8.2730969 23.59526142 7 26 C3.89192014 22.89192014 3.76564014 18.96578626 2.87890625 14.75 C2.21741895 11.69450483 2.21741895 11.69450483 -1 10 C-1.8125 6.5625 -1.8125 6.5625 -2 3 C-1.34 2.01 -0.68 1.02 0 0 Z " fill="#4D6680" transform="translate(44,48)"/>
<path d="M0 0 C1.46162662 2.71942096 2.407571 5.21041115 3.0703125 8.22265625 C3.33134766 9.40118164 3.33134766 9.40118164 3.59765625 10.60351562 C3.85869141 11.82071289 3.85869141 11.82071289 4.125 13.0625 C4.30675781 13.87783203 4.48851562 14.69316406 4.67578125 15.53320312 C5.38598909 18.78253751 6 21.66079974 6 25 C6.64453125 25.2165625 7.2890625 25.433125 7.953125 25.65625 C12.17062649 27.5162763 15.89647737 29.98513785 19.75 32.5 C20.52988281 32.99886719 21.30976562 33.49773437 22.11328125 34.01171875 C23.22509766 34.73294922 23.22509766 34.73294922 24.359375 35.46875 C25.03452148 35.90638672 25.70966797 36.34402344 26.40527344 36.79492188 C28 38 28 38 29 40 C24.25 38.125 24.25 38.125 22 37 C21.67 37.66 21.34 38.32 21 39 C18.69 37.68 16.38 36.36 14 35 C14 34.34 14 33.68 14 33 C13.0925 32.71125 12.185 32.4225 11.25 32.125 C4.41653905 29.75957121 4.41653905 29.75957121 2.8046875 26.8203125 C-0.09862744 18.40313895 -2.19542204 9.95684362 -2 1 C-1.34 0.67 -0.68 0.34 0 0 Z M1 11 C2 14 2 14 2 14 Z M2 15 C3 18 3 18 3 18 Z M3 20 C4 23 4 23 4 23 Z M4 24 C5 26 5 26 5 26 Z " fill="#314359" transform="translate(34,63)"/>
<path d="M0 0 C2.33504124 2.33504124 2.54142249 4.09975717 3.19238281 7.25683594 C4.42751701 13.69912532 4.42751701 13.69912532 8.0390625 18.99609375 C10.19500071 20.27789859 10.19500071 20.27789859 12.390625 21.140625 C12.92171875 21.42421875 13.4528125 21.7078125 14 22 C14 22.99 14 23.98 14 25 C15.98 25.99 17.96 26.98 20 28 C19.01 28.66 18.02 29.32 17 30 C1.41569456 20.52932752 1.41569456 20.52932752 -0.875 11.4375 C-2.37518109 4.60772818 -2.37518109 4.60772818 -1 1 C-0.67 0.67 -0.34 0.34 0 0 Z M1 8 C2 11 2 11 2 11 Z M2 12 C3 15 3 15 3 15 Z M3 16 C3 16.99 3 17.98 3 19 C3.66 18.67 4.32 18.34 5 18 C4.34 17.34 3.68 16.68 3 16 Z " fill="#2F465C" transform="translate(46,62)"/>
<path d="M0 0 C3.21312475 2.11774131 4.85021821 3.43511016 6.75 6.8125 C7.36453343 10.47387983 7.62012785 14.10465003 7.75 17.8125 C6.76 18.1425 5.77 18.4725 4.75 18.8125 C5.08 16.1725 5.41 13.5325 5.75 10.8125 C4.76 11.1425 3.77 11.4725 2.75 11.8125 C2.75 11.1525 2.75 10.4925 2.75 9.8125 C3.41 9.8125 4.07 9.8125 4.75 9.8125 C1.8704024 5.23501491 1.8704024 5.23501491 -2.25 1.8125 C-6.28275686 1.15309914 -10.39451296 0.9660049 -14.16796875 2.6875 C-18.29396169 5.78454162 -19.30547238 8.99540913 -20.25 13.8125 C-20.58 13.8125 -20.91 13.8125 -21.25 13.8125 C-21.60957762 10.03693495 -21.36727831 8.04254592 -19.625 4.625 C-14.22954522 -1.76435434 -7.58878127 -2.77282393 0 0 Z " fill="#3D4959" transform="translate(51.25,13.1875)"/>
<path d="M0 0 C0.33 0.66 0.66 1.32 1 2 C0.0625 4.625 0.0625 4.625 -1 7 C-0.01 6.67 0.98 6.34 2 6 C3.98046875 6.55859375 3.98046875 6.55859375 6.1875 7.4375 C10.76609728 9.05303758 14.15381628 9.48461837 19 9 C21.80167287 7.73666727 21.80167287 7.73666727 24 6 C24.99 5.34 25.98 4.68 27 4 C27.495 4.99 27.495 4.99 28 6 C27.34 6 26.68 6 26 6 C25.67 6.99 25.34 7.98 25 9 C21.0873418 12.40779908 17.36429721 12.3837946 12.4140625 12.23046875 C9.37923844 11.94073636 6.84299395 11.0888062 4 10 C1.01338049 9.26938895 -1.9904223 8.62866734 -5 8 C-3.58208437 5.06553114 -2.01667393 2.56667591 0 0 Z " fill="#344554" transform="translate(29,29)"/>
<path d="M0 0 C1.051875 0.495 1.051875 0.495 2.125 1 C5.30775326 2.10704461 7.65328734 2.29748557 11 2 C11.66 1.34 12.32 0.68 13 0 C15.90527612 2.90527612 15.71264319 6.21099025 16.125 10.125 C16.21136719 10.87910156 16.29773438 11.63320312 16.38671875 12.41015625 C16.59889261 14.27257127 16.80045763 16.13618931 17 18 C13.41949869 13.82744729 13.73343202 11.33135955 14 6 C13.154375 6.391875 12.30875 6.78375 11.4375 7.1875 C6.93785454 8.25105256 4.9944536 7.18564442 1 5 C-0.9375 3.3125 -0.9375 3.3125 -2 2 C-1.34 2 -0.68 2 0 2 C0 1.34 0 0.68 0 0 Z M6 5 C10 6 10 6 10 6 Z " fill="#304355" transform="translate(63,103)"/>
<path d="M0 0 C2.49005677 2.49005677 2.29703766 3.37470732 2.3125 6.8125 C2.20360577 11.00492777 2.03243948 13.86973989 -1 17 C-5.13402166 18.87200981 -7.05867198 19.33120801 -11.375 17.8125 C-14 16 -14 16 -15 13 C-14.46375 13.309375 -13.9275 13.61875 -13.375 13.9375 C-10.47178291 15.23630765 -8.18861555 15.86714102 -5 16 C-2.09965405 13.83003314 -1.11429948 12.56563588 -0.390625 8.984375 C-0.32101563 7.38335937 -0.32101563 7.38335937 -0.25 5.75 C-0.19328125 4.67234375 -0.1365625 3.5946875 -0.078125 2.484375 C-0.05234375 1.66453125 -0.0265625 0.8446875 0 0 Z " fill="#25343F" transform="translate(51,154)"/>
<path d="M0 0 C-0.33 1.98 -0.66 3.96 -1 6 C-2.32 5.01 -3.64 4.02 -5 3 C-5 3.66 -5 4.32 -5 5 C-4.34 5.33 -3.68 5.66 -3 6 C-3.99 6 -4.98 6 -6 6 C-6.33 5.01 -6.66 4.02 -7 3 C-7 3.99 -7 4.98 -7 6 C-5.35 6.33 -3.7 6.66 -2 7 C-2.99 8.485 -2.99 8.485 -4 10 C-5.32 9.67 -6.64 9.34 -8 9 C-9.125 2.25 -9.125 2.25 -8 0 C-4.71585695 -0.95067299 -3.30306592 -1.10102197 0 0 Z " fill="#F58975" transform="translate(101,61)"/>
<path d="M0 0 C3 0.0625 3 0.0625 6 1 C7.375 3.5625 7.375 3.5625 8 6 C7.34 6.66 6.68 7.32 6 8 C5.34 8 4.68 8 4 8 C4 6.68 4 5.36 4 4 C3.01 4 2.02 4 1 4 C0.34 5.32 -0.32 6.64 -1 8 C-1.66 7.67 -2.32 7.34 -3 7 C-2.25 2.25 -2.25 2.25 0 0 Z " fill="#7A8DA5" transform="translate(53,102)"/>
<path d="M0 0 C0.99 0.99 1.98 1.98 3 3 C3.66 2.67 4.32 2.34 5 2 C4.67 3.65 4.34 5.3 4 7 C0.37 6.67 -3.26 6.34 -7 6 C-7.33 4.68 -7.66 3.36 -8 2 C-7.34 1.67 -6.68 1.34 -6 1 C-6 2.32 -6 3.64 -6 5 C-5.67 4.01 -5.34 3.02 -5 2 C-3.68 2 -2.36 2 -1 2 C-0.67 1.34 -0.34 0.68 0 0 Z " fill="#E77260" transform="translate(101,62)"/>
<path d="M0 0 C3.75 0.375 3.75 0.375 6.6875 2.625 C8.75 5.375 8.75 5.375 8.75 9.375 C8.09 9.375 7.43 9.375 6.75 9.375 C6.42 7.725 6.09 6.075 5.75 4.375 C1.03400182 3.45029447 -1.92265609 3.14576223 -6.25 5.375 C-3.86498029 0.44595926 -3.86498029 0.44595926 0 0 Z " fill="#B45F58" transform="translate(93.25,47.625)"/>
<path d="M0 0 C0.66 0 1.32 0 2 0 C2.33 3.63 2.66 7.26 3 11 C0.36 11 -2.28 11 -5 11 C-4.01 10.67 -3.02 10.34 -2 10 C-1.34 6.7 -0.68 3.4 0 0 Z " fill="#4E617A" transform="translate(75,109)"/>
<path d="M0 0 C1.44098611 0.76429661 2.87766054 1.53672555 4.3125 2.3125 C5.11300781 2.74175781 5.91351563 3.17101562 6.73828125 3.61328125 C8.83787272 4.90059554 10.35447721 6.18406708 12 8 C10.02 8.99 10.02 8.99 8 10 C6.68 8.68 5.36 7.36 4 6 C4.33 5.67 4.66 5.34 5 5 C3.02 4.01 1.04 3.02 -1 2 C-0.67 1.34 -0.34 0.68 0 0 Z " fill="#25374B" transform="translate(60,85)"/>
<path d="M0 0 C2.17972632 2.00203124 2.99674336 2.99063716 4 5.875 C4 9 4 9 1.6875 11.875 C-1 14 -1 14 -3 14 C-3 13.34 -3 12.68 -3 12 C-2.50886719 11.56042969 -2.01773438 11.12085937 -1.51171875 10.66796875 C0.48633518 8.46339762 0.31458514 7.23545816 0.1875 4.3125 C0.16042969 3.50425781 0.13335937 2.69601563 0.10546875 1.86328125 C0.07066406 1.24839844 0.03585938 0.63351563 0 0 Z " fill="#AD5C5B" transform="translate(105,59)"/>
<path d="M0 0 C2.31 1.98 4.62 3.96 7 6 C6 10 6 10 4 12 C2 9 2 9 2.375 6.3125 C2.58125 5.549375 2.7875 4.78625 3 4 C2.01 3.67 1.02 3.34 0 3 C0 2.01 0 1.02 0 0 Z " fill="#5A6F88" transform="translate(54,52)"/>
<path d="M0 0 C2.97 0.33 5.94 0.66 9 1 C9 2.32 9 3.64 9 5 C4.545 4.01 4.545 4.01 0 3 C0 2.01 0 1.02 0 0 Z " fill="#A35955" transform="translate(88,77)"/>
<path d="M0 0 C1.69433918 3.0469629 2.49467112 5.82821466 3.125 9.25 C3.29257812 10.14203125 3.46015625 11.0340625 3.6328125 11.953125 C3.75398438 12.62859375 3.87515625 13.3040625 4 14 C3.34 14 2.68 14 2 14 C-2.59225513 5.738041 -2.59225513 5.738041 -2 1 C-1.34 0.67 -0.68 0.34 0 0 Z " fill="#364D67" transform="translate(34,63)"/>
<path d="M0 0 C2.44553939 3.66830909 2.95607424 6.63377915 3 11 C2.0625 13.5 2.0625 13.5 1 15 C0.01 15 -0.98 15 -2 15 C-1.54177532 11.53058454 -1.10868317 8.32604951 0 5 C0.03874921 3.33378384 0.0450286 1.66605828 0 0 Z " fill="#59718F" transform="translate(31,54)"/>
<path d="M0 0 C1.32 1.32 2.64 2.64 4 4 C3.67 4.66 3.34 5.32 3 6 C-0.10520767 7.00167989 -2.74975106 7 -6 7 C-6.33 6.01 -6.66 5.02 -7 4 C-5.02 3.67 -3.04 3.34 -1 3 C-0.67 2.01 -0.34 1.02 0 0 Z " fill="#526A85" transform="translate(53,85)"/>
<path d="M0 0 C0.66 0 1.32 0 2 0 C2.50435694 1.9363704 3.00333874 3.87414146 3.5 5.8125 C3.7784375 6.89144531 4.056875 7.97039062 4.34375 9.08203125 C5 12 5 12 5 15 C4.34 15 3.68 15 3 15 C2.49564306 13.0636296 1.99666126 11.12585854 1.5 9.1875 C1.2215625 8.10855469 0.943125 7.02960938 0.65625 5.91796875 C0 3 0 3 0 0 Z " fill="#2D394A" transform="translate(71,77)"/>
<path d="M0 0 C-0.928125 0.433125 -1.85625 0.86625 -2.8125 1.3125 C-7.38956244 3.73565071 -8.5756582 4.68230703 -10.1875 9.6875 C-10.455625 10.780625 -10.72375 11.87375 -11 13 C-11.33 13 -11.66 13 -12 13 C-12.50338797 7.71442634 -11.34676996 5.09049661 -8 1 C-5.04047717 -1.12715703 -3.40733104 -1.21690394 0 0 Z " fill="#344255" transform="translate(42,14)"/>
<path d="M0 0 C0.66 0.33 1.32 0.66 2 1 C2.125 7.625 2.125 7.625 1 11 C0.01 10.67 -0.98 10.34 -2 10 C-1.85950482 8.52031676 -1.71245174 7.04125484 -1.5625 5.5625 C-1.48128906 4.73878906 -1.40007812 3.91507813 -1.31640625 3.06640625 C-1 1 -1 1 0 0 Z " fill="#925752" transform="translate(78,53)"/>
<path d="M0 0 C0.33 1.32 0.66 2.64 1 4 C0.34 4 -0.32 4 -1 4 C-1.33 4.99 -1.66 5.98 -2 7 C-1.67 7.66 -1.34 8.32 -1 9 C-2.32 8.34 -3.64 7.68 -5 7 C-5.1875 4.625 -5.1875 4.625 -5 2 C-2 0 -2 0 0 0 Z " fill="#7D92A8" transform="translate(55,19)"/>
<path d="M0 0 C3.37462715 0.54723683 5.08235 1.0549 8 3 C8 3.99 8 4.98 8 6 C5.21788056 5.62403791 3.4120716 5.32681541 1.1875 3.5625 C0 2 0 2 0 0 Z " fill="#9A5C60" transform="translate(86,82)"/>
<path d="M0 0 C0.99 0.33 1.98 0.66 3 1 C3.33 3.64 3.66 6.28 4 9 C3.01 8.67 2.02 8.34 1 8 C-0.1875 4.4375 -0.1875 4.4375 -1 1 C-0.67 0.67 -0.34 0.34 0 0 Z " fill="#876060" transform="translate(70,54)"/>
<path d="M0 0 C2.475 0.495 2.475 0.495 5 1 C5 2.65 5 4.3 5 6 C3.35 6 1.7 6 0 6 C0 4.02 0 2.04 0 0 Z " fill="#60778C" transform="translate(52,105)"/>
<path d="M0 0 C0.515625 0.309375 1.03125 0.61875 1.5625 0.9375 C4.1293925 2.18828017 4.1293925 2.18828017 7.6875 2.5 C9.3271875 2.7475 9.3271875 2.7475 11 3 C11.33 3.66 11.66 4.32 12 5 C8.57318882 6.10867421 7.17896517 6.06883276 3.75 4.75 C1 3 1 3 0 0 Z " fill="#2E3945" transform="translate(36,167)"/>
<path d="M0 0 C0.66 0.99 1.32 1.98 2 3 C1.34 4.32 0.68 5.64 0 7 C-1.32 6.67 -2.64 6.34 -4 6 C-3.67 4.68 -3.34 3.36 -3 2 C-2.01 2 -1.02 2 0 2 C0 1.34 0 0.68 0 0 Z " fill="#435D74" transform="translate(45,57)"/>
<path d="M0 0 C0.33 0.99 0.66 1.98 1 3 C2.32 2.67 3.64 2.34 5 2 C5.33 2.99 5.66 3.98 6 5 C5.67 5.66 5.34 6.32 5 7 C3.68 6.67 2.36 6.34 1 6 C0.67 4.02 0.34 2.04 0 0 Z " fill="#5E7388" transform="translate(52,22)"/>
<path d="M0 0 C0.66 0.33 1.32 0.66 2 1 C1.54177532 4.46941546 1.10868317 7.67395049 0 11 C-1.82941851 7.23355012 -2.23162684 5.03077875 -1 1 C-0.67 0.67 -0.34 0.34 0 0 Z " fill="#5B7590" transform="translate(44,48)"/>
<path d="M0 0 C0.66 0.66 1.32 1.32 2 2 C1.34 2 0.68 2 0 2 C-0.33 2.99 -0.66 3.98 -1 5 C-3.33116317 6.60769874 -4.42816426 7.09530596 -7.25 6.625 C-7.8275 6.41875 -8.405 6.2125 -9 6 C-8.071875 5.566875 -7.14375 5.13375 -6.1875 4.6875 C-3.52815927 3.27961373 -1.91894095 2.23876444 0 0 Z " fill="#242F3E" transform="translate(55,33)"/>
<path d="M0 0 C2.96404505 2.80804268 5.44499019 5.18315774 7 9 C5.0625 8.1875 5.0625 8.1875 3 7 C2.67 6.01 2.34 5.02 2 4 C1.34 4 0.68 4 0 4 C0 2.68 0 1.36 0 0 Z " fill="#39475D" transform="translate(65,68)"/>
<path d="M0 0 C0.33 0.99 0.66 1.98 1 3 C-2.75 6 -2.75 6 -5 6 C-5.33 6.66 -5.66 7.32 -6 8 C-5.67 6.68 -5.34 5.36 -5 4 C-4.34 4 -3.68 4 -3 4 C-2.67 3.01 -2.34 2.02 -2 1 C-1.34 0.67 -0.68 0.34 0 0 Z " fill="#657A93" transform="translate(56,63)"/>
<path d="M0 0 C1.32 0.33 2.64 0.66 4 1 C4 1.66 4 2.32 4 3 C4.99 3 5.98 3 7 3 C7 3.66 7 4.32 7 5 C6.01 5.33 5.02 5.66 4 6 C3.67 5.01 3.34 4.02 3 3 C2.01 2.67 1.02 2.34 0 2 C0 1.34 0 0.68 0 0 Z " fill="#49546E" transform="translate(56,100)"/>
<path d="M0 0 C0.66 0.99 1.32 1.98 2 3 C1.67 3.99 1.34 4.98 1 6 C-1.5625 7.1875 -1.5625 7.1875 -4 8 C-4 7.34 -4 6.68 -4 6 C-3 5 -2 4 -1 3 C-0.67 2.01 -0.34 1.02 0 0 Z " fill="#A0493F" transform="translate(106,65)"/>
<path d="M0 0 C1.125 1.75 1.125 1.75 2 4 C1.125 6.25 1.125 6.25 0 8 C-0.99 6.68 -1.98 5.36 -3 4 C-2.01 3.67 -1.02 3.34 0 3 C0 2.01 0 1.02 0 0 Z " fill="#DA5A4D" transform="translate(104,58)"/>
<path d="M0 0 C0.99 0.33 1.98 0.66 3 1 C2.34 1 1.68 1 1 1 C1.226875 1.598125 1.45375 2.19625 1.6875 2.8125 C1.790625 3.534375 1.89375 4.25625 2 5 C0.5625 6.75 0.5625 6.75 -1 8 C-1.93065133 5.39417629 -2.14917407 4.35801776 -1.0625 1.75 C-0.711875 1.1725 -0.36125 0.595 0 0 Z " fill="#F16252" transform="translate(89,54)"/>
</svg>
