<?xml version="1.0" encoding="UTF-8"?>
<svg version="1.1" xmlns="http://www.w3.org/2000/svg" width="217" height="217">
<path d="M0 0 C3.04793577 2.28407963 3.74812079 4.27389909 4.58984375 7.94140625 C4.63109375 8.99328125 4.67234375 10.04515625 4.71484375 11.12890625 C5.29621094 10.92394531 5.87757812 10.71898438 6.4765625 10.5078125 C10.0096025 9.9097237 11.76146814 11.54772556 14.62109375 13.484375 C21.18344461 18.63875879 24.87030514 23.99299781 26.71484375 32.12890625 C27.13065412 36.97184704 27.11204616 41.79014538 27.078125 46.6484375 C27.07760529 48.0384674 27.07812728 49.42849804 27.07963562 50.81852722 C27.07954645 53.7140111 27.0692257 56.60921329 27.05102539 59.50463867 C27.02823333 63.21126111 27.02781918 66.91747686 27.03454304 70.62415028 C27.03788538 73.48692936 27.03124972 76.34961601 27.0214138 79.21237755 C27.01757406 80.57949019 27.01640849 81.94661313 27.01799965 83.31373024 C27.01837114 85.22065173 27.00425593 87.12755938 26.98950195 89.03442383 C26.98259087 90.65916374 26.98259087 90.65916374 26.97554016 92.31672668 C26.71497691 95.12746985 26.27930517 96.7955163 24.71484375 99.12890625 C22.65234375 99.75390625 22.65234375 99.75390625 20.71484375 100.12890625 C20.38484375 100.78890625 20.05484375 101.44890625 19.71484375 102.12890625 C-0.74515625 102.12890625 -21.20515625 102.12890625 -42.28515625 102.12890625 C-42.28515625 101.46890625 -42.28515625 100.80890625 -42.28515625 100.12890625 C-43.27515625 99.79890625 -44.26515625 99.46890625 -45.28515625 99.12890625 C-47.60630222 95.82032819 -47.55441605 92.7310048 -47.59155273 88.77490234 C-47.60754013 87.48611176 -47.62352753 86.19732117 -47.63999939 84.86947632 C-47.646379 83.4637695 -47.65177082 82.05805791 -47.65625 80.65234375 C-47.66522453 79.20227977 -47.67434652 77.75221671 -47.68360901 76.30215454 C-47.70009167 73.26082109 -47.70779698 70.21959757 -47.71069336 67.17822266 C-47.71605697 63.30468735 -47.7536541 59.43220498 -47.79943752 55.55896568 C-47.82937901 52.56125247 -47.83642068 49.56378669 -47.83741951 46.56593704 C-47.84159304 45.13953487 -47.85391066 43.71312997 -47.87493706 42.28687668 C-48.00654919 32.58175269 -47.18315951 24.76585214 -40.63523865 17.23007202 C-36.31001854 12.90180439 -31.13099557 11.469803 -25.28515625 10.12890625 C-25.38828125 9.22140625 -25.49140625 8.31390625 -25.59765625 7.37890625 C-25.28515625 4.12890625 -25.28515625 4.12890625 -22.97265625 1.81640625 C-16.80624384 -2.05552712 -6.86983246 -2.61875665 0 0 Z M-20.15234375 6.0234375 C-21.44309209 8.02397061 -21.44309209 8.02397061 -21.28515625 10.12890625 C-14.35515625 10.12890625 -7.42515625 10.12890625 -0.28515625 10.12890625 C-0.61515625 8.47890625 -0.94515625 6.82890625 -1.28515625 5.12890625 C-5.02144546 4.28100298 -8.58023168 3.90759493 -12.41015625 3.81640625 C-13.44398437 3.77902344 -14.4778125 3.74164063 -15.54296875 3.703125 C-18.39858482 3.86751711 -18.39858482 3.86751711 -20.15234375 6.0234375 Z M-13.97265625 23.19140625 C-15.57311976 25.23705001 -15.57311976 25.23705001 -15.72265625 28.69140625 C-15.90828125 29.82578125 -16.09390625 30.96015625 -16.28515625 32.12890625 C-17.60162744 32.82828157 -18.93537776 33.49619758 -20.28515625 34.12890625 C-21.10100193 37.18799038 -21.10100193 37.18799038 -21.28515625 40.12890625 C-22.27515625 40.12890625 -23.26515625 40.12890625 -24.28515625 40.12890625 C-24.28515625 42.76890625 -24.28515625 45.40890625 -24.28515625 48.12890625 C-26.26515625 49.11890625 -26.26515625 49.11890625 -28.28515625 50.12890625 C-28.28515625 54.08890625 -28.28515625 58.04890625 -28.28515625 62.12890625 C-30.59515625 62.12890625 -32.90515625 62.12890625 -35.28515625 62.12890625 C-35.28515625 64.10890625 -35.28515625 66.08890625 -35.28515625 68.12890625 C-34.62515625 68.12890625 -33.96515625 68.12890625 -33.28515625 68.12890625 C-32.62515625 67.13890625 -31.96515625 66.14890625 -31.28515625 65.12890625 C-28.23440541 64.86241925 -25.38889446 64.78133479 -22.33984375 64.8359375 C-21.45483185 64.84018234 -20.56981995 64.84442719 -19.6579895 64.84880066 C-16.8250718 64.86562366 -13.99285973 64.903282 -11.16015625 64.94140625 C-9.24219776 64.95644843 -7.32422814 64.97013764 -5.40625 64.98242188 C-0.69894594 65.01553898 4.00782919 65.0673457 8.71484375 65.12890625 C9.04484375 64.13890625 9.37484375 63.14890625 9.71484375 62.12890625 C8.72484375 61.79890625 7.73484375 61.46890625 6.71484375 61.12890625 C6.74964844 60.35804687 6.78445312 59.5871875 6.8203125 58.79296875 C6.86091797 57.28863281 6.86091797 57.28863281 6.90234375 55.75390625 C6.93714844 54.75617188 6.97195312 53.7584375 7.0078125 52.73046875 C6.91113281 51.87195313 6.81445312 51.0134375 6.71484375 50.12890625 C5.72484375 49.46890625 4.73484375 48.80890625 3.71484375 48.12890625 C3.52734375 44.50390625 3.52734375 44.50390625 3.71484375 41.12890625 C2.39484375 40.79890625 1.07484375 40.46890625 -0.28515625 40.12890625 C-0.78015625 37.15890625 -0.78015625 37.15890625 -1.28515625 34.12890625 C-2.60515625 33.79890625 -3.92515625 33.46890625 -5.28515625 33.12890625 C-5.19234375 31.52015625 -5.19234375 31.52015625 -5.09765625 29.87890625 C-5.0224013 26.22975221 -5.0224013 26.22975221 -6.53515625 23.69140625 C-9.00501909 21.48617157 -11.14889698 21.41348375 -13.97265625 23.19140625 Z M12.71484375 62.12890625 C13.71484375 64.12890625 13.71484375 64.12890625 13.71484375 64.12890625 Z M11.71484375 66.12890625 C12.04484375 67.11890625 12.37484375 68.10890625 12.71484375 69.12890625 C12.71484375 68.13890625 12.71484375 67.14890625 12.71484375 66.12890625 C12.38484375 66.12890625 12.05484375 66.12890625 11.71484375 66.12890625 Z M-35.28515625 69.12890625 C-35.28515625 72.75890625 -35.28515625 76.38890625 -35.28515625 80.12890625 C-33.07145574 78.34232868 -33.07145574 78.34232868 -33.08984375 75.96484375 C-33.11304687 75.15273437 -33.13625 74.340625 -33.16015625 73.50390625 C-33.17820312 72.68664062 -33.19625 71.869375 -33.21484375 71.02734375 C-33.23804687 70.40085937 -33.26125 69.774375 -33.28515625 69.12890625 C-33.94515625 69.12890625 -34.60515625 69.12890625 -35.28515625 69.12890625 Z M-24.28515625 69.12890625 C-23.95515625 70.11890625 -23.62515625 71.10890625 -23.28515625 72.12890625 C-21.75592529 72.10534058 -21.75592529 72.10534058 -20.19580078 72.08129883 C-16.42016473 72.02707598 -12.64456321 71.99258441 -8.86865234 71.96411133 C-7.23317684 71.94900714 -5.59774196 71.92852236 -3.96240234 71.90258789 C-1.61415601 71.8662748 0.7335558 71.84919693 3.08203125 71.8359375 C3.81541718 71.82045364 4.5488031 71.80496979 5.30441284 71.78901672 C7.36669922 71.78833008 7.36669922 71.78833008 10.71484375 72.12890625 C11.37484375 73.11890625 12.03484375 74.10890625 12.71484375 75.12890625 C13.04484375 73.47890625 13.37484375 71.82890625 13.71484375 70.12890625 C9.46538522 69.08903028 5.35556519 68.99900994 1.0078125 69.03125 C0.28241776 69.03266495 -0.44297699 69.0340799 -1.19035339 69.03553772 C-3.49283075 69.04110694 -5.7952086 69.05365364 -8.09765625 69.06640625 C-9.66471213 69.07142523 -11.23176955 69.07598744 -12.79882812 69.08007812 C-16.62764214 69.09106627 -20.45638236 69.10830952 -24.28515625 69.12890625 Z M12.71484375 75.12890625 C13.71484375 78.12890625 13.71484375 78.12890625 13.71484375 78.12890625 Z M-33.28515625 79.12890625 C-32.28515625 81.12890625 -32.28515625 81.12890625 -32.28515625 81.12890625 Z M-34.28515625 82.12890625 C-33.28515625 84.12890625 -33.28515625 84.12890625 -33.28515625 84.12890625 Z M10.71484375 82.12890625 C10.06233643 82.78084961 9.4098291 83.43279297 8.73754883 84.10449219 C4.89749832 86.67631181 1.80737381 86.64030969 -2.6484375 86.51953125 C-3.44042038 86.51387146 -4.23240326 86.50821167 -5.04838562 86.50238037 C-7.56543719 86.48007933 -10.08103868 86.42989764 -12.59765625 86.37890625 C-14.30922416 86.358833 -16.02081449 86.34058367 -17.73242188 86.32421875 C-21.9172211 86.2802355 -26.10094325 86.21125394 -30.28515625 86.12890625 C-30.61515625 85.46890625 -30.94515625 84.80890625 -31.28515625 84.12890625 C-31.94515625 84.78890625 -32.60515625 85.44890625 -33.28515625 86.12890625 C-26.99484644 91.05599103 -20.46193417 90.67745077 -12.78710938 90.54052734 C-10.65836886 90.50387548 -8.53136799 90.49950967 -6.40234375 90.5 C1.91505138 90.64566171 1.91505138 90.64566171 9.71484375 88.12890625 C11.54103462 85.61525869 11.54103462 85.61525869 12.71484375 83.12890625 C12.05484375 82.79890625 11.39484375 82.46890625 10.71484375 82.12890625 Z " fill="#484849" transform="translate(119.28515625,57.87109375)"/>
<path d="M0 0 C3.04793577 2.28407963 3.74812079 4.27389909 4.58984375 7.94140625 C4.63109375 8.99328125 4.67234375 10.04515625 4.71484375 11.12890625 C5.29621094 10.92394531 5.87757812 10.71898438 6.4765625 10.5078125 C10.0096025 9.9097237 11.76146814 11.54772556 14.62109375 13.484375 C21.1767948 18.63353571 24.8889253 23.99281099 26.71484375 32.12890625 C27.11023657 37.01673396 27.0659495 41.88960902 27.0078125 46.7890625 C27.00220586 48.18867026 26.99794082 49.58828398 26.99494934 50.98789978 C26.98358436 54.64253463 26.95419117 58.29680247 26.9208374 61.95129395 C26.8899546 65.6920882 26.8764054 69.43294269 26.86132812 73.17382812 C26.82931171 80.49235344 26.77821896 87.8105781 26.71484375 95.12890625 C25.72484375 95.45890625 24.73484375 95.78890625 23.71484375 96.12890625 C23.38484375 83.91890625 23.05484375 71.70890625 22.71484375 59.12890625 C21.39484375 58.79890625 20.07484375 58.46890625 18.71484375 58.12890625 C18.71484375 55.81890625 18.71484375 53.50890625 18.71484375 51.12890625 C15.08484375 50.79890625 11.45484375 50.46890625 7.71484375 50.12890625 C7.71484375 53.75890625 7.71484375 57.38890625 7.71484375 61.12890625 C8.68421875 61.10828125 9.65359375 61.08765625 10.65234375 61.06640625 C13.71484375 61.12890625 13.71484375 61.12890625 14.71484375 62.12890625 C15.07468182 65.22183016 15.08624867 68.33037914 15.15234375 71.44140625 C15.19810547 72.30958984 15.24386719 73.17777344 15.29101562 74.07226562 C15.3349277 76.55997986 15.29428413 78.70749117 14.71484375 81.12890625 C11.875 83.609375 11.875 83.609375 8.71484375 85.12890625 C7.72484375 85.78890625 6.73484375 86.44890625 5.71484375 87.12890625 C3.21945873 87.32421808 0.83858272 87.40908904 -1.65625 87.39453125 C-2.37498795 87.3964447 -3.09372589 87.39835815 -3.83424377 87.40032959 C-5.35312246 87.40168942 -6.87201285 87.39800705 -8.39086914 87.38964844 C-10.71071636 87.37896126 -13.02978647 87.38954201 -15.34960938 87.40234375 C-16.82682462 87.40102181 -18.30403938 87.39845871 -19.78125 87.39453125 C-20.47302841 87.39857971 -21.16480682 87.40262817 -21.87754822 87.40679932 C-25.55807689 87.37114041 -28.13246312 87.04766422 -31.28515625 85.12890625 C-32.27515625 84.79890625 -33.26515625 84.46890625 -34.28515625 84.12890625 C-36.38725482 80.9757584 -36.52863235 80.26787544 -36.48046875 76.6796875 C-36.47402344 75.83212891 -36.46757813 74.98457031 -36.4609375 74.11132812 C-36.44417969 73.23025391 -36.42742187 72.34917969 -36.41015625 71.44140625 C-36.40113281 70.54873047 -36.39210938 69.65605469 -36.3828125 68.73632812 C-36.35925373 66.53358311 -36.32635954 64.33138037 -36.28515625 62.12890625 C-35.95515625 62.12890625 -35.62515625 62.12890625 -35.28515625 62.12890625 C-35.28515625 64.10890625 -35.28515625 66.08890625 -35.28515625 68.12890625 C-34.62515625 68.12890625 -33.96515625 68.12890625 -33.28515625 68.12890625 C-32.95515625 66.80890625 -32.62515625 65.48890625 -32.28515625 64.12890625 C-18.75515625 64.12890625 -5.22515625 64.12890625 8.71484375 64.12890625 C9.20984375 63.13890625 9.20984375 63.13890625 9.71484375 62.12890625 C8.39484375 61.79890625 7.07484375 61.46890625 5.71484375 61.12890625 C5.71484375 57.49890625 5.71484375 53.86890625 5.71484375 50.12890625 C4.39484375 49.46890625 3.07484375 48.80890625 1.71484375 48.12890625 C2.37484375 45.81890625 3.03484375 43.50890625 3.71484375 41.12890625 C2.39484375 40.79890625 1.07484375 40.46890625 -0.28515625 40.12890625 C-0.78015625 37.15890625 -0.78015625 37.15890625 -1.28515625 34.12890625 C-2.60515625 33.79890625 -3.92515625 33.46890625 -5.28515625 33.12890625 C-5.37152344 32.50242188 -5.45789063 31.8759375 -5.546875 31.23046875 C-5.97142334 28.7610775 -6.42788041 26.48533783 -7.28515625 24.12890625 C-9.75530097 22.45277438 -9.75530097 22.45277438 -12.28515625 22.12890625 C-11.29515625 21.79890625 -10.30515625 21.46890625 -9.28515625 21.12890625 C-9.26453125 20.22140625 -9.24390625 19.31390625 -9.22265625 18.37890625 C-8.28515625 15.12890625 -8.28515625 15.12890625 -6.66235352 13.93652344 C-3.97375488 12.53271484 -3.97375488 12.53271484 -1.28515625 11.12890625 C-1.91083496 11.12890625 -2.53651367 11.12890625 -3.18115234 11.12890625 C-10.21582031 11.12890625 -17.25048828 11.12890625 -24.28515625 11.12890625 C-24.61515625 11.45890625 -24.94515625 11.78890625 -25.28515625 12.12890625 C-26.9513274 12.16954457 -28.6190372 12.17162725 -30.28515625 12.12890625 C-27.28515625 10.12890625 -27.28515625 10.12890625 -25.28515625 10.12890625 C-25.38828125 9.22140625 -25.49140625 8.31390625 -25.59765625 7.37890625 C-25.28515625 4.12890625 -25.28515625 4.12890625 -22.97265625 1.81640625 C-16.80624384 -2.05552712 -6.86983246 -2.61875665 0 0 Z M-20.15234375 6.0234375 C-21.44309209 8.02397061 -21.44309209 8.02397061 -21.28515625 10.12890625 C-14.35515625 10.12890625 -7.42515625 10.12890625 -0.28515625 10.12890625 C-0.61515625 8.47890625 -0.94515625 6.82890625 -1.28515625 5.12890625 C-5.02144546 4.28100298 -8.58023168 3.90759493 -12.41015625 3.81640625 C-13.44398437 3.77902344 -14.4778125 3.74164063 -15.54296875 3.703125 C-18.39858482 3.86751711 -18.39858482 3.86751711 -20.15234375 6.0234375 Z M12.71484375 62.12890625 C13.71484375 64.12890625 13.71484375 64.12890625 13.71484375 64.12890625 Z M11.71484375 66.12890625 C12.04484375 67.11890625 12.37484375 68.10890625 12.71484375 69.12890625 C12.71484375 68.13890625 12.71484375 67.14890625 12.71484375 66.12890625 C12.38484375 66.12890625 12.05484375 66.12890625 11.71484375 66.12890625 Z M-35.28515625 69.12890625 C-35.28515625 72.75890625 -35.28515625 76.38890625 -35.28515625 80.12890625 C-33.07145574 78.34232868 -33.07145574 78.34232868 -33.08984375 75.96484375 C-33.11304687 75.15273437 -33.13625 74.340625 -33.16015625 73.50390625 C-33.17820312 72.68664062 -33.19625 71.869375 -33.21484375 71.02734375 C-33.23804687 70.40085937 -33.26125 69.774375 -33.28515625 69.12890625 C-33.94515625 69.12890625 -34.60515625 69.12890625 -35.28515625 69.12890625 Z M-24.28515625 69.12890625 C-23.95515625 70.11890625 -23.62515625 71.10890625 -23.28515625 72.12890625 C-21.75592529 72.10534058 -21.75592529 72.10534058 -20.19580078 72.08129883 C-16.42016473 72.02707598 -12.64456321 71.99258441 -8.86865234 71.96411133 C-7.23317684 71.94900714 -5.59774196 71.92852236 -3.96240234 71.90258789 C-1.61415601 71.8662748 0.7335558 71.84919693 3.08203125 71.8359375 C3.81541718 71.82045364 4.5488031 71.80496979 5.30441284 71.78901672 C7.36669922 71.78833008 7.36669922 71.78833008 10.71484375 72.12890625 C11.37484375 73.11890625 12.03484375 74.10890625 12.71484375 75.12890625 C13.04484375 73.47890625 13.37484375 71.82890625 13.71484375 70.12890625 C9.46538522 69.08903028 5.35556519 68.99900994 1.0078125 69.03125 C0.28241776 69.03266495 -0.44297699 69.0340799 -1.19035339 69.03553772 C-3.49283075 69.04110694 -5.7952086 69.05365364 -8.09765625 69.06640625 C-9.66471213 69.07142523 -11.23176955 69.07598744 -12.79882812 69.08007812 C-16.62764214 69.09106627 -20.45638236 69.10830952 -24.28515625 69.12890625 Z M12.71484375 75.12890625 C13.71484375 78.12890625 13.71484375 78.12890625 13.71484375 78.12890625 Z M-33.28515625 79.12890625 C-32.28515625 81.12890625 -32.28515625 81.12890625 -32.28515625 81.12890625 Z " fill="#464648" transform="translate(119.28515625,57.87109375)"/>
<path d="M0 0 C0.66 0 1.32 0 2 0 C2 3.3 2 6.6 2 10 C2.969375 9.979375 3.93875 9.95875 4.9375 9.9375 C8 10 8 10 9 11 C9.35983807 14.09292391 9.37140492 17.20147289 9.4375 20.3125 C9.48326172 21.18068359 9.52902344 22.04886719 9.57617188 22.94335938 C9.62008395 25.43107361 9.57944038 27.57858492 9 30 C6.16015625 32.48046875 6.16015625 32.48046875 3 34 C2.01 34.66 1.02 35.32 0 36 C-2.49538502 36.19531183 -4.87626103 36.28018279 -7.37109375 36.265625 C-8.44920067 36.26849518 -8.44920067 36.26849518 -9.54908752 36.27142334 C-11.06796621 36.27278317 -12.5868566 36.2691008 -14.10571289 36.26074219 C-16.42556011 36.25005501 -18.74463022 36.26063576 -21.06445312 36.2734375 C-22.54166837 36.27211556 -24.01888313 36.26955246 -25.49609375 36.265625 C-26.53376137 36.27169769 -26.53376137 36.27169769 -27.59239197 36.27789307 C-31.27292064 36.24223416 -33.84730687 35.91875797 -37 34 C-37.99 33.67 -38.98 33.34 -40 33 C-42.10209857 29.84685215 -42.2434761 29.13896919 -42.1953125 25.55078125 C-42.18886719 24.70322266 -42.18242188 23.85566406 -42.17578125 22.98242188 C-42.15902344 22.10134766 -42.14226562 21.22027344 -42.125 20.3125 C-42.11597656 19.41982422 -42.10695313 18.52714844 -42.09765625 17.60742188 C-42.07409748 15.40467686 -42.04120329 13.20247412 -42 11 C-41.67 11 -41.34 11 -41 11 C-41 12.98 -41 14.96 -41 17 C-40.34 17 -39.68 17 -39 17 C-38.67 15.68 -38.34 14.36 -38 13 C-24.47 13 -10.94 13 3 13 C3.33 12.34 3.66 11.68 4 11 C2.68 10.67 1.36 10.34 0 10 C0 6.7 0 3.4 0 0 Z M7 11 C8 13 8 13 8 13 Z M6 15 C6.33 15.99 6.66 16.98 7 18 C7 17.01 7 16.02 7 15 C6.67 15 6.34 15 6 15 Z M-41 18 C-41 21.63 -41 25.26 -41 29 C-38.78629949 27.21342243 -38.78629949 27.21342243 -38.8046875 24.8359375 C-38.82789062 24.02382812 -38.85109375 23.21171875 -38.875 22.375 C-38.89304687 21.55773437 -38.91109375 20.74046875 -38.9296875 19.8984375 C-38.95289062 19.27195313 -38.97609375 18.64546875 -39 18 C-39.66 18 -40.32 18 -41 18 Z M-30 18 C-29.67 18.99 -29.34 19.98 -29 21 C-27.47076904 20.97643433 -27.47076904 20.97643433 -25.91064453 20.95239258 C-22.13500848 20.89816973 -18.35940696 20.86367816 -14.58349609 20.83520508 C-12.94802059 20.82010089 -11.31258571 20.79961611 -9.67724609 20.77368164 C-7.32899976 20.73736855 -4.98128795 20.72029068 -2.6328125 20.70703125 C-1.89942657 20.69154739 -1.16604065 20.67606354 -0.41043091 20.66011047 C1.65185547 20.65942383 1.65185547 20.65942383 5 21 C5.66 21.99 6.32 22.98 7 24 C7.33 22.35 7.66 20.7 8 19 C3.75054147 17.96012403 -0.35927856 17.87010369 -4.70703125 17.90234375 C-5.43242599 17.9037587 -6.15782074 17.90517365 -6.90519714 17.90663147 C-9.2076745 17.91220069 -11.51005235 17.92474739 -13.8125 17.9375 C-15.37955588 17.94251898 -16.9466133 17.94708119 -18.51367188 17.95117188 C-22.34248589 17.96216002 -26.17122611 17.97940327 -30 18 Z M7 24 C8 27 8 27 8 27 Z M-39 28 C-38 30 -38 30 -38 30 Z " fill="#525254" transform="translate(125,109)"/>
<path d="M0 0 C3.73731056 0.21154588 6.25329377 0.45510626 9.3125 2.6875 C13.8872039 8.95653868 13.36640195 16.06268474 13.375 23.5 C13.39949219 24.61503906 13.42398438 25.73007813 13.44921875 26.87890625 C13.47195829 33.23839736 13.31294859 37.19002015 9 42 C6.42218094 44.57781906 4.5598161 44.62129616 1 45 C-0.52438351 43.47561649 -0.16915913 42.0818797 -0.22119141 39.95507812 C-0.24436432 39.09748901 -0.26753723 38.2398999 -0.29141235 37.35632324 C-0.3112619 36.42404907 -0.33111145 35.4917749 -0.3515625 34.53125 C-0.37471527 33.58060669 -0.39786804 32.62996338 -0.42172241 31.6505127 C-0.46943324 29.63636755 -0.51465844 27.62216226 -0.55761719 25.60791016 C-0.62471549 22.51312246 -0.70244665 19.41872797 -0.78125 16.32421875 C-0.82616265 14.3724105 -0.87045444 12.42058784 -0.9140625 10.46875 C-0.93796051 9.53647583 -0.96185852 8.60420166 -0.98648071 7.64367676 C-1.0033493 6.78608765 -1.0202179 5.92849854 -1.03759766 5.04492188 C-1.05456696 4.28626831 -1.07153625 3.52761475 -1.08901978 2.74597168 C-1 1 -1 1 0 0 Z " fill="#58585A" transform="translate(148,108)"/>
<path d="M0 0 C1.22031898 4.75037667 1.12723661 9.37166264 1.09765625 14.23828125 C1.0962413 15.11904831 1.09482635 15.99981537 1.09336853 16.90727234 C1.08778937 19.70905003 1.07524071 22.51074662 1.0625 25.3125 C1.05748231 27.21679572 1.05291987 29.12109269 1.04882812 31.02539062 C1.03782677 35.68362481 1.02057649 40.34179867 1 45 C-6.97739362 44.02260638 -6.97739362 44.02260638 -10 41 C-10 40.34 -10 39.68 -10 39 C-10.66 38.67 -11.32 38.34 -12 38 C-12.12418758 33.69508537 -12.21461002 29.3911365 -12.2746582 25.08496094 C-12.29970529 23.62221093 -12.33375392 22.15958488 -12.37719727 20.69726562 C-12.43829356 18.58692781 -12.46630435 16.47825248 -12.48828125 14.3671875 C-12.51446533 13.09987793 -12.54064941 11.83256836 -12.56762695 10.52685547 C-11.81855615 5.87262886 -10.29673397 4.30635086 -7 1 C-4.53721199 -0.231394 -2.7204945 -0.07159196 0 0 Z " fill="#3F3F40" transform="translate(69,108)"/>
<path d="M0 0 C0.33 0 0.66 0 1 0 C1 8.58 1 17.16 1 26 C1.66 26 2.32 26 3 26 C3 26.66 3 27.32 3 28 C3.66 28 4.32 28 5 28 C5.185625 26.7934375 5.185625 26.7934375 5.375 25.5625 C5.58125 24.716875 5.7875 23.87125 6 23 C6.66 22.67 7.32 22.34 8 22 C8 23.65 8 25.3 8 27 C9.32 26.67 10.64 26.34 12 26 C12 26.66 12 27.32 12 28 C13.32 27.67 14.64 27.34 16 27 C15.79375 26.05125 15.5875 25.1025 15.375 24.125 C15.25125 23.09375 15.1275 22.0625 15 21 C15.66 20.34 16.32 19.68 17 19 C17 22.63 17 26.26 17 30 C15.02 30.33 13.04 30.66 11 31 C10.91884007 34.06303578 10.85942591 37.12390815 10.8125 40.1875 C10.78736328 41.05181641 10.76222656 41.91613281 10.73632812 42.80664062 C10.68019129 47.69054544 10.73429543 51.07963204 14 55 C14.99 55.66 15.98 56.32 17 57 C17.6875 59.625 17.6875 59.625 18 62 C16.68 62 15.36 62 14 62 C14.33 60.68 14.66 59.36 15 58 C14.34 58 13.68 58 13 58 C12.505 58.495 12.505 58.495 12 59 C10.68 59 9.36 59 8 59 C8.20625 59.5775 8.4125 60.155 8.625 60.75 C9.09218275 63.55309651 8.4366626 64.60556233 7 67 C6.505 67.99 6.505 67.99 6 69 C3.5625 68.625 3.5625 68.625 1 68 C-0.40607756 65.18784488 -0.11950486 62.8595578 -0.11352539 59.71435547 C-0.11367142 59.07032776 -0.11381744 58.42630005 -0.1139679 57.76275635 C-0.1132704 55.63086598 -0.10548566 53.49906263 -0.09765625 51.3671875 C-0.09579149 49.89031014 -0.09436786 48.41343216 -0.09336853 46.93655396 C-0.08954792 43.04687801 -0.07972152 39.15723933 -0.06866455 35.26757812 C-0.05844064 31.29948429 -0.05386881 27.33138445 -0.04882812 23.36328125 C-0.03809885 15.57550384 -0.02102789 7.78775714 0 0 Z " fill="#3D3D3E" transform="translate(73,89)"/>
<path d="M0 0 C1.16781006 0.00523682 2.33562012 0.01047363 3.53881836 0.01586914 C4.79887695 0.0190918 6.05893555 0.02231445 7.35717773 0.02563477 C8.6976732 0.03399136 10.03816799 0.04245632 11.37866211 0.05102539 C12.72306153 0.05603879 14.06746271 0.06060197 15.41186523 0.06469727 C18.71334151 0.07653051 22.01473014 0.09301568 25.31616211 0.11352539 C25.31616211 0.77352539 25.31616211 1.43352539 25.31616211 2.11352539 C25.97616211 2.44352539 26.63616211 2.77352539 27.31616211 3.11352539 C26.44116211 10.98852539 26.44116211 10.98852539 25.31616211 12.11352539 C23.17057384 12.20128144 21.0221179 12.22047758 18.87475586 12.21118164 C17.56958008 12.20795898 16.2644043 12.20473633 14.91967773 12.20141602 C13.53100521 12.1930594 12.14233334 12.18459444 10.75366211 12.17602539 C9.36108555 12.17101205 7.96850729 12.16644886 6.57592773 12.16235352 C3.15596341 12.15051973 -0.26391633 12.13403419 -3.68383789 12.11352539 C-3.71071068 10.30110487 -3.73017505 8.48857306 -3.74633789 6.67602539 C-3.75793945 5.66668945 -3.76954102 4.65735352 -3.78149414 3.61743164 C-3.64560827 0.13331803 -3.49907155 0.14800949 0 0 Z " fill="#4B4B4C" transform="translate(97.683837890625,107.886474609375)"/>
<path d="M0 0 C1.21914597 0.03753891 1.21914597 0.03753891 2.46292114 0.07583618 C5.04084072 0.15754446 7.61793681 0.25432121 10.1953125 0.3515625 C11.95048796 0.40985246 13.70569653 0.46715461 15.4609375 0.5234375 C19.74786341 0.66304934 24.03411579 0.81617088 28.3203125 0.9765625 C27.9903125 2.6265625 27.6603125 4.2765625 27.3203125 5.9765625 C16.1003125 5.6465625 4.8803125 5.3165625 -6.6796875 4.9765625 C-6.3496875 5.6365625 -6.0196875 6.2965625 -5.6796875 6.9765625 C-4.68525635 7.00161865 -3.6908252 7.0266748 -2.66625977 7.05249023 C1.01079997 7.14641132 4.687664 7.24666869 8.36450195 7.34887695 C9.9582055 7.39228396 11.5519573 7.43395469 13.14575195 7.47387695 C15.43195158 7.53144057 17.71790699 7.59517399 20.00390625 7.66015625 C20.72057968 7.67686874 21.43725311 7.69358124 22.17564392 7.71080017 C27.20644079 7.86269079 27.20644079 7.86269079 28.3203125 8.9765625 C28.46146411 11.64715101 28.36278357 14.30088488 28.3203125 16.9765625 C27.3303125 17.4715625 27.3303125 17.4715625 26.3203125 17.9765625 C26.6503125 15.3365625 26.9803125 12.6965625 27.3203125 9.9765625 C22.37239956 9.9518799 17.4245223 9.93371084 12.4765625 9.92163086 C10.79263688 9.91659597 9.10871564 9.90976769 7.42480469 9.90112305 C5.00715047 9.88902054 2.58955394 9.88332582 0.171875 9.87890625 C-0.5833847 9.87374496 -1.33864441 9.86858368 -2.11679077 9.86326599 C-6.02616859 9.78336062 -6.02616859 9.78336062 -9.6796875 10.9765625 C-10.3396875 10.6465625 -10.9996875 10.3165625 -11.6796875 9.9765625 C-11.6796875 10.6365625 -11.6796875 11.2965625 -11.6796875 11.9765625 C-11.0196875 12.3065625 -10.3596875 12.6365625 -9.6796875 12.9765625 C-11.3296875 13.3065625 -12.9796875 13.6365625 -14.6796875 13.9765625 C-14.6796875 10.0165625 -14.6796875 6.0565625 -14.6796875 1.9765625 C-9.57762427 -0.10258149 -5.38980772 -0.22294525 0 0 Z " fill="#545456" transform="translate(101.6796875,122.0234375)"/>
<path d="M0 0 C1.97806641 -0.05607422 1.97806641 -0.05607422 3.99609375 -0.11328125 C7.5625 0.3125 7.5625 0.3125 10.05078125 2.20703125 C11.5625 4.3125 11.5625 4.3125 11.3125 6.3125 C11.065 6.9725 10.8175 7.6325 10.5625 8.3125 C10.5625 9.6325 10.5625 10.9525 10.5625 12.3125 C2.22916667 12.3125 -6.10416667 12.3125 -14.4375 12.3125 C-14.7675 12.6425 -15.0975 12.9725 -15.4375 13.3125 C-17.10367115 13.35313832 -18.77138095 13.355221 -20.4375 13.3125 C-17.4375 11.3125 -17.4375 11.3125 -15.4375 11.3125 C-15.540625 10.405 -15.64375 9.4975 -15.75 8.5625 C-15.4375 5.3125 -15.4375 5.3125 -13.125 3 C-8.78190096 0.27293781 -4.98811635 0.07173705 0 0 Z M-10.3046875 7.20703125 C-11.59543584 9.20756436 -11.59543584 9.20756436 -11.4375 11.3125 C-4.5075 11.3125 2.4225 11.3125 9.5625 11.3125 C9.2325 9.6625 8.9025 8.0125 8.5625 6.3125 C4.82621079 5.46459673 1.26742457 5.09118868 -2.5625 5 C-3.59632812 4.96261719 -4.63015625 4.92523438 -5.6953125 4.88671875 C-8.55092857 5.05111086 -8.55092857 5.05111086 -10.3046875 7.20703125 Z " fill="#6E6E6E" transform="translate(109.4375,56.6875)"/>
<path d="M0 0 C9.24 0 18.48 0 28 0 C28 0.66 28 1.32 28 2 C28.66 2.33 29.32 2.66 30 3 C29.67 5.64 29.34 8.28 29 11 C22.07 10.505 22.07 10.505 15 10 C14.67 8.68 14.34 7.36 14 6 C14.66 6 15.32 6 16 6 C16 4.68 16 3.36 16 2 C10.72 1.67 5.44 1.34 0 1 C0 0.67 0 0.34 0 0 Z " fill="#4C4C4D" transform="translate(95,108)"/>
<path d="M0 0 C1.65 0 3.3 0 5 0 C6.22031898 4.75037667 6.12723661 9.37166264 6.09765625 14.23828125 C6.0962413 15.11904831 6.09482635 15.99981537 6.09336853 16.90727234 C6.08778937 19.70905003 6.07524071 22.51074662 6.0625 25.3125 C6.05748231 27.21679572 6.05291987 29.12109269 6.04882812 31.02539062 C6.03782677 35.68362481 6.02057649 40.34179867 6 45 C-1.97739362 44.02260638 -1.97739362 44.02260638 -5 41 C-5 40.34 -5 39.68 -5 39 C-5.66 38.67 -6.32 38.34 -7 38 C-7 27.77 -7 17.54 -7 7 C-6.67 7 -6.34 7 -6 7 C-6 16.57 -6 26.14 -6 36 C-4.68 36.66 -3.36 37.32 -2 38 C-1.67 38.99 -1.34 39.98 -1 41 C0.32 41.33 1.64 41.66 3 42 C3.33 28.47 3.66 14.94 4 1 C2.68 0.67 1.36 0.34 0 0 Z " fill="#9B9B9C" transform="translate(64,108)"/>
<path d="M0 0 C1.9375 0.5 1.9375 0.5 4 2 C4.38730192 4.05400567 4.50510988 6.07232452 4.65234375 8.15625 C4.82586124 10.23376021 4.82586124 10.23376021 7.0625 11.5 C7.701875 11.665 8.34125 11.83 9 12 C8.67 13.65 8.34 15.3 8 17 C1.07 16.505 1.07 16.505 -6 16 C-5.67 14.68 -5.34 13.36 -5 12 C-3.68 11.67 -2.36 11.34 -1 11 C-1.20625 10.484375 -1.4125 9.96875 -1.625 9.4375 C-2.15887026 5.96734329 -1.07676761 3.29364209 0 0 Z " fill="#5C5C5D" transform="translate(107,82)"/>
<path d="M0 0 C-0.33 1.65 -0.66 3.3 -1 5 C-7.93 5 -14.86 5 -22 5 C-22.33 3.35 -22.66 1.7 -23 0 C-19.54210946 -0.19635974 -16.08367803 -0.38058252 -12.625 -0.5625 C-11.64015625 -0.61857422 -10.6553125 -0.67464844 -9.640625 -0.73242188 C-8.69960937 -0.78076172 -7.75859375 -0.82910156 -6.7890625 -0.87890625 C-5.48509521 -0.94960327 -5.48509521 -0.94960327 -4.15478516 -1.02172852 C-2 -1 -2 -1 0 0 Z " fill="#8C8C8C" transform="translate(120,101)"/>
<path d="M0 0 C1.67542976 0.28604898 3.34385343 0.61781233 5 1 C4.34 2.32 3.68 3.64 3 5 C3.99 5 4.98 5 6 5 C6.33 5.66 6.66 6.32 7 7 C18.55 7.33 30.1 7.66 42 8 C42 10.64 42 13.28 42 16 C41.01 16.495 41.01 16.495 40 17 C40.33 14.36 40.66 11.72 41 9 C36.05208706 8.9753174 31.1042098 8.95714834 26.15625 8.94506836 C24.47232438 8.94003347 22.78840314 8.93320519 21.10449219 8.92456055 C18.68683797 8.91245804 16.26924144 8.90676332 13.8515625 8.90234375 C13.0963028 8.89718246 12.34104309 8.89202118 11.56289673 8.88670349 C7.65351891 8.80679812 7.65351891 8.80679812 4 10 C3.34 9.67 2.68 9.34 2 9 C2 9.66 2 10.32 2 11 C2.66 11.33 3.32 11.66 4 12 C2.35 12.33 0.7 12.66 -1 13 C-1.02686553 11.02090602 -1.04633375 9.04171029 -1.0625 7.0625 C-1.07410156 5.96035156 -1.08570312 4.85820313 -1.09765625 3.72265625 C-1 1 -1 1 0 0 Z " fill="#353536" transform="translate(88,123)"/>
<path d="M0 0 C0.66 0 1.32 0 2 0 C2 3.3 2 6.6 2 10 C2.969375 9.979375 3.93875 9.95875 4.9375 9.9375 C8 10 8 10 9 11 C9.08651611 12.41570123 9.10704904 13.835595 9.09765625 15.25390625 C9.09443359 16.10791016 9.09121094 16.96191406 9.08789062 17.84179688 C9.07951172 18.73962891 9.07113281 19.63746094 9.0625 20.5625 C9.05798828 21.46419922 9.05347656 22.36589844 9.04882812 23.29492188 C9.03700225 25.53001314 9.0205222 27.76497437 9 30 C7.02 30.99 7.02 30.99 5 32 C3.73762269 29.47524538 3.90143596 27.68799534 3.9375 24.875 C3.94652344 23.96492188 3.95554688 23.05484375 3.96484375 22.1171875 C3.97644531 21.41851562 3.98804688 20.71984375 4 20 C4.99 20.99 5.98 21.98 7 23 C7.33 21.68 7.66 20.36 8 19 C7.01 18.67 6.02 18.34 5 18 C5 16.68 5 15.36 5 14 C4.34 13.67 3.68 13.34 3 13 C3.33 12.34 3.66 11.68 4 11 C2.68 10.67 1.36 10.34 0 10 C0 6.7 0 3.4 0 0 Z M7 11 C8 13 8 13 8 13 Z M6 15 C6.33 15.99 6.66 16.98 7 18 C7 17.01 7 16.02 7 15 C6.67 15 6.34 15 6 15 Z M7 24 C8 27 8 27 8 27 Z " fill="#DDDDDF" transform="translate(125,109)"/>
<path d="M0 0 C0.495 1.485 0.495 1.485 1 3 C-2.13088871 4.56544436 -5.42714023 4.00148591 -8.8515625 3.87890625 C-9.62559418 3.85529526 -10.39962585 3.83168427 -11.19711304 3.80735779 C-13.6732603 3.73068562 -16.14909759 3.64667684 -18.625 3.5625 C-20.30206808 3.50928285 -21.97915137 3.45654243 -23.65625 3.40429688 C-27.77103023 3.27506572 -31.88554725 3.13925354 -36 3 C-35.67 2.34 -35.34 1.68 -35 1 C-17.675 0.505 -17.675 0.505 0 0 Z " fill="#4A4A4B" transform="translate(129,124)"/>
<path d="M0 0 C6.27 0 12.54 0 19 0 C18.01 0.33 17.02 0.66 16 1 C16 2.32 16 3.64 16 5 C15.34 5 14.68 5 14 5 C14 5.66 14 6.32 14 7 C17.00778521 8.00259507 19.53820647 8.30314642 22.6875 8.5625 C23.68136719 8.64628906 24.67523438 8.73007813 25.69921875 8.81640625 C26.45847656 8.87699219 27.21773437 8.93757813 28 9 C28 9.33 28 9.66 28 10 C18.76 10 9.52 10 0 10 C0 9.67 0 9.34 0 9 C3.63 9 7.26 9 11 9 C11 8.34 11 7.68 11 7 C11.66 7 12.32 7 13 7 C13 5.02 13 3.04 13 1 C8.71 1 4.42 1 0 1 C0 0.67 0 0.34 0 0 Z " fill="#303031" transform="translate(95,109)"/>
<path d="M0 0 C2.475 0.495 2.475 0.495 5 1 C5.33 2.98 5.66 4.96 6 7 C5.360625 7.12375 4.72125 7.2475 4.0625 7.375 C3.0415625 7.684375 3.0415625 7.684375 2 8 C1.67 8.66 1.34 9.32 1 10 C10.24 10 19.48 10 29 10 C29 10.33 29 10.66 29 11 C19.43 11 9.86 11 0 11 C0 7.37 0 3.74 0 0 Z " fill="#757577" transform="translate(94,109)"/>
<path d="M0 0 C9.24 0 18.48 0 28 0 C28 0.66 28 1.32 28 2 C28.66 2.33 29.32 2.66 30 3 C29.67 5.64 29.34 8.28 29 11 C26.5 8.6875 26.5 8.6875 24 6 C24 5.01 24 4.02 24 3 C21.04491553 2.16628641 18.29890387 1.82110466 15.234375 1.68359375 C14.34492187 1.64169922 13.45546875 1.59980469 12.5390625 1.55664062 C11.61867188 1.51732422 10.69828125 1.47800781 9.75 1.4375 C8.81414062 1.39431641 7.87828125 1.35113281 6.9140625 1.30664062 C4.60951359 1.2008195 2.30486161 1.09873443 0 1 C0 0.67 0 0.34 0 0 Z " fill="#929293" transform="translate(95,108)"/>
<path d="M0 0 C4.28493007 1.36577456 6.43145705 3.20681345 9.3125 6.625 C10.00988281 7.44226563 10.70726562 8.25953125 11.42578125 9.1015625 C11.94527344 9.72804688 12.46476563 10.35453125 13 11 C12.67 11.66 12.34 12.32 12 13 C9.4375 13.625 9.4375 13.625 7 14 C7 12.02 7 10.04 7 8 C6.01 8.33 5.02 8.66 4 9 C3.34 8.67 2.68 8.34 2 8 C2 6.68 2 5.36 2 4 C1.34 3.34 0.68 2.68 0 2 C0 1.34 0 0.68 0 0 Z " fill="#525253" transform="translate(130,70)"/>
<path d="M0 0 C0.66 0.33 1.32 0.66 2 1 C2 1.33 2 1.66 2 2 C3.32 2.33 4.64 2.66 6 3 C6 4.65 6 6.3 6 8 C2.94736336 8.98120464 1.05263664 8.98120464 -2 8 C-2 5.69 -2 3.38 -2 1 C-1.34 0.67 -0.68 0.34 0 0 Z " fill="#474749" transform="translate(83,108)"/>
<path d="M0 0 C5.28 0 10.56 0 16 0 C16 1.32 16 2.64 16 4 C11.05 3.67 6.1 3.34 1 3 C0.67 2.01 0.34 1.02 0 0 Z " fill="#434343" transform="translate(103,102)"/>
<path d="M0 0 C0 0.99 0 1.98 0 3 C-5.61 2.67 -11.22 2.34 -17 2 C-16.34 1.67 -15.68 1.34 -15 1 C-15 0.34 -15 -0.32 -15 -1 C-4.44191344 -2.51708428 -4.44191344 -2.51708428 0 0 Z " fill="#3D3D3D" transform="translate(118,59)"/>
<path d="M0 0 C2.475 1.485 2.475 1.485 5 3 C4.67 5.97 4.34 8.94 4 12 C-3.26 12 -10.52 12 -18 12 C-18 11.67 -18 11.34 -18 11 C-11.07 11 -4.14 11 3 11 C2.67 9.35 2.34 7.7 2 6 C1.34 5.67 0.68 5.34 0 5 C0 3.33333333 0 1.66666667 0 0 Z " fill="#ACACAD" transform="translate(116,57)"/>
<path d="M0 0 C0.66 0 1.32 0 2 0 C2.33 1.32 2.66 2.64 3 4 C4.98 4 6.96 4 9 4 C9 4.99 9 5.98 9 7 C4.71 7 0.42 7 -4 7 C-3.01 6.01 -2.02 5.02 -1 4 C-0.28552357 1.89667109 -0.28552357 1.89667109 0 0 Z " fill="#3E3E40" transform="translate(114,111)"/>
<path d="M0 0 C0.99 0.33 1.98 0.66 3 1 C2.67 1.99 2.34 2.98 2 4 C2.99 3.67 3.98 3.34 5 3 C5.33 4.32 5.66 5.64 6 7 C3 9 3 9 0 9 C-1.25664978 6.09399739 -2 4.20395416 -2 1 C-1.34 0.67 -0.68 0.34 0 0 Z " fill="#434343" transform="translate(89,135)"/>
<path d="M0 0 C16.335 0.495 16.335 0.495 33 1 C33 1.33 33 1.66 33 2 C17.16 2.495 17.16 2.495 1 3 C0.67 2.01 0.34 1.02 0 0 Z " fill="#777779" transform="translate(90,147)"/>
<path d="M0 0 C0.598125 0.350625 1.19625 0.70125 1.8125 1.0625 C0.8225 1.7225 -0.1675 2.3825 -1.1875 3.0625 C-0.5275 3.7225 0.1325 4.3825 0.8125 5.0625 C-1.1675 6.0525 -1.1675 6.0525 -3.1875 7.0625 C-4.1775 6.4025 -5.1675 5.7425 -6.1875 5.0625 C-5.8575 3.4125 -5.5275 1.7625 -5.1875 0.0625 C-2.1875 -0.9375 -2.1875 -0.9375 0 0 Z " fill="#828282" transform="translate(127.1875,100.9375)"/>
<path d="M0 0 C0.99 0.99 1.98 1.98 3 3 C3.66 2.67 4.32 2.34 5 2 C4.34 3.98 3.68 5.96 3 8 C2.01 8 1.02 8 0 8 C-0.33 8.33 -0.66 8.66 -1 9 C-2.66617115 9.04063832 -4.33388095 9.042721 -6 9 C-3 7 -3 7 -1 7 C-1.020625 6.030625 -1.04125 5.06125 -1.0625 4.0625 C-1 1 -1 1 0 0 Z " fill="#838384" transform="translate(95,61)"/>
<path d="M0 0 C0.66 0 1.32 0 2 0 C2 1.98 2 3.96 2 6 C-1.63 6 -5.26 6 -9 6 C-8.67 5.34 -8.34 4.68 -8 4 C-5.36 4 -2.72 4 0 4 C0 2.68 0 1.36 0 0 Z " fill="#3F3F41" transform="translate(104,112)"/>
<path d="M0 0 C2.4375 0.75 2.4375 0.75 5 2 C5.9375 3.9375 5.9375 3.9375 6 6 C5.01 7.485 5.01 7.485 4 9 C3.34 8.67 2.68 8.34 2 8 C2 6.68 2 5.36 2 4 C1.34 3.34 0.68 2.68 0 2 C0 1.34 0 0.68 0 0 Z " fill="#616161" transform="translate(130,70)"/>
<path d="M0 0 C0.66 0 1.32 0 2 0 C2.33 0.99 2.66 1.98 3 3 C1.8553125 3.6496875 1.8553125 3.6496875 0.6875 4.3125 C-1.97888668 5.81340154 -1.97888668 5.81340154 -3.5625 7.75 C-4.2740625 8.36875 -4.2740625 8.36875 -5 9 C-7.1875 8.6875 -7.1875 8.6875 -9 8 C-7.824375 7.87625 -7.824375 7.87625 -6.625 7.75 C-3.88778304 7.28277867 -3.88778304 7.28277867 -2.8125 5.125 C-2.544375 4.42375 -2.27625 3.7225 -2 3 C-1.34 2.01 -0.68 1.02 0 0 Z " fill="#747476" transform="translate(133,139)"/>
<path d="M0 0 C0 0.99 0 1.98 0 3 C-0.99 2.34 -1.98 1.68 -3 1 C-3 2.32 -3 3.64 -3 5 C-4.32 4.67 -5.64 4.34 -7 4 C-7 2.68 -7 1.36 -7 0 C-4.3333581 -1.33332095 -2.83319697 -0.67102033 0 0 Z " fill="#575758" transform="translate(157,110)"/>
<path d="M0 0 C0.66 0 1.32 0 2 0 C2 1.32 2 2.64 2 4 C0.68 4 -0.64 4 -2 4 C-2 6.31 -2 8.62 -2 11 C-2.66 11 -3.32 11 -4 11 C-3.67 8.36 -3.34 5.72 -3 3 C-2.01 2.67 -1.02 2.34 0 2 C0 1.34 0 0.68 0 0 Z " fill="#363638" transform="translate(96,94)"/>
<path d="M0 0 C0.66 0 1.32 0 2 0 C1.34 2.97 0.68 5.94 0 9 C-0.66 9 -1.32 9 -2 9 C-2.125 5.625 -2.125 5.625 -2 2 C-1.34 1.34 -0.68 0.68 0 0 Z " fill="#4C4C4E" transform="translate(78,108)"/>
<path d="M0 0 C0.33 0.66 0.66 1.32 1 2 C1.99 2 2.98 2 4 2 C4.33 1.34 4.66 0.68 5 0 C5 0.66 5 1.32 5 2 C5.99 2 6.98 2 8 2 C8 2.66 8 3.32 8 4 C4.94736336 4.98120464 3.05263664 4.98120464 0 4 C0 2.68 0 1.36 0 0 Z " fill="#4F4F51" transform="translate(81,112)"/>
<path d="M0 0 C1.9375 0.6875 1.9375 0.6875 4 2 C4.75 4.625 4.75 4.625 5 7 C3.68 6.34 2.36 5.68 1 5 C1 4.34 1 3.68 1 3 C0.34 2.67 -0.32 2.34 -1 2 C-0.67 1.34 -0.34 0.68 0 0 Z " fill="#696969" transform="translate(58,144)"/>
<path d="M0 0 C0.53625 0.268125 1.0725 0.53625 1.625 0.8125 C-0.355 1.4725 -2.335 2.1325 -4.375 2.8125 C-4.375 3.8025 -4.375 4.7925 -4.375 5.8125 C-5.695 5.4825 -7.015 5.1525 -8.375 4.8125 C-2.95961538 -0.23365385 -2.95961538 -0.23365385 0 0 Z " fill="#5A5A5C" transform="translate(86.375,71.1875)"/>
<path d="M0 0 C0.66 0 1.32 0 2 0 C0.84826645 2.46800047 -0.04783565 4.04783565 -2 6 C-3.98821313 6.39764263 -5.98944339 6.73775349 -8 7 C-7.67 6.34 -7.34 5.68 -7 5 C-5.68 5 -4.36 5 -3 5 C-3 4.34 -3 3.68 -3 3 C-2.34 3 -1.68 3 -1 3 C-0.67 2.01 -0.34 1.02 0 0 Z " fill="#7C7C7C" transform="translate(157,146)"/>
<path d="M0 0 C0.66 1.32 1.32 2.64 2 4 C-1 6 -1 6 -4 6 C-3.6875 4.125 -3.6875 4.125 -3 2 C-2.01 1.34 -1.02 0.68 0 0 Z " fill="#626262" transform="translate(93,138)"/>
<path d="M0 0 C0.33 0 0.66 0 1 0 C1 2.97 1 5.94 1 9 C0.01 8.34 -0.98 7.68 -2 7 C-1.125 2.25 -1.125 2.25 0 0 Z " fill="#4E4E50" transform="translate(142,108)"/>
<path d="M0 0 C-0.33 0.66 -0.66 1.32 -1 2 C-2.98 2 -4.96 2 -7 2 C-7.33 1.01 -7.66 0.02 -8 -1 C-4.37673261 -2.2077558 -3.35853631 -1.54311128 0 0 Z " fill="#616162" transform="translate(116,94)"/>
<path d="" fill="#FFFFFF" transform="translate(0,0)"/>
<path d="" fill="#FFFFFF" transform="translate(0,0)"/>
<path d="" fill="#FFFFFF" transform="translate(0,0)"/>
<path d="" fill="#E3E3E3" transform="translate(0,0)"/>
<path d="" fill="#FFFFFF" transform="translate(0,0)"/>
<path d="" fill="#FFFFFF" transform="translate(0,0)"/>
<path d="" fill="#FFFFFF" transform="translate(0,0)"/>
</svg>
