<?xml version="1.0" standalone="no"?>
<!DOCTYPE svg PUBLIC "-//W3C//DTD SVG 20010904//EN"
 "http://www.w3.org/TR/2001/REC-SVG-20010904/DTD/svg10.dtd">
<svg version="1.0" xmlns="http://www.w3.org/2000/svg"
 width="340.000000pt" height="280.000000pt" viewBox="0 0 340.000000 280.000000"
 preserveAspectRatio="xMidYMid meet">

<g transform="translate(0.000000,280.000000) scale(0.100000,-0.100000)"
fill="#000000" stroke="none">
<path d="M1370 2690 c-808 -43 -1224 -345 -1257 -913 l-6 -107 319 2 319 3 7
59 c19 153 79 288 157 358 57 50 144 92 236 113 93 21 603 31 845 16 332 -20
458 -80 542 -258 27 -57 68 -218 68 -269 0 -12 6 -23 13 -25 6 -2 151 -3 321
-1 l309 3 -6 107 c-25 438 -297 733 -780 847 -271 63 -665 87 -1087 65z"/>
<path d="M1022 1864 c-20 -14 -22 -23 -22 -111 l0 -95 -63 -72 c-115 -129
-463 -599 -563 -760 l-44 -70 0 -294 c0 -182 4 -301 10 -313 28 -51 -26 -49
1305 -49 891 0 1242 3 1258 11 56 29 57 29 57 351 l0 298 -106 157 c-121 180
-356 495 -482 645 l-85 102 2 87 c3 125 -3 129 -154 129 -146 0 -155 -6 -155
-110 0 -49 -4 -70 -12 -70 -7 -1 -158 -2 -335 -3 l-323 -2 0 70 c0 111 -6 115
-148 115 -90 0 -123 -4 -140 -16z m306 -419 c49 -35 44 -123 -10 -151 -65 -34
-132 8 -132 84 0 66 85 106 142 67z m377 -10 c54 -53 11 -155 -65 -155 -41 0
-90 47 -90 87 0 27 22 70 44 85 25 17 87 8 111 -17z m350 19 c20 -8 45 -56 45
-88 0 -37 -39 -76 -82 -83 -32 -5 -41 -1 -69 26 -28 29 -31 36 -26 74 4 26 14
48 27 59 22 18 74 24 105 12z m-716 -328 c53 -53 14 -147 -62 -149 -69 -2
-111 65 -81 128 27 58 95 67 143 21z m369 -2 c49 -55 12 -145 -60 -147 -48 -1
-86 25 -93 66 -9 46 9 85 47 102 41 18 77 11 106 -21z m342 21 c50 -26 63 -71
35 -125 -26 -50 -105 -59 -142 -15 -40 46 -23 123 31 145 31 13 44 12 76 -5z
m-731 -310 c56 -29 58 -125 3 -154 -75 -40 -168 39 -131 111 27 54 76 71 128
43z m364 3 c34 -18 46 -39 47 -81 0 -52 -35 -87 -87 -87 -62 1 -100 46 -89
105 12 60 76 92 129 63z m388 -17 c59 -59 22 -150 -62 -151 -83 0 -121 101
-58 154 41 35 83 34 120 -3z"/>
<path d="M104 1575 c-10 -25 17 -114 42 -145 40 -47 80 -55 279 -55 163 0 184
2 226 21 52 24 86 79 91 149 l3 40 -318 3 c-275 2 -318 0 -323 -13z"/>
<path d="M2603 1574 c-10 -27 16 -106 44 -136 44 -46 82 -53 278 -53 174 0
182 1 230 25 57 30 82 67 87 130 l3 45 -318 3 c-289 2 -318 1 -324 -14z"/>
</g>
</svg>
