<?xml version="1.0" encoding="UTF-8"?>
<svg version="1.1" xmlns="http://www.w3.org/2000/svg" width="217" height="217">
<path d="M0 0 C0.99 0 1.98 0 3 0 C8.36641703 14.27669435 8.36641703 14.27669435 6.26171875 20.01171875 C5 22 5 22 3.13671875 23.76953125 C-2.4185333 29.56852379 -6.88017634 39.27125567 -8.4375 47.125 C-7.96936014 51.27138165 -7.82505846 51.65239482 -4.875 54.1875 C-4.22402344 54.64898437 -3.57304688 55.11046875 -2.90234375 55.5859375 C-0.98242743 57.01306215 0.16976572 58.38550371 1.5625 60.3125 C4.45459757 63.50122297 5.8567607 63.51690625 10 64 C9.25943359 62.948125 9.25943359 62.948125 8.50390625 61.875 C4.63247343 56.141852 1.98745166 51.93923041 2 45 C1.92910156 44.04996094 1.85820313 43.09992187 1.78515625 42.12109375 C1.46246463 35.83254236 1.963611 31.71846362 5.61328125 26.5234375 C7.74595136 24.18050414 9.43856489 23.06510618 12.59375 22.69921875 C13.5528125 22.69535156 14.511875 22.69148438 15.5 22.6875 C16.4590625 22.67074219 17.418125 22.65398438 18.40625 22.63671875 C21 23 21 23 22.77734375 24.3671875 C24.33619679 26.44897847 25.10835054 28.5628248 26 31 C26.34289062 31.57492188 26.68578125 32.14984375 27.0390625 32.7421875 C29.98490046 39.66370922 28.61084432 49.29019112 25.93359375 56.15625 C24.61997022 58.75051907 22.98088474 60.88250252 21 63 C24.58772256 63.33374163 26.47678753 63.33179327 29.5625 61.375 C32.27831657 58.72881975 34.59267673 55.9278256 37 53 C37.66 52.67 38.32 52.34 39 52 C39.64428337 46.09873783 37.50070392 42.46345127 34.6875 37.5 C33.87841643 36.03151977 33.06981364 34.56277453 32.26171875 33.09375 C31.87322754 32.39789795 31.48473633 31.7020459 31.08447266 30.98510742 C30.11429403 29.20921314 29.21059323 27.39737605 28.31640625 25.58203125 C27.14479093 22.97340476 27.14479093 22.97340476 25.25 21.1875 C23.16080988 17.53141729 24.14457244 13.99199529 25 10 C25.87970569 6.95096771 26.88359446 3.97006001 28 1 C29.32 1 30.64 1 32 1 C32.98886496 4.40609043 32.87778223 6.8260575 32.2109375 10.234375 C31.7822888 13.85354641 32.00943873 15.73368407 34.09765625 18.73828125 C35.06453141 19.94712413 36.05392494 21.13822362 37.0625 22.3125 C38.08899548 23.59994677 39.10851018 24.89298926 40.12109375 26.19140625 C40.61722168 26.8270752 41.11334961 27.46274414 41.62451172 28.11767578 C46.2285045 34.41813448 50.61640982 42.63817448 50.45703125 50.578125 C48.65014387 60.15308378 40.62023901 68.18330699 34.35546875 75.28515625 C30.97898345 79.10269801 30.97898345 79.10269801 29.625 83.875 C30.08490097 87.70750804 31.42942791 89.19573954 34 92 C35.20314837 94.40629673 35.13330714 95.9417937 35.125 98.625 C35.12886719 99.85089844 35.12886719 99.85089844 35.1328125 101.1015625 C35 104 35 104 34.1015625 107.76953125 C33.47587677 112.53462794 35.57549789 115.07750654 38.38671875 118.75976562 C39.30904297 119.89961914 39.30904297 119.89961914 40.25 121.0625 C49.71832579 133.12697964 49.71832579 133.12697964 50.25 140.4375 C47.06598579 149.51194049 35.90802562 155.29494565 28 160 C27.10023437 160.27070313 26.20046875 160.54140625 25.2734375 160.8203125 C22.68955466 161.8544463 22.68955466 161.8544463 21.7421875 164.96875 C21.31292969 166.71671875 21.31292969 166.71671875 20.875 168.5 C19.3 174.8 19.3 174.8 16 177 C15.85730886 179.51195866 15.85716694 181.81530204 16 184.3125 C16.24467413 189.5169227 16.36679822 192.84893584 13 197 C10.4375 197.4375 10.4375 197.4375 8 197 C6 195 6 195 5.8125 191.8125 C6 188 6 188 6.55810547 184.71777344 C7.02170688 180.81737442 6.78203309 177.58936048 6.2578125 173.703125 C6.16998505 173.0288446 6.08215759 172.35456421 5.9916687 171.65985107 C5.71157911 169.52195638 5.41887483 167.38603912 5.125 165.25 C4.74908544 162.44317125 4.37772095 159.63575118 4.0078125 156.828125 C3.87280838 155.80376595 3.87280838 155.80376595 3.7350769 154.75871277 C2.27611021 143.57242645 1.74878921 132.50832551 1.5703125 121.23242188 C1.40409457 115.3005194 1.04371367 111.22237187 -2 106 C-2.98681834 99.19869318 -1.81364074 94.21345663 1 88 C1.69362614 82.81833737 1.69362614 82.81833737 -0.12792969 78.10766602 C-1.71569678 76.18889946 -3.38296865 74.40471727 -5.125 72.625 C-6.32586233 71.32541887 -7.52122359 70.02073224 -8.7109375 68.7109375 C-9.28295898 68.08155273 -9.85498047 67.45216797 -10.44433594 66.80371094 C-14.87294323 61.66897292 -18.62980006 55.70199942 -19.3125 48.875 C-18.91087326 43.89482848 -17.26101435 40.40265837 -15 36 C-14.56429687 35.11957031 -14.12859375 34.23914062 -13.6796875 33.33203125 C-11.10061193 28.33595317 -8.45317901 24.31327597 -4.625 20.1875 C-0.17850326 14.95632737 -0.35070741 10.46450488 -0.81640625 3.80859375 C-0.87699219 2.88175781 -0.93757813 1.95492188 -1 1 C-0.67 0.67 -0.34 0.34 0 0 Z M18 121 C16.88134245 124.64658477 16.79629108 128.1536151 16.68359375 131.953125 C16.66281265 132.61334656 16.64203156 133.27356812 16.62062073 133.95379639 C16.55549853 136.05243015 16.49641498 138.15118372 16.4375 140.25 C16.39427921 141.67709547 16.3506638 143.10417905 16.30664062 144.53125 C16.19985589 148.02070722 16.09848434 151.51029753 16 155 C20.30518843 152.99608346 23.54679386 150.20151951 27.125 147.125 C28.07439453 146.33029297 28.07439453 146.33029297 29.04296875 145.51953125 C29.65011719 145.00003906 30.25726563 144.48054688 30.8828125 143.9453125 C31.43340332 143.47625488 31.98399414 143.00719727 32.55126953 142.52392578 C34.17269326 140.81834322 35.0504068 139.14162348 36 137 C35.27554688 136.43152344 34.55109375 135.86304688 33.8046875 135.27734375 C28.26313654 130.85149172 23.45505299 126.51019712 19 121 C18.67 121 18.34 121 18 121 Z " fill="#3EA2F7" transform="translate(93,10)"/>
<path d="M0 0 C5.01555681 1.36136542 7.20276107 4.37503686 10 8.5 C10.43352783 9.127854 10.86705566 9.75570801 11.3137207 10.40258789 C19.65762443 22.69036946 19.65762443 22.69036946 20.375 29.625 C16.74026604 38.54661973 5.96711797 44.25978735 -2 49 C-2.89976563 49.27070313 -3.79953125 49.54140625 -4.7265625 49.8203125 C-7.31044534 50.8544463 -7.31044534 50.8544463 -8.2578125 53.96875 C-8.68707031 55.71671875 -8.68707031 55.71671875 -9.125 57.5 C-10.7 63.8 -10.7 63.8 -14 66 C-14.14269114 68.51195866 -14.14283306 70.81530204 -14 73.3125 C-13.75532587 78.5169227 -13.63320178 81.84893584 -17 86 C-19.5625 86.4375 -19.5625 86.4375 -22 86 C-24 84 -24 84 -24.1875 80.8125 C-24 77 -24 77 -23.44189453 73.71777344 C-22.97829312 69.81737442 -23.21796691 66.58936048 -23.7421875 62.703125 C-23.83001495 62.0288446 -23.91784241 61.35456421 -24.0083313 60.65985107 C-24.28842089 58.52195638 -24.58112517 56.38603912 -24.875 54.25 C-26.71115463 40.54004543 -28.16366853 27.17258866 -28.0625 13.3125 C-28.05798828 12.12205078 -28.05347656 10.93160156 -28.04882812 9.70507812 C-28.03717452 6.80333064 -28.02081559 3.90169374 -28 1 C-22.25 2.875 -22.25 2.875 -20 4 C-9.97505817 4.76154378 -9.97505817 4.76154378 -1 1 C-0.67 0.67 -0.34 0.34 0 0 Z M-12 10 C-13.11865755 13.64658477 -13.20370892 17.1536151 -13.31640625 20.953125 C-13.33718735 21.61334656 -13.35796844 22.27356812 -13.37937927 22.95379639 C-13.44450147 25.05243015 -13.50358502 27.15118372 -13.5625 29.25 C-13.60572079 30.67709547 -13.6493362 32.10417905 -13.69335938 33.53125 C-13.80014411 37.02070722 -13.90151566 40.51029753 -14 44 C-9.69481157 41.99608346 -6.45320614 39.20151951 -2.875 36.125 C-1.92560547 35.33029297 -1.92560547 35.33029297 -0.95703125 34.51953125 C-0.34988281 34.00003906 0.25726563 33.48054688 0.8828125 32.9453125 C1.43340332 32.47625488 1.98399414 32.00719727 2.55126953 31.52392578 C4.17269326 29.81834322 5.0504068 28.14162348 6 26 C5.27554688 25.43152344 4.55109375 24.86304688 3.8046875 24.27734375 C-1.73686346 19.85149172 -6.54494701 15.51019712 -11 10 C-11.33 10 -11.66 10 -12 10 Z " fill="#943EAE" transform="translate(123,121)"/>
<path d="M0 0 C0.9590625 -0.01675781 1.918125 -0.03351562 2.90625 -0.05078125 C5.5 0.3125 5.5 0.3125 7.27734375 1.6796875 C8.83619679 3.76147847 9.60835054 5.8753248 10.5 8.3125 C10.84289062 8.88742188 11.18578125 9.46234375 11.5390625 10.0546875 C14.48490046 16.97620922 13.11084432 26.60269112 10.43359375 33.46875 C9.11997022 36.06301907 7.48088474 38.19500252 5.5 40.3125 C6.82 40.9725 8.14 41.6325 9.5 42.3125 C8.51 42.8075 8.51 42.8075 7.5 43.3125 C7.37625 44.281875 7.2525 45.25125 7.125 46.25 C6.5 49.3125 6.5 49.3125 4.8125 50.6875 C1.78780761 51.50498443 -0.37923961 51.76761089 -3.5 51.3125 C-6.71775827 48.26867461 -7.99930857 45.69354998 -8.5 41.3125 C-7.51 41.3125 -6.52 41.3125 -5.5 41.3125 C-6.24056641 40.260625 -6.24056641 40.260625 -6.99609375 39.1875 C-10.86752657 33.454352 -13.51254834 29.25173041 -13.5 22.3125 C-13.57089844 21.36246094 -13.64179687 20.41242187 -13.71484375 19.43359375 C-14.03753537 13.14504236 -13.536389 9.03096362 -9.88671875 3.8359375 C-6.79085587 0.43484871 -4.40065482 0.01774458 0 0 Z " fill="#CEAC9F" transform="translate(108.5,32.6875)"/>
<path d="M0 0 C0.33 0.99 0.66 1.98 1 3 C0.67 3.33 0.34 3.66 0 4 C-0.26995874 9.3091886 0.17307831 12.95249699 2 18 C3.68029297 17.89171875 3.68029297 17.89171875 5.39453125 17.78125 C6.86718434 17.68745044 8.33984077 17.59370317 9.8125 17.5 C10.91948242 17.42845703 10.91948242 17.42845703 12.04882812 17.35546875 C15.03824588 17.16609387 18.00374574 17 21 17 C23 22.75 23 22.75 23 25 C23.99 25 24.98 25 26 25 C28.8673539 29.30103085 28.58258446 32.95336214 28 38 C26.76182288 42.59391851 25.22156465 45.96636837 21.5625 49.0625 C12.74158902 51.38379236 5.01970767 50.75484111 -3.07421875 46.58203125 C-6.19373981 44.01934153 -6.85525135 41.27454007 -7.30078125 37.3515625 C-7.30464844 36.45179687 -7.30851562 35.55203125 -7.3125 34.625 C-7.32925781 33.73039062 -7.34601563 32.83578125 -7.36328125 31.9140625 C-7 29 -7 29 -5.4765625 25.6875 C-3.46459024 20.66289203 -3.86604477 16.45369572 -4.20507812 11.140625 C-4.34862855 7.2332524 -4.18733126 5.28264015 -1.99609375 1.9765625 C-1.00802734 0.99816406 -1.00802734 0.99816406 0 0 Z " fill="#3C9DF9" transform="translate(98,76)"/>
<path d="M0 0 C0.99 0 1.98 0 3 0 C3 0.66 3 1.32 3 2 C5.97 2.33 8.94 2.66 12 3 C11.67 9.6 11.34 16.2 11 23 C11.66 23 12.32 23 13 23 C13.18451025 34.52164009 13.18451025 34.52164009 12 40 C12.66 40 13.32 40 14 40 C14 40.66 14 41.32 14 42 C14.99 42.33 15.98 42.66 17 43 C18.74814704 48.88013095 17.28495129 54.45083259 15 60 C14.01 60.66 13.02 61.32 12 62 C11.85730886 64.51195866 11.85716694 66.81530204 12 69.3125 C12.24467413 74.5169227 12.36679822 77.84893584 9 82 C6.4375 82.4375 6.4375 82.4375 4 82 C2 80 2 80 1.8125 76.8125 C2 73 2 73 2.6015625 69.97265625 C3.13197916 64.6840901 2.35691847 59.8580204 1.5625 54.625 C-1.04504049 37.13512146 -1.04504049 37.13512146 1 31 C1.01608263 28.64163647 0.96548363 26.28260995 0.87890625 23.92578125 C0.85529526 23.2419487 0.83168427 22.55811615 0.80735779 21.8535614 C0.7308855 19.67298774 0.64679119 17.49278405 0.5625 15.3125 C0.50926281 13.8327003 0.45652252 12.35288262 0.40429688 10.87304688 C0.27529303 7.24847183 0.13945273 3.62418977 0 0 Z " fill="#943BAD" transform="translate(97,125)"/>
<path d="M0 0 C0.99 0.33 1.98 0.66 3 1 C3.98886496 4.40609043 3.87778223 6.8260575 3.2109375 10.234375 C2.7822888 13.85354641 3.00943873 15.73368407 5.09765625 18.73828125 C6.06453141 19.94712413 7.05392494 21.13822362 8.0625 22.3125 C9.08899548 23.59994677 10.10851018 24.89298926 11.12109375 26.19140625 C11.61722168 26.8270752 12.11334961 27.46274414 12.62451172 28.11767578 C17.23915821 34.43271384 21.5540662 42.59835084 21.48046875 50.546875 C20.02760082 57.96476981 14.70106566 65.16273217 9 70 C6.7903399 66.42245507 4.84509889 62.77805964 3 59 C7.75 53.125 7.75 53.125 10 52 C10.64428337 46.09873783 8.50070392 42.46345127 5.6875 37.5 C4.87841643 36.03151977 4.06981364 34.56277453 3.26171875 33.09375 C2.87322754 32.39789795 2.48473633 31.7020459 2.08447266 30.98510742 C1.11429403 29.20921314 0.21059323 27.39737605 -0.68359375 25.58203125 C-1.85520907 22.97340476 -1.85520907 22.97340476 -3.75 21.1875 C-5.84048929 17.52914374 -4.85100476 13.99464175 -4 10 C-1.68152866 1.68152866 -1.68152866 1.68152866 0 0 Z " fill="#F1C5AE" transform="translate(122,10)"/>
<path d="M0 0 C0.99 0 1.98 0 3 0 C8.36641703 14.27669435 8.36641703 14.27669435 6.26171875 20.01171875 C5 22 5 22 3.13671875 23.76953125 C-2.4185333 29.56852379 -6.88017634 39.27125567 -8.4375 47.125 C-7.95822683 51.36999095 -7.59717523 51.88083801 -4.5625 54.5625 C-3.39598747 55.40485445 -2.21415841 56.22790425 -1 57 C-1.58977747 58.8172331 -2.19728453 60.62872043 -2.8125 62.4375 C-3.31716797 63.95150391 -3.31716797 63.95150391 -3.83203125 65.49609375 C-4.21746094 66.32238281 -4.60289063 67.14867188 -5 68 C-6.485 68.495 -6.485 68.495 -8 69 C-13.60745405 63.00132822 -18.25524491 56.71678222 -19.5625 48.4375 C-18.80643298 43.81709043 -17.12862498 40.14486914 -15 36 C-14.56429687 35.11957031 -14.12859375 34.23914062 -13.6796875 33.33203125 C-11.10061193 28.33595317 -8.45317901 24.31327597 -4.625 20.1875 C-0.17850326 14.95632737 -0.35070741 10.46450488 -0.81640625 3.80859375 C-0.87699219 2.88175781 -0.93757813 1.95492188 -1 1 C-0.67 0.67 -0.34 0.34 0 0 Z " fill="#DFB8A9" transform="translate(93,10)"/>
<path d="M0 0 C0.9590625 -0.01675781 1.918125 -0.03351562 2.90625 -0.05078125 C5.5 0.3125 5.5 0.3125 7.27734375 1.6796875 C8.83619679 3.76147847 9.60835054 5.8753248 10.5 8.3125 C10.84675781 8.87582031 11.19351563 9.43914063 11.55078125 10.01953125 C12.88931692 13.25294868 12.68947874 16.08064828 12.625 19.5625 C12.60695313 20.82578125 12.58890625 22.0890625 12.5703125 23.390625 C12.54710938 24.35484375 12.52390625 25.3190625 12.5 26.3125 C11.51 26.6425 10.52 26.9725 9.5 27.3125 C9.5 24.0125 9.5 20.7125 9.5 17.3125 C8.18 17.6425 6.86 17.9725 5.5 18.3125 C5.5 18.9725 5.5 19.6325 5.5 20.3125 C-0.15394631 20.65865998 -3.53006806 19.74675238 -8.5 17.3125 C-8.83 20.6125 -9.16 23.9125 -9.5 27.3125 C-10.16 26.9825 -10.82 26.6525 -11.5 26.3125 C-11.5 24.9925 -11.5 23.6725 -11.5 22.3125 C-12.16 22.3125 -12.82 22.3125 -13.5 22.3125 C-14.03784659 15.14121218 -14.10663634 9.84266704 -9.88671875 3.8359375 C-6.79085587 0.43484871 -4.40065482 0.01774458 0 0 Z " fill="#60210A" transform="translate(108.5,32.6875)"/>
<path d="M0 0 C5.01555681 1.36136542 7.20276107 4.37503686 10 8.5 C10.43352783 9.127854 10.86705566 9.75570801 11.3137207 10.40258789 C19.65762443 22.69036946 19.65762443 22.69036946 20.375 29.625 C17.82852492 35.87543883 12.08613965 40.25636267 6 43 C6 42.01 6 41.02 6 40 C8.47624163 37.80675741 11.00397795 35.99752483 13.8125 34.25 C16.29006506 32.08689434 16.29006506 32.08689434 16.8125 28.5625 C16.24762237 19.4046354 7.51661843 9.91666932 2 3 C1.01 3.33 0.02 3.66 -1 4 C-1.73323796 6.01508358 -1.73323796 6.01508358 -2 8 C-3.32 8.33 -4.64 8.66 -6 9 C-5.70902736 12.49167166 -5.24460417 13.76200675 -2.6875 16.25 C-0.21684606 18.11153292 -0.21684606 18.11153292 2.1875 18.375 C3.0846875 18.684375 3.0846875 18.684375 4 19 C5.25 22.0625 5.25 22.0625 6 25 C1.96579823 24.44775428 -0.12391234 22.39561019 -3.0625 19.6875 C-3.91972656 18.90761719 -4.77695313 18.12773437 -5.66015625 17.32421875 C-7.68454322 15.31335022 -9.37096946 13.33405359 -11 11 C-12.10514766 14.31544299 -12.32107631 17.20410111 -12.5625 20.6875 C-12.64628906 21.86699219 -12.73007813 23.04648438 -12.81640625 24.26171875 C-12.87699219 25.16535156 -12.93757813 26.06898438 -13 27 C-13.66 27 -14.32 27 -15 27 C-15 31.95 -15 36.9 -15 42 C-15.33 42 -15.66 42 -16 42 C-16.41277905 17.01734161 -16.41277905 17.01734161 -14 7 C-16.97 6.67 -19.94 6.34 -23 6 C-23 5.34 -23 4.68 -23 4 C-23.99 4 -24.98 4 -26 4 C-25.84152588 4.99201416 -25.68305176 5.98402832 -25.51977539 7.00610352 C-24.95621308 10.96395092 -24.78091881 14.90914271 -24.68359375 18.90234375 C-24.66281265 19.6249086 -24.64203156 20.34747345 -24.62062073 21.0919342 C-24.55584574 23.3737037 -24.4965797 25.65557667 -24.4375 27.9375 C-24.39424603 29.49545291 -24.35062969 31.0533958 -24.30664062 32.61132812 C-24.20023961 36.40744922 -24.09877501 40.20367314 -24 44 C-24.33 44 -24.66 44 -25 44 C-25 42.02 -25 40.04 -25 38 C-25.66 38 -26.32 38 -27 38 C-27.92808938 29.74973532 -28.1230629 21.6096172 -28.0625 13.3125 C-28.05798828 12.12205078 -28.05347656 10.93160156 -28.04882812 9.70507812 C-28.03717452 6.80333064 -28.02081559 3.90169374 -28 1 C-22.25 2.875 -22.25 2.875 -20 4 C-9.97505817 4.76154378 -9.97505817 4.76154378 -1 1 C-0.67 0.67 -0.34 0.34 0 0 Z " fill="#6F347F" transform="translate(123,121)"/>
<path d="M0 0 C1 2 2 4 3 6 C5.31 5.01 7.62 4.02 10 3 C10 3.66 10 4.32 10 5 C10.99 5.33 11.98 5.66 13 6 C14.74814704 11.88013095 13.28495129 17.45083259 11 23 C10.01 23.66 9.02 24.32 8 25 C7.85730886 27.51195866 7.85716694 29.81530204 8 32.3125 C8.24467413 37.5169227 8.36679822 40.84893584 5 45 C2.4375 45.4375 2.4375 45.4375 0 45 C-2 43 -2 43 -2.125 39.375 C-2.08375 38.26125 -2.0425 37.1475 -2 36 C0.475 35.505 0.475 35.505 3 35 C2.87882812 34.38068604 2.75765625 33.76137207 2.6328125 33.12329102 C2.07990376 30.27129206 1.53989089 27.4169907 1 24.5625 C0.80921875 23.58861328 0.6184375 22.61472656 0.421875 21.61132812 C-0.94572537 14.30931898 -2.02754987 7.2596423 0 0 Z " fill="#9F61BF" transform="translate(101,162)"/>
<path d="M0 0 C0.99 0.33 1.98 0.66 3 1 C1.93084315 4.56385616 0.64879239 7.65989982 -1.1875 10.875 C-3.4899214 15.27593832 -3.02455128 18.21876067 -2 23 C-1.1646875 23.0928125 -1.1646875 23.0928125 -0.3125 23.1875 C2.94987173 24.33373872 4.68667874 26.49390197 7 29 C6.40975852 30.65087847 5.80233994 32.29562407 5.1875 33.9375 C4.85105469 34.85402344 4.51460937 35.77054688 4.16796875 36.71484375 C3 39 3 39 0 40 C-3.74788366 37.00169307 -4.65435495 34.43960277 -5.5078125 29.90234375 C-5.96885647 27.69072528 -5.96885647 27.69072528 -8 25 C-9.58208082 18.86200225 -8.9805389 14.65274619 -6 9 C-5.49339844 7.92298828 -5.49339844 7.92298828 -4.9765625 6.82421875 C-2.2943314 1.1471657 -2.2943314 1.1471657 0 0 Z " fill="#F8C3A7" transform="translate(85,39)"/>
<path d="M0 0 C0.33 0 0.66 0 1 0 C1.33 2.31 1.66 4.62 2 7 C2.680625 6.2575 2.680625 6.2575 3.375 5.5 C5 4 5 4 7 4 C7.33 3.01 7.66 2.02 8 1 C8.66 1 9.32 1 10 1 C10 6.94 10 12.88 10 19 C7.69 19.99 5.38 20.98 3 22 C2.34 21.01 1.68 20.02 1 19 C0.8487008 25.32304583 1.33907956 31.1052362 2.5 37.3125 C2.78421399 38.87055598 3.06556793 40.429137 3.34375 41.98828125 C3.46943359 42.66415283 3.59511719 43.34002441 3.72460938 44.03637695 C4 46 4 46 4 50 C2.68 49.67 1.36 49.34 0 49 C-0.07347656 47.9790625 -0.07347656 47.9790625 -0.1484375 46.9375 C-0.61675309 40.86554614 -1.25847203 34.8469714 -2.0625 28.8125 C-2.8087763 23.16326865 -3.2035377 17.69905561 -3 12 C-2.67 12 -2.34 12 -2 12 C-1.93941406 11.30132812 -1.87882812 10.60265625 -1.81640625 9.8828125 C-1.73261719 8.97273437 -1.64882812 8.06265625 -1.5625 7.125 C-1.48128906 6.22007812 -1.40007812 5.31515625 -1.31640625 4.3828125 C-1 2 -1 2 0 0 Z " fill="#A250BA" transform="translate(100,147)"/>
<path d="M0 0 C0.33 0.99 0.66 1.98 1 3 C0.67 3.33 0.34 3.66 0 4 C-0.2554131 8.68257342 0.06567067 12.46591079 1.25 17 C2.31095364 21.76702456 1.42178688 23.84161912 -1.02734375 27.91796875 C-2.79244633 31.6962807 -2.79955491 35.94459987 -2 40 C-0.52870053 41.65919676 -0.52870053 41.65919676 1 43 C1 43.66 1 44.32 1 45 C2.134375 45.309375 3.26875 45.61875 4.4375 45.9375 C8 47 8 47 9 48 C13.47480899 48.17548271 17.60833973 47.85690932 22 47 C17.74705869 50.86257472 13.93769772 50.54883501 8.41015625 50.41796875 C3.37551371 49.80089343 -1.05281051 48.24262017 -5 45 C-6.8562998 41.52523881 -7.29569441 38.5351002 -7.3125 34.625 C-7.32925781 33.73039062 -7.34601563 32.83578125 -7.36328125 31.9140625 C-7 29 -7 29 -5.4765625 25.6875 C-3.46459024 20.66289203 -3.86604477 16.45369572 -4.20507812 11.140625 C-4.34862855 7.2332524 -4.18733126 5.28264015 -1.99609375 1.9765625 C-1.00802734 0.99816406 -1.00802734 0.99816406 0 0 Z " fill="#76AFF5" transform="translate(98,76)"/>
<path d="M0 0 C0.9075 0.78375 1.815 1.5675 2.75 2.375 C4.59771608 3.94012421 5.92480487 4.96992195 8.1875 5.875 C11.18620502 7.73626518 11.78127983 10.80811383 13 14 C14.09631369 15.32131818 14.09631369 15.32131818 16.8125 15.125 C19.44327303 15.02183243 21.54506496 14.9092352 24 14 C24.33 13.34 24.66 12.68 25 12 C25 13.32 25 14.64 25 16 C21.92990004 18.04673331 18.7202928 18.7024372 15.0390625 18.66796875 C10.79739918 17.27845835 8.96585343 12.75299292 7 9 C4.01485372 13.10457614 3.7045561 15.97745369 4 21 C0.77651004 19.92550335 -0.04138081 19.13675431 -2.1875 16.625 C-2.71730469 16.01914063 -3.24710937 15.41328125 -3.79296875 14.7890625 C-5 13 -5 13 -5 10 C-4.34 10 -3.68 10 -3 10 C-2.87625 9.0925 -2.7525 8.185 -2.625 7.25 C-2.07890323 4.41029677 -1.42736197 2.47409409 0 0 Z " fill="#4083E5" transform="translate(91,68)"/>
<path d="M0 0 C0.99 0.33 1.98 0.66 3 1 C2.195625 1.680625 1.39125 2.36125 0.5625 3.0625 C-2.42288711 6.48477302 -2.73781251 8.5428126 -3 13 C-2.01 11.68 -1.02 10.36 0 9 C1.32 9.33 2.64 9.66 4 10 C3.01 11.485 3.01 11.485 2 13 C2 13.66 2 14.32 2 15 C-2.52499377 18.66700794 -7.37706588 20.71141093 -13 22 C-13.12375 21.360625 -13.2475 20.72125 -13.375 20.0625 C-13.58125 19.381875 -13.7875 18.70125 -14 18 C-14.66 17.67 -15.32 17.34 -16 17 C-15.13722545 11.75561419 -11.49656875 9.48696891 -7.625 6.1875 C-6.93921875 5.57712891 -6.2534375 4.96675781 -5.546875 4.33789062 C-4.88429688 3.76619141 -4.22171875 3.19449219 -3.5390625 2.60546875 C-2.93271973 2.08106201 -2.32637695 1.55665527 -1.70166016 1.01635742 C-1.1401123 0.68095947 -0.57856445 0.34556152 0 0 Z " fill="#9545A7" transform="translate(127,150)"/>
<path d="M0 0 C3.45590207 1.15196736 3.71006514 1.65001693 5.3125 4.75 C6.55843607 7.45834752 7.06253286 8.57269212 6.625 11.5625 C5.16676863 13.74984706 3.64499755 15.50735981 1.875 17.4375 C-0.30067091 19.89579483 -0.96136758 20.80683788 -1.625 24.125 C-0.86067432 27.64089812 0.59081596 29.37179922 3 32 C5.97240815 37.9448163 3.79061977 45.95665828 2 52 C1.01 51.34 0.02 50.68 -1 50 C-0.67 49.21625 -0.34 48.4325 0 47.625 C1.51865337 42.11988152 1.81890233 36.45670699 0 31 C-0.99 31.33 -1.98 31.66 -3 32 C-5.26171875 31.87890625 -5.26171875 31.87890625 -7.6875 31.5625 C-8.49574219 31.46066406 -9.30398437 31.35882813 -10.13671875 31.25390625 C-11.05904297 31.12822266 -11.05904297 31.12822266 -12 31 C-12 30.67 -12 30.34 -12 30 C-8.04 29.505 -8.04 29.505 -4 29 C-4.268125 27.783125 -4.53625 26.56625 -4.8125 25.3125 C-5.1015625 23.0859375 -5.1015625 23.0859375 -5 21 C-2.6875 18.4375 -2.6875 18.4375 0 16 C1.40483267 12.06646851 2.25363272 8.10502006 3 4 C2.278125 4.495 1.55625 4.99 0.8125 5.5 C-2.14848659 7.07919285 -3.71253029 7.28178312 -7 7 C-7.33 7.99 -7.66 8.98 -8 10 C-7.875 7.1875 -7.875 7.1875 -7 4 C-4 2.1875 -4 2.1875 -1 1 C-0.67 0.67 -0.34 0.34 0 0 Z " fill="#4E8FBA" transform="translate(124,70)"/>
<path d="M0 0 C3.56958511 1.1898617 4.45961629 2.4505018 6.75 5.375 C7.38421875 6.16648438 8.0184375 6.95796875 8.671875 7.7734375 C9.32929688 8.87558594 9.32929688 8.87558594 10 10 C9.67 10.99 9.34 11.98 9 13 C8.34 13 7.68 13 7 13 C6.67 14.32 6.34 15.64 6 17 C2.91085345 17.45207023 0.76824346 17.45542577 -1.95703125 15.83984375 C-6.85732594 11.93757242 -6.85732594 11.93757242 -7.4375 8.125 C-7.293125 7.42375 -7.14875 6.7225 -7 6 C-6.01 5.67 -5.02 5.34 -4 5 C-3.34 5.33 -2.68 5.66 -2 6 C-1.855625 5.195625 -1.71125 4.39125 -1.5625 3.5625 C-1 1 -1 1 0 0 Z " fill="#9137AB" transform="translate(123,123)"/>
<path d="M0 0 C1.65 0.66 3.3 1.32 5 2 C5.33 1.34 5.66 0.68 6 0 C5.74445946 1.46109063 5.46999628 2.91888096 5.1875 4.375 C5.03667969 5.18710938 4.88585937 5.99921875 4.73046875 6.8359375 C4 9 4 9 1 11 C-7.13856213 12.58095188 -12.99523858 12.53249268 -20 8 C-20 7.34 -20 6.68 -20 6 C-20.66 5.67 -21.32 5.34 -22 5 C-21.44014404 4.9906543 -20.88028809 4.98130859 -20.3034668 4.97167969 C-17.76391854 4.91795493 -15.22620889 4.83431813 -12.6875 4.75 C-11.80642578 4.73582031 -10.92535156 4.72164063 -10.01757812 4.70703125 C-4.9371324 4.66967182 -4.9371324 4.66967182 -0.89453125 1.953125 C-0.59933594 1.30859375 -0.30414063 0.6640625 0 0 Z " fill="#53ABF9" transform="translate(119,113)"/>
<path d="M0 0 C0.99 0 1.98 0 3 0 C8.43539953 14.46021384 8.43539953 14.46021384 6.13671875 20.12890625 C4.72063289 22.4598517 2.98467714 24.13936518 1 26 C0.34 26.66 -0.32 27.32 -1 28 C-3.625 28.125 -3.625 28.125 -6 28 C-5.61650967 22.50330522 -3.79194914 20.79194914 0 17 C0.87989974 13.81849108 0.87989974 13.81849108 1 11 C0.34 10.67 -0.32 10.34 -1 10 C-1.02689216 8.52093108 -1.04634621 7.04172517 -1.0625 5.5625 C-1.07410156 4.73878906 -1.08570312 3.91507813 -1.09765625 3.06640625 C-1 1 -1 1 0 0 Z " fill="#ECC5AF" transform="translate(93,10)"/>
<path d="M0 0 C0.66 0.33 1.32 0.66 2 1 C3.02232879 4.06698637 3.1659049 6.28664878 3.1875 9.5 C3.20167969 10.4590625 3.21585938 11.418125 3.23046875 12.40625 C3 15 3 15 1 18 C1 14.7 1 11.4 1 8 C-0.32 8.33 -1.64 8.66 -3 9 C-3 9.66 -3 10.32 -3 11 C-10.42857143 11.14285714 -10.42857143 11.14285714 -14 10 C-14.38063221 7.6739143 -14.71269945 5.33944736 -15 3 C-14 2 -14 2 -10.83984375 1.90234375 C-8.90818359 1.91974609 -8.90818359 1.91974609 -6.9375 1.9375 C-5.64714844 1.94652344 -4.35679688 1.95554688 -3.02734375 1.96484375 C-2.02832031 1.97644531 -1.02929688 1.98804688 0 2 C0 1.34 0 0.68 0 0 Z " fill="#3B1208" transform="translate(117,42)"/>
<path d="M0 0 C0.80824219 0.11085937 1.61648437 0.22171875 2.44921875 0.3359375 C3.37154297 0.47902344 3.37154297 0.47902344 4.3125 0.625 C4.3125 0.955 4.3125 1.285 4.3125 1.625 C2.6625 1.625 1.0125 1.625 -0.6875 1.625 C-1.0175 2.615 -1.3475 3.605 -1.6875 4.625 C-3.6675 4.955 -5.6475 5.285 -7.6875 5.625 C-7.3575 6.945 -7.0275 8.265 -6.6875 9.625 C-6.0275 9.295 -5.3675 8.965 -4.6875 8.625 C-4.6875 10.935 -4.6875 13.245 -4.6875 15.625 C-4.0275 15.955 -3.3675 16.285 -2.6875 16.625 C-4.625 17.1875 -4.625 17.1875 -6.6875 17.625 C-7.0175 17.295 -7.3475 16.965 -7.6875 16.625 C-8.0175 19.925 -8.3475 23.225 -8.6875 26.625 C-9.3475 26.295 -10.0075 25.965 -10.6875 25.625 C-10.6875 24.305 -10.6875 22.985 -10.6875 21.625 C-11.3475 21.625 -12.0075 21.625 -12.6875 21.625 C-13.22534659 14.45371218 -13.29413634 9.15516704 -9.07421875 3.1484375 C-6.08534212 -0.13511711 -4.2032387 -0.60916503 0 0 Z " fill="#3D201D" transform="translate(107.6875,33.375)"/>
<path d="M0 0 C0.268125 0.639375 0.53625 1.27875 0.8125 1.9375 C1.88667752 4.33131686 1.88667752 4.33131686 5 5 C5.66 4.67 6.32 4.34 7 4 C6.67 3.34 6.34 2.68 6 2 C7.65 1.67 9.3 1.34 11 1 C11.12375 1.804375 11.2475 2.60875 11.375 3.4375 C11.58125 4.283125 11.7875 5.12875 12 6 C12.66 6.33 13.32 6.66 14 7 C13.67 5.02 13.34 3.04 13 1 C15.31 1.33 17.62 1.66 20 2 C19.74438677 4.3431213 19.40729228 6.67843403 19 9 C18.01 9.495 18.01 9.495 17 10 C16.525625 10.825 16.05125 11.65 15.5625 12.5 C14 15 14 15 11 16 C10.34 15.34 9.68 14.68 9 14 C9.66 12.02 10.32 10.04 11 8 C9.948125 8.3403125 9.948125 8.3403125 8.875 8.6875 C5.12299725 9.09532639 3.20568943 7.86377293 0 6 C0 4.02 0 2.04 0 0 Z " fill="#D9A994" transform="translate(96,55)"/>
<path d="M0 0 C0.33 0.66 0.66 1.32 1 2 C1.99 2.33 2.98 2.66 4 3 C5.80789124 9.08108873 3.83657235 14.16862339 2 20 C0.35 20.33 -1.3 20.66 -3 21 C-3.08086376 18.06195004 -3.1404283 15.12611925 -3.1875 12.1875 C-3.21263672 11.35412109 -3.23777344 10.52074219 -3.26367188 9.66210938 C-3.27333984 8.85966797 -3.28300781 8.05722656 -3.29296875 7.23046875 C-3.3086792 6.49207764 -3.32438965 5.75368652 -3.34057617 4.99291992 C-2.91074167 2.47769478 -1.92536938 1.60558484 0 0 Z " fill="#438CEF" transform="translate(110,165)"/>
<path d="M0 0 C0.12375 0.639375 0.2475 1.27875 0.375 1.9375 C0.58125 2.618125 0.7875 3.29875 1 4 C1.66 4.33 2.32 4.66 3 5 C2.34 6.65 1.68 8.3 1 10 C0.34 10 -0.32 10 -1 10 C-1.12375 10.61875 -1.2475 11.2375 -1.375 11.875 C-2 14 -2 14 -4 16 C-9.67721024 15.81386196 -12.91255697 15.20422711 -17 11 C-20 6.65517241 -20 6.65517241 -20 4 C-18.9275 4.33 -17.855 4.66 -16.75 5 C-13.00268399 6.1717751 -13.00268399 6.1717751 -9 6 C-9.33 7.98 -9.66 9.96 -10 12 C-9.34 12.33 -8.68 12.66 -8 13 C-4.9890638 10.9927092 -4.36983503 10.16115776 -3 7 C-2.34 7 -1.68 7 -1 7 C-0.67 4.69 -0.34 2.38 0 0 Z " fill="#F9C6B1" transform="translate(116,57)"/>
<path d="M0 0 C4.24822374 0.47202486 6.19989709 2.96655518 9 6 C8.40975852 7.65087847 7.80233994 9.29562407 7.1875 10.9375 C6.85105469 11.85402344 6.51460937 12.77054688 6.16796875 13.71484375 C5 16 5 16 2 17 C-1.67761277 14.05790978 -2.72431991 11.40918564 -3.80078125 7 C-4.02364169 4.76265601 -3.66235534 3.13478556 -3 1 C-2.34 1.33 -1.68 1.66 -1 2 C-1 2.66 -1 3.32 -1 4 C-0.01 4 0.98 4 2 4 C1.34 2.68 0.68 1.36 0 0 Z " fill="#F5C4AF" transform="translate(83,62)"/>
<path d="M0 0 C3 2 3 2 3.75 4.5625 C3.87375 5.7690625 3.87375 5.7690625 4 7 C1.97307871 9.02692129 -2.03748608 8.18507217 -4.8125 8.1875 C-5.53759766 8.19974609 -6.26269531 8.21199219 -7.00976562 8.22460938 C-14.18929596 8.24431531 -14.18929596 8.24431531 -17 6 C-17.59692383 3.92260742 -17.59692383 3.92260742 -18 2 C-16.17662109 1.90912109 -16.17662109 1.90912109 -14.31640625 1.81640625 C-12.73175772 1.73201668 -11.14712298 1.6473679 -9.5625 1.5625 C-8.76005859 1.52318359 -7.95761719 1.48386719 -7.13085938 1.44335938 C-3.24760439 1.5945704 -3.24760439 1.5945704 0 0 Z " fill="#60B6FA" transform="translate(117,92)"/>
<path d="M0 0 C4.46666793 2.24122561 6.91676538 5.16897059 9.625 9.25 C10.0065625 9.79785156 10.388125 10.34570312 10.78125 10.91015625 C14.0549242 15.7303593 16.82005724 20.52578699 17.25 26.4375 C15.17712385 32.34519704 10.16586156 36.30111347 4.70703125 39.23046875 C4.14371094 39.48441406 3.58039063 39.73835938 3 40 C3 39.01 3 38.02 3 37 C5.47624163 34.80675741 8.00397795 32.99752483 10.8125 31.25 C13.29006506 29.08689434 13.29006506 29.08689434 13.8125 25.5625 C13.2885252 16.83504479 5.49924148 8.35849796 0 2 C0 1.34 0 0.68 0 0 Z " fill="#693884" transform="translate(126,124)"/>
<path d="M0 0 C0.66 0 1.32 0 2 0 C2.9680847 4.35638114 3.67917598 7.66769862 1.57421875 11.796875 C0.95160156 12.77140625 0.32898438 13.7459375 -0.3125 14.75 C-0.92738281 15.73484375 -1.54226562 16.7196875 -2.17578125 17.734375 C-2.77777344 18.48203125 -3.37976563 19.2296875 -4 20 C-4.99 20 -5.98 20 -7 20 C-7 9.68571429 -7 9.68571429 -3 5 C-2.46375 4.071875 -1.9275 3.14375 -1.375 2.1875 C-0.694375 1.1046875 -0.694375 1.1046875 0 0 Z " fill="#F8C7AD" transform="translate(137,59)"/>
<path d="M0 0 C1.32 0 2.64 0 4 0 C4.66 1.65 5.32 3.3 6 5 C6.66 5 7.32 5 8 5 C8.53154742 6.60064843 9.04988353 8.20568874 9.5625 9.8125 C9.85253906 10.70582031 10.14257812 11.59914063 10.44140625 12.51953125 C11 15 11 15 10 18 C7.69 17.67 5.38 17.34 3 17 C2.86722656 16.26394531 2.73445312 15.52789062 2.59765625 14.76953125 C2.42105469 13.79371094 2.24445313 12.81789063 2.0625 11.8125 C1.80146484 10.36810547 1.80146484 10.36810547 1.53515625 8.89453125 C1.18361589 6.99313414 0.81687386 5.09447281 0.43359375 3.19921875 C0 1 0 1 0 0 Z " fill="#F6C3AA" transform="translate(127,36)"/>
<path d="M0 0 C0.99 0.33 1.98 0.66 3 1 C3.99037656 4.41129703 3.88391865 6.8881544 3.25 10.3125 C2.57680434 15.14653151 4.09870379 17.69110366 6.87109375 21.56640625 C7.24363281 22.03949219 7.61617187 22.51257813 8 23 C4.84143557 22.40279244 4.07613063 22.08036011 1.75 19.625 C0 17 0 17 0 14 C-1.32 13.34 -2.64 12.68 -4 12 C-3.71788123 10.3733152 -3.42397625 8.74867104 -3.125 7.125 C-2.96257812 6.22007813 -2.80015625 5.31515625 -2.6328125 4.3828125 C-2 2 -2 2 0 0 Z " fill="#DEC1B6" transform="translate(122,10)"/>
<path d="M0 0 C0.94875 0.639375 1.8975 1.27875 2.875 1.9375 C7.3782442 4.55437496 11.88076363 4.79399451 17 5 C17 5.66 17 6.32 17 7 C14.69 7 12.38 7 10 7 C10.33 8.98 10.66 10.96 11 13 C10.01 12.67 9.02 12.34 8 12 C8 11.34 8 10.68 8 10 C7.34 9.67 6.68 9.34 6 9 C6.66 9 7.32 9 8 9 C8 8.34 8 7.68 8 7 C5.63158688 8.57894208 3.93254772 9.9754262 2 12 C1.34 11.67 0.68 11.34 0 11 C0 7.37 0 3.74 0 0 Z " fill="#F2C5A5" transform="translate(99,49)"/>
<path d="M0 0 C1.23556641 0.01740234 1.23556641 0.01740234 2.49609375 0.03515625 C3.32238281 0.04417969 4.14867188 0.05320313 5 0.0625 C5.63808594 0.07410156 6.27617188 0.08570313 6.93359375 0.09765625 C6.18359375 7.84765625 6.18359375 7.84765625 3.93359375 10.09765625 C1.43359375 10.34765625 1.43359375 10.34765625 -1.06640625 10.09765625 C-3.06640625 8.09765625 -3.06640625 8.09765625 -3.25390625 4.53515625 C-3.01430425 0.14245294 -3.01430425 0.14245294 0 0 Z " fill="#4470AC" transform="translate(102.06640625,196.90234375)"/>
<path d="M0 0 C0.55300781 0.22558594 1.10601562 0.45117188 1.67578125 0.68359375 C1.67578125 1.67359375 1.67578125 2.66359375 1.67578125 3.68359375 C1.05703125 3.72484375 0.43828125 3.76609375 -0.19921875 3.80859375 C-0.90046875 4.09734375 -1.60171875 4.38609375 -2.32421875 4.68359375 C-3.62878435 7.67975321 -3.62878435 7.67975321 -4.32421875 10.68359375 C-5.97421875 10.35359375 -7.62421875 10.02359375 -9.32421875 9.68359375 C-9.61296875 10.32296875 -9.90171875 10.96234375 -10.19921875 11.62109375 C-11.32421875 13.68359375 -11.32421875 13.68359375 -13.32421875 14.68359375 C-13.43748084 11.45562406 -13.46806092 9.63809191 -12.32421875 6.68359375 C-9.03369868 3.43487702 -4.86909828 -0.66285203 0 0 Z " fill="#9C43B6" transform="translate(136.32421875,149.31640625)"/>
<path d="M0 0 C0.33 0 0.66 0 1 0 C3.21545344 6.75613505 4.11599614 13.66558051 5.125 20.6875 C5.30675781 21.91017578 5.48851563 23.13285156 5.67578125 24.39257812 C7 33.45800047 7 33.45800047 7 38 C5.68 37.67 4.36 37.34 3 37 C2.92652344 35.9790625 2.92652344 35.9790625 2.8515625 34.9375 C2.38324691 28.86554614 1.74152797 22.8469714 0.9375 16.8125 C0.1912237 11.16326865 -0.2035377 5.69905561 0 0 Z " fill="#8F5998" transform="translate(97,159)"/>
<path d="M0 0 C0.33 0 0.66 0 1 0 C1.33 3.3 1.66 6.6 2 10 C2.33 10 2.66 10 3 10 C3.33 20.89 3.66 31.78 4 43 C3.67 43 3.34 43 3 43 C3 41.02 3 39.04 3 37 C2.34 37 1.68 37 1 37 C0.07191062 28.74973532 -0.1230629 20.6096172 -0.0625 12.3125 C-0.05798828 11.12205078 -0.05347656 9.93160156 -0.04882812 8.70507812 C-0.03717452 5.80333064 -0.02081559 2.90169374 0 0 Z " fill="#7F408F" transform="translate(95,122)"/>
<path d="M0 0 C3.45590207 1.15196736 3.71006514 1.65001693 5.3125 4.75 C6.60941416 7.54834172 7.06681467 8.58956705 6.5625 11.6875 C4.66744192 14.49218596 2.48549715 16.71072631 0 19 C-0.66 18.67 -1.32 18.34 -2 18 C-1.52949219 17.62230469 -1.05898437 17.24460937 -0.57421875 16.85546875 C1.49679029 14.41445314 1.70686716 12.45509934 2.1875 9.3125 C2.34605469 8.31863281 2.50460938 7.32476562 2.66796875 6.30078125 C2.77753906 5.54152344 2.88710937 4.78226562 3 4 C2.278125 4.495 1.55625 4.99 0.8125 5.5 C-2.14848659 7.07919285 -3.71253029 7.28178312 -7 7 C-7.33 7.99 -7.66 8.98 -8 10 C-7.875 7.1875 -7.875 7.1875 -7 4 C-4 2.1875 -4 2.1875 -1 1 C-0.67 0.67 -0.34 0.34 0 0 Z " fill="#6288C3" transform="translate(124,70)"/>
<path d="M0 0 C0.9075 0.78375 1.815 1.5675 2.75 2.375 C4.59771608 3.94012421 5.92480487 4.96992195 8.1875 5.875 C11.18620502 7.73626518 11.78127983 10.80811383 13 14 C14.09631369 15.32131818 14.09631369 15.32131818 16.8125 15.125 C19.44327303 15.02183243 21.54506496 14.9092352 24 14 C24.33 13.34 24.66 12.68 25 12 C25 13.32 25 14.64 25 16 C21.87415291 18.08389806 18.71187436 18.59332943 14.97265625 18.5234375 C11.75001146 17.66831987 10.54251627 15.53875086 8.8125 12.82421875 C8 11 8 11 8 8 C5.03 7.01 2.06 6.02 -1 5 C-1.33 6.32 -1.66 7.64 -2 9 C-2.33 8.34 -2.66 7.68 -3 7 C-2.06421005 4.64018187 -1.06652192 2.30368736 0 0 Z " fill="#6986B2" transform="translate(91,68)"/>
<path d="M0 0 C1.60332791 -0.08121924 3.20784026 -0.13929134 4.8125 -0.1875 C6.15248047 -0.23970703 6.15248047 -0.23970703 7.51953125 -0.29296875 C10 0 10 0 11.7578125 1.359375 C13.33500902 3.44246474 14.10426966 5.55167041 15 8 C15.34675781 8.56332031 15.69351563 9.12664063 16.05078125 9.70703125 C17.38931692 12.94044868 17.18947874 15.76814828 17.125 19.25 C17.10695313 20.51328125 17.08890625 21.7765625 17.0703125 23.078125 C17.04710938 24.04234375 17.02390625 25.0065625 17 26 C16.34 26 15.68 26 15 26 C15.01160156 25.09636719 15.02320312 24.19273438 15.03515625 23.26171875 C15.04417969 22.08222656 15.05320312 20.90273438 15.0625 19.6875 C15.07410156 18.51574219 15.08570312 17.34398437 15.09765625 16.13671875 C15.14899898 12.96940805 15.14899898 12.96940805 14 10 C12.67151309 8.99357052 11.33849671 7.99307821 10 7 C10 6.34 10 5.68 10 5 C7.36 5 4.72 5 2 5 C2.33 4.01 2.66 3.02 3 2 C2.01 1.34 1.02 0.68 0 0 Z " fill="#503230" transform="translate(104,33)"/>
<path d="M0 0 C1.875 0.5 1.875 0.5 4 2 C5.09902852 4.59370731 5.84734175 7.18169386 6 10 C5.34 10.66 4.68 11.32 4 12 C4.66 12 5.32 12 6 12 C6 12.66 6 13.32 6 14 C4.02 14.99 4.02 14.99 2 16 C-0.67401588 10.65196824 -1.41257648 6.98235897 -1 1 C-0.67 0.67 -0.34 0.34 0 0 Z " fill="#3A8FF9" transform="translate(98,79)"/>
<path d="M0 0 C1.6396875 0.2475 1.6396875 0.2475 3.3125 0.5 C6.87525873 1.06718184 6.87525873 1.06718184 10 1 C9.125 7.875 9.125 7.875 8 9 C4.5625 9.25 4.5625 9.25 1 9 C-1 6 -1 6 -0.625 2.8125 C-0.41875 1.884375 -0.2125 0.95625 0 0 Z " fill="#F4BF9E" transform="translate(104,73)"/>
<path d="M0 0 C0.99 0 1.98 0 3 0 C3 0.66 3 1.32 3 2 C5.97 2.33 8.94 2.66 12 3 C11.67 5.64 11.34 8.28 11 11 C10.01 11 9.02 11 8 11 C7.87625 9.865625 7.7525 8.73125 7.625 7.5625 C7.41875 6.386875 7.2125 5.21125 7 4 C6.34 3.67 5.68 3.34 5 3 C5.33 5.97 5.66 8.94 6 12 C5.01 12.495 5.01 12.495 4 13 C3.67 11.02 3.34 9.04 3 7 C2.01 7 1.02 7 0 7 C0 4.69 0 2.38 0 0 Z " fill="#8E32A8" transform="translate(97,125)"/>
<path d="M0 0 C2.3941161 2.3941161 2.29598923 3.03786311 2.3125 6.3125 C2.33763672 7.45138672 2.33763672 7.45138672 2.36328125 8.61328125 C2 11 2 11 0.4921875 13.3046875 C-1.45613448 16.82390784 -1.33320545 19.9083412 -1.1875 23.8125 C-1.17396484 24.50537109 -1.16042969 25.19824219 -1.14648438 25.91210938 C-1.11138845 27.60841265 -1.05758943 29.30431136 -1 31 C-0.34 31 0.32 31 1 31 C1.33 31.99 1.66 32.98 2 34 C0.125 33.8125 0.125 33.8125 -2 33 C-4.61589956 27.79573667 -4.56853782 22.70185752 -4 17 C-3.02936517 14.65429915 -2.03101947 12.31979381 -1 10 C-0.83382355 7.57857174 -0.86899131 5.24317087 -0.9921875 2.8203125 C-0.99476562 2.21960938 -0.99734375 1.61890625 -1 1 C-0.67 0.67 -0.34 0.34 0 0 Z " fill="#7697C1" transform="translate(95,88)"/>
<path d="M0 0 C0.66 0 1.32 0 2 0 C3.04761905 5.23809524 3.04761905 5.23809524 3 8 C1.1875 10.375 1.1875 10.375 -1 12 C-1.66 12.66 -2.32 13.32 -3 14 C-5.625 14.125 -5.625 14.125 -8 14 C-7.62289462 8.5948229 -5.96290424 6.57627944 -2 3 C-1.34 2.01 -0.68 1.02 0 0 Z " fill="#EEC5B3" transform="translate(95,24)"/>
<path d="M0 0 C0.66 0 1.32 0 2 0 C4.20914 3.31371 4.22481553 4.3446021 4.125 8.1875 C4.10695313 9.08855469 4.08890625 9.98960938 4.0703125 10.91796875 C4.03550781 11.94857422 4.03550781 11.94857422 4 13 C-1.75 14.125 -1.75 14.125 -4 13 C-4 12.34 -4 11.68 -4 11 C-2.68 10.34 -1.36 9.68 0 9 C0 8.34 0 7.68 0 7 C-0.66 6.67 -1.32 6.34 -2 6 C-1.125 1.125 -1.125 1.125 0 0 Z M1 4 C2 6 2 6 2 6 Z " fill="#3BB1EE" transform="translate(122,101)"/>
<path d="M0 0 C-0.06016203 1.7717719 -0.14899328 3.54258679 -0.25 5.3125 C-0.29640625 6.29863281 -0.3428125 7.28476563 -0.390625 8.30078125 C-1 11 -1 11 -3.046875 12.85546875 C-3.69140625 13.23316406 -4.3359375 13.61085938 -5 14 C-5.12375 12.9275 -5.2475 11.855 -5.375 10.75 C-5.89643936 7.62136385 -6.40088254 5.66519576 -8 3 C-3.375 0 -3.375 0 0 0 Z " fill="#3888F0" transform="translate(127,74)"/>
<path d="M0 0 C0.66 0 1.32 0 2 0 C2 5.94 2 11.88 2 18 C-0.31 18.99 -2.62 19.98 -5 21 C-5.33 19.02 -5.66 17.04 -6 15 C-4 15 -2 15 0 15 C0 10.05 0 5.1 0 0 Z " fill="#9F52AB" transform="translate(108,148)"/>
<path d="M0 0 C2.475 0.99 2.475 0.99 5 2 C5.33 1.34 5.66 0.68 6 0 C5.67 2.31 5.34 4.62 5 7 C2.1875 8.125 2.1875 8.125 -1 9 C-1.99 8.34 -2.98 7.68 -4 7 C-2.79618552 4.50638429 -1.54571278 2.31856917 0 0 Z " fill="#4CB6F9" transform="translate(119,113)"/>
<path d="M0 0 C0.268125 0.639375 0.53625 1.27875 0.8125 1.9375 C1.88667752 4.33131686 1.88667752 4.33131686 5 5 C5.66 4.67 6.32 4.34 7 4 C6.67 3.34 6.34 2.68 6 2 C7.65 1.67 9.3 1.34 11 1 C11.66666667 4.33333333 12.33333333 7.66666667 13 11 C12.34 11 11.68 11 11 11 C11 10.01 11 9.02 11 8 C9.948125 8.3403125 9.948125 8.3403125 8.875 8.6875 C5.12299725 9.09532639 3.20568943 7.86377293 0 6 C0 4.02 0 2.04 0 0 Z " fill="#A47C68" transform="translate(96,55)"/>
<path d="M0 0 C1 2 2 4 3 6 C3.66 6 4.32 6 5 6 C5 8.64 5 11.28 5 14 C3.02 14.99 3.02 14.99 1 16 C1.33 14.02 1.66 12.04 2 10 C1.34 10 0.68 10 0 10 C-0.33 10.99 -0.66 11.98 -1 13 C-1.0272415 11.58344207 -1.04650467 10.16672955 -1.0625 8.75 C-1.07410156 7.96109375 -1.08570312 7.1721875 -1.09765625 6.359375 C-1.00385306 4.09308998 -0.63241063 2.1711105 0 0 Z " fill="#A759BD" transform="translate(101,162)"/>
<path d="M0 0 C0.33 0.66 0.66 1.32 1 2 C1.99 2.33 2.98 2.66 4 3 C3.34 4.32 2.68 5.64 2 7 C2 6.01 2 5.02 2 4 C1.01 4 0.02 4 -1 4 C-1 8.29 -1 12.58 -1 17 C-0.34 17.33 0.32 17.66 1 18 C0.01 18 -0.98 18 -2 18 C-2.33 18.66 -2.66 19.32 -3 20 C-3.08089542 17.22858283 -3.14044062 14.45952181 -3.1875 11.6875 C-3.22520508 10.50897461 -3.22520508 10.50897461 -3.26367188 9.30664062 C-3.27333984 8.54931641 -3.28300781 7.79199219 -3.29296875 7.01171875 C-3.3086792 6.31522217 -3.32438965 5.61872559 -3.34057617 4.90112305 C-2.90238443 2.45510217 -1.86562642 1.57297914 0 0 Z " fill="#757DDF" transform="translate(110,165)"/>
<path d="M0 0 C0.99 0.33 1.98 0.66 3 1 C0.48487541 3.6630731 -1.84077653 5.898368 -4.9375 7.875 C-8.19427845 10.13480546 -10.28277298 12.51236543 -12.703125 15.609375 C-13.13109375 16.06828125 -13.5590625 16.5271875 -14 17 C-14.66 17 -15.32 17 -16 17 C-15.13722545 11.75561419 -11.49656875 9.48696891 -7.625 6.1875 C-6.93921875 5.57712891 -6.2534375 4.96675781 -5.546875 4.33789062 C-4.88429688 3.76619141 -4.22171875 3.19449219 -3.5390625 2.60546875 C-2.93271973 2.08106201 -2.32637695 1.55665527 -1.70166016 1.01635742 C-1.1401123 0.68095947 -0.57856445 0.34556152 0 0 Z " fill="#8A5F96" transform="translate(127,150)"/>
<path d="M0 0 C2.475 0.99 2.475 0.99 5 2 C4.67 2.66 4.34 3.32 4 4 C2.68 3.67 1.36 3.34 0 3 C-0.2475 3.804375 -0.495 4.60875 -0.75 5.4375 C-1.1625 6.283125 -1.575 7.12875 -2 8 C-4.0625 8.625 -4.0625 8.625 -6 9 C-6.33 9.99 -6.66 10.98 -7 12 C-8.32 10.35 -9.64 8.7 -11 7 C-9.68 6.67 -8.36 6.34 -7 6 C-7 5.34 -7 4.68 -7 4 C-5.5459375 3.2884375 -5.5459375 3.2884375 -4.0625 2.5625 C-1.19522563 1.29806053 -1.19522563 1.29806053 0 0 Z " fill="#733C93" transform="translate(123,121)"/>
<path d="M0 0 C3.465 1.485 3.465 1.485 7 3 C10.49730472 3.56284565 10.49730472 3.56284565 13.9375 3.6875 C15.08089844 3.75324219 16.22429687 3.81898437 17.40234375 3.88671875 C18.25957031 3.92410156 19.11679688 3.96148437 20 4 C18.390625 5.55078125 18.390625 5.55078125 16 7 C12.984375 6.85546875 12.984375 6.85546875 9.75 6.1875 C8.67234375 5.97480469 7.5946875 5.76210937 6.484375 5.54296875 C5.66453125 5.36378906 4.8446875 5.18460937 4 5 C4 4.34 4 3.68 4 3 C3.01 3 2.02 3 1 3 C1 7.29 1 11.58 1 16 C0.67 16 0.34 16 0 16 C0 10.72 0 5.44 0 0 Z " fill="#592C7F" transform="translate(96,122)"/>
<path d="M0 0 C1.32 0.33 2.64 0.66 4 1 C3.01 1.495 3.01 1.495 2 2 C1.87625 2.969375 1.7525 3.93875 1.625 4.9375 C1 8 1 8 -0.6875 9.375 C-3.71219239 10.19248443 -5.87923961 10.45511089 -9 10 C-11.375 7.6875 -11.375 7.6875 -13 5 C-13 4.01 -13 3.02 -13 2 C-12.34 2 -11.68 2 -11 2 C-10.34 3.98 -9.68 5.96 -9 8 C-5.535 7.505 -5.535 7.505 -2 7 C-1.34 4.69 -0.68 2.38 0 0 Z " fill="#CFCBDA" transform="translate(114,74)"/>
<path d="M0 0 C4 3 4 3 4.609375 5.91796875 C4.65578125 6.99691406 4.7021875 8.07585937 4.75 9.1875 C4.80671875 10.27417969 4.8634375 11.36085937 4.921875 12.48046875 C4.94765625 13.31191406 4.9734375 14.14335937 5 15 C3.68 15.33 2.36 15.66 1 16 C0.67 10.72 0.34 5.44 0 0 Z " fill="#B469C2" transform="translate(102,182)"/>
<path d="M0 0 C3.63 0.33 7.26 0.66 11 1 C7.41087588 4.58912412 6.22706417 4.44420474 1.3125 4.6875 C0.13300781 4.75324219 -1.04648438 4.81898437 -2.26171875 4.88671875 C-3.61716797 4.94279297 -3.61716797 4.94279297 -5 5 C-5.33 4.34 -5.66 3.68 -6 3 C-4.02 2.67 -2.04 2.34 0 2 C0 1.34 0 0.68 0 0 Z " fill="#64BCF7" transform="translate(112,120)"/>
<path d="M0 0 C0.64066406 0.28875 1.28132813 0.5775 1.94140625 0.875 C9.44884997 4.09727093 14.93555176 4.57355088 23 3 C18.71414016 6.95135371 14.72280117 6.41747516 9.15234375 6.3046875 C5.33266777 5.93549949 3.13157823 5.14736793 0 3 C0 2.01 0 1.02 0 0 Z " fill="#9CB8F8" transform="translate(97,120)"/>
<path d="M0 0 C1.0725 0.33 2.145 0.66 3.25 1 C6.99731601 2.1717751 6.99731601 2.1717751 11 2 C11 3.32 11 4.64 11 6 C8.23735711 6.59732819 5.83967231 7 3 7 C0 2.77777778 0 2.77777778 0 0 Z " fill="#E7C2AD" transform="translate(96,61)"/>
<path d="M0 0 C0.99 0.66 1.98 1.32 3 2 C3 2.99 3 3.98 3 5 C0.20743781 4.88638398 -2.58344118 4.7596411 -5.375 4.625 C-6.1690625 4.5940625 -6.963125 4.563125 -7.78125 4.53125 C-13.7734375 4.2265625 -13.7734375 4.2265625 -16 2 C-14.92878906 1.93941406 -13.85757813 1.87882812 -12.75390625 1.81640625 C-11.35675609 1.73201463 -9.95962143 1.64736594 -8.5625 1.5625 C-7.50192383 1.50352539 -7.50192383 1.50352539 -6.41992188 1.44335938 C-2.91309581 1.52375562 -2.91309581 1.52375562 0 0 Z " fill="#4FAFF9" transform="translate(117,92)"/>
<path d="M0 0 C0.89203125 0.00902344 1.7840625 0.01804688 2.703125 0.02734375 C3.37859375 0.03894531 4.0540625 0.05054688 4.75 0.0625 C4.75 0.7225 4.75 1.3825 4.75 2.0625 C2.44 2.0625 0.13 2.0625 -2.25 2.0625 C-1.92 4.0425 -1.59 6.0225 -1.25 8.0625 C-2.24 7.7325 -3.23 7.4025 -4.25 7.0625 C-4.25 6.4025 -4.25 5.7425 -4.25 5.0625 C-4.91 4.7325 -5.57 4.4025 -6.25 4.0625 C-5.59 4.0625 -4.93 4.0625 -4.25 4.0625 C-4.25 3.4025 -4.25 2.7425 -4.25 2.0625 C-6.23 2.3925 -8.21 2.7225 -10.25 3.0625 C-9.25 1.0625 -9.25 1.0625 -7.515625 0.44140625 C-4.96855716 0.01543111 -2.58143831 -0.03396629 0 0 Z " fill="#F3C7AB" transform="translate(111.25,53.9375)"/>
<path d="M0 0 C0.99 0.66 1.98 1.32 3 2 C2.67 2.33 2.34 2.66 2 3 C1.92794489 4.68608966 1.91613932 6.37500659 1.9375 8.0625 C1.95103516 9.44115234 1.95103516 9.44115234 1.96484375 10.84765625 C1.97644531 11.55792969 1.98804687 12.26820312 2 13 C-0.52053595 14.26026798 -1.8542098 13.91874445 -4.625 13.5625 C-5.44226563 13.46066406 -6.25953125 13.35882813 -7.1015625 13.25390625 C-7.72804688 13.17011719 -8.35453125 13.08632812 -9 13 C-9 12.67 -9 12.34 -9 12 C-6.36 11.67 -3.72 11.34 -1 11 C-1.20625 9.741875 -1.4125 8.48375 -1.625 7.1875 C-2.21335669 3.5985242 -2.16617415 3.24926122 0 0 Z " fill="#49A4E3" transform="translate(121,88)"/>
<path d="M0 0 C9.41002278 -0.18451025 9.41002278 -0.18451025 14 1 C14 1.66 14 2.32 14 3 C9.20699867 4.39151652 4.84864218 3.68662689 0 3 C0 2.01 0 1.02 0 0 Z " fill="#4E1603" transform="translate(103,41)"/>
<path d="M0 0 C0.33 0 0.66 0 1 0 C1.33 2.31 1.66 4.62 2 7 C3.32 6.34 4.64 5.68 6 5 C2.81818182 11.59090909 2.81818182 11.59090909 0 13 C-1.18306728 10.63386544 -1.13354608 9.13219264 -1.125 6.5 C-1.12757812 5.7059375 -1.13015625 4.911875 -1.1328125 4.09375 C-1 2 -1 2 0 0 Z " fill="#9B49B4" transform="translate(100,147)"/>
<path d="M0 0 C6.77681473 1.95774648 6.77681473 1.95774648 9 5 C9.6875 7.1875 9.6875 7.1875 10 9 C6.60807637 8.40716379 4.7892243 7.23256811 2.25 4.9375 C1.63640625 4.38964844 1.0228125 3.84179688 0.390625 3.27734375 C-0.06828125 2.85582031 -0.5271875 2.43429688 -1 2 C-0.67 1.34 -0.34 0.68 0 0 Z " fill="#793593" transform="translate(119,137)"/>
<path d="M0 0 C0.33 0.99 0.66 1.98 1 3 C0.67 3.33 0.34 3.66 0 4 C-0.16407956 8.84034716 0.04651725 13.23258627 1 18 C0.34 18.33 -0.32 18.66 -1 19 C-1.613146 16.77884855 -2.18952158 14.54752254 -2.75 12.3125 C-3.07484375 11.07113281 -3.3996875 9.82976562 -3.734375 8.55078125 C-4 5 -4 5 -2.078125 2.04296875 C-1.39234375 1.36878906 -0.7065625 0.69460937 0 0 Z " fill="#69AAF9" transform="translate(98,76)"/>
<path d="M0 0 C0.66 0.33 1.32 0.66 2 1 C1.49855469 1.38800781 0.99710938 1.77601562 0.48046875 2.17578125 C-1.24891882 3.92975791 -1.24891882 3.92975791 -1.07421875 6.48046875 C-0.94660156 7.37378906 -0.81898438 8.26710938 -0.6875 9.1875 C-0.56761719 10.08855469 -0.44773438 10.98960938 -0.32421875 11.91796875 C-0.21722656 12.60503906 -0.11023438 13.29210937 0 14 C-0.66 14 -1.32 14 -2 14 C-2.69699552 12.54618103 -3.38233866 11.08677047 -4.0625 9.625 C-4.44535156 8.81289062 -4.82820313 8.00078125 -5.22265625 7.1640625 C-5.47917969 6.44992188 -5.73570313 5.73578125 -6 5 C-4.60210322 2.20420645 -2.7371003 1.40192942 0 0 Z " fill="#DDC6C7" transform="translate(131,64)"/>
<path d="M0 0 C0.80824219 0.11085937 1.61648437 0.22171875 2.44921875 0.3359375 C3.37154297 0.47902344 3.37154297 0.47902344 4.3125 0.625 C4.3125 0.955 4.3125 1.285 4.3125 1.625 C2.6625 1.625 1.0125 1.625 -0.6875 1.625 C-1.0175 2.615 -1.3475 3.605 -1.6875 4.625 C-2.656875 4.74875 -3.62625 4.8725 -4.625 5 C-6.1409375 5.309375 -6.1409375 5.309375 -7.6875 5.625 C-8.0175 6.285 -8.3475 6.945 -8.6875 7.625 C-8.375 4.75 -8.375 4.75 -7.6875 1.625 C-4.33422361 -0.61051759 -3.78006343 -0.54783528 0 0 Z " fill="#240C0B" transform="translate(107.6875,33.375)"/>
<path d="M0 0 C1.71056541 2.58430745 2.05220752 3.68321539 1.5390625 6.796875 C1.23742187 7.77140625 0.93578125 8.7459375 0.625 9.75 C0.32851562 10.73484375 0.03203125 11.7196875 -0.2734375 12.734375 C-0.51320313 13.48203125 -0.75296875 14.2296875 -1 15 C-2.65 15.33 -4.3 15.66 -6 16 C-5.67 15.01 -5.34 14.02 -5 13 C-4.01 13 -3.02 13 -2 13 C-1.93941406 12.22914063 -1.87882812 11.45828125 -1.81640625 10.6640625 C-1.73261719 9.66117188 -1.64882812 8.65828125 -1.5625 7.625 C-1.48128906 6.62726563 -1.40007812 5.62953125 -1.31640625 4.6015625 C-1 2 -1 2 0 0 Z " fill="#466AB1" transform="translate(113,170)"/>
<path d="M0 0 C0.37125 0.495 0.7425 0.99 1.125 1.5 C3.79311624 3.63449299 5.66083177 3.27258516 9 3 C11.24240782 2.71260075 11.24240782 2.71260075 13 2 C13.33 1.34 13.66 0.68 14 0 C14 1.32 14 2.64 14 4 C10.07925671 6.61382886 6.55488983 6.29386386 2 6 C1.34 5.34 0.68 4.68 0 4 C0 2.68 0 1.36 0 0 Z " fill="#5E98D3" transform="translate(102,80)"/>
<path d="M0 0 C0.12375 0.639375 0.2475 1.27875 0.375 1.9375 C0.684375 2.9584375 0.684375 2.9584375 1 4 C1.66 4.33 2.32 4.66 3 5 C2.34 6.65 1.68 8.3 1 10 C0.34 10 -0.32 10 -1 10 C-1.12375 10.639375 -1.2475 11.27875 -1.375 11.9375 C-1.58125 12.618125 -1.7875 13.29875 -2 14 C-2.99 14.495 -2.99 14.495 -4 15 C-3.67 12.36 -3.34 9.72 -3 7 C-2.34 7 -1.68 7 -1 7 C-0.67 4.69 -0.34 2.38 0 0 Z " fill="#F1C3A4" transform="translate(116,57)"/>
<path d="M0 0 C0.99 0.33 1.98 0.66 3 1 C3 3.31 3 5.62 3 8 C2.34 8 1.68 8 1 8 C1 12.95 1 17.9 1 23 C0.67 23 0.34 23 0 23 C0 15.41 0 7.82 0 0 Z " fill="#7C338F" transform="translate(107,140)"/>
<path d="M0 0 C1.32 0 2.64 0 4 0 C3.67 1.98 3.34 3.96 3 6 C1.68 6.33 0.36 6.66 -1 7 C-1.625 4.625 -1.625 4.625 -2 2 C-1.34 1.34 -0.68 0.68 0 0 Z " fill="#419DF3" transform="translate(103,198)"/>
<path d="M0 0 C2.64 0.66 5.28 1.32 8 2 C7.67 2.66 7.34 3.32 7 4 C5.35 4 3.7 4 2 4 C2 5.32 2 6.64 2 8 C3.98 8 5.96 8 8 8 C8 8.33 8 8.66 8 9 C4.625 9.1875 4.625 9.1875 1 9 C-1 6 -1 6 -0.625 2.8125 C-0.41875 1.884375 -0.2125 0.95625 0 0 Z " fill="#F1C4AE" transform="translate(104,73)"/>
<path d="M0 0 C0 2.97 0 5.94 0 9 C-0.33 8.34 -0.66 7.68 -1 7 C-1.99 6.67 -2.98 6.34 -4 6 C-3.34 6 -2.68 6 -2 6 C-2 5.34 -2 4.68 -2 4 C-5.3 4 -8.6 4 -12 4 C-12.33 3.34 -12.66 2.68 -13 2 C-10.03 2.33 -7.06 2.66 -4 3 C-4 2.34 -4 1.68 -4 1 C-2 0 -2 0 0 0 Z " fill="#DAB098" transform="translate(118,50)"/>
<path d="M0 0 C1.65 0.99 3.3 1.98 5 3 C3.68 6.3 2.36 9.6 1 13 C0.34 13 -0.32 13 -1 13 C-1 12.01 -1 11.02 -1 10 C-0.34 10 0.32 10 1 10 C0.67 6.7 0.34 3.4 0 0 Z " fill="#DFCACB" transform="translate(87,64)"/>
<path d="M0 0 C0.66 0 1.32 0 2 0 C2.2475 1.03125 2.495 2.0625 2.75 3.125 C3.84079063 7.00600143 5.62933884 9.76009641 8 13 C4.86493389 12.66410006 3.974751 11.97334828 1.75 9.625 C-0.54698849 6.17951726 0 4.14360919 0 0 Z " fill="#E1BCA9" transform="translate(122,20)"/>
<path d="M0 0 C3.1611016 3.1611016 3.38812741 3.5561582 3.6875 7.6875 C3.75324219 8.49574219 3.81898437 9.30398437 3.88671875 10.13671875 C3.92410156 10.75160156 3.96148437 11.36648437 4 12 C2.68 11.67 1.36 11.34 0 11 C0 7.37 0 3.74 0 0 Z " fill="#936AA6" transform="translate(100,185)"/>
<path d="M0 0 C0 0.66 0 1.32 0 2 C-4.20353067 5.28080442 -7.91353417 6.7792482 -13 8 C-13 7.34 -13 6.68 -13 6 C-11.21118264 4.99491199 -9.41885304 3.99607264 -7.625 3 C-6.62726563 2.443125 -5.62953125 1.88625 -4.6015625 1.3125 C-2 0 -2 0 0 0 Z " fill="#773B87" transform="translate(127,164)"/>
<path d="M0 0 C0.66 0 1.32 0 2 0 C3.59220976 3.18441952 3.3976617 6.5337155 3 10 C1.5 13 1.5 13 0 15 C-0.66 14.67 -1.32 14.34 -2 14 C-1.67 13.01 -1.34 12.02 -1 11 C-0.34 11 0.32 11 1 11 C0.67 7.37 0.34 3.74 0 0 Z " fill="#DFB7AC" transform="translate(140,53)"/>
<path d="M0 0 C0.33 0.66 0.66 1.32 1 2 C1.66 2 2.32 2 3 2 C3 2.66 3 3.32 3 4 C3.66 4.33 4.32 4.66 5 5 C3.0625 5.5625 3.0625 5.5625 1 6 C0.67 5.67 0.34 5.34 0 5 C-0.33 8.3 -0.66 11.6 -1 15 C-1.66 14.34 -2.32 13.68 -3 13 C-2.9765625 10.6171875 -2.9765625 10.6171875 -2.625 7.875 C-2.51414062 6.96492188 -2.40328125 6.05484375 -2.2890625 5.1171875 C-2.19367188 4.41851562 -2.09828125 3.71984375 -2 3 C-1.34 3 -0.68 3 0 3 C0 2.01 0 1.02 0 0 Z " fill="#522E20" transform="translate(100,45)"/>
<path d="M0 0 C0.66 0.33 1.32 0.66 2 1 C1.75 3.375 1.75 3.375 1 6 C-1.0625 7.3125 -1.0625 7.3125 -3 8 C-3.75 6.25 -3.75 6.25 -4 4 C-2.0625 1.75 -2.0625 1.75 0 0 Z " fill="#9E4BBA" transform="translate(117,162)"/>
<path d="M0 0 C0.99 0 1.98 0 3 0 C3.33 1.98 3.66 3.96 4 6 C3.34 6 2.68 6 2 6 C1.67 5.67 1.34 5.34 1 5 C0.34 6.32 -0.32 7.64 -1 9 C-1.09765625 2.84765625 -1.09765625 2.84765625 -1 1 C-0.67 0.67 -0.34 0.34 0 0 Z " fill="#D2B5AB" transform="translate(93,10)"/>
<path d="M0 0 C1.32 0.66 2.64 1.32 4 2 C3.34 3.32 2.68 4.64 2 6 C1.34 6 0.68 6 0 6 C0 6.66 0 7.32 0 8 C-1.65 8.33 -3.3 8.66 -5 9 C-4.0409375 8.7215625 -4.0409375 8.7215625 -3.0625 8.4375 C-0.57873787 7.05753944 -0.57873787 7.05753944 -0.25 3.375 C-0.1675 2.26125 -0.085 1.1475 0 0 Z " fill="#44A3F0" transform="translate(117,77)"/>
<path d="M0 0 C0.66 0 1.32 0 2 0 C1.69381595 3.67420866 1.24228216 4.78135513 -1.5625 7.3125 C-2.366875 7.869375 -3.17125 8.42625 -4 9 C-3.34 7.68 -2.68 6.36 -2 5 C-3.32 5.33 -4.64 5.66 -6 6 C-4 4 -2 2 0 0 Z " fill="#E2BFB0" transform="translate(133,61)"/>
<path d="M0 0 C2.97 0.495 2.97 0.495 6 1 C5.67 2.65 5.34 4.3 5 6 C3.68 6 2.36 6 1 6 C0.67 4.02 0.34 2.04 0 0 Z " fill="#815942" transform="translate(110,56)"/>
<path d="M0 0 C1.32 0.33 2.64 0.66 4 1 C4.66 4.3 5.32 7.6 6 11 C3.05321567 8.05321567 1.67958081 5.75906182 0 2 C0 1.34 0 0.68 0 0 Z " fill="#E2C3B7" transform="translate(125,41)"/>
<path d="M0 0 C2.37948772 0.17625835 3.70225849 0.69719773 5.37890625 2.40234375 C6.62115486 3.90649092 7.81376056 5.45129851 9 7 C8.67 7.66 8.34 8.32 8 9 C7.01 9 6.02 9 5 9 C5 7.35 5 5.7 5 4 C3.68 4 2.36 4 1 4 C0.67 2.68 0.34 1.36 0 0 Z " fill="#843499" transform="translate(124,126)"/>
<path d="M0 0 C0.33 0.66 0.66 1.32 1 2 C-3.29 2 -7.58 2 -12 2 C-8.31346756 -1.68653244 -4.90265828 -1.19842758 0 0 Z " fill="#44ACFA" transform="translate(114,116)"/>
<path d="M0 0 C0.65234375 1.765625 0.65234375 1.765625 1 4 C0.00390625 5.921875 0.00390625 5.921875 -1.4375 7.75 C-1.91058594 8.36359375 -2.38367188 8.9771875 -2.87109375 9.609375 C-3.24363281 10.06828125 -3.61617187 10.5271875 -4 11 C-4.66 10.34 -5.32 9.68 -6 9 C-4 6 -2 3 0 0 Z " fill="#D0AFA6" transform="translate(136,69)"/>
<path d="M0 0 C-0.33 1.98 -0.66 3.96 -1 6 C-3.97 5.505 -3.97 5.505 -7 5 C-7 4.34 -7 3.68 -7 3 C-2.61538462 0 -2.61538462 0 0 0 Z " fill="#3EAEF9" transform="translate(125,109)"/>
<path d="M0 0 C2.28804937 1.65883579 3.56463437 2.62283307 5 5 C5.44207004 8.70298665 5.29251428 12.28831877 5 16 C4.67 16 4.34 16 4 16 C3.96261719 15.40832031 3.92523438 14.81664063 3.88671875 14.20703125 C3.48131892 9.33428431 2.85719103 6.09944801 0 2 C0 1.34 0 0.68 0 0 Z " fill="#3D90B8" transform="translate(122,97)"/>
<path d="M0 0 C1.65 0.33 3.3 0.66 5 1 C5 1.66 5 2.32 5 3 C1.04 4.98 1.04 4.98 -3 7 C-1.125 2.25 -1.125 2.25 0 0 Z " fill="#478FEC" transform="translate(99,98)"/>
<path d="M0 0 C0.66 0.33 1.32 0.66 2 1 C2.05422947 2.4370809 2.09289723 3.87475462 2.125 5.3125 C2.14820312 6.11300781 2.17140625 6.91351563 2.1953125 7.73828125 C2 10 2 10 0 13 C0 9.37 0 5.74 0 2 C-0.66 1.67 -1.32 1.34 -2 1 C-1.34 0.67 -0.68 0.34 0 0 Z " fill="#190301" transform="translate(118,47)"/>
<path d="M0 0 C0.99 0.33 1.98 0.66 3 1 C3 1.66 3 2.32 3 3 C2.34 3 1.68 3 1 3 C0.71125 3.639375 0.4225 4.27875 0.125 4.9375 C-1 7 -1 7 -3 8 C-2.74438677 5.6568787 -2.40729228 3.32156597 -2 1 C-1.34 0.67 -0.68 0.34 0 0 Z " fill="#A645BE" transform="translate(126,156)"/>
<path d="M0 0 C1.66666667 1.66666667 3.33333333 3.33333333 5 5 C5.763125 5.721875 6.52625 6.44375 7.3125 7.1875 C9 9 9 9 9 11 C5.77651004 9.92550335 4.95861919 9.13675431 2.8125 6.625 C2.28269531 6.01914063 1.75289063 5.41328125 1.20703125 4.7890625 C0 3 0 3 0 0 Z " fill="#496CA3" transform="translate(86,78)"/>
<path d="M0 0 C1.32 0 2.64 0 4 0 C4 0.66 4 1.32 4 2 C4.99 2.33 5.98 2.66 7 3 C6.34 3 5.68 3 5 3 C5 3.66 5 4.32 5 5 C2.03 4.505 2.03 4.505 -1 4 C-0.67 2.68 -0.34 1.36 0 0 Z " fill="#2B0A09" transform="translate(109,48)"/>
<path d="M0 0 C0.99 0.33 1.98 0.66 3 1 C3.33 3.31 3.66 5.62 4 8 C2.68 8.33 1.36 8.66 0 9 C0 6.03 0 3.06 0 0 Z " fill="#9E71CB" transform="translate(103,189)"/>
<path d="M0 0 C0.33 0 0.66 0 1 0 C2.5912689 4.873261 3.21192221 8.80790596 3 14 C0.65454672 11.65454672 0.04491112 10.04014162 -0.09765625 6.73828125 C-0.08605469 5.93777344 -0.07445313 5.13726562 -0.0625 4.3125 C-0.05347656 3.50425781 -0.04445313 2.69601563 -0.03515625 1.86328125 C-0.02355469 1.24839844 -0.01195313 0.63351563 0 0 Z " fill="#8C4D93" transform="translate(97,159)"/>
<path d="M0 0 C3.9945793 2.05127045 6.10267152 3.88912162 8 8 C7.67 8.66 7.34 9.32 7 10 C5.82739389 8.71372289 4.6620717 7.42080217 3.5 6.125 C2.8503125 5.40570313 2.200625 4.68640625 1.53125 3.9453125 C0 2 0 2 0 0 Z " fill="#632F6B" transform="translate(126,124)"/>
<path d="M0 0 C0.33 0.66 0.66 1.32 1 2 C1.99 1.67 2.98 1.34 4 1 C4 1.66 4 2.32 4 3 C4.66 3 5.32 3 6 3 C6 3.66 6 4.32 6 5 C4.02 5.99 4.02 5.99 2 7 C0 4 0 4 0 0 Z " fill="#4291E9" transform="translate(98,88)"/>
<path d="M0 0 C1.32 0.33 2.64 0.66 4 1 C3.01 1.495 3.01 1.495 2 2 C1.34227572 5.02934491 1.34227572 5.02934491 1 8 C0.01 8.33 -0.98 8.66 -2 9 C-1.34 6.03 -0.68 3.06 0 0 Z " fill="#C0BFC0" transform="translate(114,74)"/>
<path d="M0 0 C3.465 1.98 3.465 1.98 7 4 C7 4.66 7 5.32 7 6 C5.68 6 4.36 6 3 6 C2.67 5.34 2.34 4.68 2 4 C1.34 4.66 0.68 5.32 0 6 C0 4.02 0 2.04 0 0 Z " fill="#E8BDA2" transform="translate(99,49)"/>
<path d="M0 0 C3.82669043 3.42388092 5.72278474 6.00724943 7 11 C6.34 11 5.68 11 5 11 C4.67 9.35 4.34 7.7 4 6 C3.34 6 2.68 6 2 6 C0 3 0 3 0 0 Z " fill="#E5BAAF" transform="translate(131,35)"/>
<path d="M0 0 C2.64465038 3.1254959 3.84414715 6.08788267 5 10 C4.01 10 3.02 10 2 10 C1.46987262 8.71211992 0.9511671 7.41953322 0.4375 6.125 C0.14746094 5.40570313 -0.14257812 4.68640625 -0.44140625 3.9453125 C-1 2 -1 2 0 0 Z " fill="#EFD5C5" transform="translate(122,31)"/>
<path d="M0 0 C1.85776765 3.13498292 2.20140476 5.37471432 2 9 C0 7.8125 0 7.8125 -2 6 C-2.25 3.3125 -2.25 3.3125 -2 1 C-1.34 0.67 -0.68 0.34 0 0 Z " fill="#8A37A1" transform="translate(118,128)"/>
<path d="M0 0 C2.97 0.33 5.94 0.66 9 1 C6 4 6 4 2.8125 4.1875 C1.4203125 4.0946875 1.4203125 4.0946875 0 4 C0 2.68 0 1.36 0 0 Z " fill="#6DB4F7" transform="translate(114,120)"/>
<path d="M0 0 C0.99 0 1.98 0 3 0 C3 0.99 3 1.98 3 3 C-1.455 3.495 -1.455 3.495 -6 4 C-6 3.34 -6 2.68 -6 2 C-2.25 0.875 -2.25 0.875 0 2 C0 1.34 0 0.68 0 0 Z " fill="#61AFFA" transform="translate(109,119)"/>
<path d="M0 0 C3.3 0 6.6 0 10 0 C10 0.66 10 1.32 10 2 C2.25 3.125 2.25 3.125 0 2 C0 1.34 0 0.68 0 0 Z " fill="#5CA8F3" transform="translate(99,119)"/>
<path d="M0 0 C0.66 0 1.32 0 2 0 C0.6062718 4.43458973 -1.60582235 6.87378374 -5 10 C-5.66 9.67 -6.32 9.34 -7 9 C-5.88266271 7.49428343 -4.75589965 5.99555708 -3.625 4.5 C-2.99851562 3.6646875 -2.37203125 2.829375 -1.7265625 1.96875 C-1.15679687 1.3190625 -0.58703125 0.669375 0 0 Z " fill="#3A65A3" transform="translate(129,79)"/>
<path d="M0 0 C1.32 0.66 2.64 1.32 4 2 C3 4 3 4 1 5 C-0.13350534 7.01669827 -0.13350534 7.01669827 -1 9 C-1.09765625 2.84765625 -1.09765625 2.84765625 -1 1 C-0.67 0.67 -0.34 0.34 0 0 Z " fill="#458AE6" transform="translate(98,79)"/>
<path d="M0 0 C-0.99 0.33 -1.98 0.66 -3 1 C-4.20882096 3.00016466 -4.20882096 3.00016466 -5 5 C-5.66 4.67 -6.32 4.34 -7 4 C-6.625 2.0625 -6.625 2.0625 -6 0 C-3.50907189 -1.24546405 -2.58919267 -0.7767578 0 0 Z " fill="#512016" transform="translate(106,39)"/>
<path d="M0 0 C1.75547734 2.6848477 2.00627277 3.92002215 1.75 7.1875 C1.5025 8.115625 1.255 9.04375 1 10 C0.01 10.495 0.01 10.495 -1 11 C-2.41687119 6.74938644 -1.19320039 4.28148375 0 0 Z " fill="#D5B7A9" transform="translate(98,20)"/>
<path d="M0 0 C0.99 0 1.98 0 3 0 C2.67 2.64 2.34 5.28 2 8 C1.01 8.33 0.02 8.66 -1 9 C-0.67 6.03 -0.34 3.06 0 0 Z " fill="#4A7AB6" transform="translate(106,197)"/>
<path d="M0 0 C0.99 0.66 1.98 1.32 3 2 C0.36 3.65 -2.28 5.3 -5 7 C-5 6.01 -5 5.02 -5 4 C-2.5 1.8125 -2.5 1.8125 0 0 Z " fill="#773F83" transform="translate(134,157)"/>
<path d="M0 0 C0.33 1.32 0.66 2.64 1 4 C-0.9375 6.25 -0.9375 6.25 -3 8 C-3.99 7.67 -4.98 7.34 -6 7 C-4.02 4.69 -2.04 2.38 0 0 Z " fill="#6B3676" transform="translate(141,150)"/>
<path d="M0 0 C0.99 0.33 1.98 0.66 3 1 C0.6875 3.5 0.6875 3.5 -2 6 C-2.99 6 -3.98 6 -5 6 C-3.35 4.02 -1.7 2.04 0 0 Z " fill="#784A87" transform="translate(127,150)"/>
<path d="M0 0 C2.96404505 2.80804268 5.44499019 5.18315774 7 9 C3.64564078 7.61198929 1.88709697 6.11371 0 3 C0 2.01 0 1.02 0 0 Z " fill="#683873" transform="translate(112,129)"/>
<path d="M0 0 C0.99 0 1.98 0 3 0 C3 0.66 3 1.32 3 2 C4.65 2 6.3 2 8 2 C8.33 2.66 8.66 3.32 9 4 C6.36 3.67 3.72 3.34 1 3 C0.67 4.32 0.34 5.64 0 7 C0 4.69 0 2.38 0 0 Z " fill="#7F319E" transform="translate(97,125)"/>
<path d="M0 0 C0.99 0.33 1.98 0.66 3 1 C3.6875 3.0625 3.6875 3.0625 4 5 C0 5 0 5 -2 4 C-1.34 2.68 -0.68 1.36 0 0 Z " fill="#F1CBB5" transform="translate(103,66)"/>
<path d="M0 0 C0.99 0.33 1.98 0.66 3 1 C3 4.63 3 8.26 3 12 C2.67 12 2.34 12 2 12 C0.86235649 7.73383684 0 4.43513689 0 0 Z " fill="#F0C8B4" transform="translate(79,63)"/>
<path d="M0 0 C0.33 0.66 0.66 1.32 1 2 C2.97888961 2.72693904 4.97954558 3.39816251 7 4 C6.67 4.66 6.34 5.32 6 6 C4.35 5.67 2.7 5.34 1 5 C0.67 3.35 0.34 1.7 0 0 Z " fill="#F5C5B4" transform="translate(125,30)"/>
<path d="M0 0 C0.99 0 1.98 0 3 0 C3.33 1.32 3.66 2.64 4 4 C1.525 5.485 1.525 5.485 -1 7 C-1 3 -1 3 0 0 Z " fill="#8B4C9E" transform="translate(129,147)"/>
<path d="M0 0 C0.66 0 1.32 0 2 0 C2.433125 1.2065625 2.433125 1.2065625 2.875 2.4375 C3.73262568 5.1326468 3.73262568 5.1326468 6 6 C5.01 6.33 4.02 6.66 3 7 C1.5 5.75 1.5 5.75 0 4 C0 2.68 0 1.36 0 0 Z " fill="#CCB2AC" transform="translate(82,72)"/>
<path d="M0 0 C3.2542015 2.83430453 4.5206753 4.68607774 5 9 C3.0625 8.4375 3.0625 8.4375 1 7 C0.25 3.375 0.25 3.375 0 0 Z " fill="#D9C0B1" transform="translate(117,24)"/>
<path d="M0 0 C0.66 1.32 1.32 2.64 2 4 C0.68 5.65 -0.64 7.3 -2 9 C-1.125 1.125 -1.125 1.125 0 0 Z " fill="#7BB7FB" transform="translate(98,94)"/>
<path d="M0 0 C1.98 0 3.96 0 6 0 C5.67 2.31 5.34 4.62 5 7 C4.34 7 3.68 7 3 7 C2 4 2 4 3 1 C2.01 0.67 1.02 0.34 0 0 Z " fill="#36A3FA" transform="translate(109,86)"/>
<path d="M0 0 C0 0.99 0 1.98 0 3 C-2.3125 4.75 -2.3125 4.75 -5 6 C-5.99 5.67 -6.98 5.34 -8 5 C-2.25 0 -2.25 0 0 0 Z " fill="#4D75C3" transform="translate(127,71)"/>
<path d="M0 0 C0.66 0 1.32 0 2 0 C2.33 1.65 2.66 3.3 3 5 C1.35 5.33 -0.3 5.66 -2 6 C-1.49396008 3.83125748 -1.00016187 2.00032373 0 0 Z " fill="#F9C2A3" transform="translate(137,59)"/>
<path d="M0 0 C0 2.31 0 4.62 0 7 C-0.66 7 -1.32 7 -2 7 C-2.66 5.02 -3.32 3.04 -4 1 C-2 0 -2 0 0 0 Z " fill="#E2B8AB" transform="translate(135,52)"/>
<path d="M0 0 C0.99 0.66 1.98 1.32 3 2 C2.34 3.32 1.68 4.64 1 6 C0.01 6 -0.98 6 -2 6 C-1.125 1.125 -1.125 1.125 0 0 Z " fill="#4191BD" transform="translate(121,88)"/>
</svg>
