<?xml version="1.0" standalone="no"?>
<!DOCTYPE svg PUBLIC "-//W3C//DTD SVG 20010904//EN"
 "http://www.w3.org/TR/2001/REC-SVG-20010904/DTD/svg10.dtd">
<svg version="1.0" xmlns="http://www.w3.org/2000/svg"
 width="500.000000pt" height="500.000000pt" viewBox="0 0 500.000000 500.000000"
 preserveAspectRatio="xMidYMid meet">

<g transform="translate(0.000000,500.000000) scale(0.100000,-0.100000)"
fill="#000000" stroke="none">
<path d="M2444 4414 c-151 -25 -307 -98 -429 -201 -84 -71 -132 -132 -188
-240 -29 -58 -50 -86 -68 -94 -63 -26 -105 -103 -96 -174 7 -51 45 -131 75
-158 20 -18 20 -18 5 25 -18 52 -12 119 16 182 39 89 267 290 416 367 151 79
260 104 445 104 190 0 270 -23 394 -113 52 -38 50 -39 84 13 21 32 67 55 109
55 78 0 142 -52 190 -155 22 -49 27 -74 28 -140 0 -68 -4 -89 -28 -136 -32
-66 -100 -132 -163 -161 -42 -18 -52 -19 -134 -7 -228 31 -357 -24 -475 -201
-57 -85 -96 -178 -135 -316 -27 -99 -47 -134 -73 -134 -19 0 -136 -60 -212
-108 l-80 -51 -5 31 -5 32 -32 -41 c-18 -22 -33 -52 -33 -65 0 -16 -22 -46
-71 -93 -85 -85 -190 -222 -252 -330 -161 -282 -156 -533 14 -719 45 -49 127
-116 143 -116 2 0 -13 38 -35 85 -66 140 -82 217 -82 390 0 121 4 165 21 227
61 224 199 428 380 560 65 48 175 102 240 118 60 15 95 53 132 140 108 257
178 354 292 405 152 69 355 34 477 -80 103 -97 146 -198 139 -331 -4 -70 -10
-94 -41 -156 -49 -98 -87 -142 -174 -199 -41 -26 -94 -71 -119 -98 -52 -58
-129 -99 -202 -108 -40 -4 -71 0 -139 21 -133 41 -147 49 -170 97 -93 195 -88
178 -88 272 0 48 -1 87 -3 87 -2 0 -15 -25 -29 -56 -34 -75 -29 -142 16 -212
30 -47 31 -54 22 -90 -6 -22 -44 -85 -85 -141 -78 -106 -126 -183 -126 -200 0
-5 35 8 78 30 151 77 375 139 498 138 47 0 96 6 122 15 47 17 117 62 146 95
46 51 241 1 358 -91 22 -17 50 -55 68 -91 111 -226 30 -554 -224 -907 -68 -95
-309 -342 -402 -412 -97 -74 -243 -161 -334 -201 -136 -58 -193 -71 -310 -72
-102 0 -107 1 -178 37 -97 50 -177 112 -288 223 -228 229 -363 491 -381 739
-9 128 -24 79 -30 -99 -6 -152 2 -212 42 -340 63 -196 179 -369 391 -582 122
-124 163 -158 214 -182 159 -75 331 -60 550 49 415 208 891 764 1098 1285 112
282 112 507 0 623 -63 64 -148 104 -305 142 -24 6 -43 14 -43 19 0 4 25 40 55
81 117 154 180 339 157 463 -24 128 -103 240 -224 320 -32 21 -58 43 -58 48 0
6 17 17 37 25 20 9 67 46 103 82 73 74 96 126 107 237 14 154 -67 366 -182
473 -114 107 -209 109 -306 8 -24 -25 -49 -46 -54 -46 -6 0 -35 13 -65 28
-110 57 -257 93 -375 91 -27 -1 -86 -7 -131 -15z m161 -1954 c10 -11 35 -25
57 -30 21 -6 38 -14 38 -19 0 -4 -25 -13 -56 -20 -31 -7 -78 -22 -105 -33 -27
-12 -52 -18 -56 -15 -3 4 8 22 25 42 18 19 39 49 47 65 18 35 26 37 50 10z"/>
<path d="M1860 3757 c0 -7 14 -41 31 -75 36 -74 105 -139 230 -219 199 -127
249 -187 250 -299 l1 -58 16 29 c25 45 22 159 -5 210 -35 65 -109 131 -263
233 -80 52 -171 117 -202 144 -33 28 -58 43 -58 35z"/>
<path d="M1796 3623 c8 -61 37 -129 91 -218 53 -85 55 -111 11 -130 -33 -14
-33 -14 -6 -15 15 0 29 -4 32 -9 6 -10 -11 -63 -43 -134 -40 -87 -42 -95 -25
-112 8 -8 40 -22 71 -31 60 -17 60 -17 38 -106 -9 -35 19 -50 83 -46 l47 3
-45 16 -45 16 0 49 c0 48 -1 49 -45 70 -82 40 -85 50 -39 149 17 37 36 83 43
103 12 33 18 38 55 43 23 3 51 14 61 25 19 19 19 19 -42 19 l-61 0 -38 60
c-84 133 -119 201 -125 248 -4 26 -10 47 -15 47 -5 0 -6 -21 -3 -47z"/>
<path d="M2733 2894 c6 -38 43 -74 77 -74 18 0 9 13 -38 54 -32 29 -42 34 -39
20z"/>
<path d="M2970 2687 c0 -32 19 -55 56 -67 48 -16 53 -7 10 20 -20 12 -43 31
-51 43 -13 19 -15 19 -15 4z"/>
<path d="M2711 2610 c15 -22 69 -47 69 -32 0 6 -49 40 -75 51 -5 2 -2 -6 6
-19z"/>
<path d="M2088 2493 c-15 -27 -41 -88 -58 -138 -27 -74 -33 -106 -34 -180 -1
-81 2 -96 29 -148 54 -107 132 -152 265 -151 96 1 178 26 277 85 58 35 173
142 234 217 30 38 41 45 100 57 66 13 156 52 146 62 -3 2 -14 0 -24 -5 -10 -6
-57 -18 -103 -26 -47 -9 -95 -24 -106 -34 -12 -9 -59 -47 -105 -84 -283 -230
-566 -219 -618 23 -19 85 -8 233 25 347 10 35 -1 26 -28 -25z"/>
<path d="M3149 2292 c-93 -56 -198 -152 -271 -250 -51 -69 -124 -196 -227
-397 -102 -199 -176 -310 -260 -394 l-66 -66 50 29 c168 98 291 248 455 556
46 85 94 175 107 200 50 91 133 208 198 278 37 40 65 72 63 71 -1 0 -24 -12
-49 -27z"/>
</g>
</svg>
