<?xml version="1.0" standalone="no"?>
<!DOCTYPE svg PUBLIC "-//W3C//DTD SVG 20010904//EN"
 "http://www.w3.org/TR/2001/REC-SVG-20010904/DTD/svg10.dtd">
<svg version="1.0" xmlns="http://www.w3.org/2000/svg"
 width="800.000000pt" height="800.000000pt" viewBox="0 0 800.000000 800.000000"
 preserveAspectRatio="xMidYMid meet">

<g transform="translate(0.000000,800.000000) scale(0.100000,-0.100000)"
fill="#000000" stroke="none">
<path d="M7031 6390 c-41 -61 -72 -112 -70 -114 6 -5 272 -181 285 -189 10 -6
154 192 154 212 0 7 -283 201 -293 201 -2 0 -36 -50 -76 -110z"/>
<path d="M6779 6013 c-51 -76 -203 -302 -337 -503 -135 -201 -354 -527 -487
-725 -133 -198 -292 -434 -352 -525 l-111 -166 -12 -173 c-6 -95 -10 -175 -7
-177 3 -4 200 89 296 138 14 8 130 171 275 388 138 206 448 668 689 1027 l437
652 -138 94 c-75 51 -142 97 -149 101 -8 4 -44 -41 -104 -131z"/>
<path d="M1830 5474 c-181 -47 -328 -178 -393 -349 l-22 -60 -3 -1204 c-2
-1081 -1 -1210 14 -1260 55 -191 225 -351 412 -390 34 -7 243 -11 597 -11
l545 0 0 -329 0 -330 26 -20 c40 -31 80 -27 118 12 17 18 143 175 281 350
l250 317 1220 0 c1341 0 1270 -3 1397 61 85 43 188 144 232 228 68 130 66 83
66 1240 l0 1045 -23 -31 c-12 -17 -164 -243 -337 -502 l-315 -470 -251 -121
c-270 -130 -287 -135 -321 -83 -15 22 -15 47 -1 300 l16 275 155 231 c85 128
285 426 445 663 159 237 292 436 296 443 5 8 -542 11 -2171 10 -1865 0 -2186
-2 -2233 -15z m3760 -600 c0 -5 -104 -169 -115 -182 -1 -1 -766 -2 -1701 -2
l-1699 0 -27 30 c-44 49 -32 116 26 144 28 14 226 16 1774 16 958 0 1742 -3
1742 -6z m-426 -646 c-15 -47 -24 -94 -24 -131 l0 -37 -1536 2 -1536 3 -24 28
c-34 40 -32 90 5 128 l29 29 1547 0 1546 0 -7 -22z m-49 -648 c4 -28 18 -71
31 -95 l23 -45 -1548 0 -1549 0 -26 31 c-29 34 -32 64 -14 105 26 56 -49 53
1575 54 l1501 0 7 -50z m802 -595 c29 -20 46 -75 34 -107 -5 -14 -22 -35 -37
-47 l-27 -21 -1894 0 c-1670 0 -1897 2 -1923 15 -59 30 -68 98 -21 146 l29 29
1909 0 c1682 0 1911 -2 1930 -15z"/>
</g>
</svg>
