<?xml version="1.0" standalone="no"?>
<!DOCTYPE svg PUBLIC "-//W3C//DTD SVG 20010904//EN"
 "http://www.w3.org/TR/2001/REC-SVG-20010904/DTD/svg10.dtd">
<svg version="1.0" xmlns="http://www.w3.org/2000/svg"
 width="474.000000pt" height="361.000000pt" viewBox="0 0 474.000000 361.000000"
 preserveAspectRatio="xMidYMid meet">

<g transform="translate(0.000000,361.000000) scale(0.100000,-0.100000)"
fill="#000000" stroke="none">
<path d="M2242 3564 c-105 -52 -153 -137 -160 -285 l-5 -96 -56 -17 c-256 -79
-490 -282 -594 -517 -88 -199 -97 -273 -97 -803 -1 -466 -5 -523 -50 -656 -40
-120 -110 -252 -220 -420 -114 -173 -126 -203 -95 -246 8 -12 27 -26 42 -33
21 -8 376 -11 1375 -9 l1348 3 26 26 c47 48 38 77 -76 250 -116 174 -186 308
-233 442 l-32 92 -6 510 c-7 527 -9 558 -54 712 -86 297 -335 550 -632 644
l-73 23 0 86 c0 107 -18 164 -73 226 -57 65 -123 94 -213 94 -55 0 -81 -5
-122 -26z m163 -169 c42 -17 55 -46 55 -123 l0 -57 -96 0 -96 0 4 67 c4 69 21
101 63 119 28 11 31 11 70 -6z"/>
<path d="M306 3222 c-128 -203 -258 -591 -282 -839 -3 -40 -11 -73 -15 -73 -5
0 -9 -101 -9 -225 0 -143 4 -225 10 -225 6 0 10 -15 10 -33 0 -94 60 -355 121
-527 35 -98 163 -363 185 -380 11 -10 28 -4 84 30 39 23 73 46 75 51 3 4 -11
35 -31 69 -111 190 -201 460 -240 720 -21 139 -24 422 -5 560 35 264 123 532
241 741 22 39 38 74 35 79 -6 9 -138 90 -148 90 -4 0 -18 -17 -31 -38z"/>
<path d="M4314 3214 l-71 -45 67 -132 c108 -210 171 -405 212 -652 20 -124 17
-494 -6 -629 -41 -251 -144 -538 -257 -723 l-20 -31 76 -46 c42 -25 79 -46 84
-46 23 0 156 279 211 440 57 169 110 429 110 543 0 26 5 47 10 47 6 0 10 57
10 150 0 93 -4 150 -10 150 -5 0 -10 19 -10 43 0 109 -53 365 -110 536 -57
168 -189 441 -214 441 -6 0 -43 -21 -82 -46z"/>
<path d="M700 2940 c-87 -148 -159 -348 -197 -541 -26 -134 -26 -484 0 -619
30 -154 84 -316 151 -455 91 -186 77 -176 170 -120 42 26 76 50 74 54 -2 3
-29 58 -61 122 -98 199 -151 389 -165 594 -22 309 44 611 189 868 22 38 39 70
39 72 0 4 -146 95 -153 95 -4 0 -24 -31 -47 -70z"/>
<path d="M3908 2964 c-38 -24 -68 -46 -68 -49 0 -3 29 -65 64 -138 95 -194
133 -321 156 -522 34 -298 -27 -611 -176 -901 l-53 -103 81 -47 c64 -38 82
-44 89 -33 32 49 112 219 142 299 160 430 151 884 -25 1300 -48 112 -119 240
-133 239 -5 0 -40 -20 -77 -45z"/>
<path d="M1940 284 c0 -3 12 -25 26 -49 55 -95 202 -200 296 -213 21 -2 38 -9
38 -13 0 -5 32 -9 70 -9 39 0 70 4 70 9 0 5 17 11 38 15 98 15 246 126 300
224 l23 42 -430 0 c-237 0 -431 -3 -431 -6z"/>
</g>
</svg>
