<?xml version="1.0" encoding="UTF-8"?>
<!DOCTYPE svg PUBLIC "-//W3C//DTD SVG 1.1//EN" "http://www.w3.org/Graphics/SVG/1.1/DTD/svg11.dtd">
<svg xmlns="http://www.w3.org/2000/svg" version="1.1" width="174px" height="180px" style="shape-rendering:geometricPrecision; text-rendering:geometricPrecision; image-rendering:optimizeQuality; fill-rule:evenodd; clip-rule:evenodd" xmlns:xlink="http://www.w3.org/1999/xlink">
<g><path style="opacity:0.098" fill="#f9cfe6" d="M 65.5,-0.5 C 69.5,-0.5 73.5,-0.5 77.5,-0.5C 78.5,0.166667 79.5,0.833333 80.5,1.5C 80.1667,1.5 79.8333,1.5 79.5,1.5C 74.4859,0.230553 69.4859,0.230553 64.5,1.5C 63.8333,1.5 63.1667,1.5 62.5,1.5C 63.5,0.833333 64.5,0.166667 65.5,-0.5 Z"/></g>
<g><path style="opacity:1" fill="#d88faa" d="M 79.5,1.5 C 79.8333,1.5 80.1667,1.5 80.5,1.5C 84.0322,1.36777 86.0322,3.03444 86.5,6.5C 83.8758,5.04142 81.5425,3.37475 79.5,1.5 Z"/></g>
<g><path style="opacity:0.643" fill="#d789a4" d="M 62.5,1.5 C 63.1667,1.5 63.8333,1.5 64.5,1.5C 63.3192,3.0672 61.6526,3.90054 59.5,4C 57.951,6.71073 55.951,8.8774 53.5,10.5C 54.8333,5.83333 57.8333,2.83333 62.5,1.5 Z"/></g>
<g><path style="opacity:1" fill="#ed6191" d="M 79.5,1.5 C 81.5425,3.37475 83.8758,5.04142 86.5,6.5C 86.7376,8.40435 87.7376,9.73769 89.5,10.5C 89.427,12.0269 90.0937,13.0269 91.5,13.5C 91.6761,16.7273 92.3428,19.7273 93.5,22.5C 93.5,23.8333 93.5,25.1667 93.5,26.5C 94.418,32.7748 94.7513,39.1082 94.5,45.5C 92.5,45.5 90.5,45.5 88.5,45.5C 85.8806,45.2317 83.3806,45.565 81,46.5C 80.1901,50.3575 80.3567,54.0242 81.5,57.5C 81.5,57.8333 81.5,58.1667 81.5,58.5C 81.3398,60.1992 81.5065,61.8659 82,63.5C 82.6708,64.2524 83.5041,64.5858 84.5,64.5C 85.0798,66.7488 86.4131,68.4154 88.5,69.5C 90.1349,74.1314 93.1349,77.4648 97.5,79.5C 98.1667,79.5 98.8333,79.5 99.5,79.5C 100.798,82.7214 103.131,85.0548 106.5,86.5C 106.833,87.8333 107.167,89.1667 107.5,90.5C 103.245,98.3511 105.411,103.351 114,105.5C 114.49,106.793 114.657,108.127 114.5,109.5C 118.747,110.049 121.58,112.382 123,116.5C 124.113,117.305 125.279,117.972 126.5,118.5C 128.774,127.127 128.941,135.793 127,144.5C 126,146.5 125,148.5 124,150.5C 123.667,150.167 123.333,149.833 123,149.5C 122.505,151.473 122.338,153.473 122.5,155.5C 120.473,155.338 118.473,155.505 116.5,156C 116.966,157.299 116.966,158.799 116.5,160.5C 116.158,161.338 115.492,161.672 114.5,161.5C 110.93,160.893 108.263,162.06 106.5,165C 107.774,168.541 109.44,171.708 111.5,174.5C 111.158,175.338 110.492,175.672 109.5,175.5C 102.207,176.824 94.8734,177.824 87.5,178.5C 87.5858,177.504 87.2524,176.671 86.5,176C 80.6541,175.071 74.9874,173.571 69.5,171.5C 65.8487,170.341 62.5154,168.674 59.5,166.5C 58.2881,161.853 59.4548,157.853 63,154.5C 63.4935,152.866 63.6602,151.199 63.5,149.5C 65.3302,146.022 64.3302,143.689 60.5,142.5C 58.2512,141.92 56.5846,140.587 55.5,138.5C 54.235,134.562 51.5684,132.562 47.5,132.5C 47.7529,130.173 47.0863,128.173 45.5,126.5C 44.5059,121.544 44.1725,116.544 44.5,111.5C 45.9901,107.058 46.9901,102.391 47.5,97.5C 48.1667,96.5 48.8333,95.5 49.5,94.5C 53.8805,84.3601 56.5472,73.6934 57.5,62.5C 59.925,61.2862 61.425,59.2862 62,56.5C 62.4992,51.8452 62.6658,47.1785 62.5,42.5C 61.1667,42.5 59.8333,42.5 58.5,42.5C 55.9621,38.552 54.6288,34.2187 54.5,29.5C 52.5,29.1667 50.5,28.8333 48.5,28.5C 45.627,24.5186 44.9603,20.1853 46.5,15.5C 49.1536,14.0319 51.487,12.3652 53.5,10.5C 55.951,8.8774 57.951,6.71073 59.5,4C 61.6526,3.90054 63.3192,3.0672 64.5,1.5C 69.4859,0.230553 74.4859,0.230553 79.5,1.5 Z M 61.5,100.5 C 66.6851,110.059 69.0184,120.392 68.5,131.5C 68.2172,132.289 67.7172,132.956 67,133.5C 65.9609,132.29 64.7942,131.29 63.5,130.5C 61.6117,127.101 59.1117,124.101 56,121.5C 55.8333,120.5 55.6667,119.5 55.5,118.5C 56.9729,112.751 58.6395,107.084 60.5,101.5C 61.1667,101.5 61.5,101.167 61.5,100.5 Z M 120.5,143.5 C 118.5,144.833 116.833,146.5 115.5,148.5C 112.743,149.512 110.076,150.512 107.5,151.5C 102.85,151.586 98.5167,150.586 94.5,148.5C 83.6562,137.432 83.9895,126.766 95.5,116.5C 96.791,116.737 97.791,116.404 98.5,115.5C 112.713,112.874 121.046,118.708 123.5,133C 122.883,136.639 121.883,140.139 120.5,143.5 Z"/></g>
<g><path style="opacity:0.51" fill="#f2b8d3" d="M 86.5,6.5 C 88.2624,7.26231 89.2624,8.59565 89.5,10.5C 87.7376,9.73769 86.7376,8.40435 86.5,6.5 Z"/></g>
<g><path style="opacity:0.114" fill="#f8cadf" d="M 89.5,10.5 C 90.9063,10.9731 91.573,11.9731 91.5,13.5C 90.0937,13.0269 89.427,12.0269 89.5,10.5 Z"/></g>
<g><path style="opacity:0.902" fill="#d595ac" d="M 53.5,10.5 C 51.487,12.3652 49.1536,14.0319 46.5,15.5C 44.9603,20.1853 45.627,24.5186 48.5,28.5C 48.8333,29.1667 49.1667,29.8333 49.5,30.5C 47.9826,30.4894 46.8159,29.8228 46,28.5C 42.1229,21.3863 43.2896,15.3863 49.5,10.5C 50.865,11.8069 52.1984,11.8069 53.5,10.5 Z"/></g>
<g><path style="opacity:0.412" fill="#e8a8c0" d="M 91.5,13.5 C 93.1181,16.1709 93.7847,19.1709 93.5,22.5C 92.3428,19.7273 91.6761,16.7273 91.5,13.5 Z"/></g>
<g><path style="opacity:0.443" fill="#e6aac3" d="M 93.5,22.5 C 94.764,24.2701 96.264,25.9368 98,27.5C 98.765,29.0657 98.5983,30.3991 97.5,31.5C 97.6308,28.6333 96.2974,26.9666 93.5,26.5C 93.5,25.1667 93.5,23.8333 93.5,22.5 Z"/></g>
<g><path style="opacity:0.902" fill="#d27594" d="M 48.5,28.5 C 50.5,28.8333 52.5,29.1667 54.5,29.5C 54.6288,34.2187 55.9621,38.552 58.5,42.5C 57.5041,42.5858 56.6708,42.2524 56,41.5C 54.4412,39.7834 53.6079,37.7834 53.5,35.5C 53.5,33.8333 53.5,32.1667 53.5,30.5C 52.1667,30.5 50.8333,30.5 49.5,30.5C 49.1667,29.8333 48.8333,29.1667 48.5,28.5 Z"/></g>
<g><path style="opacity:0.188" fill="#f3bacf" d="M 49.5,30.5 C 50.8333,30.5 52.1667,30.5 53.5,30.5C 53.5,32.1667 53.5,33.8333 53.5,35.5C 52.5655,34.4324 52.2322,33.099 52.5,31.5C 51.209,31.7373 50.209,31.404 49.5,30.5 Z"/></g>
<g><path style="opacity:0.912" fill="#d8809d" d="M 93.5,26.5 C 96.2974,26.9666 97.6308,28.6333 97.5,31.5C 97.5,32.1667 97.1667,32.5 96.5,32.5C 95.5318,34.6074 95.1984,36.9407 95.5,39.5C 97.4048,46.2623 95.0715,48.5956 88.5,46.5C 88.5,46.1667 88.5,45.8333 88.5,45.5C 90.5,45.5 92.5,45.5 94.5,45.5C 94.7513,39.1082 94.418,32.7748 93.5,26.5 Z"/></g>
<g><path style="opacity:0.38" fill="#daaabb" d="M 96.5,32.5 C 97.4619,34.453 97.7953,36.2863 97.5,38C 96.9558,38.7172 96.2891,39.2172 95.5,39.5C 95.1984,36.9407 95.5318,34.6074 96.5,32.5 Z"/></g>
<g><path style="opacity:0.616" fill="#dd97af" d="M 88.5,45.5 C 88.5,45.8333 88.5,46.1667 88.5,46.5C 86.5328,46.2606 84.6995,46.5939 83,47.5C 81.6842,50.6883 81.1842,54.0217 81.5,57.5C 80.3567,54.0242 80.1901,50.3575 81,46.5C 83.3806,45.565 85.8806,45.2317 88.5,45.5 Z"/></g>
<g><path style="opacity:1" fill="#e1809f" d="M 58.5,42.5 C 59.8333,42.5 61.1667,42.5 62.5,42.5C 62.6658,47.1785 62.4992,51.8452 62,56.5C 61.425,59.2862 59.925,61.2862 57.5,62.5C 58.6196,57.1359 59.9529,51.8026 61.5,46.5C 61.2133,44.5567 60.2133,43.2233 58.5,42.5 Z"/></g>
<g><path style="opacity:0.204" fill="#f9c8dc" d="M 112.5,56.5 C 118.566,55.1715 124.566,55.5048 130.5,57.5C 124.848,56.9682 119.181,56.6349 113.5,56.5C 113.167,56.5 112.833,56.5 112.5,56.5 Z"/></g>
<g><path style="opacity:0.988" fill="#ce7091" d="M 113.5,56.5 C 119.181,56.6349 124.848,56.9682 130.5,57.5C 130.5,58.1667 130.5,58.8333 130.5,59.5C 129.209,59.2627 128.209,59.596 127.5,60.5C 126.167,60.5 124.833,60.5 123.5,60.5C 121.708,60.634 120.042,60.3007 118.5,59.5C 115.695,58.6805 112.695,58.1805 109.5,58C 111.058,57.79 112.391,57.29 113.5,56.5 Z"/></g>
<g><path style="opacity:0.757" fill="#da92aa" d="M 130.5,57.5 C 139.048,59.4377 146.382,63.4377 152.5,69.5C 147.778,66.5898 142.778,63.9231 137.5,61.5C 135.149,60.8266 132.816,60.1599 130.5,59.5C 130.5,58.8333 130.5,58.1667 130.5,57.5 Z"/></g>
<g><path style="opacity:0.698" fill="#d391a6" d="M 81.5,58.5 C 83.0075,60.1815 84.0075,62.1815 84.5,64.5C 83.5041,64.5858 82.6708,64.2524 82,63.5C 81.5065,61.8659 81.3398,60.1992 81.5,58.5 Z"/></g>
<g><path style="opacity:0.769" fill="#de9ab1" d="M 123.5,60.5 C 124.833,60.5 126.167,60.5 127.5,60.5C 128.609,61.29 129.942,61.79 131.5,62C 132.252,62.6708 132.586,63.5041 132.5,64.5C 129.314,63.4031 126.314,62.0697 123.5,60.5 Z"/></g>
<g><path style="opacity:0.608" fill="#c58da2" d="M 112.5,56.5 C 112.833,56.5 113.167,56.5 113.5,56.5C 112.391,57.29 111.058,57.79 109.5,58C 112.695,58.1805 115.695,58.6805 118.5,59.5C 109.14,58.9528 101.474,62.2861 95.5,69.5C 94.4173,68.635 94.2506,67.635 95,66.5C 99.267,60.4492 105.1,57.1159 112.5,56.5 Z"/></g>
<g><path style="opacity:0.51" fill="#edb4c6" d="M 84.5,64.5 C 86.5869,65.5846 87.9202,67.2512 88.5,69.5C 86.4131,68.4154 85.0798,66.7488 84.5,64.5 Z"/></g>
<g><path style="opacity:0.945" fill="#e498b7" d="M 132.5,64.5 C 138.161,65.8058 142.161,69.1391 144.5,74.5C 140.767,70.7602 136.767,67.4268 132.5,64.5 Z"/></g>
<g><path style="opacity:0.89" fill="#db83a1" d="M 45.5,67.5 C 45.9175,68.2216 46.5842,68.7216 47.5,69C 45.6183,69.1981 43.9516,69.6981 42.5,70.5C 40.0458,71.6206 37.3791,72.454 34.5,73C 31.4721,74.8445 28.4721,76.6778 25.5,78.5C 26.038,76.8828 26.3713,75.2161 26.5,73.5C 27.675,73.719 28.675,73.3857 29.5,72.5C 28.3112,71.5713 26.9778,71.238 25.5,71.5C 31.554,67.3217 38.2206,65.9884 45.5,67.5 Z"/></g>
<g><path style="opacity:0.122" fill="#b9929f" d="M 45.5,67.5 C 47.4835,67.3832 49.1502,68.0499 50.5,69.5C 47.9135,70.48 45.2469,70.8134 42.5,70.5C 43.9516,69.6981 45.6183,69.1981 47.5,69C 46.5842,68.7216 45.9175,68.2216 45.5,67.5 Z"/></g>
<g><path style="opacity:0.914" fill="#d686a2" d="M 88.5,69.5 C 91.1667,71.8333 93.8333,74.1667 96.5,76.5C 96.5569,77.609 96.8902,78.609 97.5,79.5C 93.1349,77.4648 90.1349,74.1314 88.5,69.5 Z"/></g>
<g><path style="opacity:1" fill="#e27196" d="M 25.5,71.5 C 26.9778,71.238 28.3112,71.5713 29.5,72.5C 28.675,73.3857 27.675,73.719 26.5,73.5C 26.3713,75.2161 26.038,76.8828 25.5,78.5C 23.1342,81.8566 20.8008,85.1899 18.5,88.5C 17.962,86.8828 17.6287,85.2161 17.5,83.5C 20.6329,83.2389 21.7995,81.5723 21,78.5C 19.8873,79.305 18.7206,79.9717 17.5,80.5C 17.8333,79.1667 18.1667,77.8333 18.5,76.5C 20.2964,74.1 22.6298,72.4333 25.5,71.5 Z"/></g>
<g><path style="opacity:1" fill="#df88a4" d="M 152.5,69.5 C 159.271,74.4576 163.437,81.1242 165,89.5C 165.817,95.0164 165.651,100.35 164.5,105.5C 164.821,100.305 164.487,95.3054 163.5,90.5C 161.433,87.2561 160.099,83.5895 159.5,79.5C 158.328,79.0814 157.328,78.4147 156.5,77.5C 155.547,74.574 154.213,71.9074 152.5,69.5 Z"/></g>
<g><path style="opacity:0.247" fill="#f2d3df" d="M 96.5,76.5 C 97.8333,77.1667 98.8333,78.1667 99.5,79.5C 98.8333,79.5 98.1667,79.5 97.5,79.5C 96.8902,78.609 96.5569,77.609 96.5,76.5 Z"/></g>
<g><path style="opacity:1" fill="#df8ba6" d="M 144.5,74.5 C 145.583,74.5394 146.583,74.8728 147.5,75.5C 149.464,77.9817 151.131,80.6483 152.5,83.5C 151.833,83.5 151.167,83.5 150.5,83.5C 148.748,80.328 146.748,77.328 144.5,74.5 Z"/></g>
<g><path style="opacity:1" fill="#ea6391" d="M 130.5,59.5 C 132.816,60.1599 135.149,60.8266 137.5,61.5C 142.778,63.9231 147.778,66.5898 152.5,69.5C 154.213,71.9074 155.547,74.574 156.5,77.5C 157.328,78.4147 158.328,79.0814 159.5,79.5C 160.099,83.5895 161.433,87.2561 163.5,90.5C 163.93,97.0271 163.096,103.36 161,109.5C 158.318,101.012 156.485,92.3451 155.5,83.5C 154.5,83.5 153.5,83.5 152.5,83.5C 151.131,80.6483 149.464,77.9817 147.5,75.5C 146.583,74.8728 145.583,74.5394 144.5,74.5C 142.161,69.1391 138.161,65.8058 132.5,64.5C 132.586,63.5041 132.252,62.6708 131.5,62C 129.942,61.79 128.609,61.29 127.5,60.5C 128.209,59.596 129.209,59.2627 130.5,59.5 Z"/></g>
<g><path style="opacity:0.569" fill="#dc9fb5" d="M 52.5,80.5 C 52.2766,84.1621 51.2766,87.4954 49.5,90.5C 49.7234,86.8379 50.7234,83.5046 52.5,80.5 Z"/></g>
<g><path style="opacity:0.98" fill="#d77697" d="M 57.5,62.5 C 56.5472,73.6934 53.8805,84.3601 49.5,94.5C 49.5,93.1667 49.5,91.8333 49.5,90.5C 51.2766,87.4954 52.2766,84.1621 52.5,80.5C 53.8744,74.326 55.5411,68.326 57.5,62.5 Z"/></g>
<g><path style="opacity:0.694" fill="#f5c7d7" d="M 150.5,83.5 C 151.167,83.5 151.833,83.5 152.5,83.5C 154.627,90.3414 155.96,97.3414 156.5,104.5C 156.589,108.761 155.922,112.761 154.5,116.5C 154.666,109.159 154.5,101.826 154,94.5C 153.124,90.7076 151.958,87.0409 150.5,83.5 Z"/></g>
<g><path style="opacity:1" fill="#ec6391" d="M 18.5,88.5 C 18.7373,89.791 18.404,90.791 17.5,91.5C 17.1667,91.5 16.8333,91.5 16.5,91.5C 15.8826,91.6107 15.3826,91.944 15,92.5C 14.5867,96.3403 13.7534,100.007 12.5,103.5C 13.3472,108.825 15.0138,113.825 17.5,118.5C 17.5,119.833 17.5,121.167 17.5,122.5C 17.7845,124.415 17.4511,126.081 16.5,127.5C 8.92977,117.166 6.42977,105.499 9,92.5C 11.1547,87.7956 13.9881,83.7956 17.5,80.5C 18.7206,79.9717 19.8873,79.305 21,78.5C 21.7995,81.5723 20.6329,83.2389 17.5,83.5C 17.6287,85.2161 17.962,86.8828 18.5,88.5 Z"/></g>
<g><path style="opacity:0.494" fill="#e0a1b5" d="M 49.5,90.5 C 49.5,91.8333 49.5,93.1667 49.5,94.5C 48.8333,95.5 48.1667,96.5 47.5,97.5C 47.4095,94.8478 48.0762,92.5145 49.5,90.5 Z"/></g>
<g><path style="opacity:0.047" fill="#f6d6e5" d="M 16.5,91.5 C 16.8333,91.5 17.1667,91.5 17.5,91.5C 17.0691,95.3366 16.4025,99.0032 15.5,102.5C 15.3227,98.7657 15.6561,95.0991 16.5,91.5 Z"/></g>
<g><path style="opacity:1" fill="#da7898" d="M 16.5,91.5 C 15.6561,95.0991 15.3227,98.7657 15.5,102.5C 16.1667,107.833 16.8333,113.167 17.5,118.5C 15.0138,113.825 13.3472,108.825 12.5,103.5C 13.7534,100.007 14.5867,96.3403 15,92.5C 15.3826,91.944 15.8826,91.6107 16.5,91.5 Z"/></g>
<g><path style="opacity:1" fill="#dc6990" d="M 152.5,83.5 C 153.5,83.5 154.5,83.5 155.5,83.5C 156.485,92.3451 158.318,101.012 161,109.5C 163.096,103.36 163.93,97.0271 163.5,90.5C 164.487,95.3054 164.821,100.305 164.5,105.5C 164.795,107.735 164.461,109.735 163.5,111.5C 160.159,115.515 158.159,120.182 157.5,125.5C 157.672,126.492 157.338,127.158 156.5,127.5C 155.603,128.598 154.77,128.598 154,127.5C 153.721,123.83 153.888,120.163 154.5,116.5C 155.922,112.761 156.589,108.761 156.5,104.5C 155.96,97.3414 154.627,90.3414 152.5,83.5 Z"/></g>
<g><path style="opacity:0.749" fill="#d789a5" d="M 47.5,97.5 C 46.9901,102.391 45.9901,107.058 44.5,111.5C 44.1667,111.5 43.8333,111.5 43.5,111.5C 44.2327,106.555 45.566,101.888 47.5,97.5 Z"/></g>
<g><path style="opacity:1" fill="#d97f9e" d="M 99.5,79.5 C 103.137,81.6391 106.303,84.3058 109,87.5C 109.415,91.3101 109.082,94.9767 108,98.5C 116.121,103.451 122.288,110.117 126.5,118.5C 125.279,117.972 124.113,117.305 123,116.5C 121.58,112.382 118.747,110.049 114.5,109.5C 114.657,108.127 114.49,106.793 114,105.5C 105.411,103.351 103.245,98.3511 107.5,90.5C 107.167,89.1667 106.833,87.8333 106.5,86.5C 103.131,85.0548 100.798,82.7214 99.5,79.5 Z"/></g>
<g><path style="opacity:0.914" fill="#e097b1" d="M 163.5,111.5 C 162.458,116.642 160.458,121.309 157.5,125.5C 158.159,120.182 160.159,115.515 163.5,111.5 Z"/></g>
<g><path style="opacity:1" fill="#da7c9c" d="M 120.5,143.5 C 121.883,140.139 122.883,136.639 123.5,133C 121.046,118.708 112.713,112.874 98.5,115.5C 98.9175,114.778 99.5842,114.278 100.5,114C 115.917,111.314 123.917,117.814 124.5,133.5C 124.493,136.592 123.993,139.592 123,142.5C 122.329,143.252 121.496,143.586 120.5,143.5 Z"/></g>
<g><path style="opacity:0.867" fill="#db8da7" d="M 18.5,76.5 C 18.1667,77.8333 17.8333,79.1667 17.5,80.5C 13.9881,83.7956 11.1547,87.7956 9,92.5C 6.42977,105.499 8.92977,117.166 16.5,127.5C 16.8333,128.833 17.1667,130.167 17.5,131.5C 4.01363,115.925 2.51363,99.2583 13,81.5C 14.7038,79.6266 16.5372,77.9599 18.5,76.5 Z"/></g>
<g><path style="opacity:0.875" fill="#d984a3" d="M 60.5,101.5 C 58.6395,107.084 56.9729,112.751 55.5,118.5C 55.6667,119.5 55.8333,120.5 56,121.5C 59.1117,124.101 61.6117,127.101 63.5,130.5C 62.2921,129.766 60.9587,129.433 59.5,129.5C 59.226,127.019 57.8927,125.353 55.5,124.5C 53.3322,115.549 54.8322,107.216 60,99.5C 60.4643,100.094 60.631,100.761 60.5,101.5 Z"/></g>
<g><path style="opacity:0.757" fill="#dc89a7" d="M 118.5,126.5 C 118.167,126.5 117.833,126.5 117.5,126.5C 116.356,124.073 114.356,123.073 111.5,123.5C 108.588,123.928 105.755,124.595 103,125.5C 99.7592,124.471 96.5925,124.471 93.5,125.5C 93.1667,125.5 92.8333,125.5 92.5,125.5C 95.2278,122.421 98.5611,121.754 102.5,123.5C 105.287,122.356 108.12,121.356 111,120.5C 114.872,120.879 117.372,122.879 118.5,126.5 Z"/></g>
<g><path style="opacity:0.804" fill="#d890ab" d="M 17.5,118.5 C 19.0697,121.314 20.4031,124.314 21.5,127.5C 20.5041,127.586 19.6708,127.252 19,126.5C 18.79,124.942 18.29,123.609 17.5,122.5C 17.5,121.167 17.5,119.833 17.5,118.5 Z"/></g>
<g><path style="opacity:0.349" fill="#dc9cb1" d="M 63.5,99.5 C 68.2179,109.8 69.8845,120.467 68.5,131.5C 69.0184,120.392 66.6851,110.059 61.5,100.5C 61.7107,98.5759 62.3774,98.2426 63.5,99.5 Z"/></g>
<g><path style="opacity:1" fill="#db7597" d="M 43.5,111.5 C 43.8333,111.5 44.1667,111.5 44.5,111.5C 44.1725,116.544 44.5059,121.544 45.5,126.5C 47.0863,128.173 47.7529,130.173 47.5,132.5C 41.9125,128.181 40.0791,122.514 42,115.5C 42.21,113.942 42.71,112.609 43.5,111.5 Z"/></g>
<g><path style="opacity:1" fill="#ee6090" d="M 117.5,126.5 C 117.799,128.604 117.466,130.604 116.5,132.5C 115.232,131.572 113.899,131.405 112.5,132C 113.423,134.041 113.756,136.208 113.5,138.5C 111.396,138.201 109.396,138.534 107.5,139.5C 108.052,141.003 108.052,142.669 107.5,144.5C 105.309,145.291 103.309,145.291 101.5,144.5C 101.589,138.379 98.5892,135.046 92.5,134.5C 92.5079,131.455 92.8413,128.455 93.5,125.5C 96.5925,124.471 99.7592,124.471 103,125.5C 105.755,124.595 108.588,123.928 111.5,123.5C 114.356,123.073 116.356,124.073 117.5,126.5 Z"/></g>
<g><path style="opacity:1" fill="#d76f92" d="M 92.5,125.5 C 92.8333,125.5 93.1667,125.5 93.5,125.5C 92.8413,128.455 92.5079,131.455 92.5,134.5C 98.5892,135.046 101.589,138.379 101.5,144.5C 101.167,144.5 100.833,144.5 100.5,144.5C 99.1667,142.833 97.8333,141.167 96.5,139.5C 95.4154,137.413 93.7488,136.08 91.5,135.5C 91.5,135.167 91.5,134.833 91.5,134.5C 91.3677,131.43 91.701,128.43 92.5,125.5 Z"/></g>
<g><path style="opacity:0.094" fill="#fdcee1" d="M 21.5,127.5 C 22.9063,127.973 23.573,128.973 23.5,130.5C 22.0937,130.027 21.427,129.027 21.5,127.5 Z"/></g>
<g><path style="opacity:0.643" fill="#d89ab2" d="M 92.5,125.5 C 91.701,128.43 91.3677,131.43 91.5,134.5C 88.605,131.172 88.9383,128.172 92.5,125.5 Z"/></g>
<g><path style="opacity:1" fill="#dd6f95" d="M 117.5,126.5 C 117.833,126.5 118.167,126.5 118.5,126.5C 120.068,135.322 116.402,141.322 107.5,144.5C 108.052,142.669 108.052,141.003 107.5,139.5C 109.396,138.534 111.396,138.201 113.5,138.5C 113.756,136.208 113.423,134.041 112.5,132C 113.899,131.405 115.232,131.572 116.5,132.5C 117.466,130.604 117.799,128.604 117.5,126.5 Z"/></g>
<g><path style="opacity:1" fill="#de8eac" d="M 17.5,131.5 C 21.1129,132.363 23.1129,134.697 23.5,138.5C 21.155,136.486 19.155,134.153 17.5,131.5 Z"/></g>
<g><path style="opacity:0.141" fill="#fccade" d="M 23.5,130.5 C 24.9063,130.973 25.573,131.973 25.5,133.5C 24.0937,133.027 23.427,132.027 23.5,130.5 Z"/></g>
<g><path style="opacity:1" fill="#d9809d" d="M 47.5,132.5 C 51.5684,132.562 54.235,134.562 55.5,138.5C 52.1092,137.471 49.4426,135.471 47.5,132.5 Z"/></g>
<g><path style="opacity:0.392" fill="#eeb3c7" d="M 129.5,126.5 C 130.651,131.65 130.817,136.984 130,142.5C 129.722,143.416 129.222,144.082 128.5,144.5C 129.307,138.536 129.64,132.536 129.5,126.5 Z"/></g>
<g><path style="opacity:1" fill="#da6691" d="M 17.5,122.5 C 18.29,123.609 18.79,124.942 19,126.5C 19.6708,127.252 20.5041,127.586 21.5,127.5C 21.427,129.027 22.0937,130.027 23.5,130.5C 23.427,132.027 24.0937,133.027 25.5,133.5C 25.7329,135.062 26.3995,136.395 27.5,137.5C 27.6309,138.376 27.2975,139.043 26.5,139.5C 25.5832,138.873 24.5832,138.539 23.5,138.5C 23.1129,134.697 21.1129,132.363 17.5,131.5C 17.1667,130.167 16.8333,128.833 16.5,127.5C 17.4511,126.081 17.7845,124.415 17.5,122.5 Z"/></g>
<g><path style="opacity:0.408" fill="#f7cbdc" d="M 25.5,133.5 C 27.2624,134.262 28.2624,135.596 28.5,137.5C 28.1667,137.5 27.8333,137.5 27.5,137.5C 26.3995,136.395 25.7329,135.062 25.5,133.5 Z"/></g>
<g><path style="opacity:0.459" fill="#e5b0c2" d="M 91.5,135.5 C 93.7488,136.08 95.4154,137.413 96.5,139.5C 94.2512,138.92 92.5846,137.587 91.5,135.5 Z"/></g>
<g><path style="opacity:1" fill="#e16992" d="M 63.5,99.5 C 66.1764,100.961 67.6764,103.294 68,106.5C 71.8483,117.228 72.3483,128.061 69.5,139C 67.0381,137.793 64.3714,136.626 61.5,135.5C 62.2458,134.264 62.5792,132.93 62.5,131.5C 60.4884,132.014 58.4884,132.18 56.5,132C 57.2931,130.915 57.9598,129.748 58.5,128.5C 56.7118,127.717 55.7118,126.384 55.5,124.5C 57.8927,125.353 59.226,127.019 59.5,129.5C 60.9587,129.433 62.2921,129.766 63.5,130.5C 64.7942,131.29 65.9609,132.29 67,133.5C 67.7172,132.956 68.2172,132.289 68.5,131.5C 69.8845,120.467 68.2179,109.8 63.5,99.5 Z"/></g>
<g><path style="opacity:0.843" fill="#cd6f8f" d="M 126.5,118.5 C 128.267,120.792 129.267,123.458 129.5,126.5C 129.64,132.536 129.307,138.536 128.5,144.5C 127.34,148.651 125.34,152.318 122.5,155.5C 122.338,153.473 122.505,151.473 123,149.5C 123.333,149.833 123.667,150.167 124,150.5C 125,148.5 126,146.5 127,144.5C 128.941,135.793 128.774,127.127 126.5,118.5 Z"/></g>
<g><path style="opacity:1" fill="#d688a4" d="M 154.5,116.5 C 153.888,120.163 153.721,123.83 154,127.5C 154.77,128.598 155.603,128.598 156.5,127.5C 150.389,139.94 142.055,150.606 131.5,159.5C 129.302,159.591 128.969,158.925 130.5,157.5C 136.234,150.375 141.734,143.042 147,135.5C 150.02,129.254 152.52,122.921 154.5,116.5 Z"/></g>
<g><path style="opacity:0.545" fill="#eac1d5" d="M 28.5,137.5 C 31.5725,139.569 33.9059,142.236 35.5,145.5C 32.4275,143.431 30.0941,140.764 28.5,137.5 Z"/></g>
<g><path style="opacity:0.961" fill="#d7819e" d="M 95.5,116.5 C 83.9895,126.766 83.6562,137.432 94.5,148.5C 93.1266,148.657 91.7932,148.49 90.5,148C 84.7317,139.792 83.8984,130.959 88,121.5C 89.3296,117.993 91.8296,116.327 95.5,116.5 Z"/></g>
<g><path style="opacity:0.922" fill="#cc85a0" d="M 27.5,137.5 C 27.8333,137.5 28.1667,137.5 28.5,137.5C 30.0941,140.764 32.4275,143.431 35.5,145.5C 35.8333,145.5 36.1667,145.5 36.5,145.5C 36.6243,147.582 37.6243,149.082 39.5,150C 38.9056,150.464 38.2389,150.631 37.5,150.5C 32.4206,146.963 27.7539,142.963 23.5,138.5C 24.5832,138.539 25.5832,138.873 26.5,139.5C 27.2975,139.043 27.6309,138.376 27.5,137.5 Z"/></g>
<g><path style="opacity:0.333" fill="#eba5c6" d="M 60.5,142.5 C 64.3302,143.689 65.3302,146.022 63.5,149.5C 63.8504,146.547 62.8504,144.213 60.5,142.5 Z"/></g>
<g><path style="opacity:0.714" fill="#cf8fa7" d="M 100.5,144.5 C 100.833,144.5 101.167,144.5 101.5,144.5C 103.309,145.291 105.309,145.291 107.5,144.5C 105.824,146.834 103.491,147.834 100.5,147.5C 100.5,146.5 100.5,145.5 100.5,144.5 Z"/></g>
<g><path style="opacity:0.533" fill="#e096b0" d="M 120.5,143.5 C 119.833,146.167 118.167,147.833 115.5,148.5C 116.833,146.5 118.5,144.833 120.5,143.5 Z"/></g>
<g><path style="opacity:1" fill="#db87a3" d="M 115.5,148.5 C 115.5,149.5 115.5,150.5 115.5,151.5C 112.833,151.5 110.167,151.5 107.5,151.5C 110.076,150.512 112.743,149.512 115.5,148.5 Z"/></g>
<g><path style="opacity:0.498" fill="#cb9bae" d="M 36.5,145.5 C 41.8427,150.502 47.176,155.502 52.5,160.5C 52,160.833 51.5,161.167 51,161.5C 46.1468,158.171 41.6468,154.505 37.5,150.5C 38.2389,150.631 38.9056,150.464 39.5,150C 37.6243,149.082 36.6243,147.582 36.5,145.5 Z"/></g>
<g><path style="opacity:0.843" fill="#d57a96" d="M 122.5,155.5 C 120.909,157.633 118.909,159.299 116.5,160.5C 116.966,158.799 116.966,157.299 116.5,156C 118.473,155.505 120.473,155.338 122.5,155.5 Z"/></g>
<g><path style="opacity:0.796" fill="#ce7e99" d="M 63.5,149.5 C 63.6602,151.199 63.4935,152.866 63,154.5C 59.4548,157.853 58.2881,161.853 59.5,166.5C 58.5041,166.586 57.6708,166.252 57,165.5C 57.2213,159.389 59.3879,154.056 63.5,149.5 Z"/></g>
<g><path style="opacity:0.78" fill="#d0829d" d="M 114.5,161.5 C 112.507,163.163 110.174,164.33 107.5,165C 109.461,167.963 111.794,170.629 114.5,173C 113.756,174.039 112.756,174.539 111.5,174.5C 109.44,171.708 107.774,168.541 106.5,165C 108.263,162.06 110.93,160.893 114.5,161.5 Z"/></g>
<g><path style="opacity:0.796" fill="#cb92a8" d="M 130.5,157.5 C 128.969,158.925 129.302,159.591 131.5,159.5C 128.382,163.449 124.715,166.949 120.5,170C 118.056,170.399 117.39,169.566 118.5,167.5C 122.271,163.714 126.271,160.381 130.5,157.5 Z"/></g>
<g><path style="opacity:0.945" fill="#d67c9d" d="M 69.5,171.5 C 74.9874,173.571 80.6541,175.071 86.5,176C 87.2524,176.671 87.5858,177.504 87.5,178.5C 80.9809,177.33 74.9809,174.997 69.5,171.5 Z"/></g>
<g><path style="opacity:0.969" fill="#de779e" d="M 109.5,175.5 C 106.283,177.137 102.95,178.47 99.5,179.5C 95.5,179.5 91.5,179.5 87.5,179.5C 87.5,179.167 87.5,178.833 87.5,178.5C 94.8734,177.824 102.207,176.824 109.5,175.5 Z"/></g>
</svg>
