<?xml version="1.0" standalone="no"?>
<!DOCTYPE svg PUBLIC "-//W3C//DTD SVG 20010904//EN"
 "http://www.w3.org/TR/2001/REC-SVG-20010904/DTD/svg10.dtd">
<svg version="1.0" xmlns="http://www.w3.org/2000/svg"
 width="4971.000000pt" height="5316.000000pt" viewBox="0 0 4971.000000 5316.000000"
 preserveAspectRatio="xMidYMid meet">

<g transform="translate(0.000000,5316.000000) scale(0.100000,-0.100000)"
fill="#000000" stroke="none">
<path d="M26115 50000 c-136 -22 -258 -71 -382 -156 -173 -119 -414 -210 -743
-283 -74 -16 -286 -55 -470 -86 -694 -116 -864 -173 -1082 -359 -139 -119
-228 -240 -326 -445 -76 -159 -137 -255 -187 -294 -65 -52 -210 -105 -290
-108 -16 -1 -41 -4 -53 -8 -23 -6 -20 -11 56 -111 44 -58 131 -160 192 -228
l113 -123 -42 -192 c-91 -422 -114 -636 -114 -1057 0 -263 10 -422 39 -615 45
-307 141 -601 260 -797 87 -143 228 -288 328 -338 38 -18 41 -19 51 -2 16 26
11 419 -8 647 -9 110 -17 233 -17 273 0 39 -2 72 -3 72 -2 0 -33 -15 -68 -32
-125 -64 -260 -38 -369 72 -155 154 -152 401 7 551 29 27 79 62 110 77 50 23
71 27 153 27 86 0 99 -3 143 -28 26 -15 66 -51 88 -80 23 -29 44 -52 48 -52 3
0 84 40 179 89 138 71 181 99 213 135 59 67 123 207 170 371 23 80 57 178 75
218 l35 72 182 0 c127 0 221 6 313 19 234 35 325 62 829 244 361 131 515 167
713 167 137 0 274 -26 412 -77 113 -42 430 -201 437 -219 2 -7 -6 -194 -19
-416 -14 -222 -23 -404 -22 -406 6 -9 161 247 254 417 201 370 317 740 345
1106 4 44 19 118 35 165 57 174 65 230 64 435 0 160 -4 202 -21 265 -99 360
-323 646 -673 863 -152 94 -368 178 -541 212 -101 20 -330 28 -414 15z"/>
<path d="M24845 46934 c-101 -16 -190 -63 -235 -125 -55 -77 -49 -146 17 -196
45 -35 112 -40 204 -18 56 14 92 16 171 11 143 -10 202 -23 292 -63 72 -32 82
-34 117 -24 86 26 114 113 60 188 -66 91 -164 150 -326 198 -88 26 -231 39
-300 29z"/>
<path d="M28280 46870 c-300 -42 -618 -153 -858 -299 -348 -213 -652 -561
-852 -976 -159 -330 -226 -544 -336 -1086 -5 -24 -2 -27 36 -33 22 -3 40 -11
40 -17 0 -6 -8 -65 -17 -132 -18 -131 -24 -520 -9 -591 7 -39 9 -36 60 115 29
85 100 264 157 398 l104 243 79 29 c104 38 176 78 392 220 417 273 607 309
934 174 58 -24 143 -53 190 -65 108 -28 282 -37 387 -20 149 24 313 94 422
180 28 22 52 40 54 40 2 0 -20 -81 -49 -179 -165 -561 -160 -802 24 -1110 55
-92 56 -97 60 -182 5 -105 -6 -177 -59 -368 -43 -158 -47 -192 -24 -211 12
-10 19 -9 37 4 127 92 222 133 332 142 139 12 238 -43 267 -148 25 -94 -22
-252 -115 -382 -56 -78 -184 -206 -262 -262 -144 -103 -284 -140 -354 -92 -51
34 -73 86 -79 192 l-6 90 -38 -44 c-41 -47 -165 -231 -211 -312 -21 -37 -23
-48 -12 -48 8 0 84 23 169 50 85 28 156 50 159 50 2 0 0 -37 -4 -82 -5 -46
-10 -177 -11 -293 l-2 -210 115 -5 c102 -5 121 -9 162 -33 59 -35 110 -94 153
-179 47 -95 52 -149 25 -309 -26 -153 -23 -235 9 -259 11 -8 48 -31 82 -50 82
-46 179 -141 215 -210 24 -46 29 -67 29 -130 0 -93 -28 -157 -111 -248 l-56
-62 22 -27 c12 -16 64 -67 115 -114 l94 -87 68 -7 c262 -26 582 -86 748 -139
71 -23 130 -36 166 -36 137 0 310 -45 449 -116 215 -110 382 -298 515 -577
128 -269 196 -534 306 -1180 28 -166 71 -381 95 -477 85 -333 124 -520 255
-1235 120 -660 200 -1065 209 -1065 17 0 180 130 246 197 176 175 232 317 236
591 2 145 -16 613 -33 847 -23 320 -81 631 -224 1215 -96 392 -127 544 -145
729 -20 204 -8 400 36 600 35 156 74 264 209 576 194 450 242 611 252 855 11
274 -44 506 -186 789 -130 259 -283 460 -681 896 -408 447 -552 639 -685 917
-140 292 -185 533 -166 882 25 449 6 675 -76 880 -118 296 -342 516 -615 601
l-57 18 -25 69 c-35 93 -90 171 -194 274 -380 378 -1042 708 -1617 805 -136
23 -439 34 -545 19z"/>
<path d="M26410 46564 c-158 -42 -234 -115 -210 -203 5 -20 21 -48 36 -62 25
-23 31 -24 162 -24 127 0 141 -2 194 -27 31 -14 85 -45 119 -69 105 -71 196
-63 249 23 26 41 20 99 -16 175 -74 155 -325 243 -534 187z"/>
<path d="M24914 46241 c-30 -19 -59 -74 -48 -92 9 -15 34 -10 41 9 13 35 36
52 74 52 44 0 79 -35 79 -81 0 -22 5 -29 20 -29 17 0 20 7 20 40 0 50 -24 89
-67 106 -45 19 -82 17 -119 -5z"/>
<path d="M26284 45951 c-45 -28 -66 -101 -29 -101 8 0 20 12 27 27 20 42 59
57 102 39 34 -14 40 -24 48 -81 6 -39 33 -22 36 22 3 34 -2 47 -26 74 -37 41
-110 51 -158 20z"/>
<path d="M26930 44600 c-75 -14 -107 -55 -80 -105 18 -34 61 -51 166 -68 117
-19 159 -41 229 -122 49 -55 62 -65 90 -65 27 0 35 5 43 29 13 35 2 87 -27
134 -25 41 -102 114 -151 144 -66 40 -201 67 -270 53z"/>
<path d="M26864 44141 c-38 -24 -48 -37 -40 -57 5 -14 11 -13 42 5 68 41 140
20 168 -49 9 -22 16 -50 16 -61 0 -14 5 -19 18 -17 28 5 28 76 0 117 -34 51
-71 73 -125 78 -36 3 -56 -1 -79 -16z"/>
<path d="M28267 43916 c-50 -18 -77 -44 -77 -72 0 -36 39 -55 137 -64 112 -11
132 -19 196 -79 79 -74 124 -101 168 -101 30 0 42 6 55 25 25 38 5 95 -56 159
-115 121 -295 177 -423 132z"/>
<path d="M28208 43478 c-22 -13 -38 -30 -38 -40 0 -22 27 -23 54 -3 11 8 39
15 63 15 58 0 106 -41 107 -93 3 -72 46 -75 46 -4 0 113 -131 183 -232 125z"/>
<path d="M25388 42646 c-117 -111 -345 -243 -552 -321 -307 -114 -697 -164
-1061 -136 -400 32 -597 124 -614 290 l-6 57 -250 -76 c-137 -43 -392 -121
-565 -175 -173 -54 -364 -108 -425 -120 -249 -51 -456 -169 -674 -386 -446
-444 -863 -1288 -1186 -2399 -134 -460 -158 -537 -235 -755 -45 -127 -140
-387 -212 -580 -72 -192 -150 -405 -174 -473 l-44 -122 68 -69 c252 -255 731
-482 1333 -631 85 -21 176 -41 202 -45 26 -4 49 -11 52 -15 2 -4 -2 -200 -10
-436 -17 -505 -35 -1147 -35 -1221 l0 -52 278 -244 c376 -329 868 -754 1272
-1096 184 -156 348 -296 363 -310 l28 -26 -11 29 c-8 21 -8 38 1 65 13 37 163
286 179 296 14 9 11 84 -5 130 -9 25 -33 56 -65 83 -43 38 -50 49 -50 81 0 52
38 121 85 154 22 15 91 42 152 61 127 38 173 64 203 119 26 45 28 88 11 225
-11 83 -11 112 -1 147 14 50 72 110 116 121 46 12 128 -3 202 -36 40 -18 74
-31 76 -29 8 9 217 738 386 1344 51 182 132 470 180 640 48 171 120 450 160
620 93 401 149 620 212 830 211 707 477 1164 812 1394 130 90 326 157 485 168
59 4 119 16 190 40 178 59 171 53 203 166 72 252 119 330 231 381 82 38 113
64 133 112 19 44 18 158 -2 269 -20 115 -15 223 15 290 23 53 86 123 138 156
51 32 169 68 262 80 148 18 134 8 126 97 -4 42 -8 84 -10 92 -1 8 -6 35 -9 60
-4 25 -16 86 -27 136 l-20 91 -76 13 c-101 16 -164 39 -295 107 -132 68 -249
171 -327 288 -47 71 -144 262 -191 377 l-23 56 -161 31 c-282 54 -674 112
-749 111 -25 -1 -45 -13 -89 -54z"/>
<path d="M23030 33236 c34 -33 175 -146 182 -146 4 0 9 16 10 35 0 19 1 40 2
46 1 6 -28 19 -64 29 -36 9 -83 25 -105 34 -31 13 -37 14 -25 2z"/>
<path d="M20956 33088 c-10 -148 -26 -1681 -26 -2493 0 -1011 17 -1591 50
-1714 5 -19 23 -48 39 -65 l31 -31 -13 -255 c-16 -338 -15 -2955 1 -3835 42
-2255 99 -4158 157 -5285 16 -301 22 -382 49 -620 47 -423 53 -1061 17 -1965
-56 -1407 -52 -2053 19 -3855 55 -1389 179 -3833 310 -6130 11 -195 20 -367
20 -381 0 -32 2 -32 160 -53 395 -52 838 -38 1125 35 141 36 316 131 355 194
8 12 20 120 32 280 69 963 459 6439 508 7140 76 1089 80 1175 80 1605 0 490
-19 794 -86 1420 -84 779 -101 1093 -84 1489 16 373 67 862 280 2666 211 1785
215 1819 223 1740 4 -38 7 -137 7 -220 0 -220 28 -788 46 -952 l6 -52 87 -44
c200 -103 494 -171 921 -214 143 -15 268 -18 680 -18 491 1 722 10 1074 45 55
6 101 8 104 6 2 -3 -23 -310 -57 -683 -192 -2133 -300 -3416 -327 -3903 -25
-466 -8 -735 96 -1475 50 -355 75 -572 95 -805 22 -252 30 -860 16 -1135 -25
-479 -182 -2547 -441 -5817 -55 -691 -100 -1272 -100 -1291 l0 -34 118 -7
c185 -10 722 27 772 54 13 7 19 58 33 312 155 2762 256 4769 317 6278 65 1633
70 2376 25 3600 -30 803 -35 979 -35 1250 0 326 14 623 41 885 10 105 24 235
29 290 20 211 59 1098 85 1935 9 278 18 537 21 576 l5 72 45 -14 c148 -44 504
-110 759 -141 217 -25 819 -26 1025 0 299 37 580 100 828 183 199 67 449 180
546 247 l29 20 -6 676 c-3 372 -10 775 -16 896 -6 121 -27 522 -46 890 -52
993 -55 1077 -65 1725 -9 597 -17 785 -45 1110 -31 347 -102 900 -116 900 -5
0 -41 -13 -81 -29 -190 -75 -521 -174 -786 -235 -409 -95 -841 -158 -1362
-198 -223 -17 -1135 -17 -1375 0 -589 42 -1113 110 -1660 213 -467 89 -1208
266 -1213 290 -1 8 22 225 52 483 l54 470 -125 150 c-253 306 -401 517 -526
756 -126 240 -231 515 -302 795 -21 82 -42 143 -51 148 -39 22 -140 115 -190
175 -67 81 -147 238 -176 347 -29 110 -31 351 -4 474 10 47 20 90 23 97 5 14
13 10 -742 404 -550 287 -1233 650 -1302 691 l-31 19 -6 -82z"/>
<path d="M25071 16264 c0 -11 3 -14 6 -6 3 7 2 16 -1 19 -3 4 -6 -2 -5 -13z"/>
</g>
</svg>
