<?xml version="1.0" standalone="no"?>
<!DOCTYPE svg PUBLIC "-//W3C//DTD SVG 20010904//EN"
 "http://www.w3.org/TR/2001/REC-SVG-20010904/DTD/svg10.dtd">
<svg version="1.0" xmlns="http://www.w3.org/2000/svg"
 width="360.000000pt" height="360.000000pt" viewBox="0 0 360.000000 360.000000"
 preserveAspectRatio="xMidYMid meet">

<g transform="translate(0.000000,360.000000) scale(0.100000,-0.100000)"
fill="#000000" stroke="none">
<path d="M879 2584 c-93 -92 -172 -176 -175 -188 -5 -15 2 -28 30 -52 l37 -32
-31 -68 c-16 -37 -29 -68 -28 -69 22 -15 1047 -713 1056 -719 7 -4 15 -1 18 8
18 48 5 58 -504 397 -273 183 -499 333 -501 335 -4 4 19 65 29 77 6 6 829
-569 966 -675 8 -6 184 114 510 347 l499 355 21 -47 c12 -27 20 -51 18 -55 -3
-4 -219 -149 -482 -323 -262 -175 -487 -327 -499 -338 -15 -13 -23 -32 -23
-54 0 -18 3 -33 6 -33 16 0 1064 725 1064 735 0 7 -14 43 -31 80 l-32 66 22
15 c44 32 30 54 -144 218 -90 85 -176 162 -189 171 -28 18 -47 12 -100 -32
-20 -17 -32 -21 -39 -14 -20 20 -57 11 -160 -42 -119 -61 -225 -135 -346 -241
l-84 -75 -86 81 c-116 108 -258 214 -358 266 -93 48 -108 50 -139 21 l-23 -21
-49 36 c-27 20 -57 36 -67 36 -9 0 -93 -75 -186 -166z m456 21 c90 -50 188
-124 307 -233 l108 -97 0 -178 0 -178 -29 23 c-15 13 -73 60 -128 105 -140
114 -268 205 -415 294 -70 42 -133 79 -140 82 -8 3 29 47 97 116 73 74 115
109 125 106 8 -4 42 -21 75 -40z m-241 22 c16 -12 10 -20 -67 -96 -64 -62 -91
-97 -107 -137 -12 -30 -24 -54 -27 -54 -2 0 -20 12 -39 27 l-35 26 123 124
c67 68 125 123 128 123 4 0 14 -6 24 -13z m1527 -108 c71 -67 129 -124 129
-128 0 -7 -63 -51 -72 -51 -3 0 -13 21 -22 48 -13 36 -39 69 -109 140 -74 75
-89 94 -77 102 8 5 17 10 19 10 2 0 61 -55 132 -121z m-173 9 l100 -97 -96
-52 c-179 -97 -351 -220 -590 -425 l-42 -37 2 179 3 178 95 84 c52 46 138 112
190 147 91 61 218 128 232 122 3 -1 51 -46 106 -99z m-1364 -210 c185 -105
385 -249 578 -417 l88 -76 0 -49 c0 -37 -3 -46 -12 -39 -7 6 -185 132 -395
282 -211 149 -383 275 -383 280 0 14 22 71 27 71 3 0 47 -23 97 -52z m1521 15
c9 -20 12 -40 8 -44 -16 -15 -783 -559 -788 -559 -3 0 -5 20 -5 43 0 41 4 48
68 108 91 88 228 201 340 279 89 63 337 210 354 210 4 0 15 -17 23 -37z"/>
<path d="M1234 1672 c-81 -45 -119 -79 -147 -131 -45 -83 -37 -85 70 -20 73
44 107 59 134 59 92 0 92 -90 2 -171 -60 -54 -201 -153 -287 -200 -139 -78
-226 -204 -211 -306 l6 -42 177 108 c772 469 764 463 750 476 -27 25 -412 255
-427 255 -9 0 -39 -13 -67 -28z"/>
<path d="M2134 1603 c-88 -53 -185 -112 -217 -131 -51 -31 -56 -36 -40 -47 10
-6 122 -74 248 -151 127 -76 331 -200 455 -276 l225 -137 3 56 c3 46 -2 67
-27 118 -39 78 -98 133 -198 183 -87 44 -238 157 -295 220 -31 34 -38 50 -38
82 0 29 5 42 19 50 45 23 85 10 218 -71 59 -37 64 -38 58 -17 -15 48 -37 86
-68 116 -39 38 -145 102 -168 102 -9 0 -88 -43 -175 -97z"/>
<path d="M1204 1510 c-31 -17 -79 -46 -105 -66 -48 -35 -48 -36 -33 -60 9 -13
21 -24 26 -24 5 0 66 35 134 77 111 69 123 79 108 90 -28 21 -68 15 -130 -17z"/>
<path d="M2260 1527 c0 -9 52 -48 127 -95 l128 -79 17 22 c28 35 25 43 -22 67
-25 13 -69 39 -97 58 -61 38 -153 55 -153 27z"/>
</g>
</svg>
