<?xml version="1.0" encoding="UTF-8"?>
<!DOCTYPE svg PUBLIC "-//W3C//DTD SVG 1.1//EN" "http://www.w3.org/Graphics/SVG/1.1/DTD/svg11.dtd">
<svg xmlns="http://www.w3.org/2000/svg" version="1.1" width="199px" height="198px" style="shape-rendering:geometricPrecision; text-rendering:geometricPrecision; image-rendering:optimizeQuality; fill-rule:evenodd; clip-rule:evenodd" xmlns:xlink="http://www.w3.org/1999/xlink">
<g><path style="opacity:1" fill="#fcfcfc" d="M -0.5,-0.5 C 65.8333,-0.5 132.167,-0.5 198.5,-0.5C 198.5,65.5 198.5,131.5 198.5,197.5C 132.167,197.5 65.8333,197.5 -0.5,197.5C -0.5,131.5 -0.5,65.5 -0.5,-0.5 Z"/></g>
<g><path style="opacity:1" fill="#fbe7e9" d="M 129.5,38.5 C 128.662,38.1583 128.328,37.4916 128.5,36.5C 123.36,35.5119 118.026,35.1786 112.5,35.5C 112.167,37.5 111.833,39.5 111.5,41.5C 109.265,41.2053 107.265,41.5386 105.5,42.5C 101.785,45.1404 97.9512,45.1404 94,42.5C 91.511,43.6056 89.011,44.6056 86.5,45.5C 86.8807,44.0689 87.8807,43.2355 89.5,43C 88.0267,42.2904 87.3601,41.1238 87.5,39.5C 77.4002,38.1488 69.9002,41.8154 65,50.5C 63.087,48.8131 60.9203,48.3131 58.5,49C 57.3333,50.8333 55.8333,52.3333 54,53.5C 52.3614,60.6208 52.1947,67.6208 53.5,74.5C 53.5,76.1667 53.5,77.8333 53.5,79.5C 52.5,79.5 51.5,79.5 50.5,79.5C 50.5674,78.0413 50.2341,76.7079 49.5,75.5C 49.6984,73.4247 49.8651,71.4247 50,69.5C 49.586,69.9574 49.086,70.2907 48.5,70.5C 45.7024,69.0468 42.7024,68.0468 39.5,67.5C 33.3452,59.5688 35.0118,55.5688 44.5,55.5C 44.0608,50.4816 44.7275,45.6483 46.5,41C 46.3699,39.9412 45.8699,39.1079 45,38.5C 44.5724,43.498 43.7391,43.6647 42.5,39C 42.9574,38.586 43.2907,38.086 43.5,37.5C 40.4952,34.8544 39.9952,31.8544 42,28.5C 43.7395,27.1057 45.7395,26.4391 48,26.5C 50.8166,27.0305 53.65,27.3639 56.5,27.5C 57.1637,25.1331 58.497,23.1331 60.5,21.5C 61.7202,20.2889 62.8869,20.2889 64,21.5C 64.6667,20.8333 65.3333,20.1667 66,19.5C 66.4196,15.8086 66.9196,12.1419 67.5,8.5C 71.5,7.16667 75.5,7.16667 79.5,8.5C 79.5,10.8333 79.5,13.1667 79.5,15.5C 84.3872,15.7653 89.0539,16.7653 93.5,18.5C 94.9663,17.8645 96.2997,17.0312 97.5,16C 101.486,15.5012 105.486,15.3345 109.5,15.5C 109.66,18.8835 109.327,22.2169 108.5,25.5C 109.065,27.4048 110.065,29.0715 111.5,30.5C 115.796,31.3275 120.129,31.8275 124.5,32C 120.129,32.1725 115.796,32.6725 111.5,33.5C 117.19,34.7888 122.857,34.7888 128.5,33.5C 129.452,35.0453 129.785,36.712 129.5,38.5 Z"/></g>
<g><path style="opacity:1" fill="#fbf9fa" d="M 86.5,45.5 C 86.5,51.8333 86.5,58.1667 86.5,64.5C 84.5154,64.8586 83.8487,65.692 84.5,67C 81.8333,67.6667 79.1667,67.6667 76.5,67C 75.6634,65.9887 75.33,64.8221 75.5,63.5C 74.5,63.5 73.5,63.5 72.5,63.5C 72.4115,53.9015 67.7448,50.0682 58.5,52C 55.3799,54.4077 54.0466,57.5743 54.5,61.5C 53.5151,65.6344 53.1818,69.9677 53.5,74.5C 52.1947,67.6208 52.3614,60.6208 54,53.5C 55.8333,52.3333 57.3333,50.8333 58.5,49C 60.9203,48.3131 63.087,48.8131 65,50.5C 69.9002,41.8154 77.4002,38.1488 87.5,39.5C 87.3601,41.1238 88.0267,42.2904 89.5,43C 87.8807,43.2355 86.8807,44.0689 86.5,45.5 Z"/></g>
<g><path style="opacity:1" fill="#dc6090" d="M 128.5,36.5 C 127.167,36.5 125.833,36.5 124.5,36.5C 124.634,38.2915 124.301,39.9582 123.5,41.5C 119.507,42.0005 117.84,40.5005 118.5,37C 116.741,36.2025 115.074,36.3691 113.5,37.5C 113.92,39.326 113.92,41.326 113.5,43.5C 112.127,43.3433 110.793,43.51 109.5,44C 108.816,45.6934 107.816,47.1934 106.5,48.5C 106.833,49.5 107.5,50.1667 108.5,50.5C 111.053,50.0548 113.72,50.0548 116.5,50.5C 122.167,50.5 127.833,50.5 133.5,50.5C 133.833,48.5 134.167,46.5 134.5,44.5C 132.219,44.9227 130.552,44.256 129.5,42.5C 132.082,42.0254 134.082,42.6921 135.5,44.5C 135.5,45.8333 135.5,47.1667 135.5,48.5C 135.5,49.5 135.5,50.5 135.5,51.5C 125.319,51.8274 115.319,51.494 105.5,50.5C 105.5,47.8333 105.5,45.1667 105.5,42.5C 107.265,41.5386 109.265,41.2053 111.5,41.5C 111.833,39.5 112.167,37.5 112.5,35.5C 118.026,35.1786 123.36,35.5119 128.5,36.5 Z"/></g>
<g><path style="opacity:1" fill="#eb3573" d="M 128.5,36.5 C 128.328,37.4916 128.662,38.1583 129.5,38.5C 129.5,39.8333 129.5,41.1667 129.5,42.5C 130.552,44.256 132.219,44.9227 134.5,44.5C 134.167,46.5 133.833,48.5 133.5,50.5C 127.833,50.5 122.167,50.5 116.5,50.5C 118.572,47.388 120.905,44.388 123.5,41.5C 124.301,39.9582 124.634,38.2915 124.5,36.5C 125.833,36.5 127.167,36.5 128.5,36.5 Z"/></g>
<g><path style="opacity:1" fill="#f95595" d="M 123.5,41.5 C 120.905,44.388 118.572,47.388 116.5,50.5C 113.72,50.0548 111.053,50.0548 108.5,50.5C 107.5,50.1667 106.833,49.5 106.5,48.5C 107.816,47.1934 108.816,45.6934 109.5,44C 110.793,43.51 112.127,43.3433 113.5,43.5C 113.92,41.326 113.92,39.326 113.5,37.5C 115.074,36.3691 116.741,36.2025 118.5,37C 117.84,40.5005 119.507,42.0005 123.5,41.5 Z"/></g>
<g><path style="opacity:1" fill="#353443" d="M 72.5,63.5 C 72.6655,67.5138 72.4988,71.5138 72,75.5C 71.3292,74.7476 70.4959,74.4142 69.5,74.5C 67.7202,73.0101 67.0535,71.0101 67.5,68.5C 67.5,68.1667 67.5,67.8333 67.5,67.5C 69.0986,66.2015 69.5986,64.5348 69,62.5C 67.1667,60.6667 65.3333,58.8333 63.5,57C 62.2161,56.3162 61.0495,56.4829 60,57.5C 58.878,59.4068 58.0447,61.4068 57.5,63.5C 57.4734,66.2298 58.1401,68.7298 59.5,71C 59.472,72.0698 59.1386,72.9032 58.5,73.5C 57.6981,72.0484 57.1981,70.3817 57,68.5C 56.2917,67.6195 55.4584,66.9528 54.5,66.5C 54.5,64.8333 54.5,63.1667 54.5,61.5C 54.0466,57.5743 55.3799,54.4077 58.5,52C 67.7448,50.0682 72.4115,53.9015 72.5,63.5 Z"/></g>
<g><path style="opacity:1" fill="#dfa89a" d="M 67.5,67.5 C 66.6579,58.7802 63.3246,57.4468 57.5,63.5C 58.0447,61.4068 58.878,59.4068 60,57.5C 61.0495,56.4829 62.2161,56.3162 63.5,57C 65.3333,58.8333 67.1667,60.6667 69,62.5C 69.5986,64.5348 69.0986,66.2015 67.5,67.5 Z"/></g>
<g><path style="opacity:1" fill="#faefef" d="M 182.5,63.5 C 183.613,64.9464 183.78,66.6131 183,68.5C 179.541,69.1334 176.041,69.8 172.5,70.5C 171.376,71.914 170.376,73.414 169.5,75C 170.833,76.3333 170.833,77.6667 169.5,79C 167.5,79.6667 165.5,79.6667 163.5,79C 162.643,76.9812 161.309,75.4812 159.5,74.5C 160.552,74.3505 161.552,74.5172 162.5,75C 163.276,77.9866 164.943,78.8199 167.5,77.5C 167.833,74.167 168.167,70.8337 168.5,67.5C 164.549,63.9383 159.883,62.605 154.5,63.5C 154.334,57.8236 154.501,52.1569 155,46.5C 156,44.8333 157.333,43.5 159,42.5C 162.759,43.4896 166.593,44.323 170.5,45C 173.028,46.3159 173.028,47.4826 170.5,48.5C 171.5,50.1667 172.833,51.5 174.5,52.5C 176.816,57.6832 175.149,60.5165 169.5,61C 170.955,63.0162 172.955,63.8495 175.5,63.5C 175.5,65.1667 175.5,66.8333 175.5,68.5C 177.564,68.313 179.564,67.813 181.5,67C 182.337,65.9887 182.67,64.8221 182.5,63.5 Z"/></g>
<g><path style="opacity:1" fill="#fae6eb" d="M 182.5,63.5 C 182.67,64.8221 182.337,65.9887 181.5,67C 179.564,67.813 177.564,68.313 175.5,68.5C 175.5,66.8333 175.5,65.1667 175.5,63.5C 172.955,63.8495 170.955,63.0162 169.5,61C 175.149,60.5165 176.816,57.6832 174.5,52.5C 172.833,51.5 171.5,50.1667 170.5,48.5C 173.028,47.4826 173.028,46.3159 170.5,45C 166.593,44.323 162.759,43.4896 159,42.5C 157.333,43.5 156,44.8333 155,46.5C 154.501,52.1569 154.334,57.8236 154.5,63.5C 159.883,62.605 164.549,63.9383 168.5,67.5C 168.167,70.8337 167.833,74.167 167.5,77.5C 164.943,78.8199 163.276,77.9866 162.5,75C 161.552,74.5172 160.552,74.3505 159.5,74.5C 158.081,73.5489 156.415,73.2155 154.5,73.5C 154.333,91.8364 154.5,110.17 155,128.5C 157.015,130.478 156.848,132.312 154.5,134C 132.612,134.237 110.945,134.737 89.5,135.5C 88.2519,134.96 87.0852,134.293 86,133.5C 85.8324,122.485 85.3324,111.485 84.5,100.5C 82.422,102.986 79.7553,103.986 76.5,103.5C 75.8333,100.833 75.1667,98.1667 74.5,95.5C 76.1776,90.4317 76.8443,85.0984 76.5,79.5C 75.5,79.5 74.5,79.5 73.5,79.5C 73.5,81.5 73.5,83.5 73.5,85.5C 71.8762,85.3601 70.7096,86.0267 70,87.5C 69.6667,90.1667 69.3333,92.8333 69,95.5C 68.5006,90.1771 68.334,84.8437 68.5,79.5C 69.038,77.8828 69.3713,76.2161 69.5,74.5C 70.4959,74.4142 71.3292,74.7476 72,75.5C 72.4988,71.5138 72.6655,67.5138 72.5,63.5C 73.5,63.5 74.5,63.5 75.5,63.5C 75.33,64.8221 75.6634,65.9887 76.5,67C 79.1667,67.6667 81.8333,67.6667 84.5,67C 83.8487,65.692 84.5154,64.8586 86.5,64.5C 86.3335,73.8393 86.5002,83.1726 87,92.5C 88.5639,92.9121 90.0639,93.2454 91.5,93.5C 92.2389,93.369 92.9056,93.5357 93.5,94C 92.5842,94.2784 91.9175,94.7784 91.5,95.5C 91.5,106.167 91.5,116.833 91.5,127.5C 110.519,128.808 129.519,128.808 148.5,127.5C 129.529,129.488 110.196,130.154 90.5,129.5C 90.6665,118.162 90.4999,106.828 90,95.5C 89.3109,96.3567 88.4776,97.0233 87.5,97.5C 86.1797,109.395 86.1797,121.229 87.5,133C 109.497,133.5 131.497,133.667 153.5,133.5C 153.667,104.831 153.5,76.1647 153,47.5C 152.626,46.5838 152.126,45.7504 151.5,45C 146.177,44.5006 140.844,44.334 135.5,44.5C 134.082,42.6921 132.082,42.0254 129.5,42.5C 129.5,41.1667 129.5,39.8333 129.5,38.5C 131.456,40.8973 133.29,40.8973 135,38.5C 135.941,40.0614 137.108,41.3947 138.5,42.5C 139.395,40.6932 140.728,39.3599 142.5,38.5C 144.155,39.228 145.821,39.3947 147.5,39C 149.241,37.3804 151.075,35.8804 153,34.5C 153.783,32.5665 153.283,31.0665 151.5,30C 154.386,29.3939 156.552,27.8939 158,25.5C 159.096,27.8892 159.929,30.3892 160.5,33C 164.114,33.9358 167.78,34.4358 171.5,34.5C 171.5,33.5 171.5,32.5 171.5,31.5C 176.266,31.9705 177.599,34.4705 175.5,39C 177.119,43.6217 180.286,46.455 185,47.5C 185.167,48.1667 185.333,48.8333 185.5,49.5C 182.217,52.1589 180.551,55.6589 180.5,60C 180.608,61.6811 181.275,62.8478 182.5,63.5 Z"/></g>
<g><path style="opacity:1" fill="#f39c71" d="M 67.5,67.5 C 67.5,67.8333 67.5,68.1667 67.5,68.5C 66.7171,70.3432 66.0505,72.3432 65.5,74.5C 62.9135,75.48 60.2469,75.8134 57.5,75.5C 57.5,75.1667 57.5,74.8333 57.5,74.5C 58.1667,74.5 58.5,74.1667 58.5,73.5C 59.1386,72.9032 59.472,72.0698 59.5,71C 58.1401,68.7298 57.4734,66.2298 57.5,63.5C 63.3246,57.4468 66.6579,58.7802 67.5,67.5 Z"/></g>
<g><path style="opacity:1" fill="#f7d0e1" d="M 105.5,42.5 C 105.5,45.1667 105.5,47.8333 105.5,50.5C 104.842,49.6016 104.176,48.6016 103.5,47.5C 99.6205,47.749 95.6205,47.749 91.5,47.5C 91.5,61.1667 91.5,74.8333 91.5,88.5C 92.8333,90.1667 92.8333,91.8333 91.5,93.5C 90.0639,93.2454 88.5639,92.9121 87,92.5C 86.5002,83.1726 86.3335,73.8393 86.5,64.5C 86.5,58.1667 86.5,51.8333 86.5,45.5C 89.011,44.6056 91.511,43.6056 94,42.5C 97.9512,45.1404 101.785,45.1404 105.5,42.5 Z"/></g>
<g><path style="opacity:1" fill="#432f57" d="M 54.5,66.5 C 55.4584,66.9528 56.2917,67.6195 57,68.5C 57.1981,70.3817 57.6981,72.0484 58.5,73.5C 58.5,74.1667 58.1667,74.5 57.5,74.5C 56.5,74.5 55.5,74.5 54.5,74.5C 54.5,71.8333 54.5,69.1667 54.5,66.5 Z"/></g>
<g><path style="opacity:1" fill="#e13b6f" d="M 67.5,68.5 C 67.0535,71.0101 67.7202,73.0101 69.5,74.5C 69.3713,76.2161 69.038,77.8828 68.5,79.5C 67.8333,83.1667 67.1667,86.8333 66.5,90.5C 66.5,85.8333 66.5,81.1667 66.5,76.5C 65.5,76.5 64.5,76.5 63.5,76.5C 64.6269,86.8246 64.4602,97.158 63,107.5C 62.0071,103.558 61.3404,99.5577 61,95.5C 60.0199,101.651 60.5199,107.651 62.5,113.5C 61.3008,114.575 60.1341,115.575 59,116.5C 59.1084,121.28 58.275,125.614 56.5,129.5C 58.5411,111.522 58.8744,93.5221 57.5,75.5C 60.2469,75.8134 62.9135,75.48 65.5,74.5C 66.0505,72.3432 66.7171,70.3432 67.5,68.5 Z"/></g>
<g><path style="opacity:1" fill="#f8f1f4" d="M 136.5,82.5 C 136.833,82.5 137.167,82.5 137.5,82.5C 137.918,83.2216 138.584,83.7216 139.5,84C 137.697,86.1025 135.364,86.9358 132.5,86.5C 132.5,85.5 132.5,84.5 132.5,83.5C 126.813,84.0653 121.146,84.732 115.5,85.5C 114.833,85.1667 114.167,84.8333 113.5,84.5C 112.832,81.6944 112.166,79.0277 111.5,76.5C 106.138,76.4724 100.805,76.8058 95.5,77.5C 95.5,80.1667 95.5,82.8333 95.5,85.5C 100.927,85.7825 106.26,85.4491 111.5,84.5C 111.5,85.5 111.5,86.5 111.5,87.5C 109.473,87.3379 107.473,87.5045 105.5,88C 106.942,88.3768 107.942,89.2101 108.5,90.5C 106.396,90.2011 104.396,90.5344 102.5,91.5C 105.086,92.48 107.753,92.8134 110.5,92.5C 114.246,92.7078 118.08,92.3744 122,91.5C 124.379,91.6537 126.546,92.3203 128.5,93.5C 129.988,91.8507 130.988,89.8507 131.5,87.5C 134.56,91.8107 133.56,95.144 128.5,97.5C 127.035,96.3913 126.035,96.8913 125.5,99C 127.419,100.934 128.919,100.767 130,98.5C 132.041,100.65 134.541,101.65 137.5,101.5C 138.167,101.5 138.833,101.5 139.5,101.5C 140.711,103.563 139.877,104.563 137,104.5C 134.966,104.646 133.299,103.98 132,102.5C 131.275,103.059 130.442,103.392 129.5,103.5C 125.281,102.096 120.947,101.096 116.5,100.5C 119.18,98.5891 119.013,96.9224 116,95.5C 115.667,98.1667 115.333,100.833 115,103.5C 114.29,104.973 113.124,105.64 111.5,105.5C 111.5,104.167 111.5,102.833 111.5,101.5C 112.451,100.081 112.784,98.4147 112.5,96.5C 107.305,96.1795 102.305,96.5128 97.5,97.5C 97.1667,98.5 96.5,99.1667 95.5,99.5C 94.5655,98.4324 94.2322,97.099 94.5,95.5C 93.5,95.5 92.5,95.5 91.5,95.5C 91.9175,94.7784 92.5842,94.2784 93.5,94C 92.9056,93.5357 92.2389,93.369 91.5,93.5C 92.8333,91.8333 92.8333,90.1667 91.5,88.5C 92.9311,88.1193 93.7645,87.1193 94,85.5C 94.3333,81.1667 94.6667,76.8333 95,72.5C 95.49,73.7932 95.6567,75.1266 95.5,76.5C 98.0384,75.9573 100.372,74.9573 102.5,73.5C 104.833,73.5 107.167,73.5 109.5,73.5C 109.369,74.3764 109.702,75.0431 110.5,75.5C 116.042,75.3129 121.709,74.9796 127.5,74.5C 128.012,65.1894 128.845,65.1894 130,74.5C 132.259,77.2289 134.426,79.8955 136.5,82.5 Z"/></g>
<g><path style="opacity:1" fill="#59392d" d="M 108.5,90.5 C 109.833,90.5 110.5,91.1667 110.5,92.5C 107.753,92.8134 105.086,92.48 102.5,91.5C 104.396,90.5344 106.396,90.2011 108.5,90.5 Z"/></g>
<g><path style="opacity:1" fill="#f6d0e2" d="M 54.5,61.5 C 54.5,63.1667 54.5,64.8333 54.5,66.5C 54.5,69.1667 54.5,71.8333 54.5,74.5C 55.5,74.5 56.5,74.5 57.5,74.5C 57.5,74.8333 57.5,75.1667 57.5,75.5C 58.8744,93.5221 58.5411,111.522 56.5,129.5C 56.0371,132.482 55.7038,135.482 55.5,138.5C 54.596,139.209 54.2627,140.209 54.5,141.5C 52.8333,141.5 51.1667,141.5 49.5,141.5C 49.5,147.5 49.5,153.5 49.5,159.5C 48.6164,151.672 47.9497,143.672 47.5,135.5C 48.2768,127.518 48.6101,119.518 48.5,111.5C 47.325,111.719 46.325,111.386 45.5,110.5C 43.2402,106.312 41.2402,101.979 39.5,97.5C 41.7839,89.6051 45.1173,82.2717 49.5,75.5C 50.2341,76.7079 50.5674,78.0413 50.5,79.5C 51.5,79.5 52.5,79.5 53.5,79.5C 53.5,77.8333 53.5,76.1667 53.5,74.5C 53.1818,69.9677 53.5151,65.6344 54.5,61.5 Z"/></g>
<g><path style="opacity:1" fill="#fcf7fc" d="M 49.5,90.5 C 50.7647,91.5145 51.4313,93.0145 51.5,95C 51.1611,99.5515 50.4944,104.052 49.5,108.5C 48.0154,104.899 46.6821,101.233 45.5,97.5C 47.0981,95.3021 48.4314,92.9687 49.5,90.5 Z"/></g>
<g><path style="opacity:1" fill="#fbe9f5" d="M 105.5,50.5 C 115.319,51.494 125.319,51.8274 135.5,51.5C 135.5,50.5 135.5,49.5 135.5,48.5C 140.203,48.5628 144.87,48.2295 149.5,47.5C 150.277,74.2018 149.944,100.868 148.5,127.5C 129.519,128.808 110.519,128.808 91.5,127.5C 91.5,116.833 91.5,106.167 91.5,95.5C 92.5,95.5 93.5,95.5 94.5,95.5C 94.2322,97.099 94.5655,98.4324 95.5,99.5C 95.1201,101.698 95.7868,103.365 97.5,104.5C 101.97,105.486 106.637,105.819 111.5,105.5C 113.124,105.64 114.29,104.973 115,103.5C 115.333,100.833 115.667,98.1667 116,95.5C 119.013,96.9224 119.18,98.5891 116.5,100.5C 120.947,101.096 125.281,102.096 129.5,103.5C 130.442,103.392 131.275,103.059 132,102.5C 133.299,103.98 134.966,104.646 137,104.5C 139.877,104.563 140.711,103.563 139.5,101.5C 140.748,99.3509 142.248,97.3509 144,95.5C 144.749,94.365 144.583,93.365 143.5,92.5C 141.443,94.269 139.61,96.269 138,98.5C 136.951,97.4829 135.784,97.3162 134.5,98C 135.71,99.0391 136.71,100.206 137.5,101.5C 134.541,101.65 132.041,100.65 130,98.5C 128.919,100.767 127.419,100.934 125.5,99C 126.035,96.8913 127.035,96.3913 128.5,97.5C 133.56,95.144 134.56,91.8107 131.5,87.5C 130.988,89.8507 129.988,91.8507 128.5,93.5C 126.546,92.3203 124.379,91.6537 122,91.5C 118.08,92.3744 114.246,92.7078 110.5,92.5C 110.5,91.1667 109.833,90.5 108.5,90.5C 107.942,89.2101 106.942,88.3768 105.5,88C 107.473,87.5045 109.473,87.3379 111.5,87.5C 111.5,86.5 111.5,85.5 111.5,84.5C 111.5,81.8333 111.5,79.1667 111.5,76.5C 112.166,79.0277 112.832,81.6944 113.5,84.5C 114.167,84.8333 114.833,85.1667 115.5,85.5C 121.146,84.732 126.813,84.0653 132.5,83.5C 132.5,84.5 132.5,85.5 132.5,86.5C 135.364,86.9358 137.697,86.1025 139.5,84C 138.584,83.7216 137.918,83.2216 137.5,82.5C 142.153,81.534 144.486,78.8674 144.5,74.5C 142.5,76.1667 140.5,77.8333 138.5,79.5C 134.023,76.991 133.356,77.991 136.5,82.5C 134.426,79.8955 132.259,77.2289 130,74.5C 128.845,65.1894 128.012,65.1894 127.5,74.5C 121.709,74.9796 116.042,75.3129 110.5,75.5C 109.702,75.0431 109.369,74.3764 109.5,73.5C 111.424,73.2893 111.757,72.6226 110.5,71.5C 109.378,70.8442 108.045,70.5108 106.5,70.5C 104.667,70.5854 103.334,71.2521 102.5,72.5C 102.5,72.8333 102.5,73.1667 102.5,73.5C 100.372,74.9573 98.0384,75.9573 95.5,76.5C 95.6567,75.1266 95.49,73.7932 95,72.5C 94.6667,76.8333 94.3333,81.1667 94,85.5C 93.7645,87.1193 92.9311,88.1193 91.5,88.5C 91.5,74.8333 91.5,61.1667 91.5,47.5C 95.6205,47.749 99.6205,47.749 103.5,47.5C 104.176,48.6016 104.842,49.6016 105.5,50.5 Z"/></g>
<g><path style="opacity:1" fill="#a9d29c" d="M 111.5,76.5 C 111.5,79.1667 111.5,81.8333 111.5,84.5C 106.26,85.4491 100.927,85.7825 95.5,85.5C 95.5,82.8333 95.5,80.1667 95.5,77.5C 100.805,76.8058 106.138,76.4724 111.5,76.5 Z"/></g>
<g><path style="opacity:1" fill="#c24772" d="M 137.5,82.5 C 137.167,82.5 136.833,82.5 136.5,82.5C 133.356,77.991 134.023,76.991 138.5,79.5C 140.5,77.8333 142.5,76.1667 144.5,74.5C 144.486,78.8674 142.153,81.534 137.5,82.5 Z"/></g>
<g><path style="opacity:1" fill="#b19490" d="M 110.5,71.5 C 111.757,72.6226 111.424,73.2893 109.5,73.5C 107.167,73.5 104.833,73.5 102.5,73.5C 102.5,73.1667 102.5,72.8333 102.5,72.5C 105.385,72.8064 108.052,72.4731 110.5,71.5 Z"/></g>
<g><path style="opacity:1" fill="#5f4437" d="M 110.5,71.5 C 108.052,72.4731 105.385,72.8064 102.5,72.5C 103.334,71.2521 104.667,70.5854 106.5,70.5C 108.045,70.5108 109.378,70.8442 110.5,71.5 Z"/></g>
<g><path style="opacity:1" fill="#d64f80" d="M 119.5,57.5 C 120.492,57.3284 121.158,57.6618 121.5,58.5C 122.263,59.2679 123.263,59.7679 124.5,60C 122.114,60.2835 121.448,61.2835 122.5,63C 121.552,63.4828 120.552,63.6495 119.5,63.5C 119.5,61.5 119.5,59.5 119.5,57.5 Z"/></g>
<g><path style="opacity:1" fill="#b898a9" d="M 115.5,61.5 C 115.5,60.5 115.5,59.5 115.5,58.5C 116.151,57.9094 116.818,57.2427 117.5,56.5C 118.833,59.1667 118.833,61.8333 117.5,64.5C 116.824,63.3984 116.158,62.3984 115.5,61.5 Z"/></g>
<g><path style="opacity:1" fill="#ca5786" d="M 129.5,58.5 C 128.833,65.1667 128.167,65.1667 127.5,58.5C 128.167,57.1667 128.833,57.1667 129.5,58.5 Z"/></g>
<g><path style="opacity:1" fill="#cf6f92" d="M 115.5,58.5 C 115.5,59.5 115.5,60.5 115.5,61.5C 115.157,63.2252 114.157,63.7252 112.5,63C 115.064,61.5187 115.064,60.0187 112.5,58.5C 111.833,60.1667 111.167,61.8333 110.5,63.5C 109.526,61.2573 109.192,58.924 109.5,56.5C 112.01,56.0535 114.01,56.7202 115.5,58.5 Z"/></g>
<g><path style="opacity:1" fill="#ba94a5" d="M 119.5,57.5 C 123.351,56.1905 127.351,56.1905 131.5,57.5C 131.043,58.2975 130.376,58.6309 129.5,58.5C 128.833,57.1667 128.167,57.1667 127.5,58.5C 125.5,58.5 123.5,58.5 121.5,58.5C 121.158,57.6618 120.492,57.3284 119.5,57.5 Z"/></g>
<g><path style="opacity:1" fill="#c84874" d="M 139.5,101.5 C 138.833,101.5 138.167,101.5 137.5,101.5C 136.71,100.206 135.71,99.0391 134.5,98C 135.784,97.3162 136.951,97.4829 138,98.5C 139.61,96.269 141.443,94.269 143.5,92.5C 144.583,93.365 144.749,94.365 144,95.5C 142.248,97.3509 140.748,99.3509 139.5,101.5 Z"/></g>
<g><path style="opacity:1" fill="#fac9e0" d="M 68.5,79.5 C 68.334,84.8437 68.5006,90.1771 69,95.5C 69.3333,92.8333 69.6667,90.1667 70,87.5C 70.7096,86.0267 71.8762,85.3601 73.5,85.5C 73.5,83.5 73.5,81.5 73.5,79.5C 74.5,79.5 75.5,79.5 76.5,79.5C 76.8443,85.0984 76.1776,90.4317 74.5,95.5C 73.8359,97.9779 73.5025,100.645 73.5,103.5C 76.127,115.372 76.9603,127.372 76,139.5C 75.5838,141.55 74.4171,142.884 72.5,143.5C 71.0813,142.549 69.4147,142.216 67.5,142.5C 67.8205,137.305 67.4872,132.305 66.5,127.5C 66.5,115.167 66.5,102.833 66.5,90.5C 67.1667,86.8333 67.8333,83.1667 68.5,79.5 Z"/></g>
<g><path style="opacity:1" fill="#f8cee1" d="M 135.5,44.5 C 140.844,44.334 146.177,44.5006 151.5,45C 152.126,45.7504 152.626,46.5838 153,47.5C 153.5,76.1647 153.667,104.831 153.5,133.5C 131.497,133.667 109.497,133.5 87.5,133C 86.1797,121.229 86.1797,109.395 87.5,97.5C 88.4776,97.0233 89.3109,96.3567 90,95.5C 90.4999,106.828 90.6665,118.162 90.5,129.5C 110.196,130.154 129.529,129.488 148.5,127.5C 149.944,100.868 150.277,74.2018 149.5,47.5C 144.87,48.2295 140.203,48.5628 135.5,48.5C 135.5,47.1667 135.5,45.8333 135.5,44.5 Z"/></g>
<g><path style="opacity:1" fill="#c34975" d="M 142.5,112.5 C 143.497,112.47 144.164,112.97 144.5,114C 143.335,117.16 141.335,119.66 138.5,121.5C 137.5,120.833 136.5,120.167 135.5,119.5C 134.577,116.015 135.41,115.682 138,118.5C 140.102,116.905 141.602,114.905 142.5,112.5 Z"/></g>
<g><path style="opacity:1" fill="#f8f3f5" d="M 114.5,120.5 C 115.752,118.661 115.752,116.828 114.5,115C 109.177,114.501 103.844,114.334 98.5,114.5C 97.9238,118.112 98.9238,121.112 101.5,123.5C 99.396,123.799 97.396,123.466 95.5,122.5C 96.1667,121.833 96.8333,121.167 97.5,120.5C 96.7868,118.224 96.2868,115.891 96,113.5C 95.6667,115.5 95.3333,117.5 95,119.5C 94.3333,116.5 94.3333,113.5 95,110.5C 100.429,111.367 105.929,111.367 111.5,110.5C 111.5,111.5 111.5,112.5 111.5,113.5C 114.621,113.462 117.621,112.795 120.5,111.5C 122.246,111.971 123.913,112.638 125.5,113.5C 128.029,111.471 130.696,109.638 133.5,108C 136.053,107.149 138.386,107.482 140.5,109C 137.385,109.03 134.885,110.197 133,112.5C 132.667,112.167 132.333,111.833 132,111.5C 131.567,113.664 132.067,115.664 133.5,117.5C 130.849,119.863 130.849,122.196 133.5,124.5C 132.998,125.521 132.332,125.688 131.5,125C 130.353,122.822 128.687,121.322 126.5,120.5C 124.085,120.719 123.085,122.052 123.5,124.5C 122.167,124.5 120.833,124.5 119.5,124.5C 119.167,122.5 118.833,120.5 118.5,118.5C 125.481,116.138 125.147,115.138 117.5,115.5C 117.5,117.167 117.5,118.833 117.5,120.5C 116.5,120.5 115.5,120.5 114.5,120.5 Z"/></g>
<g><path style="opacity:1" fill="#edb54b" d="M 111.5,120.5 C 111.027,121.906 110.027,122.573 108.5,122.5C 102.812,123.469 99.8122,121.136 99.5,115.5C 103.513,116.705 107.513,116.705 111.5,115.5C 111.5,117.167 111.5,118.833 111.5,120.5 Z"/></g>
<g><path style="opacity:1" fill="#ebce9d" d="M 114.5,120.5 C 113.5,120.5 112.5,120.5 111.5,120.5C 111.5,118.833 111.5,117.167 111.5,115.5C 107.513,116.705 103.513,116.705 99.5,115.5C 99.8122,121.136 102.812,123.469 108.5,122.5C 106.393,123.468 104.059,123.802 101.5,123.5C 98.9238,121.112 97.9238,118.112 98.5,114.5C 103.844,114.334 109.177,114.501 114.5,115C 115.752,116.828 115.752,118.661 114.5,120.5 Z"/></g>
<g><path style="opacity:1" fill="#eb8d35" d="M 97.5,97.5 C 98.1667,97.5 98.8333,97.5 99.5,97.5C 100.261,98.3909 101.261,99.0576 102.5,99.5C 104.052,103.928 102.386,105.595 97.5,104.5C 95.7868,103.365 95.1201,101.698 95.5,99.5C 96.5,99.1667 97.1667,98.5 97.5,97.5 Z"/></g>
<g><path style="opacity:1" fill="#f5be5a" d="M 99.5,97.5 C 103.5,97.5 107.5,97.5 111.5,97.5C 111.5,98.8333 111.5,100.167 111.5,101.5C 111.5,102.833 111.5,104.167 111.5,105.5C 106.637,105.819 101.97,105.486 97.5,104.5C 102.386,105.595 104.052,103.928 102.5,99.5C 101.261,99.0576 100.261,98.3909 99.5,97.5 Z"/></g>
<g><path style="opacity:1" fill="#e4c68f" d="M 97.5,97.5 C 102.305,96.5128 107.305,96.1795 112.5,96.5C 112.784,98.4147 112.451,100.081 111.5,101.5C 111.5,100.167 111.5,98.8333 111.5,97.5C 107.5,97.5 103.5,97.5 99.5,97.5C 98.8333,97.5 98.1667,97.5 97.5,97.5 Z"/></g>
<g><path style="opacity:1" fill="#cd5a82" d="M 55.5,138.5 C 55.8383,142.151 54.1716,143.817 50.5,143.5C 50.5,148.833 50.5,154.167 50.5,159.5C 50.1667,159.5 49.8333,159.5 49.5,159.5C 49.5,153.5 49.5,147.5 49.5,141.5C 51.1667,141.5 52.8333,141.5 54.5,141.5C 54.2627,140.209 54.596,139.209 55.5,138.5 Z"/></g>
<g><path style="opacity:1" fill="#e43971" d="M 66.5,90.5 C 66.5,102.833 66.5,115.167 66.5,127.5C 66.6237,134.521 66.2904,141.521 65.5,148.5C 65.8333,150.167 66.1667,151.833 66.5,153.5C 67.487,150.232 67.8204,146.898 67.5,143.5C 68.5,143.5 69.5,143.5 70.5,143.5C 68.9463,151.371 68.113,159.371 68,167.5C 67.6667,168.167 67.3333,168.833 67,169.5C 66.8236,166.118 66.3236,162.785 65.5,159.5C 65.1667,161.167 64.8333,162.833 64.5,164.5C 65.9042,168.844 67.2375,173.177 68.5,177.5C 67.7677,178.808 66.9344,180.142 66,181.5C 65.9977,178.949 65.1644,176.949 63.5,175.5C 62.8111,160.513 62.3111,145.513 62,130.5C 60.971,137.539 59.8044,144.539 58.5,151.5C 57.7674,160.358 56.934,169.358 56,178.5C 55.6667,179.167 55.3333,179.833 55,180.5C 55.0533,177.325 54.22,174.658 52.5,172.5C 51.5755,168.21 50.9088,163.876 50.5,159.5C 50.5,154.167 50.5,148.833 50.5,143.5C 54.1716,143.817 55.8383,142.151 55.5,138.5C 55.7038,135.482 56.0371,132.482 56.5,129.5C 58.275,125.614 59.1084,121.28 59,116.5C 60.1341,115.575 61.3008,114.575 62.5,113.5C 60.5199,107.651 60.0199,101.651 61,95.5C 61.3404,99.5577 62.0071,103.558 63,107.5C 64.4602,97.158 64.6269,86.8246 63.5,76.5C 64.5,76.5 65.5,76.5 66.5,76.5C 66.5,81.1667 66.5,85.8333 66.5,90.5 Z"/></g>
<g><path style="opacity:1" fill="#ca4d72" d="M 58.5,151.5 C 58.9134,162.591 58.2467,173.591 56.5,184.5C 55.209,184.737 54.209,184.404 53.5,183.5C 53.577,179.785 53.2436,176.119 52.5,172.5C 54.22,174.658 55.0533,177.325 55,180.5C 55.3333,179.833 55.6667,179.167 56,178.5C 56.934,169.358 57.7674,160.358 58.5,151.5 Z"/></g>
<g><path style="opacity:1" fill="#dc396f" d="M 66.5,127.5 C 67.4872,132.305 67.8205,137.305 67.5,142.5C 69.4147,142.216 71.0813,142.549 72.5,143.5C 70.8916,154.077 70.0582,164.744 70,175.5C 69.7216,176.416 69.2216,177.082 68.5,177.5C 67.2375,173.177 65.9042,168.844 64.5,164.5C 64.8333,162.833 65.1667,161.167 65.5,159.5C 66.3236,162.785 66.8236,166.118 67,169.5C 67.3333,168.833 67.6667,168.167 68,167.5C 68.113,159.371 68.9463,151.371 70.5,143.5C 69.5,143.5 68.5,143.5 67.5,143.5C 67.8204,146.898 67.487,150.232 66.5,153.5C 66.1667,151.833 65.8333,150.167 65.5,148.5C 66.2904,141.521 66.6237,134.521 66.5,127.5 Z"/></g>
<g><path style="opacity:1" fill="#d14d76" d="M 63.5,175.5 C 65.1644,176.949 65.9977,178.949 66,181.5C 66.9344,180.142 67.7677,178.808 68.5,177.5C 68.3259,179.861 67.9926,182.194 67.5,184.5C 66.1667,184.5 64.8333,184.5 63.5,184.5C 63.5,181.5 63.5,178.5 63.5,175.5 Z"/></g>
<g><path style="opacity:1" fill="#16100f" d="M 53.5,183.5 C 54.209,184.404 55.209,184.737 56.5,184.5C 55.4665,188.317 53.1332,189.317 49.5,187.5C 51.2156,186.451 52.5489,185.118 53.5,183.5 Z"/></g>
<g><path style="opacity:1" fill="#2d2829" d="M 63.5,184.5 C 64.8333,184.5 66.1667,184.5 67.5,184.5C 67.5,186.167 67.5,187.833 67.5,189.5C 63.0706,190.083 61.7372,188.416 63.5,184.5 Z"/></g>
</svg>
